<svg width="42" height="42" viewBox="0 0 42 42" fill="none" xmlns="http://www.w3.org/2000/svg">
<g clip-path="url(#clip0_7383_13538)">
<path d="M20.9999 40.9999C32.0456 40.9999 40.9998 32.0456 40.9998 21C40.9998 9.95433 32.0456 1.00006 20.9999 1.00006C9.95427 1.00006 1 9.95433 1 21C1 32.0456 9.95427 40.9999 20.9999 40.9999Z" fill="#F0F0F0"/>
<path d="M20.9999 1.00012C14.4568 1.00012 8.64785 4.14254 4.99902 9.00012H37.0007C33.3519 4.14247 27.5429 1.00012 20.9999 1.00012Z" fill="#0052B4"/>
<path d="M20.9999 40.9999C27.543 40.9999 33.3519 37.8575 37.0007 32.9999H4.99902C8.64777 37.8575 14.4568 40.9999 20.9999 40.9999Z" fill="#0052B4"/>
<path d="M1 21.0001C1 22.37 1.13812 23.7076 1.40055 25.0001H40.5995C40.862 23.7076 41 22.37 41 21.0001C41 19.6301 40.8619 18.2925 40.5995 17.0001H1.40055C1.13812 18.2925 1 19.6301 1 21.0001Z" fill="#0052B4"/>
<path d="M6.85779 6.85797C-0.952597 14.6684 -0.952597 27.3317 6.85779 35.1423C10.0854 31.9147 13.1894 28.8106 20.9999 21.0002L6.85779 6.85797Z" fill="#D80027"/>
<path d="M9.09475 15.7827L10.3896 19.7683H14.5807L11.1903 22.2317L12.4851 26.2174L9.09475 23.7541L5.7042 26.2174L6.99936 22.2317L3.60889 19.7683H7.79967L9.09475 15.7827Z" fill="#F0F0F0"/>
</g>
<rect x="0.5" y="0.5" width="41" height="41" stroke="#F2F3F4"/>
<defs>
<clipPath id="clip0_7383_13538">
<rect x="1" y="1" width="40" height="40" fill="white"/>
</clipPath>
</defs>
</svg>
