<svg width="42" height="42" viewBox="0 0 42 42" fill="none" xmlns="http://www.w3.org/2000/svg">
<g clip-path="url(#clip0_7383_13536)">
<mask id="mask0_7383_13536" style="mask-type:alpha" maskUnits="userSpaceOnUse" x="1" y="1" width="40" height="40">
<circle cx="21" cy="21" r="20" fill="#D9D9D9"/>
</mask>
<g mask="url(#mask0_7383_13536)">
<path d="M41.8209 41H-8.39119C-11.0927 41 -13.2852 39.0522 -13.2852 36.6522V5.34783C-13.2852 2.94783 -11.0927 1 -8.39119 1H41.8209C44.5224 1 46.7148 2.94783 46.7148 5.34783V36.6522C46.7148 39.0565 44.5224 41 41.8209 41Z" fill="#0084C7"/>
<path d="M26.8489 17.3452L26.8317 17.3509C26.6945 17.4024 26.6545 17.5739 26.746 17.6882L27.3177 18.3799L27.7064 18.0484L27.0833 17.3967C27.0532 17.3666 27.0151 17.3458 26.9736 17.3367C26.9321 17.3276 26.8888 17.3305 26.8489 17.3452ZM17.5708 28.2927L16.0674 27.5095C15.9359 27.4409 15.7815 27.4009 15.6329 27.4009H15.1984C15.1592 27.3999 15.1215 27.385 15.0922 27.3588C15.0629 27.3326 15.0438 27.2969 15.0384 27.2579C14.9926 26.7777 14.5868 26.4061 14.1066 26.4061H13.9694C13.6778 26.4061 13.4034 26.2689 13.2262 26.0346L13.0204 25.7602C12.8604 25.5486 12.6203 25.4172 12.3573 25.3943L11.2368 25.2971C11.2094 25.2968 11.1831 25.2867 11.1625 25.2685L10.9796 25.1428C10.9281 25.1085 10.8653 25.1027 10.8138 25.137L10.0135 25.5887C9.87057 25.6687 9.71622 25.7087 9.55044 25.7087H8.72725C8.69866 25.7087 8.6758 25.703 8.65293 25.6916C8.56147 25.6401 8.34995 25.48 8.34995 25.1256V24.6511C8.34995 24.6301 8.34581 24.6093 8.33777 24.5899C8.32972 24.5704 8.31793 24.5528 8.30307 24.5379C8.28821 24.5231 8.27056 24.5113 8.25114 24.5032C8.23172 24.4952 8.21091 24.4911 8.18989 24.4911H7.66967C7.6417 24.4908 7.61428 24.4832 7.59014 24.4691C7.566 24.4549 7.546 24.4347 7.53212 24.4104C7.51824 24.3861 7.51097 24.3586 7.51103 24.3306C7.51109 24.3027 7.51849 24.2752 7.53248 24.251L7.77829 23.8222C7.78972 23.7993 7.80116 23.7708 7.80116 23.7422V23.3649C7.80116 23.3224 7.78429 23.2817 7.75427 23.2517C7.72426 23.2217 7.68354 23.2048 7.64109 23.2048H7.35526C7.30381 23.2048 7.25236 23.2334 7.22378 23.2791L7.06371 23.5307C6.89222 23.7993 6.59495 23.9594 6.27482 23.9594H6.04616C6.04616 23.9594 5.67458 23.8908 5.67458 23.4964V22.0615C5.6803 22.0157 5.7146 21.8728 5.86894 21.7756C6.00614 21.6899 6.32627 21.5184 6.48634 21.4326C6.5435 21.404 6.61782 21.4098 6.66927 21.4555L6.97225 21.7356C7.00083 21.7642 7.03513 21.7756 7.07515 21.7756C7.17233 21.7756 7.34954 21.7814 7.38384 21.7642C7.42958 21.7413 7.31525 21.5355 7.58964 21.4498C7.86976 21.3697 8.05269 21.6213 8.05269 21.6213L8.76155 22.4616C8.813 22.5245 8.90446 22.536 8.97306 22.4902L9.07596 22.4216C9.14456 22.3759 9.16743 22.2844 9.12741 22.2101L9.11598 22.1872C8.88731 21.7928 8.97306 21.2897 9.32177 20.9982L9.91059 20.5008C9.91059 20.5008 9.97918 20.4551 10.0135 20.1978C10.0364 20.0435 10.0764 19.8148 10.1049 19.6547C10.1678 19.5518 10.2193 19.4547 10.2822 19.3518L11.5513 18.2827C11.6256 18.2199 11.7342 18.237 11.7856 18.317C11.8485 18.4085 11.9514 18.5114 12.0829 18.5057C12.283 18.4943 12.7803 18.2256 12.9747 18.1112C12.9992 18.0978 13.0196 18.0779 13.0337 18.0537C13.0478 18.0296 13.0551 18.002 13.0547 17.974V17.774L12.443 17.8997C12.3573 17.9169 12.2715 17.8597 12.2544 17.7682L12.1858 17.3681C12.1792 17.3317 12.1602 17.2987 12.1321 17.2748C12.104 17.2508 12.0684 17.2373 12.0314 17.2366L11.4198 17.3052L11.4941 17.1222C11.517 17.0594 11.5741 17.0194 11.6427 17.0079L13.1519 16.8478C13.2891 16.7907 13.4949 16.7106 13.6321 16.6535L13.9351 16.4191C14.0094 16.3619 14.0151 16.2533 13.9522 16.1847L12.2544 14.4468C12.2308 14.4235 12.2008 14.4077 12.1682 14.4016C12.1356 14.3955 12.1019 14.3993 12.0715 14.4125L11.5627 14.6526C11.5112 14.6755 11.4484 14.6698 11.4026 14.6412L9.99633 13.6522C9.97987 13.6401 9.96116 13.6313 9.94128 13.6264C9.9214 13.6216 9.90075 13.6207 9.88054 13.6239C9.86032 13.6271 9.84095 13.6343 9.82353 13.645C9.80612 13.6558 9.79101 13.6699 9.7791 13.6865L9.56187 13.9838C9.54472 14.0067 9.53329 14.0352 9.53329 14.0695L9.49327 14.807C9.49327 14.8527 9.50471 14.8927 9.53901 14.927L9.7448 15.1386C9.8134 15.2072 9.80197 15.3215 9.72194 15.3787L9.41896 15.5959C9.39861 15.6107 9.37506 15.6204 9.35023 15.6244C9.3254 15.6284 9.29999 15.6264 9.27604 15.6188L8.59005 15.7331C8.49287 15.4758 8.28135 15.2758 8.01839 15.1843L7.67539 15.0642C7.05228 14.8527 6.84077 14.081 7.25808 13.5779L7.92692 12.7719C7.94412 12.7494 7.95568 12.7231 7.96066 12.6953C7.96563 12.6674 7.96386 12.6388 7.95551 12.6118L7.76686 12.1259L7.73256 12.0744L6.97797 11.2684C6.6807 10.9539 6.14906 11.114 6.08046 11.5428L6.07474 11.5885C6.03473 11.84 5.81178 12.0287 5.56025 12.0287H3.31362C3.18785 12.0001 3.06209 11.9772 2.93061 11.9487L1.39284 11.2626C1.28422 11.2341 1.18133 11.2112 1.07271 11.1826L-0.339293 11.0911C-0.470774 11.114 -0.602256 11.1312 -0.733738 11.154L-1.36828 11.3998C-1.53978 11.4627 -1.72271 11.4799 -1.89993 11.4399L-5.03834 10.771C-5.22699 10.731 -5.42707 10.7481 -5.60429 10.8282L-7.08489 11.4627C-7.1935 11.5085 -7.21637 11.6514 -7.12491 11.7314L-6.73618 12.0573C-6.62756 12.1487 -6.69044 12.3317 -6.83336 12.3374L-7.41645 12.3488C-7.5022 12.3488 -7.5708 12.4231 -7.5708 12.5089V12.5889C-7.5708 12.6747 -7.5022 12.7433 -7.41645 12.749L-6.91339 12.7547C-6.74189 12.7604 -6.69616 12.9891 -6.85051 13.0577L-7.28497 13.2521C-7.34785 13.2806 -7.38215 13.3435 -7.37644 13.4121L-7.33642 13.8466C-7.2964 14.2753 -6.97627 14.6183 -6.54753 14.6869L-6.23883 14.7384C-6.0902 14.7613 -6.0559 14.9556 -6.18167 15.0299L-6.27885 15.0871C-6.38175 15.15 -6.38175 15.2986 -6.27885 15.3558L-6.2274 15.3844C-6.18167 15.413 -6.13022 15.413 -6.07877 15.3958L-3.43198 14.201C-3.08898 14.0467 -2.68882 14.1096 -2.41442 14.3668L0.106603 16.6706C0.289535 16.8364 0.398149 17.0708 0.409583 17.3166L0.495333 19.0774C0.506766 19.2774 0.575365 19.4661 0.70113 19.6204L3.18214 22.7075C3.22787 22.7646 3.3079 22.7818 3.3765 22.7475C3.46225 22.7017 3.49084 22.5931 3.43367 22.5131C3.43367 22.5131 5.00002 24.1366 5.14865 24.2052L6.41774 24.8341C6.54922 24.8969 6.68642 24.9312 6.83505 24.9312H7.46388C7.52676 24.9312 7.58393 24.9655 7.60679 25.0227L7.81831 25.48C7.81831 25.4858 7.82402 25.4858 7.82402 25.4915C7.86404 25.5544 8.18989 26.1089 8.5386 26.1317C8.91018 26.1546 9.57902 26.1317 9.57902 26.1317C9.57902 26.1317 9.81912 26.126 9.81912 26.389V26.7892C9.81912 26.8463 9.79053 26.8978 9.73909 26.9264C9.53329 27.0407 9.00165 27.378 9.00165 27.761V28.6585C9.00165 28.6985 9.01308 28.7328 9.03594 28.7614C9.10454 28.8415 9.25318 29.013 9.37894 29.1159C9.51614 29.2245 9.75624 29.5046 9.85342 29.6132C9.87629 29.6418 9.88772 29.6761 9.88772 29.7161V30.2306C9.89344 30.2478 9.89344 30.2706 9.89915 30.2878C9.92774 30.3564 10.0021 30.5279 10.1335 30.5908C10.2136 30.6308 10.4136 30.7908 10.5966 30.9509C10.8252 31.1453 10.9453 31.4368 10.9224 31.7398L10.8081 33.2033C10.7967 33.2605 10.7909 33.3176 10.7795 33.3748L10.2707 35.2842C10.2593 35.3985 10.2536 35.5071 10.2421 35.6214L10.2936 36.4046C10.305 36.5418 10.2936 36.679 10.2479 36.8105L10.0592 37.3422C10.0021 37.5137 9.99062 37.6966 10.0306 37.8738L10.2707 38.8628C10.2993 38.9771 10.3622 39.08 10.4594 39.1544L10.7052 39.3487C10.7967 39.423 10.9339 39.5259 11.031 39.4573C11.5055 39.1315 11.677 37.8167 11.8828 37.325C11.9857 37.0735 13.5063 35.0898 13.5006 34.8211L13.4892 34.4381C13.4892 34.3466 13.5578 34.278 13.6492 34.278H14.1352C14.1809 34.278 14.2209 34.2609 14.2495 34.2266L15.3871 32.9803C15.4157 32.9518 15.4271 32.9117 15.4271 32.8717V32.3629C15.4271 32.2715 15.5014 32.2029 15.5929 32.2029C15.7873 32.2143 16.1074 32.2143 16.216 32.1228C16.3532 32.0085 16.7648 31.5283 16.8963 31.3797C16.9191 31.3511 16.9363 31.3168 16.9363 31.2768V30.4707C16.9363 30.2363 17.022 30.0134 17.1821 29.8362L17.7538 29.2073C17.9138 29.0358 17.9539 28.7786 17.8395 28.5499C17.7824 28.4413 17.6852 28.3498 17.5708 28.2927Z" fill="#CCDE51"/>
<path d="M57.0282 10.2222H55.4275C55.3475 10.2222 55.2789 10.1708 55.256 10.0965L53.724 9.80491C53.5925 9.80491 53.461 9.76489 53.3467 9.69058L52.998 9.45619C52.8836 9.38188 52.7522 9.34186 52.6207 9.34186C52.6207 9.34186 49.0535 7.51824 44.383 7.69546C42.628 7.76406 41.0846 8.63871 41.0846 8.63871C41.0388 8.65586 41.0045 8.70159 40.9988 8.74733L40.9817 8.89024C40.9702 8.95884 40.9131 9.01029 40.8387 9.01029L40.1356 8.99314C40.0556 8.99314 39.9927 9.05603 39.9927 9.13034L38.0262 9.19894C37.8547 9.19894 37.6946 9.28469 37.5974 9.42189L37.4202 9.67915C37.2887 9.8678 35.528 9.93068 35.528 9.93068C35.4824 9.91075 35.4435 9.878 35.4161 9.83639C35.3887 9.79478 35.3739 9.74611 35.3737 9.6963V9.49049C35.3737 9.41618 35.4022 9.3533 35.4594 9.30184L36.3969 8.45577C36.4998 8.36431 36.6313 8.30142 36.7685 8.28427L37.3516 8.20996C37.3856 8.20513 37.4183 8.19353 37.4478 8.17586C37.4772 8.15818 37.5028 8.13479 37.5231 8.10706L37.5917 8.00416C37.6889 7.86696 37.626 7.67831 37.4717 7.62114L37.4316 7.60399C37.398 7.59248 37.3624 7.58806 37.3269 7.59101C37.2915 7.59396 37.2571 7.60422 37.2258 7.62114L36.78 7.87839C36.7399 7.90126 36.6999 7.91269 36.6542 7.91269H36.2197C36.0368 7.91269 35.8653 7.98701 35.7338 8.11849L34.6877 9.18751C34.5962 9.27898 34.5333 9.39903 34.5047 9.5248L34.4076 9.99356L34.4762 10.1936L34.0646 10.7653L33.693 11.1369H33.3443V10.7653H32.927L32.8069 11.2341C32.7497 11.4513 32.5954 11.6228 32.3896 11.7029L32.0409 11.8343C31.8179 11.9201 31.5607 11.8801 31.372 11.7257L30.9204 11.3599L32.1381 11.4227L32.2753 11.1598C32.2753 11.1598 31.0005 10.5709 30.263 10.1536C29.6628 9.81635 28.8739 10.1022 28.5995 10.2222C28.5309 10.2508 28.4737 10.2908 28.4223 10.3366L25.764 12.7319C25.4782 12.9891 25.4611 13.4407 25.7355 13.7151L25.987 13.9724L26.3414 13.6808C26.4386 13.6008 26.5758 13.6065 26.6673 13.6923L27.3304 14.3097H27.5019L28.1307 13.5665C28.205 13.475 28.2108 13.3493 28.1364 13.2578L28.0564 13.1492C28.026 13.1095 28.0082 13.0616 28.0051 13.0117C28.0021 12.9618 28.014 12.9122 28.0393 12.8691L28.9139 11.4513C28.9596 11.377 29.0568 11.3484 29.1368 11.3827L29.2912 11.457C29.3827 11.497 29.417 11.6057 29.3712 11.6971L28.771 12.8348C28.6967 12.972 28.6852 13.132 28.731 13.2749L28.8281 13.5779C28.8739 13.7952 28.8339 14.0238 28.7024 14.1953L28.3251 14.7041C28.1936 14.8813 27.9764 14.9842 27.7534 14.9785L26.6616 14.9385C26.6115 14.9356 26.5643 14.9141 26.5293 14.8781C26.4944 14.8421 26.4743 14.7943 26.4729 14.7441V14.5669C26.4729 14.4583 26.3872 14.3725 26.2785 14.3725C26.1814 14.3725 26.0956 14.4469 26.0842 14.5498L26.0556 14.8642C26.0442 14.9614 25.9641 15.0414 25.8612 15.0414H25.7583C25.7069 15.0414 25.6611 15.0585 25.6268 15.0928L23.8547 16.7278L24.1119 17.0994V17.4939C24.1119 17.6253 24.0033 17.734 23.8718 17.734H23.3059C23.0029 17.734 22.7628 17.9912 22.78 18.2942L22.7857 18.3685C22.8028 18.6372 23.0201 18.8487 23.2945 18.8601L23.9004 18.8773C24.1291 18.883 24.3406 18.7801 24.4778 18.5915L24.9123 17.9798C25.038 17.8026 25.2438 17.6939 25.4668 17.6939H25.8841C26.0213 17.6939 26.1585 17.734 26.2728 17.814L26.9417 18.2828C27.0732 18.3742 27.0846 18.5686 26.9588 18.6715L26.5815 18.9973C26.4558 19.106 26.3014 19.1631 26.1356 19.1631H23.7804C23.5689 19.1631 23.3631 19.266 23.2373 19.4375L21.4194 21.8671C21.3337 21.9872 21.2822 22.1301 21.2822 22.273V23.8851C21.2822 24.0337 21.328 24.1767 21.4194 24.2967L22.054 25.1371C22.1054 25.2057 22.1397 25.2914 22.1683 25.3714C22.2083 25.5086 22.3226 25.7087 22.597 25.7087H25.5354C25.5354 25.7087 26.2728 25.7316 26.2728 26.2175C26.2728 26.389 26.2671 26.5605 26.2614 26.7092C26.25 26.9721 26.3872 27.2065 26.6158 27.338C26.8216 27.458 27.0389 27.6638 27.0389 27.9954V28.8872C27.0389 28.9558 27.0274 29.0244 27.0103 29.093C26.9588 29.2588 26.8388 29.5961 26.673 29.8476C26.5186 30.0763 26.7359 30.4193 26.8959 30.6194C26.9931 30.7451 27.0446 30.8995 27.0446 31.0538V31.9399C27.0446 31.9399 27.1132 32.2658 27.4219 32.403C27.7306 32.5402 27.8392 32.6202 27.8392 32.6202V32.9746C27.8392 33.3519 28.1422 33.6549 28.5195 33.6549H29.4112C29.4112 33.6549 29.8114 33.6835 30.0744 33.2833C30.3373 32.8832 31.2749 31.4311 31.2749 31.4311C31.2749 31.4311 31.4464 31.2482 31.2749 30.9223C31.1034 30.5965 31.1834 30.3049 31.1834 30.3049L32.0009 29.8362C32.0009 29.8362 32.3839 29.7733 32.3839 29.2416V28.6643C32.3839 28.5728 32.361 28.4813 32.3096 28.4013L32.1666 28.1612C32.0123 27.8982 32.0523 27.5724 32.2581 27.3494L33.9502 25.5544C33.9502 25.5544 34.3961 24.8912 34.3961 24.554H33.0985C32.8584 24.554 32.6411 24.4282 32.5154 24.2281L31.0348 21.7871C31.0087 21.7443 30.9917 21.6967 30.9849 21.6471C30.978 21.5975 30.9813 21.5471 30.9947 21.4989C31.0081 21.4506 31.0313 21.4057 31.0627 21.3668C31.0942 21.3278 31.1333 21.2958 31.1777 21.2726C31.3492 21.1811 31.5607 21.244 31.6579 21.4041L33.0927 23.7422L33.087 23.9537C33.087 24.0223 33.1385 24.0738 33.2071 24.0738C33.5615 24.0738 34.6076 24.0337 35.1907 23.525C35.4994 23.2563 35.6881 22.9819 35.8024 22.7532C35.9396 22.4788 35.871 22.1472 35.6423 21.9472L35.2765 21.627L34.802 21.7299L33.9617 20.8896C33.8359 20.7638 33.8702 20.5466 34.0303 20.4665C34.0749 20.4442 34.1249 20.4351 34.1745 20.4402C34.2241 20.4452 34.2712 20.4643 34.3104 20.4951L35.6252 21.5012C35.6252 21.5012 35.8939 21.7413 36.1683 21.7413H36.94C37.1801 21.7413 37.4031 21.8671 37.5231 22.0729L39.2438 24.9656C39.2438 24.9656 39.5011 25.2057 39.6497 25.1942C39.7983 25.1828 39.9984 24.5597 39.9984 24.5597C39.9984 23.9823 40.2785 23.4335 40.753 23.1019L41.3475 22.6846C41.6162 22.496 41.9763 22.5245 42.2107 22.7475L42.5766 23.1019V23.4792C42.5766 23.5421 42.628 23.5993 42.6966 23.5993H42.8567L43.0111 23.4449H43.194V24.9656C43.194 25.1371 43.2569 25.3028 43.3769 25.4286L44.5202 26.652V26.2118C44.5202 26.0574 44.4688 25.9088 44.3716 25.7888L43.8342 25.1199C43.7371 24.9999 43.6856 24.8512 43.6856 24.6969V24.2338C43.6856 24.1595 43.7771 24.1252 43.8285 24.1767L44.5202 24.8855L44.5374 25.3314C44.5431 25.4172 44.646 25.4572 44.7032 25.3943L45.6807 24.3367C45.6807 24.3367 45.9665 23.9823 45.6807 23.6907C45.4749 23.4792 45.1891 23.2105 45.0062 23.039C44.9833 23.0181 44.9653 22.9925 44.9533 22.9639C44.9413 22.9353 44.9357 22.9045 44.9367 22.8735C44.9378 22.8425 44.9456 22.8121 44.9596 22.7845C44.9735 22.7568 44.9933 22.7325 45.0176 22.7132L45.2062 22.5531L45.9723 22.5646C45.9723 22.5646 46.4753 22.5703 46.8526 22.1815C47.3157 21.707 47.9959 20.9582 47.9959 20.9582C47.9959 20.9582 48.1331 20.4265 47.813 20.1464C47.4872 19.8663 47.6301 19.5233 47.6301 19.5233L48.0302 19.1746V18.9287H46.9841C46.9841 18.9287 47.0756 18.3742 47.8187 18.3399C47.9159 18.3342 48.0074 18.3342 48.0817 18.3285C48.1578 18.3266 48.2336 18.34 48.3044 18.3679C48.3753 18.3958 48.4398 18.4376 48.4942 18.4909C48.5486 18.5443 48.5917 18.608 48.621 18.6782C48.6503 18.7485 48.6652 18.824 48.6648 18.9002V19.9292L48.8191 19.9463C48.8191 19.9463 49.1107 19.9749 49.2193 19.5919C49.2193 19.5919 49.4137 19.5347 49.4137 19.3003V19.0202L49.1335 18.6829L49.5909 18.0998C49.6709 17.9969 49.7852 17.9283 49.911 17.9055L50.1454 17.8597C50.2846 17.8335 50.4079 17.7534 50.4884 17.6368L51.546 16.0532C51.6203 15.9389 51.6603 15.8074 51.6603 15.6759V15.2415C51.6603 15.1854 51.638 15.1316 51.5983 15.0919C51.5587 15.0522 51.5049 15.03 51.4488 15.03H50.8314C50.8314 15.03 50.5741 14.727 50.9228 14.5212C51.1687 14.3725 51.6488 13.9781 51.9175 13.7551C52.0376 13.6522 52.1919 13.5951 52.352 13.5951H53.5982C53.7411 13.5951 53.8783 13.5493 53.9927 13.4693L54.8101 12.8862C54.8398 12.8639 54.8759 12.8519 54.913 12.8519C55.2675 12.8519 55.4504 13.2749 55.2103 13.5379L54.3642 14.4469C54.2499 14.5669 54.1813 14.7327 54.1813 14.8985L54.1699 15.6302C54.1699 15.7674 54.2785 15.8817 54.4214 15.8817H54.6272L55.7362 14.7498C55.8105 14.6755 55.862 14.5726 55.8791 14.4697L55.9192 14.2296C55.9763 13.9038 56.2564 13.6637 56.588 13.6637H57.0739C57.2397 13.6637 57.3998 13.6065 57.5198 13.4979L58.2001 12.9034C58.2344 12.8748 58.2744 12.8576 58.3201 12.8576H58.6746C58.7775 12.8576 58.8575 12.7776 58.8575 12.6747V12.3317C58.8575 12.2802 58.8804 12.2345 58.9147 12.2002L59.1776 11.9544C59.3891 11.76 59.6978 11.7143 59.9551 11.8515L60.401 12.0859C60.5096 12.143 60.6468 12.1145 60.7268 12.0173L60.9441 11.7429C60.9685 11.712 60.9858 11.676 60.9945 11.6376C61.0032 11.5991 61.0032 11.5592 60.9944 11.5208C60.9856 11.4824 60.9683 11.4464 60.9438 11.4156C60.9192 11.3848 60.8881 11.3599 60.8526 11.3427L58.6974 10.2851C58.5831 10.2451 57.1311 10.2222 57.0282 10.2222ZM26.8331 17.3567L26.8502 17.3509C26.8899 17.3348 26.9335 17.331 26.9754 17.3402C27.0173 17.3494 27.0553 17.3711 27.0846 17.4024L27.7077 18.0541L27.319 18.3857L26.7473 17.6939C26.6558 17.5796 26.6959 17.4081 26.8331 17.3567ZM30.5546 20.4722H30.2059C30.1601 20.4722 30.1144 20.4665 30.0687 20.4551C29.6914 20.3522 27.8049 19.8263 27.4562 19.6662C27.4175 19.6491 27.3836 19.6229 27.3571 19.59C27.3306 19.557 27.3125 19.5182 27.3041 19.4768C27.2957 19.4354 27.2973 19.3926 27.3088 19.3519C27.3204 19.3113 27.3415 19.274 27.3704 19.2432L27.8392 18.7458C27.9992 18.6029 28.2508 18.6143 28.3994 18.7687L28.8281 19.2203L29.1997 19.1517L29.0968 18.883C29.0968 18.883 29.0511 18.7572 29.0054 18.6429C28.9596 18.5286 29.2112 18.3857 29.2112 18.3857C29.2112 18.3857 29.4684 18.3628 29.4684 18.7572C29.4684 19.1517 29.8857 19.449 29.8857 19.449H31.3092C31.4006 19.449 31.4578 19.5461 31.4121 19.6205L31.1605 20.1007C31.0405 20.3293 30.8061 20.4722 30.5546 20.4722ZM32.3439 18.3399H31.858L31.5035 18.0655C31.4634 18.0369 31.4156 18.0209 31.3663 18.0198H30.9033C30.8347 18.0198 30.7661 18.0484 30.7146 18.0941L30.3773 18.3914L30.0458 18.4428C30.0149 18.4482 29.9833 18.4472 29.9528 18.4399C29.9223 18.4326 29.8936 18.4192 29.8685 18.4005C29.8433 18.3818 29.8223 18.3581 29.8066 18.331C29.7909 18.3039 29.7808 18.2739 29.7771 18.2427L29.7314 17.8769C29.7199 17.7683 29.7542 17.6654 29.8228 17.5853L30.3716 16.9679L30.6174 16.9508L30.606 17.0594C30.5889 17.1909 30.6918 17.3052 30.8232 17.3052H30.9433C31.0633 17.3052 31.172 17.2366 31.2177 17.128L31.332 16.8822L31.8408 16.9679L31.8865 17.3338C31.898 17.4138 31.938 17.4881 32.0009 17.5396L32.5668 18.0141V18.117C32.5668 18.2427 32.4696 18.3399 32.3439 18.3399ZM34.802 18.7344V19.1517H33.9216L33.8473 18.7344C33.8359 18.6772 33.8473 18.6143 33.8816 18.5686L33.9274 18.5057C33.9902 18.4142 33.9788 18.2885 33.8931 18.2142L33.4815 17.8369V17.1451L34.0817 16.8879H34.3904C34.5105 16.8879 34.6134 16.9679 34.6477 17.0823L34.6534 17.0994C34.6762 17.1852 34.6534 17.2709 34.5962 17.3395C34.563 17.3764 34.5412 17.422 34.5333 17.471L34.4762 17.8311L34.9621 18.277L34.6134 18.5057L34.802 18.7344Z" fill="#CCDE51"/>
<path d="M46.8002 27.075L47.1146 26.509C47.1718 26.4061 47.1946 26.2918 47.1889 26.1775L47.1375 25.5772C47.126 25.4343 46.9545 25.36 46.8459 25.4571L45.9656 26.2003C45.9418 26.2188 45.9146 26.2324 45.8855 26.2403L45.4911 26.3147C45.3882 26.3318 45.3253 26.4347 45.3482 26.5319L45.4282 26.8577C45.4527 26.9555 45.5026 27.0451 45.5729 27.1174C45.6432 27.1897 45.7313 27.2421 45.8284 27.2693L46.1313 27.3551C46.3943 27.4294 46.6687 27.3151 46.8002 27.075ZM51.5678 28.407C51.6536 28.407 51.7393 28.3898 51.8194 28.3498L52.4253 28.0582C52.431 28.0582 52.431 28.0582 52.4368 28.064L52.8827 28.6128C52.9055 28.6413 52.9398 28.6585 52.9798 28.6585H53.2771C53.38 28.6585 53.4372 28.5442 53.3743 28.4641L52.9112 27.8639L52.7112 27.6981L51.0762 26.8863H51.0705L50.6818 27.0407H50.3845C50.3788 27.0407 50.3788 27.0407 50.3788 27.035L50.2702 26.6805C50.2629 26.6574 50.2484 26.6372 50.2289 26.6228C50.2094 26.6084 50.1858 26.6006 50.1615 26.6005H49.7614C49.7464 26.6005 49.7315 26.6034 49.7176 26.6092C49.7038 26.6149 49.6912 26.6234 49.6805 26.634C49.6699 26.6446 49.6615 26.6572 49.6558 26.6711C49.65 26.6849 49.6471 26.6998 49.6471 26.7148V27.0635H49.9043V27.1664C49.9043 27.2922 50.0015 27.4008 50.1273 27.418L50.7103 27.4866C50.7103 27.4866 50.7161 27.4866 50.7161 27.4923L51.0305 27.881C51.1277 28.0011 51.1105 28.2926 51.0076 28.4127L51.0019 28.4184H51.5678V28.407ZM51.9051 17.3223L51.6993 17.5052C51.4707 17.711 51.3335 17.9912 51.2992 18.2999C51.2706 18.5857 51.1448 18.8487 50.9447 19.0545C50.6532 19.346 50.2873 19.5461 49.8929 19.6319L49.8128 19.649L49.487 19.912C49.487 19.912 49.3955 20.375 49.487 20.4836C49.527 20.5351 49.6985 20.5237 49.75 20.4836C49.8186 20.4322 49.8243 20.1464 49.8243 20.1464L50.859 19.7748C50.859 19.7748 51.1162 20.1121 51.242 20.1292C51.2992 20.1349 51.4249 20.072 51.4592 20.0206C51.5964 19.8319 51.7508 19.1402 51.7508 19.1402C51.8022 18.9859 51.8365 18.8201 51.8537 18.66L51.9108 18.054L52.3739 18.0255L52.5568 17.6539L52.0766 17.6081L51.9051 17.3223ZM32.8288 31.5054C32.8288 31.5054 32.9831 31.8084 33.3547 31.8084C33.7263 31.8084 33.8806 31.5054 33.8806 31.5054V30.0934C33.8806 29.6818 33.429 29.4302 33.0803 29.6475C32.926 29.7447 32.8288 29.9104 32.8288 30.0934V31.5054ZM21.1326 6.89508L21.75 6.53493L21.7614 6.51206C21.7826 6.47038 21.7926 6.42395 21.7906 6.37725C21.7886 6.33056 21.7745 6.28518 21.7498 6.24551C21.7251 6.20584 21.6905 6.17322 21.6495 6.15082C21.6085 6.12841 21.5624 6.11697 21.5156 6.11761H20.1093L19.9607 5.95754C19.7892 5.76317 19.5434 5.64884 19.2861 5.64312L17.1939 5.55737C17.0567 5.58024 16.9195 5.60882 16.7823 5.63169L15.5418 6.15191C15.4389 6.19764 15.3303 6.22051 15.2159 6.22623L13.2265 6.32341C13.0779 6.32913 12.935 6.37486 12.8035 6.44346L11.6888 7.0723C11.6704 7.0827 11.655 7.09755 11.6439 7.11548C11.6328 7.13342 11.6263 7.15386 11.6252 7.17493C11.6241 7.19599 11.6282 7.21701 11.6374 7.23604C11.6465 7.25506 11.6602 7.27149 11.6773 7.28381C11.7631 7.3467 11.7345 7.4839 11.6316 7.50676L10.7627 7.724C10.6769 7.74686 10.6426 7.84405 10.6827 7.91265L10.9742 8.38713C10.9914 8.41572 11.0257 8.43858 11.06 8.4443L12.6206 8.71298C12.8607 8.753 13.0722 8.88448 13.2208 9.07885L14.2956 10.4909L14.61 10.9196C14.7243 11.074 14.7071 11.2855 14.5814 11.4227L14.3413 11.6742C14.227 11.7943 14.2041 11.9715 14.2784 12.1201L15.0616 13.6865C15.1302 13.8294 15.2617 13.9323 15.4103 13.978C15.8962 14.121 16.4107 13.858 16.5822 13.3778L16.788 12.7947C16.8166 12.7089 16.8795 12.6346 16.9595 12.5832L17.8341 11.84C17.9427 11.7485 18.0685 11.6857 18.2 11.6456L19.572 11.2741C19.8635 11.194 20.0979 10.9882 20.2065 10.7081L20.8525 9.10744C20.9497 8.87305 20.944 8.61008 20.8468 8.3757L20.721 8.07843C20.5438 7.64968 20.7153 7.14089 21.1326 6.89508ZM9.6994 8.28423L9.96236 7.82118C10.0538 7.66111 10.1796 7.53535 10.3397 7.4496L12.5005 6.25481L12.2547 5.97469L9.8023 5.82606C9.7337 5.82034 9.65938 5.82606 9.59079 5.83749L7.20124 6.22051C7.05833 6.24338 6.92113 6.29483 6.80108 6.38058C6.32089 6.70643 6.23514 7.381 6.61243 7.82118L7.14979 8.4443C7.33273 8.66153 7.60712 8.78158 7.88724 8.78158H8.84763C9.20206 8.78158 9.5279 8.59293 9.6994 8.28423ZM12.4262 12.6461L12.6492 12.3888C12.7063 12.3202 12.6949 12.2173 12.6206 12.1716L11.9232 11.6799L9.48789 9.87919C9.38499 9.80487 9.26494 9.76485 9.13917 9.76485H8.17878C8.02443 9.76485 7.88152 9.82202 7.7729 9.93064L7.26413 10.4223C7.23636 10.4475 7.2196 10.4825 7.21746 10.52C7.21532 10.5574 7.22798 10.5942 7.25269 10.6224L7.53852 10.9825C7.56711 11.0225 7.61856 11.0454 7.67001 11.0397L7.9444 11.0168C8.03015 11.0111 8.09875 11.074 8.10447 11.154L8.1159 11.3141C8.1159 11.3369 8.1159 11.3598 8.10447 11.3827L7.9787 11.6914C7.95584 11.7428 7.96727 11.8057 8.00157 11.8457L8.30455 12.2002C8.33313 12.2345 8.37886 12.2573 8.4246 12.2516L8.71615 12.2402C8.79618 12.2345 8.85906 12.1716 8.85906 12.0915V11.4684C8.85906 11.3884 8.92194 11.3255 8.99626 11.3198L9.40214 11.2912C9.43644 11.2912 9.47645 11.2969 9.50504 11.3198L10.2482 11.8857C10.3054 11.9315 10.3225 12.0058 10.2939 12.0687L10.0481 12.5603C10.0252 12.606 9.97951 12.6403 9.92235 12.6403L9.68797 12.6575C9.61937 12.6632 9.56792 12.7089 9.55077 12.7718C9.53362 12.8633 9.5965 12.949 9.68797 12.9548L10.191 12.9948C10.2939 13.0005 10.3968 13.0405 10.4826 13.0977L11.3687 13.7151C11.4258 13.7551 11.5001 13.7494 11.5516 13.7036L11.8317 13.4693C11.8546 13.4521 11.8717 13.4235 11.8774 13.3949L11.9689 13.0405C11.9803 13.0005 11.9746 12.9548 11.9517 12.9205L11.6488 12.4517L11.7459 12.4345C11.7802 12.4288 11.8203 12.4345 11.8488 12.4517L12.2376 12.6804C12.2947 12.7147 12.3748 12.7032 12.4262 12.6461ZM1.34172 10.8853V10.3765H1.6447L2.0906 10.9997C2.14776 11.074 2.21636 11.1369 2.30211 11.1826L2.88521 11.4741C2.96524 11.5142 3.0567 11.537 3.14817 11.537H4.95462V10.9368L4.28577 10.7024L3.51403 10.2908C3.41113 10.2908 3.31395 10.2622 3.2282 10.2165L1.99341 9.51332C1.90629 9.46394 1.80772 9.43831 1.70758 9.439H0.964425C0.712894 9.439 0.489946 9.59907 0.409913 9.83917L0.347031 10.0393C0.278432 10.2451 0.335598 10.4794 0.489946 10.6338L0.75291 10.8968H1.34172V10.8853ZM3.90848 9.89062L4.38296 9.6448C4.46299 9.60479 4.55445 9.58192 4.65164 9.58192H4.90888C5.13183 9.58192 5.33763 9.70769 5.43481 9.91349L5.62346 10.3022V10.7024H4.76597V10.1936L4.40582 10.0107L3.97708 10.0221L3.90848 9.89062ZM5.54914 9.58192L5.97789 10.2794L6.31517 10.4794H6.81251L7.30986 9.9535L6.93256 9.46187L5.96646 9.58192H5.54914ZM2.77659 8.51862L3.45115 8.75872C3.49688 8.77587 3.5369 8.79302 3.57691 8.8216L4.04568 9.1303C4.12571 9.18175 4.21146 9.21605 4.30864 9.22177L5.16042 9.30752L5.05752 8.78158L4.03996 8.22135C3.95421 8.17561 3.85703 8.14703 3.75985 8.14703H3.23963L2.77659 8.51862ZM24.4025 12.8176L24.6483 13.2063C24.6712 13.2406 24.6712 13.292 24.6426 13.3263L24.454 13.5836C24.4368 13.6122 24.4254 13.6465 24.4368 13.6751L24.5111 13.9323C24.5168 13.9552 24.5283 13.9723 24.5454 13.9838L24.9399 14.2867C25.2086 14.4925 25.2429 14.887 25.0142 15.1385L25.0085 15.1443C24.8999 15.2643 24.7398 15.3386 24.574 15.3386H24.1053C24.0367 15.3386 23.9852 15.2757 24.0024 15.2071L24.1224 14.7384C24.1281 14.7098 24.151 14.6812 24.1796 14.6698L24.3911 14.5669C24.4311 14.5497 24.454 14.504 24.4482 14.4583L24.4368 14.3325C24.4337 14.3102 24.4238 14.2895 24.4085 14.2731C24.3931 14.2567 24.3731 14.2455 24.3511 14.241L24.0481 14.1781C24.0254 14.1734 24.0017 14.1764 23.981 14.1868C23.9602 14.1972 23.9436 14.2143 23.9338 14.2353L23.8652 14.3839C23.8652 14.3897 23.8594 14.3954 23.8594 14.4011L23.7108 14.9042C23.6994 14.9499 23.6536 14.9785 23.6079 14.9785L23.1334 14.967C23.1061 14.967 23.08 14.9562 23.0607 14.9369C23.0414 14.9176 23.0305 14.8914 23.0305 14.8641V14.3268C23.0305 14.2696 23.0763 14.2239 23.1334 14.2239L23.3792 14.2182C23.4135 14.2182 23.4421 14.201 23.465 14.1724L23.6937 13.8408C23.7051 13.8237 23.7108 13.8008 23.7108 13.778V13.2749C23.7108 13.2406 23.728 13.212 23.7508 13.1949L24.2482 12.7947C24.2939 12.7547 24.3682 12.7661 24.4025 12.8176Z" fill="#CCDE51"/>
<path d="M19.028 12.0058H18.645L18.4049 12.286L19.0623 12.8005C19.1824 12.8976 19.3367 12.9377 19.4911 12.9205L20.2399 12.829V12.3431L20.097 12.0001L19.3196 12.2002L19.028 12.0058ZM26.2424 7.89554H27.2313C27.3514 7.89554 27.4657 7.92984 27.5629 7.99844L28.5862 8.71303L28.449 8.91883L27.5858 8.47864L27.2313 9.12463H26.8483L26.0023 8.06133L26.2424 7.89554ZM28.0545 7.13522H29.3351L29.6609 7.38104L29.3351 7.71833H28.6491C28.5233 7.71833 28.4032 7.67831 28.3061 7.60399L27.9345 7.32959L28.0545 7.13522ZM4.62216 7.47822L5.46822 7.16381L5.96557 7.42106L6.21138 7.88411L5.90268 7.94128L4.97659 8.23283L3.80469 7.68402L4.62216 7.47822ZM6.69729 8.86738H7.06315L7.2518 9.07318H9.20688L9.36695 9.30756L9.26405 9.5248L7.44617 9.58196L7.24037 9.3533L6.93739 9.30756L6.89166 9.11891L6.69729 9.05031V8.86738ZM5.27386 8.90168L5.41677 9.30756L5.78835 9.33615L6.09133 8.98743L5.95985 8.86738L5.41677 8.82165L5.27386 8.90168ZM6.27998 8.40433L6.21138 8.63299L6.49721 8.72446L6.69729 8.56439H6.82306V8.46149L6.57724 8.35859L6.42861 8.30143L6.27998 8.40433ZM8.54947 23.0791L8.9039 22.9247H9.85286L10.5903 23.4792C10.5903 23.4792 10.939 23.525 10.939 23.6164C10.939 23.7079 10.5903 23.7536 10.5903 23.7536H10.0815L9.36695 23.2677L8.92677 23.3363L8.54947 23.182C8.50374 23.1705 8.50374 23.1019 8.54947 23.0791ZM11.0076 23.9537C10.9676 23.8622 11.2877 23.6736 11.2877 23.6736C11.2877 23.6736 11.8022 23.5421 11.8765 23.6736C11.9166 23.7479 11.6936 23.9537 11.6936 23.9537C11.6936 23.9537 11.0762 24.1138 11.0076 23.9537ZM51.9214 34.9412H53.1219L52.5216 35.6386H52.2415L51.9214 34.9412Z" fill="#CCDE51"/>
</g>
</g>
<rect x="0.5" y="0.5" width="41" height="41" stroke="#F2F3F4"/>
<defs>
<clipPath id="clip0_7383_13536">
<rect x="1" y="1" width="40" height="40" fill="white"/>
</clipPath>
</defs>
</svg>
