<svg width="42" height="42" viewBox="0 0 42 42" fill="none" xmlns="http://www.w3.org/2000/svg">
<g clip-path="url(#clip0_7383_13603)">
<path d="M2.98453 12.3044C1.71312 14.9338 1 17.8835 1 21C1 24.1165 1.71312 27.0663 2.98453 29.6956L21 31.4348L39.0155 29.6956C40.2869 27.0663 41 24.1165 41 21C41 17.8835 40.2869 14.9338 39.0155 12.3044L21 10.5652L2.98453 12.3044Z" fill="#F0F0F0"/>
<path d="M2.98535 29.6956C6.2202 36.3855 13.0709 41 21.0001 41C28.9293 41 35.78 36.3855 39.0149 29.6956H2.98535Z" fill="black"/>
<path d="M2.98535 12.3044H39.0149C35.78 5.61445 28.9293 1 21.0001 1C13.0709 1 6.2202 5.61445 2.98535 12.3044Z" fill="#D80027"/>
<path d="M6.85785 6.85779C-0.952617 14.6683 -0.952617 27.3316 6.85785 35.1422C10.0854 31.9146 13.1896 28.8104 21 21L6.85785 6.85779Z" fill="#496E2D"/>
</g>
<rect x="0.5" y="0.5" width="41" height="41" stroke="#F2F3F4"/>
<defs>
<clipPath id="clip0_7383_13603">
<rect x="1" y="1" width="40" height="40" fill="white"/>
</clipPath>
</defs>
</svg>
