<svg width="40" height="40" viewBox="0 0 40 40" fill="none" xmlns="http://www.w3.org/2000/svg">
<g clip-path="url(#clip0_181_33434)">
<circle cx="20" cy="20" r="20" fill="#00732F"/>
<path d="M30.6418 22.8232C30.6418 22.9859 30.6248 23.208 30.5909 23.4894C30.557 23.7708 30.4536 23.9387 30.2807 23.9929C30.1078 24.0472 29.7297 24.1421 29.1465 24.2777C28.5634 24.4134 27.9836 24.5456 27.4072 24.6744C26.4442 24.8914 25.5763 24.9999 24.8032 24.9999C23.9962 24.9796 23.3791 24.7761 22.9519 24.3896C22.579 24.1658 22.3993 23.5928 22.4128 22.6706C22.4128 22.5553 22.4162 22.3705 22.423 22.1162C22.4298 21.8619 22.4806 21.4585 22.5756 20.9058C22.6705 20.3531 22.7519 19.9835 22.8197 19.7971C22.8875 19.6106 22.9587 19.5173 23.0333 19.5173C23.0469 19.5173 23.0604 19.5207 23.074 19.5275L23.1452 20.2802C23.1655 21.0058 23.352 21.4568 23.7046 21.6331C24.1861 21.8365 24.6676 21.9382 25.149 21.9382C25.4271 21.9382 25.7288 21.9264 26.0543 21.9026C26.3798 21.8789 26.8036 21.806 27.3258 21.6839C28.3633 21.4737 28.8821 21.311 28.8821 21.1957C28.8821 20.8566 28.6515 20.0395 28.1904 18.7443C27.7835 17.7746 27.3292 17.0252 26.8274 16.4963L28.2209 13.8923C28.8109 14.5501 29.3398 15.5673 29.8077 16.9439C30.3638 18.5714 30.6418 20.5311 30.6418 22.8232Z" fill="white"/>
<path d="M17.7661 21.7827C17.2711 21.7827 16.8886 21.9402 16.5961 22.2552C16.2586 22.5702 16.1011 22.9752 16.1011 23.4702C16.1011 23.9202 16.2586 24.3252 16.5961 24.6627C16.8886 24.9552 17.2711 25.1127 17.7661 25.1127C18.2161 25.1127 18.6211 24.9552 18.9586 24.6627C19.2736 24.3252 19.4536 23.9202 19.4536 23.4702C19.4536 22.9752 19.2736 22.5702 18.9586 22.2552C18.6211 21.9402 18.2161 21.7827 17.7661 21.7827Z" fill="white"/>
<path fill-rule="evenodd" clip-rule="evenodd" d="M11.2274 24.9999L13.3635 21.806V8.92847L11.2274 11.8071V24.9999ZM12.5701 26.0374C13.1533 26.0374 13.4992 26.0849 13.6077 26.1798L14.0552 25.2338C14.0281 25.2338 13.8586 25.1932 13.5466 25.1118C13.3296 25.0507 13.1364 25.0202 12.9668 25.0202C12.4243 25.0202 11.8784 25.3305 11.3292 25.951C10.7799 26.5714 10.5358 27.136 10.5968 27.6446C10.6104 27.7327 10.7731 27.831 11.085 27.9395C11.3495 28.0345 11.519 28.0819 11.5936 28.0819C11.5462 28.1158 11.4207 28.2752 11.2173 28.56C10.9799 28.9059 10.8613 29.1432 10.8613 29.272C10.8613 29.3534 10.9053 29.3873 10.9935 29.3738C10.9799 29.3738 11.2037 29.2314 11.6648 28.9465C12.1802 28.6346 12.6617 28.3939 13.1092 28.2243C13.4008 28.1158 13.8145 28.0107 14.3502 27.909L14.5638 26.9224L13.2822 27.2173C13.1058 27.2512 12.9126 27.2682 12.7024 27.2682C12.0242 27.2682 11.6106 27.1529 11.4614 26.9224C11.4478 26.902 11.4411 26.8749 11.4411 26.841C11.4411 26.7121 11.5292 26.5528 11.7055 26.3629C11.8818 26.173 12.0327 26.0713 12.1582 26.0578C12.2836 26.0442 12.4209 26.0374 12.5701 26.0374Z" fill="white"/>
</g>
<defs>
<clipPath id="clip0_181_33434">
<rect width="40" height="40" fill="white"/>
</clipPath>
</defs>
</svg>
