<svg width="40" height="40" viewBox="0 0 40 40" fill="none" xmlns="http://www.w3.org/2000/svg">
<g clip-path="url(#clip0_181_33416)">
<circle cx="20" cy="20" r="20" fill="#F5BC53"/>
<path d="M17.9102 22.1905H21.17V20.503H17.9102V18.5598H21.17V17.3581C21.17 14.7331 19.927 13.4206 17.441 13.4206C16.1568 13.4206 15.2143 13.7998 14.6134 14.5584C14.0125 15.3169 13.712 16.5229 13.712 18.1763H10.6992C10.6992 15.9092 11.2631 14.1237 12.3908 12.8197C13.5186 11.5158 15.2267 10.8638 17.5151 10.8638C19.6718 10.8638 21.3181 11.4689 22.4541 12.6791C23.5901 13.8893 24.1581 15.5342 24.1581 17.6138V18.5598H27.4178V20.503H24.1581V22.1905H27.4178V24.1592H24.1581V29.3751H21.17V24.1592H17.9102V22.1905Z" fill="#1A2DD2"/>
</g>
<defs>
<clipPath id="clip0_181_33416">
<rect width="40" height="40" fill="white"/>
</clipPath>
</defs>
</svg>
