<svg width="40" height="40" viewBox="0 0 40 40" fill="none" xmlns="http://www.w3.org/2000/svg">
<g clip-path="url(#clip0_181_33431)">
<circle cx="20" cy="20" r="20" fill="#6AABF9"/>
<path d="M11.1601 23.2125C11.1601 22.1206 11.2814 21.1121 11.5241 20.1871C11.7819 19.2468 12.1913 18.4204 12.7524 17.7076C13.3135 16.9949 14.0566 16.4262 14.9817 16.0016C15.9067 15.5769 17.0517 15.3343 18.4165 15.2736V10.8834H21.5101V15.2736C22.8901 15.3343 24.0427 15.5542 24.9677 15.9333C25.8928 16.3124 26.6283 16.8432 27.1742 17.5256C27.7353 18.1929 28.1296 19.0042 28.3571 19.9596C28.5997 20.8998 28.721 21.9689 28.721 23.167V27.125H25.4909V23.2125C25.4909 22.1661 25.4075 21.3244 25.2407 20.6875C25.0739 20.0354 24.8237 19.5274 24.49 19.1634C24.1716 18.7995 23.7621 18.5417 23.2617 18.39C22.7612 18.2232 22.1774 18.1095 21.5101 18.0488V23.258H18.4165V18.0488C17.7947 18.1095 17.2336 18.2156 16.7332 18.3673C16.2479 18.5189 15.8309 18.7767 15.4821 19.1407C15.1333 19.4895 14.8603 19.9899 14.6632 20.642C14.4812 21.2789 14.3902 22.1206 14.3902 23.167V27.125H11.1601V23.2125Z" fill="#A52738"/>
</g>
<defs>
<clipPath id="clip0_181_33431">
<rect width="40" height="40" fill="white"/>
</clipPath>
</defs>
</svg>
