<svg width="40" height="40" viewBox="0 0 40 40" fill="none" xmlns="http://www.w3.org/2000/svg">
<g clip-path="url(#clip0_181_33436)">
<circle cx="20" cy="20" r="20" fill="#04913C"/>
<path fill-rule="evenodd" clip-rule="evenodd" d="M8.75 26.4187V13.0312H14.7125C16.0813 13.0312 17.1687 13.3313 17.9562 13.95C18.7812 14.625 19.2125 15.6 19.2125 16.875C19.2125 17.5687 19.025 18.1875 18.65 18.7312C18.2375 19.3312 17.6562 19.725 16.9437 19.9125V19.95C18.1062 20.2125 18.7625 20.9812 18.9125 22.2937L19.1375 24.45C19.2125 25.275 19.4937 25.9312 19.9438 26.4187H17.5625C17.2438 26.0063 17.0562 25.425 16.9812 24.675L16.8125 23.025C16.7375 22.2937 16.5125 21.7688 16.1375 21.45C15.7437 21.1125 15.1625 20.9625 14.4125 20.9625H10.9437V26.4187H8.75ZM14.4125 14.9063H10.9438V19.0876H14.4125C15.275 19.0876 15.9313 18.9001 16.3813 18.5438C16.7938 18.1688 17 17.6438 17 16.9688C17 16.2376 16.7938 15.7126 16.3813 15.3938C15.9688 15.0563 15.3125 14.9063 14.4125 14.9063Z" fill="white"/>
<path fill-rule="evenodd" clip-rule="evenodd" d="M25.4752 12.7875C24.3877 12.8625 23.5064 13.1437 22.7939 13.65C21.8377 14.3062 21.3689 15.2437 21.3689 16.4812C21.3689 17.8688 22.0064 18.9187 23.3189 19.6313L25.4752 20.4187V24.8063C24.8939 24.7313 24.4439 24.5438 24.1252 24.2438C23.6939 23.8313 23.4502 23.1188 23.3752 22.1438H21.2002C21.3127 23.6813 21.7627 24.825 22.5502 25.575C23.2252 26.2125 24.2002 26.5687 25.4752 26.6625V28.3125H26.7127V26.6625C27.8564 26.5875 28.7939 26.3062 29.5439 25.8187C30.5564 25.1437 31.0627 24.15 31.0627 22.8188C31.0627 21.45 30.4064 20.4 29.1127 19.6687C29.0002 19.5938 28.1939 19.2937 26.7127 18.75V14.625C27.1814 14.6813 27.5564 14.8125 27.8377 15.0188C28.2877 15.3375 28.5689 15.8812 28.6814 16.6687H30.8189C30.6314 15.3 30.1627 14.3063 29.3939 13.7062C28.7377 13.1813 27.8377 12.8625 26.7127 12.7875V11.25H25.4752V12.7875ZM26.7127 20.8687C26.7877 20.8874 26.8439 20.9062 26.9189 20.9437C28.2127 21.3937 28.8689 22.0499 28.8689 22.8937C28.8689 23.5124 28.6064 23.9999 28.0814 24.3374C27.7064 24.5812 27.2377 24.7312 26.7127 24.8062V20.8687ZM23.5627 16.4813C23.5627 17.1938 24.2002 17.7938 25.4752 18.2813V14.6063C24.9877 14.6626 24.594 14.7938 24.3127 14.9813C23.8065 15.2813 23.5627 15.7876 23.5627 16.4813Z" fill="white"/>
</g>
<defs>
<clipPath id="clip0_181_33436">
<rect width="40" height="40" fill="white"/>
</clipPath>
</defs>
</svg>
