<svg width="40" height="40" viewBox="0 0 40 40" fill="none" xmlns="http://www.w3.org/2000/svg">
<g clip-path="url(#clip0_181_33437)">
<circle cx="20" cy="20" r="20" fill="#D82004"/>
<path d="M11.8501 13.7551V26.2501H17.5551C18.8851 26.2501 19.9176 26.0051 20.6526 25.5151C21.5101 24.9201 21.9476 24.0101 21.9476 22.7501C21.9476 21.9101 21.7376 21.2276 21.3176 20.7201C20.8976 20.2126 20.2676 19.8801 19.4451 19.7226C20.0751 19.4951 20.5476 19.1451 20.8976 18.6901C21.2476 18.2001 21.4226 17.6051 21.4226 16.9051C21.4226 15.9426 21.0901 15.1901 20.4251 14.6301C19.7251 14.0351 18.7801 13.7551 17.5551 13.7551H11.8501ZM13.7576 15.3301H17.0826C17.9226 15.3301 18.5526 15.4701 18.9376 15.7676C19.3226 16.0476 19.5151 16.5026 19.5151 17.1326C19.5151 17.7976 19.3226 18.2876 18.9376 18.6026C18.5526 18.9001 17.9226 19.0576 17.0476 19.0576H13.7576V15.3301ZM13.7576 20.6151H17.3451C18.2551 20.6151 18.9376 20.7726 19.3751 21.1051C19.8126 21.4376 20.0401 21.9801 20.0401 22.7151C20.0401 23.4326 19.7426 23.9576 19.1826 24.2901C18.7276 24.5351 18.0976 24.6751 17.2926 24.6751H13.7576V20.6151Z" fill="white"/>
<path d="M27.8893 16.9576C27.3293 16.9576 26.8393 17.1151 26.4193 17.4651C26.0693 17.7101 25.7718 18.0776 25.5443 18.5676V17.2026H23.6893V26.2501H25.5443V21.4551C25.5443 20.6676 25.7718 20.0201 26.2443 19.5301C26.6818 19.0751 27.1893 18.8476 27.7493 18.8476C28.1693 18.8476 28.6068 18.9001 29.0618 19.0401V17.1851C28.7468 17.0276 28.3443 16.9576 27.8893 16.9576Z" fill="white"/>
</g>
<defs>
<clipPath id="clip0_181_33437">
<rect width="40" height="40" fill="white"/>
</clipPath>
</defs>
</svg>
