<svg width="40" height="40" viewBox="0 0 40 40" fill="none" xmlns="http://www.w3.org/2000/svg">
<g clip-path="url(#clip0_181_33412)">
<circle cx="20" cy="20" r="20" fill="#2B73DE"/>
<path fill-rule="evenodd" clip-rule="evenodd" d="M19.2514 11.8022C18.0109 11.8901 17.0057 12.2198 16.193 12.8132C15.1022 13.5824 14.5675 14.6813 14.5675 16.1319C14.5675 17.7582 15.2947 18.989 16.7918 19.8242L19.2514 20.7473V25.8901C18.5884 25.8022 18.0751 25.5824 17.7115 25.2308C17.2196 24.7473 16.9415 23.9121 16.856 22.7692H14.375C14.5033 24.5714 15.0166 25.9121 15.9149 26.7912C16.6849 27.5385 17.7971 27.956 19.2514 28.0659V30H20.663V28.0659C21.9677 27.978 23.0371 27.6484 23.8926 27.0769C25.0475 26.2857 25.625 25.1209 25.625 23.5604C25.625 21.956 24.8764 20.7253 23.4007 19.8681C23.2723 19.7802 22.3527 19.4286 20.663 18.7912V13.956C21.1977 14.022 21.6255 14.1758 21.9463 14.4176C22.4596 14.7912 22.7804 15.4286 22.9087 16.3516H25.347C25.1331 14.7473 24.5984 13.5824 23.7215 12.8791C22.9729 12.2637 21.9463 11.8901 20.663 11.8022V10H19.2514V11.8022ZM20.663 21.2747C20.7486 21.2967 20.8127 21.3187 20.8983 21.3626C22.3741 21.8901 23.1226 22.6593 23.1226 23.6483C23.1226 24.3736 22.8232 24.945 22.2243 25.3407C21.7966 25.6264 21.2619 25.8022 20.663 25.8901V21.2747ZM17.0699 16.1318C17.0699 16.967 17.7971 17.6703 19.2514 18.2417V13.934C18.6953 14 18.2462 14.1538 17.9254 14.3736C17.3479 14.7252 17.0699 15.3186 17.0699 16.1318Z" fill="white"/>
</g>
<defs>
<clipPath id="clip0_181_33412">
<rect width="40" height="40" fill="white"/>
</clipPath>
</defs>
</svg>
