<svg width="40" height="40" viewBox="0 0 40 40" fill="none" xmlns="http://www.w3.org/2000/svg">
<g clip-path="url(#clip0_181_33424)">
<circle cx="20" cy="20" r="20" fill="#FEB116"/>
<path fill-rule="evenodd" clip-rule="evenodd" d="M19.6055 12.3146C18.4339 12.397 17.4846 12.706 16.717 13.2624C15.6868 13.9835 15.1818 15.0137 15.1818 16.3736C15.1818 17.8984 15.8686 19.0522 17.2826 19.8352L19.6055 20.7005V25.522C18.9793 25.4396 18.4945 25.2335 18.1511 24.9038C17.6865 24.4505 17.424 23.6676 17.3432 22.5962H15C15.1212 24.2857 15.606 25.5426 16.4544 26.3668C17.1816 27.0673 18.2319 27.4588 19.6055 27.5618V29.375H20.9387V27.5618C22.1709 27.4794 23.1808 27.1703 23.9888 26.6346C25.0796 25.8929 25.625 24.8008 25.625 23.3379C25.625 21.8338 24.918 20.6799 23.5242 19.8764C23.403 19.794 22.5345 19.4643 20.9387 18.8668V14.3338C21.4437 14.3956 21.8477 14.5398 22.1507 14.7665C22.6355 15.1168 22.9385 15.7143 23.0596 16.5797H25.3624C25.1604 15.0755 24.6554 13.9835 23.8272 13.3242C23.1202 12.7473 22.1507 12.397 20.9387 12.3146V10.625H19.6055V12.3146ZM20.9387 21.1951C21.0195 21.2157 21.0801 21.2363 21.1609 21.2775C22.5547 21.772 23.2617 22.4931 23.2617 23.4203C23.2617 24.1003 22.9789 24.636 22.4133 25.0069C22.0093 25.2747 21.5043 25.4396 20.9387 25.522V21.1951ZM17.5452 16.3736C17.5452 17.1566 18.232 17.8159 19.6055 18.3517V14.3132C19.0803 14.375 18.6561 14.5192 18.3532 14.7253C17.8078 15.055 17.5452 15.6113 17.5452 16.3736Z" fill="white"/>
</g>
<defs>
<clipPath id="clip0_181_33424">
<rect width="40" height="40" fill="white"/>
</clipPath>
</defs>
</svg>
