<svg width="40" height="40" viewBox="0 0 40 40" fill="none" xmlns="http://www.w3.org/2000/svg">
<g clip-path="url(#clip0_181_33415)">
<circle cx="20" cy="20" r="20" fill="#2B713A"/>
<path d="M11.2478 26.8053C12.1196 26.8053 12.8083 26.7182 13.3139 26.5438C13.8369 26.3695 14.2118 26.1167 14.4384 25.7854C14.6825 25.4367 14.8046 25.0357 14.8046 24.5824C14.8046 24.2337 14.7087 23.8152 14.5169 23.327C14.3425 22.8389 14.0984 22.2984 13.7846 21.7056C13.4708 21.0954 13.1046 20.459 12.6862 19.7964C12.2852 19.1165 11.8493 18.4278 11.3786 17.7304L13.1831 16.5535C13.8631 17.5822 14.4559 18.5585 14.9615 19.4826C15.4671 20.3892 15.8943 21.2435 16.243 22.0456C16.5917 22.8301 16.8706 23.5711 17.0798 24.2685C17.3239 25.0357 17.5942 25.6023 17.8906 25.9685C18.2044 26.3346 18.527 26.57 18.8582 26.6746C19.1895 26.7618 19.4946 26.8053 19.7736 26.8053C20.1397 26.8053 20.4099 26.91 20.5843 27.1192C20.7587 27.311 20.8458 27.5463 20.8458 27.8253C20.8458 28.1043 20.7238 28.3658 20.4797 28.6099C20.2356 28.8365 19.9218 28.9499 19.5382 28.9499C18.9628 28.9499 18.3962 28.8452 17.8383 28.636C17.2978 28.4094 16.827 28.0519 16.426 27.5638C16.025 27.0581 15.7461 26.3869 15.5891 25.55L16.6353 24.7131C16.6353 25.4105 16.4871 26.0905 16.1907 26.753C15.8943 27.3981 15.3538 27.9299 14.5692 28.3483C13.8021 28.7668 12.6949 28.976 11.2478 28.976C10.6202 28.976 10.0099 28.9237 9.41713 28.8191C8.84177 28.7145 8.31 28.5663 7.82182 28.3745C7.33364 28.1653 6.90648 27.9212 6.54034 27.6422L7.58645 25.8377C7.93515 26.0643 8.42333 26.2823 9.05099 26.4915C9.67866 26.7007 10.4109 26.8053 11.2478 26.8053ZM19.5441 28.9499L19.7795 26.8053C20.6861 26.8053 21.5753 26.7356 22.4471 26.5961C23.3188 26.4566 24.1731 26.2561 25.01 25.9946C25.8469 25.7331 26.6489 25.4193 27.4161 25.0531C28.2006 24.6695 28.9416 24.2337 29.639 23.7455C29.1857 23.3445 28.6627 22.9958 28.0699 22.6994C27.4771 22.403 26.8233 22.1763 26.1084 22.0194C25.411 21.8451 24.67 21.7579 23.8855 21.7579C23.6065 21.7579 23.345 21.7666 23.1009 21.784C22.8568 21.8015 22.6127 21.8363 22.3686 21.8886C22.1245 21.9235 21.8455 21.9758 21.5317 22.0456L21.1133 20.058C21.584 19.9185 22.0548 19.8139 22.5255 19.7441C22.9963 19.657 23.4496 19.6134 23.8855 19.6134C24.7921 19.6134 25.6115 19.7267 26.3438 19.9534C27.0761 20.1626 27.7386 20.4241 28.3314 20.7379C28.9416 21.0518 29.5083 21.3656 30.0313 21.6794C30.5718 21.9933 31.0949 22.2635 31.6005 22.4902C32.1061 22.6994 32.6291 22.804 33.1696 22.804H33.7188L33.9019 24.687C33.1522 24.687 32.4635 24.7916 31.8359 25.0008C31.2082 25.21 30.5892 25.4803 29.979 25.8115C29.3862 26.1254 28.7586 26.4654 28.096 26.8315C27.4335 27.1802 26.7012 27.5202 25.8992 27.8514C25.0972 28.1653 24.1731 28.4268 23.127 28.636C22.0984 28.8452 20.9041 28.9499 19.5441 28.9499ZM26.8407 33.6835C26.4746 33.6835 26.1607 33.5527 25.8992 33.2912C25.6551 33.0471 25.5331 32.7507 25.5331 32.402C25.5331 32.0533 25.6551 31.7482 25.8992 31.4867C26.1607 31.2251 26.4746 31.0944 26.8407 31.0944C27.1894 31.0944 27.4858 31.2251 27.7299 31.4867C27.9914 31.7482 28.1222 32.0533 28.1222 32.402C28.1222 32.7507 27.9914 33.0471 27.7299 33.2912C27.4858 33.5527 27.1894 33.6835 26.8407 33.6835Z" fill="white"/>
</g>
<defs>
<clipPath id="clip0_181_33415">
<rect width="40" height="40" fill="white"/>
</clipPath>
</defs>
</svg>
