<svg width="40" height="40" viewBox="0 0 40 40" fill="none" xmlns="http://www.w3.org/2000/svg">
<g clip-path="url(#clip0_181_33443)">
<circle cx="20" cy="20" r="20" fill="#CF1227"/>
<path d="M14.3308 13.2251C15.8681 13.2251 17.0121 13.7312 17.7996 14.7622C18.3621 15.5122 18.6628 16.4128 18.6628 17.4253H16.45C16.3937 16.6003 16.2246 16.0187 15.9246 15.6812C15.587 15.2876 15.0435 15.1001 14.2937 15.1001C13.5813 15.1001 13.0378 15.3065 12.6628 15.7563C12.3253 16.1313 12.156 16.6192 12.156 17.2192C12.1561 17.7442 12.2497 18.5502 12.4558 19.6372H15.9441V20.8755H12.6628C12.7191 21.3627 12.7566 21.7563 12.7566 22.0562C12.7566 23.1812 12.3998 24.1755 11.6873 25.0005H18.2878V26.8755H9.10034V25.0562C10.1876 24.4561 10.7312 23.5371 10.7312 22.2622C10.7312 21.9061 10.6745 21.4376 10.5808 20.8755H8.8562V19.6372H10.3191C10.0754 18.5498 9.96265 17.7249 9.96265 17.1812C9.96269 16.0937 10.3377 15.1752 11.0876 14.4253C11.8938 13.6191 12.981 13.2252 14.3308 13.2251Z" fill="#CBAB40"/>
<path d="M30.1873 15.3628H22.7253V19.0747H29.7371V20.9497H22.7253V25.0005H30.5066V26.8755H20.531V13.4878H30.1873V15.3628Z" fill="#CBAB40"/>
</g>
<defs>
<clipPath id="clip0_181_33443">
<rect width="40" height="40" fill="white"/>
</clipPath>
</defs>
</svg>
