<svg width="40" height="40" viewBox="0 0 40 40" fill="none" xmlns="http://www.w3.org/2000/svg">
<g clip-path="url(#clip0_181_33440)">
<circle cx="20" cy="20" r="20" fill="#0052B1"/>
<path d="M20.92 11.3701C22.63 11.3701 24.0475 11.8426 25.1725 12.7876C26.2525 13.6876 26.9275 14.9026 27.1975 16.4551H24.5875C24.3175 15.4876 23.8675 14.7901 23.215 14.3401C22.6075 13.8901 21.82 13.6876 20.875 13.6876C19.435 13.6876 18.355 14.2276 17.59 15.3526C17.185 15.9376 16.8925 16.6576 16.7125 17.5126H24.3625L23.9125 18.9976H16.5325C16.51 19.2226 16.51 19.4701 16.51 19.7401C16.51 19.9876 16.51 20.2351 16.5325 20.4826H23.485L23.035 21.9676H16.69C16.825 22.7326 17.0725 23.3626 17.3875 23.9026C18.1075 25.1176 19.3 25.7476 20.9425 25.7476C21.91 25.7476 22.72 25.4776 23.35 24.9376C23.9575 24.4426 24.4075 23.7001 24.7 22.7101H27.355C26.95 24.4201 26.14 25.7476 24.9475 26.7151C23.8225 27.6151 22.495 28.0651 20.965 28.0651C18.5575 28.0651 16.735 27.2101 15.52 25.5451C14.7775 24.5551 14.2825 23.3626 14.0575 21.9676H11.875L12.325 20.4826H13.9C13.8775 20.2351 13.8775 19.9876 13.8775 19.7401C13.8775 19.4701 13.8775 19.2226 13.9 18.9976H11.875L12.325 17.5126H14.0575C14.2825 15.9826 14.8 14.7226 15.61 13.7101C16.8475 12.1351 18.625 11.3701 20.92 11.3701Z" fill="white"/>
</g>
<defs>
<clipPath id="clip0_181_33440">
<rect width="40" height="40" fill="white"/>
</clipPath>
</defs>
</svg>
