<svg width="40" height="40" viewBox="0 0 40 40" fill="none" xmlns="http://www.w3.org/2000/svg">
<g clip-path="url(#clip0_181_33460)">
<circle cx="20" cy="20" r="20" fill="#092C71"/>
<path d="M21.3224 11.3701C23.1674 11.3701 24.5399 11.9776 25.4849 13.2151C26.1599 14.1151 26.5199 15.1951 26.5199 16.4101H23.8649C23.7974 15.4201 23.5949 14.7226 23.2349 14.3176C22.8299 13.8451 22.1774 13.6201 21.2774 13.6201C20.4224 13.6201 19.7699 13.8676 19.3199 14.4076C18.9149 14.8576 18.7124 15.4426 18.7124 16.1626C18.7124 16.7926 18.8249 17.7601 19.0724 19.0651H23.2574V20.5501H19.3199C19.3874 21.1351 19.4324 21.6076 19.4324 21.9676C19.4324 23.3176 19.0049 24.5101 18.1499 25.5001H26.0699V27.7501H15.0449V25.5676C16.3499 24.8476 17.0024 23.7451 17.0024 22.2151C17.0024 21.7876 16.9349 21.2251 16.8224 20.5501H14.7524V19.0651H16.5074C16.2149 17.7601 16.0799 16.7701 16.0799 16.1176C16.0799 14.8126 16.5299 13.7101 17.4299 12.8101C18.3974 11.8426 19.7024 11.3701 21.3224 11.3701Z" fill="white"/>
</g>
<defs>
<clipPath id="clip0_181_33460">
<rect width="40" height="40" fill="white"/>
</clipPath>
</defs>
</svg>
