<svg width="40" height="40" viewBox="0 0 40 40" fill="none" xmlns="http://www.w3.org/2000/svg">
<g clip-path="url(#clip0_181_33454)">
<circle cx="20" cy="20" r="20" fill="#016801"/>
<path d="M10.075 15.08C11.455 15.08 12.535 15.38 13.33 15.995C14.095 16.595 14.575 17.48 14.77 18.68H13C12.85 17.99 12.52 17.48 12.04 17.135C11.545 16.79 10.885 16.625 10.075 16.625C9.07 16.625 8.275 16.955 7.69 17.645C7.045 18.365 6.73 19.37 6.73 20.69C6.73 21.95 7.015 22.925 7.585 23.6C8.2 24.32 9.16 24.68 10.465 24.68C10.975 24.68 11.455 24.62 11.905 24.5C12.325 24.38 12.7 24.215 13.06 24.005V21.8H10.225V20.3H14.815V24.83C14.245 25.28 13.6 25.61 12.865 25.85C12.085 26.09 11.23 26.21 10.27 26.21C8.56 26.21 7.24 25.67 6.295 24.59C5.41 23.585 4.975 22.28 4.975 20.69C4.975 19.085 5.41 17.765 6.295 16.73C7.225 15.62 8.485 15.08 10.075 15.08ZM16.7629 15.29H18.5179V19.76H23.9479V15.29H25.7029V26H23.9479V21.26H18.5179V26H16.7629V15.29ZM35.4517 25.3994C34.9878 25.668 34.502 25.8706 33.9941 26.0073C33.7207 26.0806 33.4424 26.1343 33.1592 26.1685V28.2046H31.9727V26.1978C30.957 26.1245 30.0293 25.8096 29.1895 25.2529C27.793 24.335 27.0947 22.9434 27.0947 21.0781C27.0947 19.2861 27.793 17.8945 29.1895 16.9033C29.9658 16.3467 30.8936 16.0366 31.9727 15.9731V14.6035H33.1592V16.0024C33.4424 16.0366 33.7207 16.0903 33.9941 16.1636C34.4971 16.3003 34.9805 16.5029 35.4443 16.7715V19.0347C35.0488 18.6538 34.6265 18.3682 34.1772 18.1777C33.8452 18.0312 33.5059 17.9409 33.1592 17.9067V24.2715C33.5107 24.2373 33.8477 24.1494 34.1699 24.0078C34.6143 23.8125 35.0415 23.522 35.4517 23.1362V25.3994ZM31.9727 24.1982V17.98C31.6846 18.0532 31.4258 18.1729 31.1963 18.3389C30.3418 18.9346 29.9146 19.8477 29.9146 21.0781C29.9146 22.2646 30.3516 23.1875 31.2256 23.8467C31.4355 24.0078 31.6846 24.125 31.9727 24.1982Z" fill="white"/>
</g>
<defs>
<clipPath id="clip0_181_33454">
<rect width="40" height="40" fill="white"/>
</clipPath>
</defs>
</svg>
