<svg width="40" height="40" viewBox="0 0 40 40" fill="none" xmlns="http://www.w3.org/2000/svg">
<g clip-path="url(#clip0_181_33459)">
<circle cx="20" cy="20" r="20" fill="#DD2A0F"/>
<path d="M5.425 15.29H7.18V19.76H12.61V15.29H14.365V26H12.61V21.26H7.18V26H5.425V15.29ZM23.2049 15.29H25.4249L20.7149 19.88L26.1299 26H23.7599L19.5299 21.035L18.2249 22.31V26H16.4699V15.29H18.2249V20.345L23.2049 15.29ZM30.1029 15.095V13.865H31.0929V15.095C31.9929 15.155 32.7129 15.41 33.2379 15.83C33.8529 16.31 34.2279 17.105 34.3779 18.2H32.6679C32.5779 17.57 32.3529 17.135 31.9929 16.88C31.7679 16.715 31.4679 16.61 31.0929 16.565V19.865C32.2779 20.3 32.9229 20.54 33.0129 20.6C34.0479 21.185 34.5729 22.025 34.5729 23.12C34.5729 24.185 34.1679 24.98 33.3579 25.52C32.7579 25.91 32.0079 26.135 31.0929 26.195V27.515H30.1029V26.195C29.0829 26.12 28.3029 25.835 27.7629 25.325C27.1329 24.725 26.7729 23.81 26.6829 22.58H28.4229C28.4829 23.36 28.6779 23.93 29.0229 24.26C29.2779 24.5 29.6379 24.65 30.1029 24.71V21.2L28.3779 20.57C27.3279 20 26.8179 19.16 26.8179 18.05C26.8179 17.06 27.1929 16.31 27.9579 15.785C28.5279 15.38 29.2329 15.155 30.1029 15.095ZM31.0929 21.56V24.71C31.5129 24.65 31.8879 24.53 32.1879 24.335C32.6079 24.065 32.8179 23.675 32.8179 23.18C32.8179 22.505 32.2929 21.98 31.2579 21.62C31.1979 21.59 31.1529 21.575 31.0929 21.56ZM30.1029 19.49V16.55C29.7129 16.595 29.3979 16.7 29.1729 16.85C28.7679 17.09 28.5729 17.495 28.5729 18.05C28.5729 18.62 29.0829 19.1 30.1029 19.49Z" fill="white"/>
</g>
<defs>
<clipPath id="clip0_181_33459">
<rect width="40" height="40" fill="white"/>
</clipPath>
</defs>
</svg>
