<svg width="40" height="40" viewBox="0 0 40 40" fill="none" xmlns="http://www.w3.org/2000/svg">
<g clip-path="url(#clip0_181_33422)">
<circle cx="20" cy="20" r="20" fill="#2B713A"/>
<path d="M13.1 14.005H21.6225V15.755H15.1475V19.22H21.255V20.97H15.1475V26.5H13.1V14.005ZM25.9455 14.53V17.4525H27.958V19.0975H25.9455V24.2075C25.9455 24.4175 25.9805 24.575 26.0855 24.6975C26.1905 24.8025 26.3305 24.855 26.5405 24.855H27.7305V26.5H26.208C25.4205 26.5 24.843 26.29 24.4755 25.87C24.1255 25.485 23.9505 24.9425 23.9505 24.2075V19.0975H22.323V17.4525H23.9505V15.3525L25.9455 14.53Z" fill="white"/>
</g>
<defs>
<clipPath id="clip0_181_33422">
<rect width="40" height="40" fill="white"/>
</clipPath>
</defs>
</svg>
