<svg width="40" height="40" viewBox="0 0 40 40" fill="none" xmlns="http://www.w3.org/2000/svg">
<g clip-path="url(#clip0_181_33457)">
<circle cx="20" cy="20" r="20" fill="#CF1227"/>
<path fill-rule="evenodd" clip-rule="evenodd" d="M25.73 16.8975C26.6223 16.8975 27.4099 17.1947 27.8999 17.6846C28.7923 18.577 28.897 20.0823 28.897 21.4297C28.897 22.7771 28.7923 24.2999 27.8999 25.1924C27.41 25.6823 26.6399 25.9794 25.7476 25.9795C24.8026 25.9795 24.0669 25.7348 23.4194 24.9648V29.4629H21.6353V17.0029H23.3853V17.9473C24.0502 17.1425 24.7676 16.8975 25.73 16.8975ZM25.2749 18.4902C23.665 18.4902 23.4195 19.8548 23.4194 21.4297C23.4194 23.0047 23.6649 24.3877 25.2749 24.3877C26.8848 24.3876 27.1118 23.0046 27.1118 21.4297C27.1118 19.8548 26.8847 18.4903 25.2749 18.4902Z" fill="white"/>
<path d="M32.27 23.373C32.62 23.373 32.9353 23.4952 33.1978 23.7402C33.4427 23.9852 33.5825 24.3006 33.5825 24.6855C33.5824 25.0353 33.4425 25.35 33.1978 25.6123C32.9353 25.8398 32.62 25.9629 32.27 25.9629C31.8851 25.9629 31.5873 25.8398 31.3599 25.6123C31.0977 25.35 30.9752 25.0352 30.9751 24.6855C30.9751 24.3007 31.0975 23.9852 31.3599 23.7402C31.5873 23.4953 31.8851 23.3731 32.27 23.373Z" fill="white"/>
<path fill-rule="evenodd" clip-rule="evenodd" d="M15.2075 13.415C17.5698 13.4151 19.0745 14.9374 19.0747 17.0547C19.0747 18.8395 17.9901 19.9772 16.5903 20.3623L19.4595 25.875H17.2554L14.6304 20.625H12.2671V25.875H10.3774V13.415H15.2075ZM12.2671 19.0146H15.0679C16.3276 19.0145 17.1851 18.2971 17.1851 17.0723C17.1849 15.8476 16.3275 15.1125 15.0679 15.1123H12.2671V19.0146Z" fill="white"/>
</g>
<defs>
<clipPath id="clip0_181_33457">
<rect width="40" height="40" fill="white"/>
</clipPath>
</defs>
</svg>
