<svg width="40" height="40" viewBox="0 0 40 40" fill="none" xmlns="http://www.w3.org/2000/svg">
<g clip-path="url(#clip0_181_33455)">
<circle cx="20" cy="20" r="20" fill="#E97C0D"/>
<path d="M14.8125 16.7601H20.0325C19.92 16.0626 19.65 15.5226 19.2 15.1401C18.615 14.6451 17.7825 14.4201 16.68 14.4201H14.2725L14.7675 12.9351H25.455L24.96 14.4201H21.8325C22.305 15.0501 22.5975 15.8376 22.6875 16.7601H25.4775L24.9825 18.2451H22.6425C22.5075 19.0101 22.17 19.6851 21.675 20.2251C20.955 20.9451 20.01 21.4401 18.8175 21.7101C18.9975 21.8451 19.335 22.2501 19.83 22.8801L24.69 29.0001H21.1125L17.085 23.6901C16.725 23.1951 16.3425 22.8351 15.9375 22.5651C15.4875 22.2501 14.9925 22.0926 14.4975 22.0926V20.3376H15.8925C17.31 20.3376 18.3675 20.0901 19.065 19.5951C19.5375 19.2576 19.8525 18.8076 19.9875 18.2451H14.3175L14.8125 16.7601Z" fill="white"/>
</g>
<defs>
<clipPath id="clip0_181_33455">
<rect width="40" height="40" fill="white"/>
</clipPath>
</defs>
</svg>
