<svg width="40" height="40" viewBox="0 0 40 40" fill="none" xmlns="http://www.w3.org/2000/svg">
<g clip-path="url(#clip0_181_33411)">
<circle cx="20" cy="20" r="20" fill="#2B713A"/>
<path d="M5.7659 24.2653L6.64121 22.7554C6.93298 22.945 7.34146 23.1274 7.86665 23.3024C8.39183 23.4775 9.00455 23.565 9.7048 23.565C10.4342 23.565 11.0105 23.4921 11.4335 23.3462C11.8712 23.2003 12.1849 22.9888 12.3745 22.7116C12.5787 22.4198 12.6809 22.0843 12.6809 21.705C12.6809 21.4132 12.6152 21.0558 12.4839 20.6327C12.3672 20.1951 12.1046 19.6115 11.6961 18.8821C11.2877 18.1381 10.6604 17.168 9.81422 15.9717L11.3241 14.987C12.0973 16.0519 12.71 17.0148 13.1623 17.8755C13.6291 18.7362 13.9574 19.4948 14.147 20.1513C14.3513 20.7932 14.4534 21.3476 14.4534 21.8144C14.4534 22.3979 14.3075 22.9669 14.0157 23.5213C13.7239 24.061 13.2352 24.506 12.5496 24.8561C11.8639 25.2062 10.9157 25.3813 9.7048 25.3813C9.17962 25.3813 8.66902 25.3375 8.17301 25.25C7.69158 25.1625 7.24663 25.0385 6.83816 24.878C6.42968 24.7029 6.07226 24.4987 5.7659 24.2653ZM18.0763 25.4032C17.1791 25.4032 16.4789 24.7029 16.4789 23.8057C16.4789 22.9085 17.1791 22.2083 18.0763 22.2083C18.9517 22.2083 19.6519 22.9085 19.6519 23.8057C19.6519 24.7029 18.9517 25.4032 18.0763 25.4032ZM28.2127 33.8718C27.4249 33.8718 26.608 33.777 25.7618 33.5873C24.9157 33.4123 24.1279 33.0986 23.3985 32.6464C22.6691 32.2087 22.0709 31.6106 21.6041 30.852C21.1518 30.108 20.9257 29.167 20.9257 28.0291C20.9257 26.9787 21.1373 25.994 21.5603 25.0749C21.9834 24.1559 22.5815 23.3243 23.3547 22.5803C24.1425 21.8363 25.0689 21.209 26.1338 20.6984C27.1988 20.1878 28.3732 19.8231 29.657 19.6042L30.1165 21.3111C29.0515 21.5007 28.0668 21.7852 27.1623 22.1645C26.2578 22.5438 25.4701 23.0107 24.799 23.565C24.1425 24.1048 23.6319 24.7248 23.2672 25.4251C22.9025 26.1399 22.7201 26.9204 22.7201 27.7665C22.7201 28.4522 22.8368 29.043 23.0702 29.539C23.3037 30.035 23.61 30.4435 23.9893 30.7645C24.3832 31.1 24.8209 31.3626 25.3023 31.5522C25.7837 31.7419 26.2724 31.8732 26.7684 31.9461C27.279 32.0337 27.7605 32.0774 28.2127 32.0774C28.9859 32.0774 29.7737 32.0045 30.576 31.8586C31.3784 31.7273 32.1078 31.5231 32.7643 31.2459L33.3333 32.7777C32.9831 32.9527 32.5163 33.1205 31.9328 33.281C31.3638 33.4561 30.7511 33.5946 30.0946 33.6968C29.4381 33.8135 28.8108 33.8718 28.2127 33.8718ZM24.602 22.2739C24.0185 22.1281 23.4933 21.8655 23.0265 21.4862C22.5596 21.1069 22.1876 20.6546 21.9104 20.1294C21.6479 19.6042 21.5166 19.0499 21.5166 18.4663C21.5166 17.5473 21.7281 16.7814 22.1512 16.1686C22.5888 15.5559 23.1432 15.0964 23.8143 14.79C24.4999 14.4837 25.222 14.3305 25.9806 14.3305C26.3162 14.3305 26.6736 14.3597 27.0529 14.418C27.4322 14.4764 27.7969 14.5639 28.147 14.6806L27.775 16.3656C27.4833 16.2926 27.1769 16.2343 26.856 16.1905C26.535 16.1468 26.2432 16.1249 25.9806 16.1249C25.4555 16.1249 24.9886 16.2197 24.5802 16.4093C24.1717 16.599 23.8507 16.8616 23.6173 17.1971C23.3839 17.5181 23.2672 17.8974 23.2672 18.335C23.2672 18.7289 23.3766 19.0863 23.5954 19.4073C23.8288 19.7137 24.1206 19.9835 24.4707 20.217C24.8209 20.4358 25.1783 20.6036 25.543 20.7203C25.9077 20.8224 26.2287 20.8661 26.5058 20.8516L24.602 22.2739Z" fill="white"/>
</g>
<defs>
<clipPath id="clip0_181_33411">
<rect width="40" height="40" fill="white"/>
</clipPath>
</defs>
</svg>
