<svg width="40" height="40" viewBox="0 0 40 40" fill="none" xmlns="http://www.w3.org/2000/svg">
<g clip-path="url(#clip0_181_33413)">
<circle cx="20" cy="20" r="20" fill="#CF1227"/>
<path d="M13.435 15.29H15.07V22.55C15.07 23.75 14.815 24.65 14.32 25.25C13.75 25.88 12.85 26.21 11.62 26.21C10.555 26.21 9.745 25.91 9.205 25.325C8.635 24.725 8.35 23.915 8.35 22.865V22.505H9.985V22.85C9.985 24.125 10.54 24.77 11.65 24.77C12.28 24.77 12.73 24.575 13.015 24.215C13.285 23.855 13.435 23.285 13.435 22.49V15.29ZM17.173 15.29H21.073C22.798 15.29 24.103 15.77 25.003 16.745C25.843 17.645 26.263 18.95 26.263 20.645C26.263 22.325 25.828 23.63 24.973 24.56C24.073 25.52 22.768 26 21.043 26H17.173V15.29ZM18.808 16.685V24.605H20.743C22.093 24.605 23.098 24.275 23.728 23.63C24.343 22.985 24.658 21.995 24.658 20.645C24.658 19.265 24.343 18.275 23.743 17.645C23.113 17 22.123 16.685 20.773 16.685H18.808ZM31.375 18.035C31.765 18.035 32.11 18.095 32.38 18.23V19.82C31.99 19.7 31.615 19.655 31.255 19.655C30.775 19.655 30.34 19.85 29.965 20.24C29.56 20.66 29.365 21.215 29.365 21.89V26H27.775V18.245H29.365V19.415C29.56 18.995 29.815 18.68 30.115 18.47C30.475 18.17 30.895 18.035 31.375 18.035Z" fill="white"/>
</g>
<defs>
<clipPath id="clip0_181_33413">
<rect width="40" height="40" fill="white"/>
</clipPath>
</defs>
</svg>
