<svg width="40" height="40" viewBox="0 0 40 40" fill="none" xmlns="http://www.w3.org/2000/svg">
<g clip-path="url(#clip0_181_33433)">
<circle cx="20" cy="20" r="20" fill="#BE003F"/>
<path d="M15.9563 13.4875H18.15V22.5437C18.15 24.0812 17.8313 25.2062 17.1938 25.9562C16.4813 26.7437 15.3563 27.1375 13.8 27.1375C12.45 27.1375 11.4188 26.7625 10.725 26.0125C10.0125 25.2625 9.65625 24.2312 9.65625 22.9187V22.4875H11.85V22.9C11.85 24.4375 12.5063 25.2062 13.8375 25.2062C14.5688 25.2062 15.1125 24.9812 15.45 24.55C15.7875 24.1188 15.9563 23.425 15.9563 22.4687V13.4875ZM19.5954 13.4875H22.2579L25.0891 19.1312L27.9204 13.4875H30.5829L26.9829 20.0125H29.3829V21.25H26.2891L26.2704 21.2687V22.825H29.3829V24.0625H26.2704V26.875H23.9079V24.0625H20.8141V22.825H23.9079V21.2687L23.8891 21.25H20.8141V20.0125H23.1954L19.5954 13.4875Z" fill="white"/>
</g>
<defs>
<clipPath id="clip0_181_33433">
<rect width="40" height="40" fill="white"/>
</clipPath>
</defs>
</svg>
