<svg width="40" height="40" viewBox="0 0 40 40" fill="none" xmlns="http://www.w3.org/2000/svg">
<g clip-path="url(#clip0_181_33432)">
<circle cx="20" cy="20" r="20" fill="#2B713A"/>
<path d="M13.41 14.665H15.63L10.92 19.255L16.335 25.375H13.965L9.735 20.41L8.43 21.685V25.375H6.675V14.665H8.43V19.72L13.41 14.665ZM21.163 14.455C22.423 14.455 23.413 14.71 24.118 15.235C24.868 15.79 25.303 16.66 25.408 17.83H23.668C23.518 17.17 23.233 16.69 22.843 16.405C22.453 16.105 21.853 15.97 21.073 15.97C20.398 15.97 19.888 16.06 19.528 16.255C19.078 16.48 18.868 16.855 18.868 17.365C18.868 17.815 19.108 18.19 19.618 18.46C19.843 18.58 20.458 18.805 21.448 19.12C22.903 19.57 23.833 19.93 24.253 20.17C25.183 20.725 25.648 21.49 25.648 22.48C25.648 23.44 25.273 24.205 24.523 24.76C23.773 25.3 22.708 25.585 21.343 25.585C20.023 25.585 18.988 25.33 18.253 24.82C17.353 24.19 16.858 23.2 16.783 21.835H18.523C18.643 22.645 18.928 23.23 19.393 23.575C19.813 23.875 20.458 24.04 21.343 24.04C22.123 24.04 22.753 23.905 23.203 23.65C23.653 23.38 23.893 23.035 23.893 22.585C23.893 22.015 23.548 21.565 22.888 21.235C22.678 21.13 21.988 20.89 20.803 20.53C19.483 20.11 18.658 19.81 18.343 19.63C17.518 19.135 17.113 18.415 17.113 17.47C17.113 16.525 17.503 15.775 18.313 15.235C19.063 14.71 20.008 14.455 21.163 14.455ZM27.0035 14.455H28.7135V18.655C28.9985 18.22 29.3585 17.905 29.7785 17.695C30.1535 17.5 30.5885 17.41 31.0835 17.41C32.0285 17.41 32.7335 17.68 33.1985 18.235C33.6335 18.76 33.8585 19.54 33.8585 20.575V25.375H32.1485V20.875C32.1485 20.215 32.0135 19.705 31.7585 19.36C31.4585 18.985 31.0235 18.805 30.4385 18.805C29.8985 18.805 29.4785 19.015 29.1785 19.435C28.8635 19.855 28.7135 20.38 28.7135 21.04V25.375H27.0035V14.455Z" fill="black"/>
</g>
<defs>
<clipPath id="clip0_181_33432">
<rect width="40" height="40" fill="white"/>
</clipPath>
</defs>
</svg>
