<svg width="40" height="40" viewBox="0 0 40 40" fill="none" xmlns="http://www.w3.org/2000/svg">
<g clip-path="url(#clip0_181_33423)">
<circle cx="20" cy="20" r="20" fill="#C2262D"/>
<path d="M8.1 14.005H12.65C14.6625 14.005 16.185 14.565 17.235 15.7025C18.215 16.7525 18.705 18.275 18.705 20.2525C18.705 22.2125 18.1975 23.735 17.2 24.82C16.15 25.94 14.6275 26.5 12.615 26.5H8.1V14.005ZM10.0075 15.6325V24.8725H12.265C13.84 24.8725 15.0125 24.4875 15.7475 23.735C16.465 22.9825 16.8325 21.8275 16.8325 20.2525C16.8325 18.6425 16.465 17.4875 15.765 16.7525C15.03 16 13.875 15.6325 12.3 15.6325H10.0075ZM20.6439 14.005H22.5514V19.2725H29.0964V14.005H31.0039V26.5H29.0964V20.9H22.5514V26.5H20.6439V14.005Z" fill="#006233"/>
</g>
<defs>
<clipPath id="clip0_181_33423">
<rect width="40" height="40" fill="white"/>
</clipPath>
</defs>
</svg>
