<svg width="40" height="40" viewBox="0 0 40 40" fill="none" xmlns="http://www.w3.org/2000/svg">
<g clip-path="url(#clip0_181_33410)">
<circle cx="20" cy="20" r="20" fill="#459948"/>
<path d="M5.6875 13.4875H7.88125V21.8312C7.88125 22.9937 8.14375 23.8375 8.6875 24.4C9.2125 24.9437 10.075 25.225 11.2563 25.225C12.4188 25.225 13.2813 24.9437 13.825 24.4C14.35 23.8375 14.6313 22.9937 14.6313 21.8312V13.4875H16.825V21.7937C16.825 23.5375 16.3375 24.8687 15.3625 25.7875C14.3875 26.6875 13.0188 27.1375 11.2563 27.1375C9.475 27.1375 8.10625 26.6875 7.16875 25.8062C6.175 24.8687 5.6875 23.5375 5.6875 21.7937V13.4875ZM19.457 13.4875H22.0258L26.582 23.9875H26.657L31.1945 13.4875H33.7633V26.875H31.5695V17.65H31.4945L27.557 26.875H25.6633L21.7258 17.65H21.6508V26.875H19.457V13.4875Z" fill="#F5CD37"/>
</g>
<defs>
<clipPath id="clip0_181_33410">
<rect width="40" height="40" fill="white"/>
</clipPath>
</defs>
</svg>
