<svg width="40" height="40" viewBox="0 0 40 40" fill="none" xmlns="http://www.w3.org/2000/svg">
<g clip-path="url(#clip0_181_33435)">
<circle cx="20" cy="20" r="20" fill="#030166"/>
<path d="M8.1 14.005H10.4975L14.75 23.805H14.82L19.055 14.005H21.4525V26.5H19.405V17.89H19.335L15.66 26.5H13.8925L10.2175 17.89H10.1475V26.5H8.1V14.005ZM27.3206 13.7775V12.3425H28.4756V13.7775C29.5256 13.8475 30.3656 14.145 30.9781 14.635C31.6956 15.195 32.1331 16.1225 32.3081 17.4H30.3131C30.2081 16.665 29.9456 16.1575 29.5256 15.86C29.2631 15.6675 28.9131 15.545 28.4756 15.4925V19.3425C29.8581 19.85 30.6106 20.13 30.7156 20.2C31.9231 20.8825 32.5356 21.8625 32.5356 23.14C32.5356 24.3825 32.0631 25.31 31.1181 25.94C30.4181 26.395 29.5431 26.6575 28.4756 26.7275V28.2675H27.3206V26.7275C26.1306 26.64 25.2206 26.3075 24.5906 25.7125C23.8556 25.0125 23.4356 23.945 23.3306 22.51H25.3606C25.4306 23.42 25.6581 24.085 26.0606 24.47C26.3581 24.75 26.7781 24.925 27.3206 24.995V20.9L25.3081 20.165C24.0831 19.5 23.4881 18.52 23.4881 17.225C23.4881 16.07 23.9256 15.195 24.8181 14.5825C25.4831 14.11 26.3056 13.8475 27.3206 13.7775ZM28.4756 21.32V24.995C28.9656 24.925 29.4031 24.785 29.7531 24.5575C30.2431 24.2425 30.4881 23.7875 30.4881 23.21C30.4881 22.4225 29.8756 21.81 28.6681 21.39C28.5981 21.355 28.5456 21.3375 28.4756 21.32ZM27.3206 18.905V15.475C26.8656 15.5275 26.4981 15.65 26.2356 15.825C25.7631 16.105 25.5356 16.5775 25.5356 17.225C25.5356 17.89 26.1306 18.45 27.3206 18.905Z" fill="#FFCC01"/>
</g>
<defs>
<clipPath id="clip0_181_33435">
<rect width="40" height="40" fill="white"/>
</clipPath>
</defs>
</svg>
