<svg width="40" height="40" viewBox="0 0 40 40" fill="none" xmlns="http://www.w3.org/2000/svg">
<g clip-path="url(#clip0_181_33451)">
<circle cx="20" cy="20" r="20" fill="#2B713A"/>
<path d="M12.4121 21.2422V19.6602H14.1504V18.3125H12.4121V16.7305H14.1504V11.7793H16.4453L19.5312 16.7305H23.6914V11.7793H25.5371V16.7305H27.3242V18.3125H25.5371V19.6602H27.3242V21.2422H25.5371V26.125H23.3594L20.2637 21.2422H16.0059V26.125H14.1504V21.2422H12.4121ZM16.0059 19.6602H19.2676L18.4082 18.3125H16.0059V19.6602ZM21.3574 19.6602H23.6914V18.3125H20.5176L21.3574 19.6602ZM16.0059 16.7305H17.4121L16.0059 14.5137V16.7305ZM23.6914 23.4004V21.2422H22.3438L23.6914 23.4004Z" fill="white"/>
</g>
<defs>
<clipPath id="clip0_181_33451">
<rect width="40" height="40" fill="white"/>
</clipPath>
</defs>
</svg>
