<svg width="40" height="40" viewBox="0 0 40 40" fill="none" xmlns="http://www.w3.org/2000/svg">
<g clip-path="url(#clip0_181_33414)">
<circle cx="20" cy="20" r="20" fill="#DC143C"/>
<path d="M9.975 14.005H15.54C16.8175 14.005 17.8325 14.285 18.5675 14.8625C19.3375 15.4925 19.74 16.4025 19.74 17.5925C19.74 18.24 19.565 18.8175 19.215 19.325C18.83 19.885 18.2875 20.2525 17.6225 20.4275V20.4625C18.7075 20.7075 19.32 21.425 19.46 22.65L19.67 24.6625C19.74 25.4325 20.0025 26.045 20.4225 26.5H18.2C17.9025 26.115 17.7275 25.5725 17.6575 24.8725L17.5 23.3325C17.43 22.65 17.22 22.16 16.87 21.8625C16.5025 21.5475 15.96 21.4075 15.26 21.4075H12.0225V26.5H9.975V14.005ZM12.0225 15.755V19.6575H15.26C16.065 19.6575 16.6775 19.4825 17.0975 19.15C17.4825 18.8 17.675 18.31 17.675 17.68C17.675 16.9975 17.4825 16.5075 17.0975 16.21C16.7125 15.895 16.1 15.755 15.26 15.755H12.0225ZM25.4146 17.2075C27.7946 17.2075 29.1071 18.1525 29.3171 20.0775H27.3746C27.2346 19.6225 27.0246 19.29 26.7446 19.115C26.4471 18.9225 25.9921 18.835 25.3796 18.835C24.8546 18.835 24.4521 18.905 24.1896 19.0625C23.8746 19.22 23.7346 19.465 23.7346 19.815C23.7346 20.095 23.9621 20.3575 24.4521 20.5675C24.7496 20.69 25.3446 20.865 26.2546 21.0925C27.2696 21.3375 28.0396 21.6175 28.5296 21.95C29.2471 22.405 29.6146 23.0525 29.6146 23.8575C29.6146 25.7825 28.2496 26.745 25.5371 26.745C23.0171 26.745 21.6696 25.6775 21.4771 23.56H23.4196C23.5246 24.1375 23.7346 24.54 24.0321 24.785C24.3296 24.995 24.8021 25.1175 25.4671 25.1175C26.8671 25.1175 27.5671 24.7325 27.5671 23.9975C27.5671 23.5775 27.3046 23.245 26.7796 23C26.4996 22.86 25.9046 22.7025 24.9946 22.4925C23.9271 22.2475 23.1746 21.985 22.7371 21.705C22.0371 21.2675 21.6871 20.655 21.6871 19.8675C21.6871 19.0275 22.0196 18.38 22.7196 17.925C23.4021 17.435 24.2946 17.2075 25.4146 17.2075Z" fill="white"/>
</g>
<defs>
<clipPath id="clip0_181_33414">
<rect width="40" height="40" fill="white"/>
</clipPath>
</defs>
</svg>
