<svg width="40" height="40" viewBox="0 0 40 40" fill="none" xmlns="http://www.w3.org/2000/svg">
<g clip-path="url(#clip0_181_33445)">
<circle cx="20" cy="20" r="20" fill="#103AA1"/>
<path d="M20.075 12.8999C21.7417 12.8999 23.05 13.2082 24 13.8249C24.95 14.4416 25.5917 15.3166 25.925 16.4499H27.8V17.7999H26.175C26.1917 17.9499 26.2 18.0999 26.2 18.2499C26.2167 18.3999 26.225 18.5499 26.225 18.6999C26.225 18.9166 26.2167 19.1416 26.2 19.3749C26.1833 19.5916 26.1583 19.8082 26.125 20.0249H27.8V21.3749H25.775C25.525 22.0582 25.1417 22.6666 24.625 23.1999C24.1083 23.7332 23.4417 24.1582 22.625 24.4749C21.8083 24.7749 20.8167 24.9249 19.65 24.9249H18.25V30.7499H16.175V21.3749H14V20.0249H16.175V17.7999H14V16.4499H16.175V12.8999H20.075ZM23.45 21.3749H18.25V23.0749H19.525C20.5083 23.0749 21.325 22.9416 21.975 22.6749C22.625 22.4082 23.1167 21.9749 23.45 21.3749ZM23.95 17.7999H18.25V20.0249H23.925C23.9583 19.8416 23.9833 19.6499 24 19.4499C24.0167 19.2332 24.025 19.0166 24.025 18.7999C24.025 18.6166 24.0167 18.4499 24 18.2999C24 18.1332 23.9833 17.9666 23.95 17.7999ZM20 14.7499H18.25V16.4499H23.525C23.225 15.8832 22.7833 15.4582 22.2 15.1749C21.6167 14.8916 20.8833 14.7499 20 14.7499Z" fill="white"/>
</g>
<defs>
<clipPath id="clip0_181_33445">
<rect width="40" height="40" fill="white"/>
</clipPath>
</defs>
</svg>
