<svg width="40" height="40" viewBox="0 0 40 40" fill="none" xmlns="http://www.w3.org/2000/svg">
<g clip-path="url(#clip0_181_33449)">
<circle cx="20" cy="20" r="20" fill="#04913C"/>
<path d="M26.0396 17.8325C28.4196 17.8325 29.7321 18.7775 29.9421 20.7025H27.9996C27.8596 20.2475 27.6496 19.915 27.3696 19.74C27.0721 19.5475 26.6171 19.46 26.0046 19.46C25.4796 19.46 25.0771 19.53 24.8146 19.6875C24.4996 19.845 24.3596 20.09 24.3596 20.44C24.3596 20.72 24.5871 20.9825 25.0771 21.1925C25.3746 21.315 25.9696 21.49 26.8796 21.7175C27.8946 21.9625 28.6646 22.2425 29.1546 22.575C29.8721 23.03 30.2396 23.6775 30.2396 24.4825C30.2396 26.4075 28.8746 27.37 26.1621 27.37C23.6421 27.37 22.2946 26.3025 22.1021 24.185H24.0446C24.1496 24.7625 24.3596 25.165 24.6571 25.41C24.9546 25.62 25.4271 25.7425 26.0921 25.7425C27.4921 25.7425 28.1921 25.3575 28.1921 24.6225C28.1921 24.2025 27.9296 23.87 27.4046 23.625C27.1246 23.485 26.5296 23.3275 25.6196 23.1175C24.5521 22.8725 23.7996 22.61 23.3621 22.33C22.6621 21.8925 22.3121 21.28 22.3121 20.4925C22.3121 19.6525 22.6446 19.005 23.3446 18.55C24.0271 18.06 24.9196 17.8325 26.0396 17.8325Z" fill="white"/>
<path d="M10.6001 14.6299H16.1651C17.4426 14.6299 18.4576 14.9099 19.1926 15.4874C19.9626 16.1174 20.3651 17.0274 20.3651 18.2174C20.3651 18.8649 20.1901 19.4424 19.8401 19.9499C19.4551 20.5099 18.9126 20.8774 18.2476 21.0524V21.0874C19.3326 21.3324 19.9451 22.0499 20.0851 23.2749L20.2951 25.2874C20.3651 26.0574 20.6276 26.6699 21.0476 27.1249H18.8251C18.5276 26.7399 18.3526 26.1974 18.2826 25.4974L18.1251 23.9574C18.0551 23.2749 17.8451 22.7849 17.4951 22.4874C17.1276 22.1724 16.5851 22.0324 15.8851 22.0324H12.6476V27.1249H10.6001V14.6299ZM12.6476 16.3799V20.2824H15.8851C16.6901 20.2824 17.3026 20.1074 17.7226 19.7749C18.1076 19.4249 18.3001 18.9349 18.3001 18.3049C18.3001 17.6224 18.1076 17.1324 17.7226 16.8349C17.3376 16.5199 16.7251 16.3799 15.8851 16.3799H12.6476Z" fill="white"/>
</g>
<defs>
<clipPath id="clip0_181_33449">
<rect width="40" height="40" fill="white"/>
</clipPath>
</defs>
</svg>
