<svg width="40" height="40" viewBox="0 0 40 40" fill="none" xmlns="http://www.w3.org/2000/svg">
<g clip-path="url(#clip0_181_33417)">
<circle cx="20" cy="20" r="20" fill="#004890"/>
<path d="M14.35 26.625H13.09C11.15 26.625 10.31 25.325 10.31 23.825V12.385H12.35V23.705C12.35 24.485 12.63 24.885 13.45 24.885H14.35V26.625ZM24.1531 22.145H17.5731C17.5731 23.885 18.4931 24.985 20.1531 24.985C21.2931 24.985 21.8931 24.665 22.6131 23.945L23.9131 25.165C22.8731 26.205 21.8931 26.745 20.1131 26.745C17.5731 26.745 15.5531 25.405 15.5531 21.545C15.5531 18.265 17.2531 16.365 19.8531 16.365C22.5731 16.365 24.1531 18.365 24.1531 21.245V22.145ZM22.1331 20.725C22.1131 20.105 22.0531 19.805 21.8531 19.345C21.5331 18.585 20.8131 18.065 19.8531 18.065C18.8931 18.065 18.1531 18.585 17.8331 19.345C17.6331 19.805 17.5931 20.105 17.5731 20.725H22.1331ZM28.8944 26.625H26.8544V16.485H28.8944V26.625ZM28.9544 14.485H26.7944V12.325H28.9544V14.485Z" fill="#FDDF06"/>
</g>
<defs>
<clipPath id="clip0_181_33417">
<rect width="40" height="40" fill="white"/>
</clipPath>
</defs>
</svg>
