<svg width="40" height="40" viewBox="0 0 40 40" fill="none" xmlns="http://www.w3.org/2000/svg">
<g clip-path="url(#clip0_181_33448)">
<circle cx="20" cy="20" r="20" fill="#012168"/>
<path d="M15.9325 29V12.935H20.1625C22.1275 12.935 23.5825 13.3325 24.5275 14.1275C25.4875 14.9225 25.9675 16.0775 25.9675 17.5925C25.9675 18.6125 25.735 19.49 25.27 20.225C24.805 20.945 24.115 21.5 23.2 21.89C22.3 22.28 21.1825 22.475 19.8475 22.475H17.9575V29H15.9325ZM13.975 25.94V24.4775H21.67V25.94H13.975ZM13.975 22.475V20.765H19.1275V22.475H13.975ZM19.555 20.765C20.47 20.765 21.2425 20.6675 21.8725 20.4725C22.5175 20.2775 23.0125 19.955 23.3575 19.505C23.7025 19.055 23.875 18.44 23.875 17.66C23.875 16.64 23.56 15.8825 22.93 15.3875C22.3 14.8925 21.3175 14.645 19.9825 14.645H17.9575V20.765H19.555Z" fill="white"/>
</g>
<defs>
<clipPath id="clip0_181_33448">
<rect width="40" height="40" fill="white"/>
</clipPath>
</defs>
</svg>
