<svg width="40" height="40" viewBox="0 0 40 40" fill="none" xmlns="http://www.w3.org/2000/svg">
<g clip-path="url(#clip0_181_33421)">
<circle cx="20" cy="20" r="20" fill="#2D6A3B"/>
<path d="M11.3355 26.8815C10.5855 26.8815 9.93775 26.7159 9.3923 26.3847C8.85659 26.0535 8.44263 25.5909 8.15043 24.9967C7.85822 24.4026 7.71212 23.7062 7.71212 22.9075C7.71212 22.3328 7.77056 21.7533 7.88744 21.1689C8.01406 20.5844 8.18939 20.0633 8.41341 19.6056H10.0936C9.93775 20.0926 9.81599 20.6234 9.72833 21.1981C9.64067 21.7727 9.59684 22.3474 9.59684 22.9221C9.59684 23.6721 9.77216 24.2614 10.1228 24.6899C10.4735 25.1185 10.941 25.3328 11.5254 25.3328H12.066C12.8452 25.3328 13.4199 25.1331 13.79 24.7338C14.1601 24.3344 14.3452 23.7597 14.3452 23.0097V12.2712H16.2007V23.0097C16.2007 24.2954 15.8646 25.2597 15.1926 25.9026C14.5205 26.5552 13.4978 26.8815 12.1244 26.8815H11.3355ZM18.7283 12.2712H20.613V21.8263H24.2655V16.1868H26.1503V23.375H18.7283V12.2712ZM28.3418 26.8815C27.9327 26.8815 27.548 26.8279 27.1876 26.7207C26.8369 26.6233 26.4571 26.448 26.048 26.1948L26.7639 24.9237C26.9977 25.06 27.2071 25.1526 27.3921 25.2013C27.5869 25.2597 27.8061 25.2889 28.0496 25.2889C28.4489 25.2889 28.7704 25.1331 29.0139 24.8214C29.2574 24.5097 29.3791 24.1055 29.3791 23.6088V16.1868H31.2492V23.6526C31.2492 24.3149 31.1275 24.8847 30.884 25.362C30.6502 25.849 30.3142 26.224 29.8759 26.487C29.4473 26.75 28.936 26.8815 28.3418 26.8815ZM21.738 26.7792C21.4555 26.7792 21.2266 26.6915 21.0513 26.5162C20.8857 26.3506 20.8029 26.1071 20.8029 25.7857C20.8029 25.474 20.8857 25.2305 21.0513 25.0552C21.2169 24.8799 21.4458 24.7922 21.738 24.7922C22.0204 24.7922 22.2396 24.8799 22.3954 25.0552C22.561 25.2402 22.6438 25.4837 22.6438 25.7857C22.6438 26.0974 22.561 26.3409 22.3954 26.5162C22.2396 26.6915 22.0204 26.7792 21.738 26.7792ZM24.2363 26.7792C23.9636 26.7792 23.7396 26.6964 23.5642 26.5308C23.3889 26.3652 23.3013 26.1169 23.3013 25.7857C23.3013 25.4545 23.3841 25.2062 23.5496 25.0406C23.725 24.875 23.9539 24.7922 24.2363 24.7922C24.5188 24.7922 24.7379 24.8799 24.8938 25.0552C25.0594 25.2305 25.1422 25.474 25.1422 25.7857C25.1422 26.1071 25.0594 26.3506 24.8938 26.5162C24.7282 26.6915 24.509 26.7792 24.2363 26.7792Z" fill="white"/>
</g>
<defs>
<clipPath id="clip0_181_33421">
<rect width="40" height="40" fill="white"/>
</clipPath>
</defs>
</svg>
