<svg width="40" height="40" viewBox="0 0 40 40" fill="none" xmlns="http://www.w3.org/2000/svg">
<g clip-path="url(#clip0_181_33419)">
<circle cx="20" cy="20" r="20" fill="#006AA8"/>
<path d="M19.0825 13.38H21.6725L16.1775 18.735L22.495 25.875H19.73L14.795 20.0825L13.2725 21.57V25.875H11.225V13.38H13.2725V19.2775L19.0825 13.38ZM27.8127 16.5825C28.2502 16.5825 28.6352 16.6525 28.9502 16.81V18.805C28.4952 18.665 28.0752 18.6125 27.6552 18.6125C27.1302 18.6125 26.6577 18.805 26.2377 19.225C25.7477 19.6975 25.5202 20.31 25.5202 21.08V25.875H23.5427V16.8275H25.5202V18.1225C25.7652 17.6675 26.0452 17.3175 26.3777 17.0725C26.7802 16.74 27.2527 16.5825 27.8127 16.5825ZM31.4356 23.2325C31.8206 23.2325 32.1356 23.355 32.4156 23.635C32.6781 23.8975 32.8181 24.23 32.8181 24.615C32.8181 25 32.6781 25.315 32.4156 25.595C32.1356 25.84 31.8206 25.98 31.4356 25.98C31.0506 25.98 30.7181 25.84 30.4731 25.595C30.1931 25.315 30.0706 25 30.0706 24.615C30.0706 24.23 30.1931 23.8975 30.4731 23.635C30.7181 23.355 31.0506 23.2325 31.4356 23.2325Z" fill="#FFCC01"/>
</g>
<defs>
<clipPath id="clip0_181_33419">
<rect width="40" height="40" fill="white"/>
</clipPath>
</defs>
</svg>
