<svg width="40" height="40" viewBox="0 0 40 40" fill="none" xmlns="http://www.w3.org/2000/svg">
<g clip-path="url(#clip0_181_33430)">
<circle cx="20" cy="20" r="20" fill="#002E63"/>
<path d="M15.2246 11.7793H19.3945V8.98633H21.0449V11.7793H21.3867C23.0664 11.7793 24.2611 12.2806 24.9707 13.2832C25.3874 13.8757 25.5957 14.5592 25.5957 15.334C25.5957 16.2389 25.3385 16.9811 24.8242 17.5605C24.5573 17.8665 24.1732 18.1465 23.6719 18.4004C24.4076 18.6803 24.9577 18.9961 25.3223 19.3477C25.9668 19.9727 26.2891 20.8353 26.2891 21.9355C26.2891 22.86 25.9993 23.6966 25.4199 24.4453C24.554 25.5651 23.1771 26.125 21.2891 26.125H21.0449V28.4785H19.3945V26.125H15.2246V11.7793ZM21.3184 24.4648C22.5098 24.4648 23.3594 24.1198 23.8672 23.4297C24.1862 22.9935 24.3457 22.4661 24.3457 21.8477C24.3457 20.806 23.8802 20.0964 22.9492 19.7188C22.4674 19.5234 21.8327 19.4225 21.0449 19.416V24.4648H21.3184ZM17.1289 24.4648H19.3945V19.416H17.1289V24.4648ZM17.1289 17.8438H19.3945V13.4004H17.1289V17.8438ZM22.5781 17.502C23.2943 17.1439 23.6523 16.4993 23.6523 15.5684C23.6523 14.6309 23.2715 13.9993 22.5098 13.6738C22.1582 13.5241 21.6699 13.4362 21.0449 13.4102V17.834C21.6829 17.8079 22.194 17.6973 22.5781 17.502Z" fill="white"/>
</g>
<defs>
<clipPath id="clip0_181_33430">
<rect width="40" height="40" fill="white"/>
</clipPath>
</defs>
</svg>
