<svg width="40" height="40" viewBox="0 0 40 40" fill="none" xmlns="http://www.w3.org/2000/svg">
<g clip-path="url(#clip0_181_33453)">
<circle cx="20" cy="20" r="20" fill="#E20C17"/>
<path d="M18.275 30.3875C17.7984 30.3875 17.3675 30.3692 16.9825 30.3325C16.5975 30.3142 16.2675 30.2867 15.9925 30.25V21.285L13.05 22.3025V20.515L15.9925 19.525V17.3525L13.05 18.3425V16.555L15.9925 15.565V10.615H18.3575V14.74L24.0225 12.7875V14.575L18.3575 16.5275V18.7L24.0225 16.7475V18.5075L18.3575 20.4875V28.2975C20.0259 28.2975 21.3459 27.9583 22.3175 27.28C23.2892 26.5833 23.9859 25.6575 24.4075 24.5025C24.8292 23.3475 25.04 22.055 25.04 20.625H27.4051C27.4051 21.89 27.2401 23.1092 26.9101 24.2825C26.5984 25.4558 26.0759 26.5008 25.3425 27.4175C24.6276 28.3342 23.6925 29.0583 22.5375 29.59C21.3825 30.1217 19.9617 30.3875 18.275 30.3875Z" fill="white"/>
</g>
<defs>
<clipPath id="clip0_181_33453">
<rect width="40" height="40" fill="white"/>
</clipPath>
</defs>
</svg>
