<svg width="40" height="40" viewBox="0 0 40 40" fill="none" xmlns="http://www.w3.org/2000/svg">
<g clip-path="url(#clip0_181_33428)">
<circle cx="20" cy="20" r="20" fill="#2B713A"/>
<path d="M5.85 15.29H14.625V16.79H11.115V26H9.36V16.79H5.85V15.29ZM19.6835 15.08C20.9435 15.08 21.9335 15.335 22.6385 15.86C23.3885 16.415 23.8235 17.285 23.9285 18.455H22.1885C22.0385 17.795 21.7535 17.315 21.3635 17.03C20.9735 16.73 20.3735 16.595 19.5935 16.595C18.9185 16.595 18.4085 16.685 18.0485 16.88C17.5985 17.105 17.3885 17.48 17.3885 17.99C17.3885 18.44 17.6285 18.815 18.1385 19.085C18.3635 19.205 18.9785 19.43 19.9685 19.745C21.4235 20.195 22.3535 20.555 22.7735 20.795C23.7035 21.35 24.1685 22.115 24.1685 23.105C24.1685 24.065 23.7935 24.83 23.0435 25.385C22.2935 25.925 21.2285 26.21 19.8635 26.21C18.5435 26.21 17.5085 25.955 16.7735 25.445C15.8735 24.815 15.3785 23.825 15.3035 22.46H17.0435C17.1635 23.27 17.4485 23.855 17.9135 24.2C18.3335 24.5 18.9785 24.665 19.8635 24.665C20.6435 24.665 21.2735 24.53 21.7235 24.275C22.1735 24.005 22.4135 23.66 22.4135 23.21C22.4135 22.64 22.0685 22.19 21.4085 21.86C21.1985 21.755 20.5085 21.515 19.3235 21.155C18.0035 20.735 17.1785 20.435 16.8635 20.255C16.0385 19.76 15.6335 19.04 15.6335 18.095C15.6335 17.15 16.0235 16.4 16.8335 15.86C17.5835 15.335 18.5285 15.08 19.6835 15.08ZM25.524 15.08H27.234V19.28C27.519 18.845 27.879 18.53 28.299 18.32C28.674 18.125 29.109 18.035 29.604 18.035C30.549 18.035 31.254 18.305 31.719 18.86C32.154 19.385 32.379 20.165 32.379 21.2V26H30.669V21.5C30.669 20.84 30.534 20.33 30.279 19.985C29.979 19.61 29.544 19.43 28.959 19.43C28.419 19.43 27.999 19.64 27.699 20.06C27.384 20.48 27.234 21.005 27.234 21.665V26H25.524V15.08Z" fill="white"/>
</g>
<defs>
<clipPath id="clip0_181_33428">
<rect width="40" height="40" fill="white"/>
</clipPath>
</defs>
</svg>
