<svg width="40" height="40" viewBox="0 0 40 40" fill="none" xmlns="http://www.w3.org/2000/svg">
<g clip-path="url(#clip0_181_33450)">
<circle cx="20" cy="20" r="20" fill="#025BBB"/>
<path d="M13.41 18.3237H21.675C21.865 18.205 22.0075 18.11 22.1263 18.015C22.8388 17.4212 23.2188 16.7325 23.2188 15.9487C23.2188 14.9987 22.9338 14.31 22.4113 13.835C21.865 13.36 21.0575 13.1225 20.0125 13.1225C17.97 13.1225 16.7825 14.215 16.4975 16.4H14.645C14.835 14.7612 15.405 13.5262 16.355 12.695C17.2575 11.8875 18.4688 11.4837 20.0125 11.4837C21.58 11.4837 22.8388 11.8637 23.7413 12.6237C24.6913 13.4075 25.1663 14.5237 25.1663 15.9725C25.1663 16.8275 24.905 17.6112 24.3825 18.3237H26.52V19.5112H23.1238C22.53 19.8912 21.5088 20.4375 20.06 21.15L19.4425 21.4587H26.52V22.6463H17.6138C16.9013 23.2162 16.5688 23.8575 16.5688 24.5462C16.5688 25.425 16.83 26.1137 17.3763 26.6125C17.9225 27.135 18.73 27.3962 19.775 27.3962C21.7938 27.3962 22.9575 26.3037 23.29 24.1425H25.1663C24.9525 25.7575 24.3825 26.9925 23.4563 27.8475C22.5538 28.6312 21.3188 29.035 19.775 29.035C18.1125 29.035 16.8538 28.655 15.9988 27.895C15.0963 27.1112 14.645 25.995 14.645 24.57C14.645 23.8575 14.7875 23.2162 15.12 22.6463H13.41V21.4587H16.1175L16.165 21.4112C16.6162 21.0312 17.685 20.4137 19.3713 19.5825C19.4188 19.535 19.4663 19.5112 19.5138 19.5112H13.41V18.3237Z" fill="#FED500"/>
</g>
<defs>
<clipPath id="clip0_181_33450">
<rect width="40" height="40" fill="white"/>
</clipPath>
</defs>
</svg>
