<svg width="40" height="40" viewBox="0 0 40 40" fill="none" xmlns="http://www.w3.org/2000/svg">
<g clip-path="url(#clip0_181_33442)">
<circle cx="20" cy="20" r="20" fill="#3094D8"/>
<path d="M19.2246 27.6248H16.5752V16.8748H12.8252L11.6504 23.7996C11.4004 25.2496 10.85 26.2751 10 26.9001C9.32506 27.3751 8.47506 27.6247 7.4502 27.6248H6.125V25.45H7.02539C7.52521 25.4499 7.92508 25.2995 8.25 25.0496C8.6249 24.6996 8.89983 24.1496 9.0498 23.3748L10.5254 14.7H19.2246V27.6248ZM29.1133 14.7C30.338 14.7 31.2876 14.9253 31.9375 15.4001C32.6874 15.9251 33.0624 16.7748 33.0625 17.9246C33.0625 19.3746 32.3129 20.325 30.8379 20.825C32.6378 21.3999 33.538 22.4249 33.5381 23.8748C33.5381 25.0997 33.1378 26.0246 32.3379 26.6746C31.538 27.2995 30.3381 27.6247 28.7383 27.6248H22.2129V14.7H29.1133ZM24.8633 25.5496H28.4883C29.5131 25.5495 30.2377 25.3745 30.6377 25.0496C30.9876 24.7746 31.1631 24.3249 31.1631 23.7C31.1631 22.55 30.238 21.9998 28.4131 21.9998H24.8633V25.5496ZM24.8633 19.9753H28.4131C29.113 19.9753 29.6381 19.8497 30.0381 19.6248C30.4629 19.3498 30.6875 18.9247 30.6875 18.3748C30.6874 17.2749 29.9378 16.7498 28.4629 16.7498H24.8633V19.9753Z" fill="white"/>
</g>
<defs>
<clipPath id="clip0_181_33442">
<rect width="40" height="40" fill="white"/>
</clipPath>
</defs>
</svg>
