<svg width="40" height="40" viewBox="0 0 40 40" fill="none" xmlns="http://www.w3.org/2000/svg">
<g clip-path="url(#clip0_181_33452)">
<circle cx="20" cy="20" r="20" fill="#052179"/>
<path d="M9.975 14.63H15.6975C16.94 14.63 17.92 14.9275 18.62 15.5225C19.2675 16.0825 19.6 16.835 19.6 17.78C19.6 18.48 19.425 19.075 19.0925 19.565C18.76 20.02 18.2875 20.3525 17.6575 20.5975C18.48 20.755 19.0925 21.0875 19.5125 21.595C19.915 22.085 20.125 22.7675 20.125 23.6075C20.125 24.8675 19.6875 25.795 18.83 26.39C18.095 26.88 17.045 27.125 15.715 27.125H9.975V14.63ZM12.0225 16.31V19.88H15.155C16.03 19.88 16.6425 19.7225 17.01 19.4425C17.36 19.145 17.5525 18.6725 17.5525 18.025C17.5525 17.43 17.36 16.9925 17.01 16.73C16.625 16.45 16.03 16.31 15.19 16.31H12.0225ZM12.0225 21.56V25.445H15.4175C16.1875 25.445 16.8 25.3225 17.2375 25.0775C17.7975 24.7625 18.0775 24.2725 18.0775 23.5725C18.0775 22.855 17.8675 22.3475 17.465 22.0325C17.045 21.7175 16.38 21.56 15.47 21.56H12.0225ZM25.295 17.8325C27.675 17.8325 28.9875 18.7775 29.1975 20.7025H27.255C27.115 20.2475 26.905 19.915 26.625 19.74C26.3275 19.5475 25.8725 19.46 25.26 19.46C24.735 19.46 24.3325 19.53 24.07 19.6875C23.755 19.845 23.615 20.09 23.615 20.44C23.615 20.72 23.8425 20.9825 24.3325 21.1925C24.63 21.315 25.225 21.49 26.135 21.7175C27.15 21.9625 27.92 22.2425 28.41 22.575C29.1275 23.03 29.495 23.6775 29.495 24.4825C29.495 26.4075 28.13 27.37 25.4175 27.37C22.8975 27.37 21.55 26.3025 21.3575 24.185H23.3C23.405 24.7625 23.615 25.165 23.9125 25.41C24.21 25.62 24.6825 25.7425 25.3475 25.7425C26.7475 25.7425 27.4475 25.3575 27.4475 24.6225C27.4475 24.2025 27.185 23.87 26.66 23.625C26.38 23.485 25.785 23.3275 24.875 23.1175C23.8075 22.8725 23.055 22.61 22.6175 22.33C21.9175 21.8925 21.5675 21.28 21.5675 20.4925C21.5675 19.6525 21.9 19.005 22.6 18.55C23.2825 18.06 24.175 17.8325 25.295 17.8325Z" fill="white"/>
</g>
<defs>
<clipPath id="clip0_181_33452">
<rect width="40" height="40" fill="white"/>
</clipPath>
</defs>
</svg>
