<svg width="40" height="40" viewBox="0 0 40 40" fill="none" xmlns="http://www.w3.org/2000/svg">
<g clip-path="url(#clip0_181_33446)">
<circle cx="20" cy="20" r="20" fill="#DA251D"/>
<path d="M22.76 9.58496H25.2775V11.4375H27.225V12.91H25.2775V26.875H22.9262V25.4025C22.0712 26.59 20.7887 27.2075 19.1262 27.2075C17.3212 27.2075 15.8962 26.5662 14.875 25.2837C13.925 24.0962 13.45 22.5525 13.45 20.6762C13.45 18.8712 13.9012 17.375 14.8512 16.1875C15.8487 14.905 17.2262 14.2637 19.0075 14.2637C20.5037 14.2637 21.7625 14.9762 22.76 16.425V12.91H18.7937V11.4375H22.76V9.58496ZM19.5775 16.3062C18.3425 16.3062 17.4162 16.71 16.8225 17.565C16.3 18.2775 16.0387 19.3225 16.0387 20.6762C16.0387 22.03 16.2762 23.075 16.775 23.835C17.345 24.7137 18.2712 25.165 19.5062 25.165C20.5987 25.165 21.43 24.7137 22.0475 23.8587C22.57 23.0987 22.8312 22.0775 22.8312 20.8425V20.6287C22.8312 19.2987 22.4987 18.23 21.8812 17.4225C21.2637 16.6625 20.5037 16.3062 19.5775 16.3062ZM16.205 29.06H23.5437V30.58H16.205V29.06Z" fill="#FEFF03"/>
</g>
<defs>
<clipPath id="clip0_181_33446">
<rect width="40" height="40" fill="white"/>
</clipPath>
</defs>
</svg>
