<svg width="40" height="40" viewBox="0 0 40 40" fill="none" xmlns="http://www.w3.org/2000/svg">
<g clip-path="url(#clip0_181_33418)">
<circle cx="20" cy="20" r="20" fill="#50815C"/>
<path d="M4.875 16.075H10.9625V17.325H6.3375V19.8H10.7V21.05H6.3375V25H4.875V16.075ZM16.0254 15.9C17.0754 15.9 17.9504 16.175 18.6254 16.725C19.2754 17.25 19.6629 17.975 19.8004 18.875H18.3754C18.2254 18.2875 17.9504 17.8625 17.5379 17.5875C17.1379 17.3125 16.6254 17.1875 16.0004 17.1875C15.0629 17.1875 14.3629 17.5 13.8879 18.15C13.4504 18.725 13.2379 19.525 13.2379 20.55C13.2379 21.6 13.4504 22.4125 13.8754 22.975C14.3379 23.575 15.0629 23.8875 16.0379 23.8875C16.6754 23.8875 17.2004 23.725 17.6004 23.425C18.0254 23.0875 18.3254 22.575 18.5004 21.9H19.9254C19.7254 22.95 19.2629 23.7625 18.5254 24.35C17.8379 24.9 17.0129 25.175 16.0504 25.175C14.5629 25.175 13.4504 24.7 12.7254 23.775C12.0879 22.975 11.7754 21.9 11.7754 20.55C11.7754 19.225 12.1004 18.1375 12.7629 17.3125C13.5129 16.3625 14.6004 15.9 16.0254 15.9ZM21.3057 16.075H27.3932V17.325H22.7682V19.8H27.1307V21.05H22.7682V25H21.3057V16.075ZM31.1186 16.075H32.7811L36.1936 25H34.6311L33.8186 22.7625H30.0811L29.2686 25H27.7061L31.1186 16.075ZM30.5186 21.5625H33.3811L31.9811 17.65H31.9311L30.5186 21.5625Z" fill="white"/>
</g>
<defs>
<clipPath id="clip0_181_33418">
<rect width="40" height="40" fill="white"/>
</clipPath>
</defs>
</svg>
