<svg width="40" height="40" viewBox="0 0 40 40" fill="none" xmlns="http://www.w3.org/2000/svg">
<g clip-path="url(#clip0_181_33429)">
<circle cx="20" cy="20" r="20" fill="#50815C"/>
<path d="M9.925 13.92C11.29 13.92 12.4275 14.2775 13.305 14.9925C14.15 15.675 14.6538 16.6175 14.8325 17.7875H12.98C12.785 17.0237 12.4275 16.4712 11.8913 16.1137C11.3713 15.7562 10.705 15.5938 9.8925 15.5938C8.67375 15.5938 7.76375 16 7.14625 16.845C6.5775 17.5925 6.30125 18.6325 6.30125 19.965C6.30125 21.33 6.5775 22.3862 7.13 23.1175C7.73125 23.8975 8.67375 24.3037 9.94125 24.3037C10.77 24.3037 11.4525 24.0925 11.9725 23.7025C12.525 23.2637 12.915 22.5975 13.1425 21.72H14.995C14.735 23.085 14.1338 24.1412 13.175 24.905C12.2813 25.62 11.2088 25.9775 9.9575 25.9775C8.02375 25.9775 6.5775 25.36 5.635 24.1575C4.80625 23.1175 4.4 21.72 4.4 19.965C4.4 18.2425 4.8225 16.8287 5.68375 15.7562C6.65875 14.5212 8.0725 13.92 9.925 13.92ZM16.7894 14.1475H24.7031V15.7725H18.6906V18.99H24.3619V20.615H18.6906V25.75H16.7894V14.1475ZM29.5461 14.1475H31.7074L36.1436 25.75H34.1124L33.0561 22.8412H28.1974L27.1411 25.75H25.1099L29.5461 14.1475ZM28.7661 21.2812H32.4874L30.6674 16.195H30.6024L28.7661 21.2812Z" fill="white"/>
</g>
<defs>
<clipPath id="clip0_181_33429">
<rect width="40" height="40" fill="white"/>
</clipPath>
</defs>
</svg>
