<svg width="40" height="40" viewBox="0 0 40 40" fill="none" xmlns="http://www.w3.org/2000/svg">
<g clip-path="url(#clip0_181_33444)">
<circle cx="20" cy="20" r="20" fill="#2B713A"/>
<path d="M29.0535 24.5327C29.5035 24.5327 29.9083 24.6904 30.2458 25.0054C30.5608 25.3204 30.741 25.7252 30.741 26.2202C30.7409 26.6701 30.5608 27.0752 30.2458 27.4126C29.9084 27.705 29.5034 27.8628 29.0535 27.8628C28.5586 27.8627 28.176 27.7051 27.8835 27.4126C27.5461 27.0752 27.3885 26.6701 27.3884 26.2202C27.3884 25.7253 27.5462 25.3203 27.8835 25.0054C28.176 24.6904 28.5586 24.5328 29.0535 24.5327Z" fill="white"/>
<path fill-rule="evenodd" clip-rule="evenodd" d="M19.5525 11.73C22.5899 11.73 24.525 13.6873 24.5251 16.4097C24.5251 18.7047 23.1298 20.1676 21.3298 20.6626L25.0203 27.7495H22.1853L18.8103 20.9995H15.7722V27.7495H13.3425V11.73H19.5525ZM15.7722 18.9302H19.3728C20.9927 18.9301 22.0955 18.007 22.0955 16.4321C22.0953 14.8574 20.9925 13.9127 19.3728 13.9126H15.7722V18.9302Z" fill="white"/>
</g>
<defs>
<clipPath id="clip0_181_33444">
<rect width="40" height="40" fill="white"/>
</clipPath>
</defs>
</svg>
