<svg width="40" height="40" viewBox="0 0 40 40" fill="none" xmlns="http://www.w3.org/2000/svg">
<g clip-path="url(#clip0_13957_1743)">
<path d="M20 40C31.0457 40 40 31.0457 40 20C40 8.95431 31.0457 0 20 0C8.95431 0 0 8.95431 0 20C0 31.0457 8.95431 40 20 40Z" fill="#070808"/>
<path d="M12.65 11.25L15.24 13.805C16.675 12.65 18.355 12.09 20.245 12.09C22.065 12.09 23.71 12.65 25.18 13.805L27.77 11.25L29.17 12.65L26.615 15.17C27.735 16.64 28.33 18.32 28.33 20.21C28.33 22.03 27.735 23.71 26.58 25.215L29.17 27.735L27.77 29.135L25.215 26.58C23.745 27.7 22.065 28.295 20.245 28.295C18.355 28.295 16.71 27.7 15.24 26.58L12.685 29.135L11.285 27.735L13.84 25.18C12.685 23.71 12.125 22.03 12.125 20.21C12.125 18.32 12.685 16.64 13.84 15.205L11.25 12.65L12.65 11.25ZM20.245 14.82C18.74 14.82 17.48 15.345 16.43 16.395C15.38 17.445 14.855 18.705 14.855 20.21C14.855 21.68 15.38 22.94 16.43 23.99C17.48 25.04 18.74 25.565 20.245 25.565C21.715 25.565 22.975 25.04 24.025 23.99C25.075 22.94 25.6 21.68 25.6 20.21C25.6 18.705 25.075 17.445 24.025 16.395C22.975 15.345 21.715 14.82 20.245 14.82Z" fill="white"/>
</g>
<defs>
<clipPath id="clip0_13957_1743">
<rect width="40" height="40" fill="white"/>
</clipPath>
</defs>
</svg>
