<svg width="24" height="24" viewBox="0 0 24 24" fill="none" xmlns="http://www.w3.org/2000/svg">
<path d="M20.7426 12.1621C21.0027 12.1783 21.2393 12.3302 21.3617 12.5664C21.4839 12.8026 21.4711 13.0829 21.3344 13.3047L21.2679 13.3955C20.9764 13.7401 20.8051 14.1971 20.6703 14.7852C20.6029 15.0793 20.5501 15.3781 20.4886 15.7051C20.429 16.0225 20.3622 16.3619 20.2699 16.6924C20.0855 17.3529 19.7796 18.0586 19.1312 18.584C18.4795 19.112 17.5892 19.372 16.4125 19.3721C15.9983 19.3721 15.6625 19.0363 15.6625 18.6221C15.6627 18.2081 15.9984 17.8721 16.4125 17.8721C17.3771 17.872 17.8892 17.6601 18.1869 17.4189C18.4878 17.1751 18.6788 16.8149 18.8256 16.2891C18.8989 16.0263 18.956 15.7419 19.015 15.4277C19.0722 15.1232 19.1323 14.7818 19.2084 14.4502C19.2493 14.2718 19.2967 14.088 19.3539 13.9023C17.2033 14.4797 15.9197 15.8614 15.141 17.2158C14.6686 18.0376 14.385 18.8475 14.2201 19.4541C14.138 19.7562 14.086 20.0048 14.0551 20.1748C14.0396 20.2597 14.0299 20.3251 14.0238 20.3672C14.0208 20.3879 14.0181 20.403 14.017 20.4121L14.016 20.4219C13.9691 20.8334 13.5974 21.1279 13.1859 21.0811C12.7744 21.0341 12.4789 20.6625 12.5258 20.251L13.2709 20.3359C12.5257 20.2511 12.5257 20.2514 12.5258 20.251V20.2471L12.5297 20.2197C12.5318 20.2029 12.5352 20.1794 12.5394 20.1504C12.548 20.0919 12.5607 20.0094 12.5795 19.9062C12.6171 19.6998 12.6781 19.4089 12.7728 19.0605C12.9617 18.366 13.2884 17.4292 13.8412 16.4678C14.9567 14.5278 17.0052 12.4812 20.6302 12.1641L20.7426 12.1621Z" fill="#0068FF"/>
<path d="M12.8486 13.75H8.63379C6.28674 13.75 4.38379 15.6529 4.38379 18C4.38379 18.6904 4.94352 19.25 5.63379 19.25H10.8486V20.75H5.63379C4.11501 20.75 2.88379 19.5187 2.88379 18C2.88379 14.8245 5.45823 12.25 8.63379 12.25H12.8486V13.75Z" fill="#303236"/>
<path fill-rule="evenodd" clip-rule="evenodd" d="M9.30859 3.34961C11.3243 3.34982 12.958 4.98429 12.958 7C12.9578 9.01553 11.3241 10.6492 9.30859 10.6494C7.293 10.6493 5.65841 9.01558 5.6582 7C5.6582 4.98424 7.29287 3.34974 9.30859 3.34961ZM9.30859 4.84961C8.12129 4.84974 7.1582 5.81267 7.1582 7C7.15841 8.18715 8.12142 9.14928 9.30859 9.14941C10.4957 9.1492 11.4578 8.1871 11.458 7C11.458 5.81272 10.4958 4.84982 9.30859 4.84961Z" fill="#303236"/>
<path d="M15.1631 3.77441C17.027 3.77441 18.5381 5.28545 18.5381 7.14941C18.5381 9.01338 17.027 10.5244 15.1631 10.5244C14.8684 10.5244 14.5814 10.4866 14.3076 10.415L14.0381 10.332L13.9668 10.3027C13.6234 10.1403 13.4518 9.74091 13.5811 9.375C13.7105 9.00886 14.0954 8.80651 14.4648 8.89648L14.5381 8.91797L14.6865 8.96387C14.838 9.00349 14.9978 9.02439 15.1631 9.02441C16.1986 9.02441 17.0381 8.18495 17.0381 7.14941C17.0381 6.11388 16.1986 5.27441 15.1631 5.27441C14.9427 5.27444 14.7325 5.31215 14.5381 5.38086C14.1476 5.51873 13.7191 5.31421 13.5811 4.92383C13.4431 4.53342 13.6478 4.10494 14.0381 3.9668C14.3909 3.84211 14.77 3.77444 15.1631 3.77441Z" fill="#303236"/>
</svg>
