<svg width="24" height="24" viewBox="0 0 24 24" fill="none" xmlns="http://www.w3.org/2000/svg">
<path d="M6.50098 2.25C6.80835 2.25 7.08006 2.43655 7.19434 2.71289L7.2334 2.83691V2.83887C7.23389 2.84105 7.23517 2.84459 7.23633 2.84961C7.23871 2.85992 7.24198 2.87627 7.24707 2.89746C7.25729 2.93999 7.27336 3.00339 7.29395 3.08203C7.33523 3.23967 7.39563 3.45766 7.47363 3.69824C7.63766 4.20404 7.84946 4.72064 8.07129 5.02148C8.1504 5.12819 8.30647 5.27106 8.54395 5.43359C8.77289 5.59028 9.03887 5.73963 9.2998 5.87109C9.55891 6.00162 9.8026 6.10854 9.98145 6.18359C10.0705 6.22097 10.1433 6.25027 10.1924 6.26953C10.2166 6.27904 10.235 6.28643 10.2471 6.29102C10.2531 6.29332 10.2581 6.29491 10.2607 6.2959L10.2627 6.29688L10.3682 6.3457C10.6025 6.47674 10.752 6.72557 10.752 7C10.7519 7.2744 10.6025 7.52328 10.3682 7.6543L10.2627 7.70312C10.2622 7.70329 10.261 7.70364 10.2598 7.7041C10.2571 7.7051 10.2528 7.70679 10.2471 7.70898C10.235 7.71359 10.2159 7.72086 10.1914 7.73047C10.1423 7.74973 10.0703 7.77912 9.98145 7.81641C9.8025 7.89147 9.55904 7.99925 9.2998 8.12988C9.03882 8.2614 8.77271 8.41061 8.54395 8.56738C8.30687 8.72986 8.15196 8.87202 8.07324 8.97852L8.07227 8.97949C7.85041 9.2793 7.63789 9.79543 7.47363 10.3018C7.39561 10.5423 7.33524 10.7603 7.29395 10.918C7.27336 10.9966 7.25729 11.06 7.24707 11.1025C7.24198 11.1237 7.23871 11.1401 7.23633 11.1504C7.23517 11.1554 7.23389 11.1589 7.2334 11.1611V11.1631C7.15695 11.506 6.85228 11.75 6.50098 11.75C6.14972 11.75 5.84505 11.5059 5.76855 11.1631V11.1611C5.76805 11.1589 5.76678 11.1554 5.76562 11.1504C5.76324 11.1401 5.75999 11.1238 5.75488 11.1025C5.74467 11.0601 5.72857 10.9974 5.70801 10.9189C5.66668 10.7613 5.60654 10.5426 5.52832 10.3018C5.36399 9.79574 5.15154 9.27899 4.92871 8.97754C4.85001 8.87126 4.69452 8.72999 4.45703 8.56738C4.2282 8.41072 3.9621 8.26145 3.70117 8.12988C3.44227 7.99934 3.19931 7.89155 3.02051 7.81641C2.93143 7.77898 2.85867 7.74977 2.80957 7.73047C2.78506 7.72084 2.76599 7.7136 2.75391 7.70898C2.74805 7.70675 2.74379 7.70507 2.74121 7.7041L2.73828 7.70312C2.44467 7.59384 2.25 7.31331 2.25 7C2.2501 6.68646 2.44529 6.40591 2.73926 6.29688L2.74121 6.2959C2.74384 6.29491 2.74884 6.29332 2.75488 6.29102C2.7669 6.28644 2.78531 6.27905 2.80957 6.26953C2.85865 6.25027 2.93145 6.22097 3.02051 6.18359C3.19921 6.1086 3.44234 6.00151 3.70117 5.87109C3.962 5.73966 4.22833 5.59022 4.45703 5.43359C4.69439 5.27103 4.85004 5.12888 4.92871 5.02246L5.01172 4.89941C5.20369 4.59233 5.38449 4.14131 5.52832 3.69824C5.6064 3.45769 5.66671 3.23968 5.70801 3.08203C5.7286 3.0034 5.74466 2.93997 5.75488 2.89746C5.75998 2.87625 5.76324 2.85993 5.76562 2.84961C5.76678 2.8446 5.76806 2.84106 5.76855 2.83887V2.83691C5.845 2.49402 6.14967 2.25003 6.50098 2.25ZM6.5 5.30078C6.39129 5.5193 6.26956 5.72963 6.13379 5.91309L6.13477 5.91406C5.91134 6.21627 5.59859 6.4696 5.30469 6.6709C5.13103 6.78983 4.94756 6.89887 4.76758 7C4.94756 7.10114 5.13104 7.21022 5.30469 7.3291C5.59847 7.53024 5.9104 7.78426 6.13379 8.08594L6.27148 8.28613C6.35391 8.41662 6.42906 8.55659 6.5 8.69922C6.57094 8.55651 6.64802 8.41756 6.73047 8.28711L6.86621 8.08691C7.08961 7.78454 7.40246 7.53144 7.69629 7.33008C7.87006 7.21099 8.05328 7.10122 8.2334 7C8.05364 6.89902 7.87074 6.78962 7.69727 6.6709C7.4032 6.46963 7.09088 6.21597 6.86719 5.91406C6.73158 5.7305 6.60862 5.5195 6.5 5.30078Z" fill="#0068FF"/>
<path d="M14.125 3C15.6438 3 16.875 4.23122 16.875 5.75V18.1875C16.875 18.9124 17.4626 19.5 18.1875 19.5C18.9124 19.5 19.5 18.9124 19.5 18.1875V6.84375C19.5 6.42954 19.8358 6.09375 20.25 6.09375C20.6642 6.09375 21 6.42954 21 6.84375V18.1875C21 19.7408 19.7408 21 18.1875 21H6.75C4.67893 21 3 19.3211 3 17.25V13C3 12.5858 3.33579 12.25 3.75 12.25C4.16421 12.25 4.5 12.5858 4.5 13V17.25C4.5 18.4926 5.50736 19.5 6.75 19.5H15.7012C15.4938 19.108 15.375 18.6618 15.375 18.1875V5.75C15.375 5.05964 14.8154 4.5 14.125 4.5H11.5C11.0858 4.5 10.75 4.16421 10.75 3.75C10.75 3.33579 11.0858 3 11.5 3H14.125Z" fill="#303236"/>
<path d="M13 16.75H7V15.25H13V16.75Z" fill="#303236"/>
</svg>
