<svg width="24" height="24" viewBox="0 0 24 24" fill="none" xmlns="http://www.w3.org/2000/svg">
<path d="M14.8001 17.5C14.8001 16.5611 15.5612 15.8 16.5001 15.8V14.2C14.6775 14.2 13.2001 15.6774 13.2001 17.5C13.2001 19.3225 14.6775 20.8 16.5001 20.8C18.3226 20.8 19.8001 19.3225 19.8001 17.5H18.2001C18.2001 18.4388 17.439 19.2 16.5001 19.2C15.5612 19.2 14.8001 18.4388 14.8001 17.5Z" fill="#0068FF"/>
<path d="M18.1856 17.6081H16.3856V15.8081H18.1856V17.6081Z" fill="#0068FF"/>
<path fill-rule="evenodd" clip-rule="evenodd" d="M12.7462 4.13285C14.5573 4.85071 16.0834 6.23562 16.6446 6.85996C19.5266 9.97608 19.7309 13.7884 19.7496 14.301C19.7606 14.6044 19.5877 14.8845 19.3115 15.0106C19.0353 15.1367 18.7104 15.0838 18.4884 14.8767C17.003 13.4906 15.545 12.2693 14.1531 11.1954C13.9463 11.306 13.7135 11.3593 13.4803 11.3507L7.54312 19.8364C6.79626 20.9038 5.32434 21.1639 4.25691 20.417C3.18948 19.6702 2.92939 18.1983 3.67625 17.1308L9.61389 8.64454C9.52632 8.4288 9.49676 8.19227 9.52972 7.96046C8.04362 7.02074 6.39632 6.06929 4.58479 5.14866C4.31413 5.01111 4.1531 4.72395 4.17689 4.42128C4.20068 4.11861 4.40461 3.86013 4.69343 3.76656C5.18131 3.6085 8.83176 2.49427 12.7462 4.13285ZM10.7219 9.67743L4.90528 17.9908C4.63335 18.3794 4.72818 18.9161 5.11683 19.188C5.50549 19.4599 6.04215 19.3651 6.31408 18.9765L12.1307 10.6631L10.7219 9.67743ZM13.4846 9.77969C13.6007 9.61406 13.7789 9.50229 13.9788 9.46994C14.1807 9.43725 14.3873 9.48848 14.5505 9.61175C15.6416 10.4355 16.7763 11.3486 17.9361 12.3591C17.6057 11.0719 16.9285 9.37451 15.5399 7.87474L15.5317 7.86592L15.5318 7.86586C15.0681 7.34862 13.7187 6.13011 12.1876 5.52497L12.1731 5.5191C10.2883 4.72857 8.46166 4.67408 7.13913 4.80474C8.48596 5.54801 9.73257 6.30112 10.8804 7.04382C11.0514 7.15451 11.1701 7.33004 11.2091 7.53003C11.2479 7.72951 11.2042 7.9362 11.0879 8.1028L13.4846 9.77969Z" fill="#303236"/>
</svg>
