<svg width="24" height="24" viewBox="0 0 24 24" fill="none" xmlns="http://www.w3.org/2000/svg">
<path d="M18.8552 13.345L17.7945 14.4057L14.4744 11.0856L11.9996 13.5605L8.18921 9.75013L11.3988 6.54053L12.4595 7.60119L10.3105 9.75013L11.9996 11.4392L14.4744 8.9643L18.8552 13.345Z" fill="#0068FF"/>
<path fill-rule="evenodd" clip-rule="evenodd" d="M12.5686 5.36759C14.6847 3.25321 18.1146 3.25433 20.2298 5.36954C22.3453 7.48537 22.3455 10.9159 20.2298 13.0317L13.2376 20.0238C12.5543 20.7069 11.4464 20.7068 10.763 20.0238L3.76981 13.0307C1.65437 10.9152 1.65437 7.48499 3.76981 5.36954C5.88527 3.25427 9.31555 3.25415 11.4309 5.36954L11.9983 5.93692L12.5686 5.36759ZM19.1692 6.43009C17.6397 4.90057 15.1594 4.89935 13.6292 6.42814L11.9983 8.05802L10.3694 6.43009C8.83979 4.90084 6.35991 4.90072 4.83036 6.43009C3.3007 7.95974 3.3007 10.4405 4.83036 11.9701L11.8235 18.9633C11.9211 19.0605 12.0795 19.0606 12.177 18.9633L19.1692 11.9711C20.6991 10.4412 20.699 7.96013 19.1692 6.43009Z" fill="#303236"/>
</svg>
