<svg width="24" height="24" viewBox="0 0 24 24" fill="none" xmlns="http://www.w3.org/2000/svg">
<path fill-rule="evenodd" clip-rule="evenodd" d="M11.9427 3.80869C13.8054 4.37963 15.4372 5.63826 16.0464 6.2158C19.1681 9.09185 19.6761 12.8757 19.7357 13.3851C19.7709 13.6867 19.6209 13.9797 19.3557 14.1275C19.0904 14.2752 18.7623 14.2484 18.5245 14.0597C16.9332 12.7966 15.3823 11.6957 13.9091 10.7363C13.7118 10.8631 13.4839 10.9348 13.2509 10.9449L8.01019 19.8775C7.35095 21.0012 5.9045 21.378 4.78084 20.7187C3.65718 20.0595 3.28039 18.613 3.93963 17.4894L9.18069 8.55607C9.07618 8.34802 9.02782 8.1146 9.04217 7.8809C7.48578 7.06285 5.76776 6.24597 3.88851 5.47293C3.60773 5.35743 3.42428 5.08405 3.42383 4.78044C3.42338 4.47683 3.60601 4.2029 3.88644 4.08657C4.36014 3.89006 7.90997 2.4879 11.9427 3.80869ZM10.3676 9.4972L5.23341 18.2484C4.99338 18.6576 5.13075 19.1849 5.53988 19.425C5.949 19.665 6.47638 19.5276 6.71641 19.1185L11.8507 10.3673L10.3676 9.4972ZM13.1296 9.37853C13.2322 9.20416 13.4009 9.07852 13.5976 9.03031C13.7962 8.9816 14.0062 9.01617 14.1788 9.12601C15.3322 9.86004 16.5362 10.6796 17.773 11.5943C17.3408 10.3376 16.5302 8.69966 15.0263 7.31555L15.0175 7.30741C14.5139 6.82885 13.0717 5.7219 11.4971 5.24097L11.4822 5.23626C9.54029 4.59876 7.71511 4.6903 6.40722 4.92615C7.80911 5.5595 9.11187 6.21067 10.3153 6.85934C10.4947 6.95602 10.627 7.12151 10.6818 7.31775C10.7365 7.51349 10.7094 7.72301 10.6067 7.89837L13.1296 9.37853Z" fill="#303236"/>
<path d="M18.3443 17.2064C18.7388 17.0089 18.9823 16.6493 18.9359 16.0577C18.855 15.2571 18.2051 14.9787 17.3233 14.9093V13.807H16.6389V14.8975C16.4533 14.8975 16.2792 14.8975 16.1051 14.9093V13.807H15.4092V14.9208C15.1654 14.9323 14.8755 14.9208 14.04 14.9208V15.6516C14.5738 15.6401 14.8525 15.6052 14.9223 15.9649V19.0276C14.8759 19.306 14.6554 19.2596 14.1681 19.2596L14.0404 20.0717H15.4096V20.9999H16.094V20.0487H16.6277V20.9999H17.3121V20.0487C18.4608 19.9789 19.2265 19.7005 19.3189 18.6216C19.4006 17.7513 18.9823 17.3686 18.3443 17.2064ZM16.094 15.6865C16.4651 15.6865 17.6836 15.5588 17.6836 16.3709C17.6836 17.137 16.477 17.0438 16.094 17.0438V15.6865ZM16.094 19.2362V17.7516C16.5464 17.7516 17.962 17.6239 17.962 18.5058C17.9735 19.3294 16.5464 19.2362 16.094 19.2362Z" fill="#0068FF" stroke="#0068FF" stroke-width="0.1"/>
</svg>
