<svg width="24" height="24" viewBox="0 0 24 24" fill="none" xmlns="http://www.w3.org/2000/svg">
<path d="M7.09325 14.285C7.09325 15.1917 7.82822 15.9267 8.73495 15.9267C9.64162 15.9267 10.3766 15.1917 10.3766 14.285H11.7199C11.7199 15.9335 10.3835 17.27 8.73495 17.27C7.08639 17.27 5.75 15.9335 5.75 14.285C5.75 12.6364 7.08639 11.3 8.73495 11.3V12.6433C7.82822 12.6433 7.09325 13.3783 7.09325 14.285Z" fill="#0068FF"/>
<path d="M10.3512 14.2853H8.73438V12.6685H10.3512V14.2853Z" fill="#0068FF"/>
<path fill-rule="evenodd" clip-rule="evenodd" d="M2 6.75C2 5.09315 3.34315 3.75 5 3.75H19C20.6569 3.75 22 5.09315 22 6.75V17.25C22 18.9069 20.6569 20.25 19 20.25H5C3.34315 20.25 2 18.9069 2 17.25V6.75ZM5 5.25H19C19.8284 5.25 20.5 5.92157 20.5 6.75V8H3.5V6.75C3.5 5.92157 4.17157 5.25 5 5.25ZM3.5 9.5V17.25C3.5 18.0784 4.17157 18.75 5 18.75H19C19.8284 18.75 20.5 18.0784 20.5 17.25V9.5H3.5Z" fill="#303236"/>
</svg>
