<svg width="24" height="24" viewBox="0 0 24 24" fill="none" xmlns="http://www.w3.org/2000/svg">
<path d="M8.5 17.5H15.25C15 17.5 15.5858 17.5 16 17.5C16.4142 17.5 17 17.5 16.75 17.5H18C18.6904 17.5 19.25 16.9404 19.25 16.25V6C19.25 5.30965 18.6904 4.75 18 4.75L6 4.75C5.30964 4.75 4.75 5.30965 4.75 6L4.75 16.25C4.75 16.9404 5.30964 17.5 6 17.5H7.25C7.5 17.5 7.58579 17.5 8 17.5C8.41421 17.5 8.5 17.5 8.5 17.5ZM3.25 6C3.25 4.48122 4.48122 3.25 6 3.25L18 3.25C19.5188 3.25 20.75 4.48122 20.75 6V16.25C20.75 17.7688 19.5188 19 18 19H16.75V20.25C16.75 20.6642 16.4142 21 16 21C15.5858 21 15.25 20.6642 15.25 20.25V19L8.75 19V20.25C8.75 20.6642 8.41421 21 8 21C7.58579 21 7.25 20.6642 7.25 20.25V19H6C4.48122 19 3.25 17.7688 3.25 16.25L3.25 6Z" fill="#303236"/>
<path fill-rule="evenodd" clip-rule="evenodd" d="M14.1212 11.2427L11.9999 9.12133L9.87863 11.2427L11.9999 13.364L14.1212 11.2427ZM11.9999 7L7.75732 11.2427L11.9999 15.4853L16.2426 11.2427L11.9999 7Z" fill="#0068FF"/>
</svg>
