<svg width="24" height="24" viewBox="0 0 24 24" fill="none" xmlns="http://www.w3.org/2000/svg">
<path fill-rule="evenodd" clip-rule="evenodd" d="M5.63578 15.3444C5.99787 15.1432 6.45447 15.2737 6.65563 15.6358L8.5921 19.1214C8.63619 19.2008 8.71985 19.25 8.81064 19.25H9.16207L8.81016 16.0828C8.76441 15.6712 9.06107 15.3003 9.47275 15.2546C9.88443 15.2089 10.2552 15.5055 10.301 15.9172L10.7454 19.9172C10.769 20.1292 10.7011 20.3412 10.5589 20.5002C10.4166 20.6592 10.2133 20.75 10 20.75H8.81064C8.1751 20.75 7.58951 20.4055 7.28086 19.8499L5.3444 16.3642C5.14324 16.0022 5.27369 15.5456 5.63578 15.3444Z" fill="#0068FF"/>
<path fill-rule="evenodd" clip-rule="evenodd" d="M21.75 5.46097C21.75 3.99899 20.1736 3.16707 18.9526 3.74777C16.0604 5.12332 11.6905 6.49613 7.65312 6.89902C7.64379 6.89867 7.63441 6.8985 7.625 6.8985C7.56607 6.8985 7.50873 6.90529 7.45372 6.91815C6.79943 6.97838 6.15472 7.01258 5.52735 7.01659C3.84739 7.02732 2.25 8.32438 2.25 10.1412V13.2433C2.25 15.1131 3.93657 16.4243 5.69048 16.2749C8.86026 16.0048 13.717 16.2697 18.7998 19.4076C20.0133 20.1568 21.75 19.365 21.75 17.8165V5.46097ZM6.875 8.46797C6.42336 8.49713 5.97659 8.51375 5.53693 8.51656C4.54147 8.52292 3.75 9.28255 3.75 10.1412V13.2433C3.75 14.1268 4.57378 14.8646 5.56313 14.7803C5.97447 14.7452 6.41271 14.7187 6.875 14.705V8.46797ZM8.375 14.7088C11.5285 14.8187 15.4929 15.6032 19.5878 18.1313C19.7258 18.2165 19.8947 18.2172 20.0385 18.1425C20.1781 18.0701 20.25 17.9524 20.25 17.8165V5.46097C20.25 5.33113 20.1822 5.21022 20.0456 5.12948C19.9056 5.04664 19.7379 5.03531 19.5969 5.10237C16.7224 6.46947 12.4549 7.83887 8.375 8.32849V14.7088Z" fill="#303236"/>
</svg>
