<svg width="24" height="24" viewBox="0 0 24 24" fill="none" xmlns="http://www.w3.org/2000/svg">
<path fill-rule="evenodd" clip-rule="evenodd" d="M11.9667 4.62673C15.8759 5.29923 18.8501 8.70601 18.8501 12.8074C18.8501 13.4255 18.7826 14.0277 18.6545 14.6073C19.6459 13.5088 20.2487 12.0541 20.2487 10.4589C20.2487 7.03841 17.476 4.26562 14.056 4.26562C13.3225 4.26562 12.6192 4.39293 11.9667 4.62673ZM17.5668 17.2434C17.6657 17.2326 17.7639 17.2019 17.8558 17.1496C20.1792 15.8273 21.7487 13.3269 21.7487 10.4589C21.7487 6.2101 18.3046 2.76562 14.056 2.76562C12.2296 2.76562 10.5501 3.40307 9.23064 4.46699C9.16906 4.51665 9.11739 4.57404 9.07591 4.63666C5.19459 5.33214 2.24902 8.72581 2.24902 12.8074C2.24902 17.392 5.96525 21.1086 10.5496 21.1086C13.5026 21.1086 16.0955 19.5664 17.5668 17.2434ZM10.5496 6.00623C6.7938 6.00623 3.74902 9.05117 3.74902 12.8074C3.74902 16.5637 6.7938 19.6086 10.5496 19.6086C14.3054 19.6086 17.3501 16.5637 17.3501 12.8074C17.3501 9.05117 14.3054 6.00623 10.5496 6.00623Z" fill="#303236"/>
<path fill-rule="evenodd" clip-rule="evenodd" d="M11.2996 8.3772V9.75775H13.1494V11.2578H9.39951C9.1786 11.2578 8.99951 11.4368 8.99951 11.6578C8.99951 11.8787 9.1786 12.0578 9.39951 12.0578H11.6995C12.7489 12.0578 13.5995 12.9084 13.5995 13.9578C13.5995 15.0071 12.7489 15.8578 11.6995 15.8578H11.2996V17.2374H9.79956V15.8578H7.89941V14.3578L11.2996 14.3574L11.6995 14.3578C11.9204 14.3578 12.0995 14.1787 12.0995 13.9578C12.0995 13.7368 11.9204 13.5578 11.6995 13.5578H9.39951C8.35017 13.5578 7.49951 12.7071 7.49951 11.6578C7.49951 10.6084 8.35017 9.75775 9.39951 9.75775H9.79956V8.3772H11.2996Z" fill="#0068FF"/>
</svg>
