<svg width="24" height="24" viewBox="0 0 24 24" fill="none" xmlns="http://www.w3.org/2000/svg">
<path fill-rule="evenodd" clip-rule="evenodd" d="M12 3.5C7.30558 3.5 3.5 7.30558 3.5 12C3.5 16.6944 7.30558 20.5 12 20.5C16.6944 20.5 20.5 16.6944 20.5 12C20.5 7.30558 16.6944 3.5 12 3.5ZM2 12C2 6.47715 6.47715 2 12 2C17.5228 2 22 6.47715 22 12C22 17.5228 17.5228 22 12 22C6.47715 22 2 17.5228 2 12Z" fill="#303236"/>
<path fill-rule="evenodd" clip-rule="evenodd" d="M16.2804 7.71969C16.5014 7.94076 16.5622 8.27576 16.4328 8.56037L14.089 13.7166C14.014 13.8817 13.8817 14.014 13.7166 14.089L8.56037 16.4328C8.27576 16.5622 7.94076 16.5014 7.71969 16.2804C7.49863 16.0593 7.43788 15.7243 7.56725 15.4397L9.911 10.2834C9.98603 10.1183 10.1183 9.98603 10.2834 9.911L15.4397 7.56725C15.7243 7.43788 16.0593 7.49863 16.2804 7.71969ZM11.1602 11.1602L9.7604 14.2396L12.8399 12.8399L14.2396 9.7604L11.1602 11.1602Z" fill="#0068FF"/>
</svg>
