<svg width="24" height="24" viewBox="0 0 24 24" fill="none" xmlns="http://www.w3.org/2000/svg">
<path fill-rule="evenodd" clip-rule="evenodd" d="M15.25 8.25H20C20.9665 8.25 21.75 9.0335 21.75 10V20C21.75 20.2908 21.5819 20.5554 21.3186 20.679C21.0554 20.8025 20.7444 20.7627 20.5207 20.5769L17.1877 17.8078C17.143 17.7707 17.0859 17.75 17.0273 17.75H9C8.0335 17.75 7.25 16.9665 7.25 16V15.1631H8.75V16C8.75 16.1381 8.86193 16.25 9 16.25H17.0273C17.4356 16.25 17.8319 16.3929 18.1463 16.6541L20.25 18.4018V10C20.25 9.86193 20.1381 9.75 20 9.75H15.25V8.25Z" fill="#0068FF"/>
<path fill-rule="evenodd" clip-rule="evenodd" d="M4 4.75C3.86193 4.75 3.75 4.86193 3.75 5V14.402L5.85369 12.654C6.16826 12.3926 6.56467 12.25 6.97266 12.25H15C15.1381 12.25 15.25 12.1381 15.25 12V5C15.25 4.86193 15.1381 4.75 15 4.75H4ZM2.25 5C2.25 4.0335 3.0335 3.25 4 3.25H15C15.9665 3.25 16.75 4.0335 16.75 5V12C16.75 12.9665 15.9665 13.75 15 13.75H6.97266C6.91383 13.75 6.85683 13.7707 6.81233 13.8077L3.47932 16.5771C3.25564 16.763 2.94468 16.8028 2.6814 16.6793C2.41812 16.5557 2.25 16.2911 2.25 16.0003V5Z" fill="#303236"/>
</svg>
