<svg width="24" height="24" viewBox="0 0 24 24" fill="none" xmlns="http://www.w3.org/2000/svg">
<path fill-rule="evenodd" clip-rule="evenodd" d="M3.93266 13.7346C4.72941 17.4581 8.03866 20.25 12 20.25C15.2768 20.25 18.1088 18.3397 19.4405 15.5687C19.6199 15.1954 20.068 15.0382 20.4414 15.2176C20.8147 15.397 20.9719 15.8451 20.7925 16.2184C19.2205 19.4894 15.875 21.75 12 21.75C6.61522 21.75 2.25 17.3848 2.25 12C2.25 11.7101 2.41711 11.4461 2.67918 11.3221C2.94125 11.1981 3.25133 11.2362 3.47553 11.42L5.32135 12.9335C5.64166 13.1961 5.68842 13.6687 5.42579 13.989C5.16316 14.3093 4.69059 14.356 4.37028 14.0934L3.93266 13.7346Z" fill="#303236"/>
<path fill-rule="evenodd" clip-rule="evenodd" d="M20.1869 10.2741C19.3934 6.54629 16.0821 3.75 12.1177 3.75C8.83997 3.75 6.00723 5.66139 4.67602 8.4337C4.49672 8.80709 4.04867 8.96444 3.67527 8.78514C3.30188 8.60584 3.14453 8.15779 3.32383 7.7844C4.89524 4.51188 8.24158 2.25 12.1177 2.25C17.5025 2.25 21.8677 6.61522 21.8677 12C21.8677 12.2895 21.701 12.5532 21.4395 12.6774C21.178 12.8017 20.8684 12.7643 20.6439 12.5814L18.8708 11.1366C18.5497 10.875 18.5015 10.4026 18.7631 10.0815C19.0248 9.76035 19.4972 9.71214 19.8183 9.97379L20.1869 10.2741Z" fill="#303236"/>
<path fill-rule="evenodd" clip-rule="evenodd" d="M13.3809 7.6317L11.3206 11.0857H15.8223L11.5478 17.1535L10.3215 16.2896L12.9308 12.5857H8.67932L12.0927 6.86328L13.3809 7.6317Z" fill="#0068FF"/>
</svg>
