<svg width="24" height="24" viewBox="0 0 24 24" fill="none" xmlns="http://www.w3.org/2000/svg">
<path d="M16 3C16.4142 3 16.75 3.33579 16.75 3.75V5.04688H17.9297C19.6254 5.04688 21 6.4215 21 8.11719V10.4375C21 10.8517 20.6642 11.1875 20.25 11.1875C19.8358 11.1875 19.5 10.8517 19.5 10.4375V8.11719C19.5 7.24993 18.7969 6.54688 17.9297 6.54688H16.75V7.75C16.75 8.16421 16.4142 8.5 16 8.5C15.5858 8.5 15.25 8.16421 15.25 7.75V6.54688H8.75V7.75C8.75 8.16421 8.41421 8.5 8 8.5C7.58579 8.5 7.25 8.16421 7.25 7.75V6.54688H6.07031C5.20305 6.54688 4.5 7.24993 4.5 8.11719V16.8828C4.5 17.7501 5.20305 18.4531 6.07031 18.4531H9.5C9.91421 18.4531 10.25 18.7889 10.25 19.2031C10.25 19.6173 9.91421 19.9531 9.5 19.9531H6.07031C4.37463 19.9531 3 18.5785 3 16.8828V8.11719C3 6.4215 4.37463 5.04688 6.07031 5.04688H7.25V3.75C7.25 3.33579 7.58579 3 8 3C8.41421 3 8.75 3.33579 8.75 3.75V5.04688H15.25V3.75C15.25 3.33579 15.5858 3 16 3Z" fill="#303236"/>
<path fill-rule="evenodd" clip-rule="evenodd" d="M17.4677 12.2217C17.7594 11.9277 18.2343 11.9259 18.5283 12.2177L20.5283 14.2025C20.744 14.4166 20.8092 14.7396 20.6935 15.0205C20.5777 15.3015 20.3039 15.4848 20 15.4848H13C12.5858 15.4848 12.25 15.1491 12.25 14.7348C12.25 14.3206 12.5858 13.9848 13 13.9848H18.1796L17.4717 13.2823C17.1777 12.9906 17.1759 12.5157 17.4677 12.2217ZM12.5565 17.4795C12.6723 17.1985 12.9461 17.0152 13.25 17.0152H20.25C20.6642 17.0152 21 17.3509 21 17.7652C21 18.1794 20.6642 18.5152 20.25 18.5152H15.0704L15.7783 19.2177C16.0723 19.5094 16.0741 19.9843 15.7823 20.2783C15.4906 20.5723 15.0157 20.5741 14.7217 20.2823L12.7217 18.2975C12.506 18.0834 12.4408 17.7604 12.5565 17.4795Z" fill="#0068FF"/>
</svg>
