<svg width="24" height="24" viewBox="0 0 24 24" fill="none" xmlns="http://www.w3.org/2000/svg">
<path fill-rule="evenodd" clip-rule="evenodd" d="M3.14845 10.7021C2.86908 9.02588 4.1617 7.5 5.86103 7.5H18.1392C19.8385 7.5 21.1311 9.02589 20.8518 10.7021L19.5184 18.7021C19.2974 20.0281 18.1502 21 16.8059 21H7.19437C5.85006 21 4.70279 20.0281 4.48178 18.7021L3.14845 10.7021ZM5.86103 9C5.08861 9 4.50105 9.69358 4.62804 10.4555L5.96137 18.4555C6.06183 19.0582 6.58332 19.5 7.19437 19.5H16.8059C17.4169 19.5 17.9384 19.0582 18.0388 18.4555L19.3722 10.4555C19.4992 9.69358 18.9116 9 18.1392 9H5.86103Z" fill="#303236"/>
<path fill-rule="evenodd" clip-rule="evenodd" d="M7.75012 6.75C7.75012 4.40279 9.65291 2.5 12.0001 2.5C14.3473 2.5 16.2501 4.40279 16.2501 6.75V11.25H14.7501V6.75C14.7501 5.23122 13.5189 4 12.0001 4C10.4813 4 9.25012 5.23122 9.25012 6.75V11.25H7.75012V6.75Z" fill="#0068FF"/>
</svg>
