<svg width="24" height="24" viewBox="0 0 24 24" fill="none" xmlns="http://www.w3.org/2000/svg">
<path fill-rule="evenodd" clip-rule="evenodd" d="M17.0931 3.01038H11.1696C10.6354 3.01037 10.1896 3.01036 9.82533 3.04012C9.44545 3.07115 9.08879 3.13827 8.75153 3.31011C8.23408 3.57376 7.81338 3.99446 7.54973 4.5119C7.37789 4.84917 7.31078 5.20582 7.27974 5.58571C7.24998 5.94994 7.24999 6.39579 7.25 6.92994V7.99994H5.4C4.55992 7.99994 4.13988 7.99994 3.81901 8.16343C3.53677 8.30724 3.3073 8.53671 3.16349 8.81895C3 9.13982 3 9.55986 3 10.3999V16.5999C3 18.1401 3 18.9102 3.29973 19.4984C3.56338 20.0159 3.98408 20.4366 4.50153 20.7002C5.07037 20.99 5.80922 20.9996 7.25 20.9999L7.8746 20.9999C7.91538 21.0068 7.95727 21.0104 8 21.0104H17.0931C17.6272 21.0104 18.0731 21.0104 18.4373 20.9806C18.8172 20.9496 19.1738 20.8825 19.5111 20.7106C20.0285 20.447 20.4492 20.0263 20.7129 19.5089C20.8847 19.1716 20.9519 18.8149 20.9829 18.435C21.0126 18.0708 21.0126 17.625 21.0126 17.0908V6.92993C21.0126 6.39578 21.0126 5.94994 20.9829 5.58571C20.9519 5.20582 20.8847 4.84917 20.7129 4.5119C20.4492 3.99446 20.0285 3.57376 19.5111 3.31011C19.1738 3.13827 18.8172 3.07115 18.4373 3.04012C18.0731 3.01036 17.6272 3.01037 17.0931 3.01038ZM7.25 19.4999V9.49994H5.4C4.95521 9.49994 4.71183 9.50111 4.53695 9.51539L4.51717 9.51711L4.51545 9.53689C4.50117 9.71177 4.5 9.95515 4.5 10.3999V16.5999C4.5 17.3948 4.50117 17.9007 4.53248 18.284C4.56237 18.6498 4.61208 18.77 4.63624 18.8174C4.75608 19.0526 4.94731 19.2439 5.18251 19.3637C5.22994 19.3879 5.35015 19.4376 5.71595 19.4675C6.07459 19.4968 6.54053 19.4997 7.25 19.4999ZM9.43251 4.64662C9.52307 4.60048 9.66036 4.55859 9.94748 4.53513C10.2434 4.51096 10.6276 4.51038 11.2 4.51038H17.0626C17.6351 4.51038 18.0193 4.51096 18.3152 4.53513C18.6023 4.55859 18.7396 4.60048 18.8301 4.64662C19.0653 4.76646 19.2565 4.95769 19.3764 5.19289C19.4225 5.28345 19.4644 5.42073 19.4879 5.70785C19.512 6.00373 19.5126 6.38795 19.5126 6.96038V17.0604C19.5126 17.6328 19.512 18.017 19.4879 18.3129C19.4644 18.6 19.4225 18.7373 19.3764 18.8279C19.2565 19.0631 19.0653 19.2543 18.8301 19.3741C18.7396 19.4203 18.6023 19.4622 18.3151 19.4856C18.0193 19.5098 17.6351 19.5104 17.0626 19.5104H8.75V6.96038C8.75 6.38795 8.75058 6.00373 8.77476 5.70785C8.79822 5.42073 8.8401 5.28345 8.88624 5.19289C9.00608 4.95769 9.19731 4.76646 9.43251 4.64662Z" fill="#303236"/>
<path fill-rule="evenodd" clip-rule="evenodd" d="M14.9 7.81982V9.20038H16.7499V10.7004H13C12.7791 10.7004 12.6 10.8795 12.6 11.1004C12.6 11.3213 12.7791 11.5004 13 11.5004H15.3C16.3493 11.5004 17.2 12.351 17.2 13.4004C17.2 14.4497 16.3493 15.3004 15.3 15.3004H14.9V16.68H13.4V15.3004H11.4999V13.8004L14.9 13.8L15.3 13.8004C15.5209 13.8004 15.7 13.6213 15.7 13.4004C15.7 13.1795 15.5209 13.0004 15.3 13.0004H13C11.9506 13.0004 11.1 12.1497 11.1 11.1004C11.1 10.051 11.9506 9.20038 13 9.20038H13.4V7.81982H14.9Z" fill="#0068FF"/>
</svg>
