<svg width="24" height="24" viewBox="0 0 24 24" fill="none" xmlns="http://www.w3.org/2000/svg">
<path fill-rule="evenodd" clip-rule="evenodd" d="M10.5111 4.5C8.43392 4.5 6.75 6.18392 6.75 8.26114C6.75 8.79743 6.86179 9.30564 7.06263 9.76531L5.6881 10.3659C5.40607 9.72038 5.25 9.008 5.25 8.26114C5.25 5.35549 7.60549 3 10.5111 3C13.2397 3 15.4823 5.0765 15.7463 7.73592L14.2537 7.88412C14.065 5.9843 12.461 4.5 10.5111 4.5Z" fill="#0068FF"/>
<path fill-rule="evenodd" clip-rule="evenodd" d="M17.6213 6.58514C17.8267 6.72478 17.9496 6.957 17.9496 7.20533V9.3513C18.5599 9.69209 18.9292 10.2743 19.1433 10.8032C19.2985 11.1868 19.3927 11.5877 19.4446 11.9512H20.25C20.6642 11.9512 21 12.287 21 12.7012V15.9724C21 16.3866 20.6642 16.7224 20.25 16.7224H18.9041C18.7133 17.0534 18.4632 17.3594 18.2374 17.6071C17.9924 17.8759 17.7338 18.1212 17.5119 18.3148V19.4999C17.5119 20.4664 16.7284 21.2499 15.7619 21.2499H15.0798C14.1199 21.2499 13.3405 20.477 13.33 19.5195H9.23732C9.22682 20.477 8.44738 21.2499 7.48742 21.2499H6.78365C5.81715 21.2499 5.03365 20.4664 5.03365 19.4999V18.1115L4.60029 17.7276C3.58259 16.8261 3 15.5316 3 14.1721V14.0412C3 10.8656 5.57436 8.29123 8.75 8.29123H12.4116L16.9239 6.50783C17.1549 6.41655 17.416 6.4455 17.6213 6.58514ZM16.4496 8.3082L12.8301 9.73873C12.7424 9.77342 12.6488 9.79123 12.5545 9.79123H8.75C6.40279 9.79123 4.5 11.694 4.5 14.0412V14.1721C4.5 15.1023 4.89862 15.988 5.59494 16.6048L6.28097 17.2125C6.44166 17.3549 6.53365 17.5593 6.53365 17.7739V19.4999C6.53365 19.638 6.64558 19.7499 6.78365 19.7499H7.48742C7.62549 19.7499 7.73742 19.638 7.73742 19.4999V18.7695C7.73742 18.3553 8.07321 18.0195 8.48742 18.0195H14.0798C14.4941 18.0195 14.8298 18.3553 14.8298 18.7695V19.4999C14.8298 19.638 14.9418 19.7499 15.0798 19.7499H15.7619C15.9 19.7499 16.0119 19.638 16.0119 19.4999V17.9636C16.0119 17.7337 16.1173 17.5165 16.298 17.3743C16.5008 17.2146 16.8299 16.9247 17.1288 16.5967C17.4466 16.248 17.6483 15.9441 17.7076 15.7517C17.8044 15.4371 18.0952 15.2224 18.4244 15.2224H19.5V13.4512H18.7479C18.5478 13.4512 18.3559 13.3712 18.2151 13.229C18.0742 13.0869 17.9961 12.8943 17.9979 12.6942C18.0011 12.3566 17.9382 11.8238 17.7528 11.3659C17.5653 10.9026 17.3165 10.6564 17.0236 10.5857C16.6869 10.5045 16.4496 10.2031 16.4496 9.85668V8.3082Z" fill="#303236"/>
</svg>
