<svg width="24" height="24" viewBox="0 0 24 24" fill="none" xmlns="http://www.w3.org/2000/svg">
<path fill-rule="evenodd" clip-rule="evenodd" d="M4 4.25C2.48122 4.25 1.25 5.48122 1.25 7V17C1.25 18.5188 2.48122 19.75 4 19.75H15C16.5188 19.75 17.75 18.5188 17.75 17V16.8239L20.6204 17.4617C21.7132 17.7046 22.75 16.8729 22.75 15.7534V8.53871C22.75 7.27233 21.4465 6.42523 20.2893 6.93953L17.75 8.06802V7C17.75 5.48122 16.5188 4.25 15 4.25H4ZM17.75 9.70703V15.2873L20.9457 15.9974C21.1019 16.0321 21.25 15.9133 21.25 15.7534V8.53871C21.25 8.3578 21.0638 8.23679 20.8984 8.31026L17.8043 9.68535C17.7863 9.69334 17.7682 9.70056 17.75 9.70703ZM2.75 7C2.75 6.30964 3.30964 5.75 4 5.75H15C15.6904 5.75 16.25 6.30964 16.25 7V17C16.25 17.6904 15.6904 18.25 15 18.25H4C3.30964 18.25 2.75 17.6904 2.75 17V7Z" fill="#303236"/>
<path d="M5 8H10V9.5H5V8Z" fill="#0068FF"/>
</svg>
