<svg width="24" height="24" viewBox="0 0 24 24" fill="none" xmlns="http://www.w3.org/2000/svg">
<path fill-rule="evenodd" clip-rule="evenodd" d="M6.00378 16.7803L6.69191 17.0786C8.76817 17.9786 11.1809 17.025 12.0809 14.9488L12.51 13.9589L13.267 15.8868L14.6633 15.3386L12.9674 11.0195L8.65588 12.7346L9.2103 14.1283L11.1333 13.3634L10.7047 14.3522C10.1341 15.6684 8.60466 16.2728 7.28849 15.7023L6.60036 15.404L6.00378 16.7803Z" fill="#0068FF"/>
<path d="M5.46816 3.95252L6.51849 4.30475C6.68837 4.36178 6.80273 4.52168 6.80273 4.70283C6.80273 4.88398 6.68726 5.04388 6.51738 5.10091L5.46705 5.45314L5.1162 6.51207C5.06068 6.68204 4.9008 6.79833 4.72204 6.79833C4.54329 6.79833 4.38451 6.68316 4.32789 6.51207L3.97704 5.45314L2.9267 5.10091C2.75683 5.04388 2.64136 4.88398 2.64136 4.70283C2.64136 4.52168 2.75683 4.36178 2.9267 4.30475L3.97704 3.95252L4.32789 2.89359C4.44114 2.55142 5.00406 2.55142 5.11731 2.89359L5.46816 3.95252Z" fill="#303236"/>
<path d="M14.9156 2.92731C13.6476 2.92731 12.4566 3.26617 11.431 3.85881C11.0723 4.06604 10.9496 4.52477 11.1568 4.88342C11.364 5.24207 11.8228 5.36482 12.1814 5.15759C12.9849 4.69331 13.9179 4.42731 14.9156 4.42731C17.9402 4.42731 20.3913 6.87835 20.3913 9.90297C20.3913 10.9337 20.1069 11.8963 19.6125 12.7188C19.3992 13.0738 19.514 13.5346 19.8691 13.748C20.2241 13.9614 20.6849 13.8465 20.8982 13.4915C21.5288 12.4423 21.8913 11.2137 21.8913 9.90297C21.8913 6.04993 18.7687 2.92731 14.9156 2.92731Z" fill="#303236"/>
<path fill-rule="evenodd" clip-rule="evenodd" d="M10.376 6.77208C6.13966 6.77208 2.70544 10.2063 2.70544 14.4426C2.70544 18.6789 6.13966 22.1132 10.376 22.1132C14.6123 22.1132 18.0465 18.6789 18.0465 14.4426C18.0465 10.2063 14.6123 6.77208 10.376 6.77208ZM4.20544 14.4426C4.20544 11.0347 6.96809 8.27208 10.376 8.27208C13.7839 8.27208 16.5465 11.0347 16.5465 14.4426C16.5465 17.8505 13.7839 20.6132 10.376 20.6132C6.96809 20.6132 4.20544 17.8505 4.20544 14.4426Z" fill="#303236"/>
</svg>
