<svg width="24" height="24" viewBox="0 0 24 24" fill="none" xmlns="http://www.w3.org/2000/svg">
<path fill-rule="evenodd" clip-rule="evenodd" d="M12.75 4.79933C13.1984 4.53997 13.5 4.05521 13.5 3.5C13.5 2.67157 12.8284 2 12 2C11.1716 2 10.5 2.67157 10.5 3.5C10.5 4.05521 10.8016 4.53997 11.25 4.79933V6.25H6.5C4.70507 6.25 3.25 7.70507 3.25 9.5V17.5C3.25 19.2949 4.70507 20.75 6.5 20.75H17.5C19.2949 20.75 20.75 19.2949 20.75 17.5V9.5C20.75 7.70507 19.2949 6.25 17.5 6.25H12.75V4.79933ZM4.75 9.5C4.75 8.5335 5.5335 7.75 6.5 7.75H17.5C18.4665 7.75 19.25 8.5335 19.25 9.5V17.5C19.25 18.4665 18.4665 19.25 17.5 19.25H6.5C5.5335 19.25 4.75 18.4665 4.75 17.5V9.5Z" fill="#303236"/>
<path d="M0.75 16V10H2.25L2.25 16H0.75Z" fill="#303236"/>
<path d="M21.75 16V10H23.25V16H21.75Z" fill="#303236"/>
<path d="M8.87988 15C9.70831 15 10.3799 14.3284 10.3799 13.5C10.3799 12.6716 9.70831 12 8.87988 12C8.05146 12 7.37988 12.6716 7.37988 13.5C7.37988 14.3284 8.05146 15 8.87988 15Z" fill="#0068FF"/>
<path d="M15.1265 15C15.9549 15 16.6265 14.3284 16.6265 13.5C16.6265 12.6716 15.9549 12 15.1265 12C14.298 12 13.6265 12.6716 13.6265 13.5C13.6265 14.3284 14.298 15 15.1265 15Z" fill="#0068FF"/>
</svg>
