<svg width="24" height="24" viewBox="0 0 24 24" fill="none" xmlns="http://www.w3.org/2000/svg">
<path d="M12.2324 15.1465C12.4837 15.1466 12.7247 15.2471 12.9023 15.4248C13.08 15.6025 13.1796 15.8434 13.1797 16.0947C13.1797 16.3462 13.0801 16.5878 12.9023 16.7656C12.7247 16.9432 12.4836 17.0429 12.2324 17.043C11.9811 17.043 11.7393 16.9433 11.5615 16.7656C11.3837 16.5878 11.2842 16.3462 11.2842 16.0947C11.2842 15.8435 11.3839 15.6025 11.5615 15.4248C11.7393 15.247 11.981 15.1465 12.2324 15.1465ZM12.1875 7.34668C12.9831 7.34668 13.746 7.62504 14.3086 8.12012C14.8711 8.61513 15.1874 9.28628 15.1875 9.98633C15.1875 11.026 14.8142 11.5722 13.8564 12.415L13.709 12.5479C13.1527 13.0537 13.0059 13.3097 13.0059 13.8271C13.0057 14.0179 12.9189 14.201 12.7656 14.3359C12.6122 14.4708 12.4044 14.5469 12.1875 14.5469C11.9706 14.5469 11.7628 14.4708 11.6094 14.3359C11.4561 14.201 11.3693 14.0179 11.3691 13.8271C11.3691 12.7875 11.7424 12.2403 12.7002 11.3975L12.8477 11.2656C13.404 10.7597 13.5508 10.5038 13.5508 9.98633C13.5507 9.6682 13.407 9.36266 13.1514 9.1377C12.8957 8.91289 12.549 8.78711 12.1875 8.78711C11.826 8.78711 11.4793 8.91289 11.2236 9.1377C10.968 9.36266 10.8243 9.6682 10.8242 9.98633L10.8164 10.085C10.7881 10.2654 10.683 10.4299 10.5225 10.5449C10.3617 10.66 10.1569 10.7174 9.9502 10.7051C9.74338 10.6926 9.54972 10.6108 9.4082 10.4775C9.2667 10.3442 9.18756 10.1687 9.1875 9.98633C9.18761 9.28628 9.50389 8.61513 10.0664 8.12012C10.629 7.62504 11.3919 7.34668 12.1875 7.34668Z" fill="#0068FF"/>
<path d="M20.25 12C20.25 7.44365 16.5563 3.75 12 3.75C7.44365 3.75 3.75 7.44365 3.75 12C3.75 16.5563 7.44365 20.25 12 20.25C16.5563 20.25 20.25 16.5563 20.25 12ZM21.75 12C21.75 17.3848 17.3848 21.75 12 21.75C6.61522 21.75 2.25 17.3848 2.25 12C2.25 6.61522 6.61522 2.25 12 2.25C17.3848 2.25 21.75 6.61522 21.75 12Z" fill="#303236"/>
</svg>
