<svg width="24" height="24" viewBox="0 0 24 24" fill="none" xmlns="http://www.w3.org/2000/svg">
<path d="M10.9893 3.25L11.0664 3.25391C11.4445 3.29239 11.7393 3.61173 11.7393 4C11.7393 4.38827 11.4445 4.70761 11.0664 4.74609L10.9893 4.75H8.07812C7.32878 4.75012 6.63445 5.1439 6.25 5.78711L3.79101 9.90137C3.29164 10.737 3.42315 11.8056 4.10937 12.4961L10.4893 18.916C11.3221 19.7539 12.6779 19.7539 13.5107 18.916L19.917 12.4688C20.5518 11.83 20.7124 10.8673 20.335 10.0635L20.2529 9.90527L20.208 9.82812L20.1738 9.75977C20.0185 9.41291 20.148 8.99843 20.4844 8.80469C20.8209 8.61098 21.2448 8.70702 21.4668 9.01562L21.5088 9.08008L21.5527 9.15723L21.6934 9.42676C22.3364 10.7967 22.0632 12.4378 20.9814 13.5264L14.5752 19.9727C13.2 21.3564 10.9879 21.4 9.56054 20.1025L9.4248 19.9727L3.04492 13.5527C1.87568 12.3759 1.65293 10.5559 2.5039 9.13184L4.96289 5.01758L5.09179 4.81738C5.76634 3.84032 6.88077 3.25011 8.07812 3.25H10.9893Z" fill="#303236"/>
<path d="M19.7921 3.25C20.4599 3.25032 20.8497 3.97444 20.5294 4.52344L20.4552 4.63086L16.7491 9.26367L16.2931 9.83496L13.9376 8.0498L10.7159 12.083L9.54407 11.1475L13.6779 5.97168L16.0333 7.75684L18.4396 4.75H16.1642V3.25H19.7921Z" fill="#0068FF"/>
</svg>
