<svg width="24" height="24" viewBox="0 0 24 24" fill="none" xmlns="http://www.w3.org/2000/svg">
<path fill-rule="evenodd" clip-rule="evenodd" d="M12.75 12.25L12.75 17.75L11.25 17.75L11.25 12.25L12.75 12.25Z" fill="#0068FF"/>
<path fill-rule="evenodd" clip-rule="evenodd" d="M10.7885 2.97123C11.5064 2.43277 12.4936 2.43277 13.2115 2.97123L20.45 8.40008C20.7083 8.59377 20.8136 8.93099 20.7115 9.23725C20.6094 9.5435 20.3228 9.75008 20 9.75008H4C3.67718 9.75008 3.39057 9.5435 3.28849 9.23725C3.1864 8.93099 3.29174 8.59377 3.55 8.40008L10.7885 2.97123ZM12.3115 4.17123C12.1269 4.03277 11.8731 4.03277 11.6885 4.17123L11.2385 3.57123L11.6885 4.17123L6.25 8.25008H17.75L12.3115 4.17123ZM5.93757 11.7879C6.35178 11.7879 6.68757 12.1237 6.68757 12.5379V19.2501H17.5625V12.5379C17.5625 12.1237 17.8982 11.7879 18.3125 11.7879C18.7267 11.7879 19.0625 12.1237 19.0625 12.5379V19.2501H20.375C20.7892 19.2501 21.125 19.5859 21.125 20.0001C21.125 20.4143 20.7892 20.7501 20.375 20.7501H3.875C3.46079 20.7501 3.125 20.4143 3.125 20.0001C3.125 19.5859 3.46079 19.2501 3.875 19.2501H5.18757V12.5379C5.18757 12.1237 5.52336 11.7879 5.93757 11.7879Z" fill="#303236"/>
</svg>
