<svg width="24" height="24" viewBox="0 0 24 24" fill="none" xmlns="http://www.w3.org/2000/svg">
<path fill-rule="evenodd" clip-rule="evenodd" d="M20.1807 5.04889L17.0431 19.1684L12.4261 15.7056C12.1196 15.4758 11.6908 15.5063 11.42 15.7771L9.51492 17.6822L8.05163 13.2923C7.97501 13.0624 7.79465 12.8821 7.5648 12.8055L3.9743 11.6086L20.1807 5.04889ZM19.6208 3.61474C20.763 3.15243 21.955 4.16142 21.6877 5.36427L18.2871 20.667C18.2304 20.9222 18.048 21.1312 17.8027 21.2219C17.5575 21.3126 17.283 21.2727 17.0738 21.1158L12.0365 17.3378L9.72282 19.6514C9.53419 19.8401 9.26132 19.9176 9.00169 19.8563C8.74205 19.795 8.53266 19.6036 8.4483 19.3505L6.71286 14.1442L1.50655 12.4088C1.20066 12.3068 0.990739 12.025 0.980607 11.7027C0.970476 11.3805 1.16228 11.086 1.46116 10.9651L19.6208 3.61474Z" fill="#303236"/>
<path fill-rule="evenodd" clip-rule="evenodd" d="M16.2647 10.0349L11.965 14.0604L10.9398 12.9654L15.2396 8.93994L16.2647 10.0349Z" fill="#0068FF"/>
</svg>
