<svg width="24" height="24" viewBox="0 0 24 24" fill="none" xmlns="http://www.w3.org/2000/svg">
<path d="M15 13C15.552 13 16 13.448 16 14C16 14.552 15.552 15 15 15C14.448 15 14 14.552 14 14C14 13.448 14.448 13 15 13Z" fill="#0068FF"/>
<path d="M15.25 8.5H15C11.9622 8.5 9.5 10.9622 9.5 14V14.25H8V14C8 10.1338 11.1338 7 15 7H15.25V8.5Z" fill="#0068FF"/>
<path d="M15.25 11.5H15C13.6222 11.5 12.5 12.6222 12.5 14V14.25H11V14C11 11.7938 12.7938 10 15 10H15.25V11.5Z" fill="#0068FF"/>
<path d="M19.5 6.38867C19.4999 5.75985 18.9901 5.25012 18.3613 5.25H5.63867C5.00985 5.25012 4.50012 5.75985 4.5 6.38867V19.3408L6.83301 17.2354C7.31788 16.7978 7.94846 16.5557 8.60156 16.5557H18.3613C18.9901 16.5555 19.4998 16.0458 19.5 15.417V6.38867ZM21 15.417C20.9998 16.8742 19.8185 18.0555 18.3613 18.0557H8.60156C8.3197 18.0557 8.04715 18.1598 7.83789 18.3486L5.04102 20.873C4.2549 21.5824 3.00017 21.0246 3 19.9658V6.38867C3.00012 4.93143 4.18143 3.75012 5.63867 3.75H18.3613C19.8186 3.75012 20.9999 4.93143 21 6.38867V15.417Z" fill="#303236"/>
</svg>
