<svg width="24" height="24" viewBox="0 0 24 24" fill="none" xmlns="http://www.w3.org/2000/svg">
<path fill-rule="evenodd" clip-rule="evenodd" d="M16.932 4.35913C16.3521 4.35913 15.882 4.82923 15.882 5.40913C15.882 5.98902 16.3521 6.45912 16.932 6.45912C17.5119 6.45912 17.982 5.98902 17.982 5.40913C17.982 4.82923 17.5119 4.35913 16.932 4.35913ZM14.382 5.40913C14.382 4.0008 15.5237 2.85913 16.932 2.85913C18.3404 2.85913 19.482 4.0008 19.482 5.40913C19.482 6.81745 18.3404 7.95912 16.932 7.95912C15.5237 7.95912 14.382 6.81745 14.382 5.40913ZM3 6.75006C3 4.67899 4.67893 3.00006 6.75 3.00006H10.8636V4.50006H6.75C5.50736 4.50006 4.5 5.50742 4.5 6.75006V8.87506H3V6.75006ZM16.9318 10.25C15.5888 10.25 14.5 11.3388 14.5 12.6819V13.4319H13V12.6819C13 10.5104 14.7603 8.75004 16.9318 8.75004C19.1033 8.75004 20.8636 10.5104 20.8636 12.6819V13.4319H19.3636V12.6819C19.3636 11.3388 18.2749 10.25 16.9318 10.25ZM21 15.5001V17.7501C21 19.545 19.5449 21.0001 17.75 21.0001H13.5V19.5001H17.75C18.7165 19.5001 19.5 18.7166 19.5 17.7501V15.5001H21Z" fill="#303236"/>
<path fill-rule="evenodd" clip-rule="evenodd" d="M7.18204 11.8591C6.60214 11.8591 6.13204 12.3292 6.13204 12.9091C6.13204 13.489 6.60214 13.9591 7.18204 13.9591C7.76194 13.9591 8.23204 13.489 8.23204 12.9091C8.23204 12.3292 7.76194 11.8591 7.18204 11.8591ZM4.63204 12.9091C4.63204 11.5008 5.77372 10.3591 7.18204 10.3591C8.59036 10.3591 9.73204 11.5008 9.73204 12.9091C9.73204 14.3175 8.59036 15.4591 7.18204 15.4591C5.77372 15.4591 4.63204 14.3175 4.63204 12.9091ZM7.18182 17.75C5.83876 17.75 4.75 18.8388 4.75 20.1819V20.9319H3.25V20.1819C3.25 18.0104 5.01033 16.25 7.18182 16.25C9.3533 16.25 11.1136 18.0104 11.1136 20.1819V20.9319H9.61364V20.1819C9.61364 18.8388 8.52487 17.75 7.18182 17.75Z" fill="#0068FF"/>
</svg>
