<svg width="24" height="24" viewBox="0 0 24 24" fill="none" xmlns="http://www.w3.org/2000/svg">
<path fill-rule="evenodd" clip-rule="evenodd" d="M2.75 12C2.75 6.89124 6.89124 2.75 12 2.75H12.0015C12.633 2.75123 13.2495 2.81258 13.85 2.93515L14.5848 3.08515L14.2848 4.55485L13.55 4.40485C13.0514 4.30307 12.5348 4.25109 11.9993 4.25C7.71927 4.25039 4.25 7.7199 4.25 12C4.25 16.2803 7.71966 19.75 12 19.75C16.2802 19.75 19.7497 16.2806 19.75 12.0005C19.7489 11.4651 19.6969 10.9486 19.5952 10.45L19.4452 9.71515L20.9148 9.41515L21.0648 10.15C21.1874 10.7505 21.2488 11.367 21.25 11.9985L21.25 12C21.25 17.1088 17.1088 21.25 12 21.25C6.89124 21.25 2.75 17.1088 2.75 12ZM12 8.75C11.3572 8.75 10.7289 8.94061 10.1944 9.29772C9.65994 9.65484 9.24338 10.1624 8.99739 10.7563C8.75141 11.3501 8.68705 12.0036 8.81245 12.634C8.93785 13.2645 9.24738 13.8436 9.7019 14.2981C10.1564 14.7526 10.7355 15.0622 11.366 15.1876C11.9964 15.313 12.6499 15.2486 13.2437 15.0026C13.8376 14.7566 14.3452 14.3401 14.7023 13.8056C15.0594 13.2711 15.25 12.6428 15.25 12V11.25H16.75V12C16.75 12.9395 16.4714 13.8578 15.9495 14.639C15.4275 15.4201 14.6857 16.0289 13.8177 16.3884C12.9498 16.7479 11.9947 16.842 11.0733 16.6587C10.1519 16.4755 9.30554 16.0231 8.64124 15.3588C7.97695 14.6945 7.52455 13.8481 7.34127 12.9267C7.15799 12.0053 7.25206 11.0502 7.61157 10.1823C7.97109 9.3143 8.57991 8.57246 9.36104 8.05052C10.1422 7.52858 11.0605 7.25 12 7.25H12.75V8.75H12Z" fill="#303236"/>
<path fill-rule="evenodd" clip-rule="evenodd" d="M17.836 2.28045C18.027 2.24469 18.2238 2.25655 18.4091 2.31499C18.5944 2.37342 18.7624 2.47663 18.8983 2.61547C19.0342 2.75432 19.1338 2.92452 19.1882 3.11102L19.1909 3.12018L19.5711 4.48718L20.8421 4.80072L20.8618 4.80587C21.0521 4.85832 21.2262 4.95737 21.3686 5.09404C21.5109 5.23072 21.617 5.40072 21.6771 5.58867C21.7373 5.77662 21.7496 5.9766 21.7131 6.17052C21.6765 6.36445 21.5922 6.54621 21.4677 6.69936L21.4636 6.7045C20.9639 7.30838 20.2916 8.09743 19.3895 8.55897C18.5337 8.99679 17.5275 9.11543 16.3612 8.6921L12.027 13.0264L10.9663 11.9657L15.3189 7.61309C14.9115 6.51827 15.009 5.5422 15.4166 4.69552C15.8641 3.76593 16.6564 3.05731 17.3089 2.52435L17.3142 2.51999C17.4658 2.39847 17.645 2.31621 17.836 2.28045ZM16.7892 7.25063C17.6216 7.57658 18.2206 7.47207 18.7063 7.22359C19.1723 6.98519 19.5788 6.59264 19.9813 6.13335L18.7863 5.83856C18.5235 5.77372 18.316 5.57223 18.2434 5.31139L17.8802 4.00562C17.4026 4.42714 17.001 4.86249 16.7682 5.34616C16.527 5.84712 16.443 6.4489 16.7892 7.25063Z" fill="#0068FF"/>
</svg>
