<svg width="24" height="24" viewBox="0 0 24 24" fill="none" xmlns="http://www.w3.org/2000/svg">
<path d="M10.7231 2.49511C11.4945 1.78813 12.7173 1.83873 13.4243 2.64647L16.4966 6.15722H14.5034L12.2954 3.63378C12.1388 3.45524 11.86 3.45504 11.7036 3.63378L9.49561 6.15722H7.50244L10.5747 2.64647L10.7231 2.49511Z" fill="#0068FF"/>
<path d="M19.5 10C19.5 9.30964 18.9404 8.75 18.25 8.75H5.75C5.05964 8.75 4.5 9.30964 4.5 10V18C4.5 18.6904 5.05964 19.25 5.75 19.25H18.25C18.9404 19.25 19.5 18.6904 19.5 18V10ZM13 15.25V16.75H7V15.25H13ZM17 11.25V12.75H7V11.25H17ZM21 18C21 19.5188 19.7688 20.75 18.25 20.75H5.75C4.23122 20.75 3 19.5188 3 18V10C3 8.48122 4.23122 7.25 5.75 7.25H18.25C19.7688 7.25 21 8.48122 21 10V18Z" fill="#303236"/>
</svg>
