<svg width="24" height="24" viewBox="0 0 24 24" fill="none" xmlns="http://www.w3.org/2000/svg">
<path fill-rule="evenodd" clip-rule="evenodd" d="M18.0304 2.99976C16.3903 2.99976 15.0608 4.32936 15.0608 5.96946C15.0608 7.60957 16.3903 8.93917 18.0304 8.93917C19.6706 8.93917 21.0001 7.60957 21.0001 5.96946C21.0001 4.32936 19.6706 2.99976 18.0304 2.99976ZM16.5608 5.96946C16.5608 5.15775 17.2188 4.49976 18.0304 4.49976C18.8421 4.49976 19.5001 5.15775 19.5001 5.96946C19.5001 6.78118 18.8421 7.43917 18.0304 7.43917C17.2188 7.43917 16.5608 6.78118 16.5608 5.96946Z" fill="#303236"/>
<path d="M8.5 3.25C5.60051 3.25 3.25 5.60051 3.25 8.5V15.5C3.25 18.3995 5.6005 20.75 8.5 20.75H15.5C18.3995 20.75 20.75 18.3995 20.75 15.5V11.1934C20.75 10.7792 20.4142 10.4434 20 10.4434C19.5858 10.4434 19.25 10.7792 19.25 11.1934V15.5C19.25 17.5711 17.5711 19.25 15.5 19.25H8.5C6.42893 19.25 4.75 17.5711 4.75 15.5V8.5C4.75 6.42893 6.42893 4.75 8.5 4.75H12.7699C13.1841 4.75 13.5199 4.41421 13.5199 4C13.5199 3.58579 13.1841 3.25 12.7699 3.25H8.5Z" fill="#303236"/>
<path fill-rule="evenodd" clip-rule="evenodd" d="M17.0304 11.5304L13.174 15.3868L10.9566 13.1694L8.53039 15.5956L7.46973 14.5349L10.9566 11.0481L13.174 13.2655L15.9697 10.4697L17.0304 11.5304Z" fill="#0068FF"/>
</svg>
