<svg width="24" height="24" viewBox="0 0 24 24" fill="none" xmlns="http://www.w3.org/2000/svg">
<path d="M9.13696 9.66528C9.13696 9.3235 8.85965 9.0462 8.51782 9.04614C8.17595 9.04614 7.89868 9.32347 7.89868 9.66528C7.89889 10.0069 8.17608 10.2834 8.51782 10.2834C8.85952 10.2834 9.13675 10.0069 9.13696 9.66528ZM10.6096 14.3704C10.6096 14.0002 10.3098 13.7005 9.9397 13.7004H7.19849C6.82837 13.7006 6.52856 14.0002 6.52856 14.3704V15.0403H10.6096V14.3704ZM12.01 15.2405C12.01 15.9032 11.4726 16.4407 10.8098 16.4407H6.32837C5.66563 16.4407 5.12817 15.9032 5.12817 15.2405V14.3704C5.12817 13.227 6.05517 12.3002 7.19849 12.3H9.9397C11.083 12.3002 12.01 13.227 12.01 14.3704V15.2405ZM10.5364 9.66528C10.5362 10.7801 9.63268 11.6838 8.51782 11.6838C7.40292 11.6838 6.4985 10.7802 6.49829 9.66528C6.49829 8.55023 7.40279 7.64575 8.51782 7.64575C9.63281 7.64581 10.5364 8.55027 10.5364 9.66528Z" fill="#0068FF"/>
<path d="M18.5692 13.3098H14.328V11.8098H18.5692V13.3098Z" fill="#303236"/>
<path d="M18.5692 10.01H12.9579V8.51001H18.5692V10.01Z" fill="#303236"/>
<path fill-rule="evenodd" clip-rule="evenodd" d="M18.245 4.01978C20.3055 4.01978 21.9755 5.68974 21.9755 7.75024V16.2502C21.9755 18.3107 20.3055 19.9807 18.245 19.9807H5.745C3.6845 19.9807 2.01453 18.3107 2.01453 16.2502V7.75024C2.01453 5.68974 3.6845 4.01978 5.745 4.01978H18.245ZM5.745 5.48071C4.49179 5.48071 3.47546 6.49704 3.47546 7.75024V16.2502C3.47546 17.5035 4.49179 18.5198 5.745 18.5198H18.245C19.4982 18.5198 20.5145 17.5035 20.5145 16.2502V7.75024C20.5145 6.49704 19.4982 5.48071 18.245 5.48071H5.745Z" fill="#303236"/>
</svg>
