<svg width="24" height="24" viewBox="0 0 24 24" fill="none" xmlns="http://www.w3.org/2000/svg">
<path d="M13.0234 3.6631C13.249 3.48342 13.5627 3.44651 13.8271 3.57911L14.0654 3.71388C15.1371 4.38428 15.648 5.68134 15.3252 6.90333L15.2432 7.16407L14.2803 9.78419H18.2207C20.1495 9.78419 21.5641 11.5574 21.1895 13.416L21.1484 13.5967L19.791 18.7383C19.4402 20.0684 18.2392 20.9969 16.8643 20.9971H11.5576L11.5 21H6.5C4.70704 21 3.25022 19.5498 3.25 17.7568V11.6777C3.25 10.6815 4.01633 9.78419 5.06738 9.78419H7.58594C7.6684 9.65112 7.75921 9.52228 7.8623 9.40235L7.87207 9.39064L12.9326 3.74903L13.0234 3.6631ZM8.98926 10.3926C8.88941 10.5112 8.8097 10.6439 8.75 10.7852V19.5H10.3008C10.3195 19.4986 10.3384 19.4971 10.3574 19.4971H16.8643C17.5556 19.4969 18.1631 19.0294 18.3408 18.3555L19.6973 13.2139L19.7344 13.0313C19.8629 12.1211 19.1588 11.2842 18.2207 11.2842H13.2061C12.961 11.2842 12.7311 11.1648 12.5908 10.9639C12.4506 10.763 12.4176 10.5064 12.502 10.2764L13.835 6.64747L13.874 6.5215C13.993 6.07194 13.8775 5.60314 13.5889 5.26271L8.98926 10.3926ZM4.75 17.7568C4.75022 18.7178 5.53183 19.5 6.5 19.5H7.25V11.2842H5.06738C4.9396 11.2842 4.75 11.4118 4.75 11.6777V17.7568Z" fill="#303236"/>
<path d="M7.65869 4.98867L6.39735 4.56867L5.97602 3.306C5.84002 2.898 5.16402 2.898 5.02802 3.306L4.60669 4.56867L3.34535 4.98867C3.14135 5.05667 3.00269 5.24733 3.00269 5.46333C3.00269 5.67933 3.14135 5.87 3.34535 5.938L4.60669 6.358L5.02802 7.62067C5.09602 7.82467 5.28669 7.962 5.50135 7.962C5.71602 7.962 5.90802 7.82333 5.97469 7.62067L6.39602 6.358L7.65735 5.938C7.86135 5.87 8.00002 5.67933 8.00002 5.46333C8.00002 5.24733 7.86269 5.05667 7.65869 4.98867Z" fill="#0068FF"/>
</svg>
