<svg width="24" height="24" viewBox="0 0 24 24" fill="none" xmlns="http://www.w3.org/2000/svg">
<path fill-rule="evenodd" clip-rule="evenodd" d="M12.75 8.25V9.63049H14.6001V11.1305H10.8502C10.6293 11.1305 10.4502 11.3096 10.4502 11.5305C10.4502 11.7514 10.6293 11.9305 10.8502 11.9305H13.1502C14.1995 11.9305 15.0502 12.7812 15.0502 13.8305C15.0502 14.8798 14.1995 15.7305 13.1502 15.7305H12.75V17.1102H11.25V15.7305H9.3501V14.2305H11.25L12.75 14.2302L13.1502 14.2305C13.3711 14.2305 13.5502 14.0514 13.5502 13.8305C13.5502 13.6096 13.3711 13.4305 13.1502 13.4305H10.8502C9.80085 13.4305 8.9502 12.5798 8.9502 11.5305C8.9502 10.4812 9.80085 9.63049 10.8502 9.63049H11.25V8.25H12.75Z" fill="#0068FF"/>
<path d="M18.2468 6.82679C18.6278 6.68497 18.8265 6.26545 18.6947 5.88087L17.6378 2.79525C17.5035 2.40339 17.0771 2.19453 16.6852 2.32876C16.2933 2.46299 16.0845 2.88947 16.2187 3.28133L16.6836 4.63844C15.3185 3.81845 13.72 3.34706 12.0136 3.34706C6.99829 3.34706 2.93262 7.41273 2.93262 12.428C2.93262 17.4433 6.99829 21.5089 12.0136 21.5089C17.0288 21.5089 21.0945 17.4433 21.0945 12.428C21.0945 11.1766 20.8409 9.9825 20.3817 8.89575C20.2205 8.5142 19.7805 8.3356 19.3989 8.49684C19.0174 8.65807 18.8388 9.09808 19 9.47963C19.3826 10.385 19.5945 11.3808 19.5945 12.428C19.5945 16.6148 16.2004 20.0089 12.0136 20.0089C7.82672 20.0089 4.43262 16.6148 4.43262 12.428C4.43262 8.24116 7.82672 4.84706 12.0136 4.84706C13.481 4.84706 14.849 5.26327 16.0085 5.98373C16.0356 6.00059 16.0634 6.0155 16.0917 6.02851L14.7022 6.54576C14.314 6.69026 14.1165 7.1221 14.261 7.51029C14.4055 7.89848 14.8373 8.09602 15.2255 7.95151L18.2468 6.82679Z" fill="#303236"/>
</svg>
