<svg width="24" height="24" viewBox="0 0 24 24" fill="none" xmlns="http://www.w3.org/2000/svg">
<path d="M4 20.2402V16.2803C4 15.8661 4.33579 15.5303 4.75 15.5303C5.16421 15.5303 5.5 15.8661 5.5 16.2803V20.2402C5.49989 20.6544 5.16415 20.9902 4.75 20.9902C4.33585 20.9902 4.00011 20.6544 4 20.2402ZM11.25 20.2402V14.96C11.25 14.5457 11.5858 14.21 12 14.21C12.4142 14.21 12.75 14.5457 12.75 14.96V20.2402C12.7499 20.6543 12.4141 20.9902 12 20.9902C11.5859 20.9902 11.2501 20.6543 11.25 20.2402ZM18.5 20.2402V11C18.5 10.5858 18.8358 10.25 19.25 10.25C19.6642 10.25 20 10.5858 20 11V20.2402C19.9999 20.6543 19.6641 20.9902 19.25 20.9902C18.8359 20.9902 18.5001 20.6543 18.5 20.2402Z" fill="#303236"/>
<path d="M19 3.25L19.0996 3.25684C19.3277 3.28737 19.5311 3.42184 19.6484 3.62402C19.7658 3.82646 19.7814 4.06992 19.6943 4.2832L19.6514 4.37207C15.6857 11.312 8.48047 12.02 4.64844 11.8008L3.92872 11.7471L3.85255 11.7354C3.47991 11.6611 3.21613 11.3152 3.25294 10.9287C3.28981 10.5423 3.61418 10.2525 3.99415 10.25L4.0713 10.2529L4.75391 10.3057C8.13544 10.4981 13.9995 9.89849 17.6348 4.75H15C14.5858 4.75 14.25 4.41421 14.25 4C14.25 3.58579 14.5858 3.25 15 3.25H19Z" fill="#0068FF"/>
</svg>
