<svg width="24" height="24" viewBox="0 0 24 24" fill="none" xmlns="http://www.w3.org/2000/svg">
<path fill-rule="evenodd" clip-rule="evenodd" d="M6.47994 16.6735L5.7964 16.9821C5.37651 17.1717 5.08667 17.5939 5.08667 18.0821V19.2885H6.29416C6.78181 19.2885 7.20448 18.998 7.39431 18.5783L7.70339 17.895L9.07009 18.5131L8.76101 19.1965C8.33737 20.1331 7.39259 20.7885 6.29416 20.7885H4.33667C3.92246 20.7885 3.58667 20.4527 3.58667 20.0385V18.0821C3.58667 16.9842 4.24044 16.0389 5.17908 15.6151L5.86262 15.3064L6.47994 16.6735Z" fill="#0068FF"/>
<path fill-rule="evenodd" clip-rule="evenodd" d="M10.5288 6.71705C14.0165 3.5195 17.898 3.12272 19.6262 3.12501C20.5301 3.1262 21.2489 3.84494 21.25 4.74892C21.2522 6.47708 20.8552 10.3587 17.6581 13.8461L17.8662 15.0109C18.1671 16.6942 17.4687 18.4007 16.0736 19.3887C16.0736 19.3888 16.0737 19.3887 16.0736 19.3887L13.1134 21.4868C12.8439 21.6778 12.4811 21.67 12.22 21.4674C11.9596 21.2654 11.8616 20.917 11.9785 20.6089C11.9787 20.6084 11.9789 20.6079 11.9791 20.6073L11.9818 20.5999C11.9851 20.5906 11.9908 20.5744 11.9984 20.5516C12.0136 20.506 12.0365 20.4341 12.0635 20.3381C12.1176 20.146 12.188 19.8586 12.2473 19.4933C12.332 18.9706 12.3932 18.2926 12.3525 17.5093C11.7552 17.7471 11.2741 17.8906 10.9731 17.9733C10.7131 18.0446 10.4348 17.971 10.2442 17.7803L6.59469 14.1308C6.40407 13.9402 6.33041 13.6619 6.40177 13.402C6.48439 13.101 6.62792 12.62 6.8656 12.0228C6.0823 11.9821 5.40428 12.0432 4.88154 12.128C4.5163 12.1872 4.22881 12.2577 4.03672 12.3117C3.94076 12.3388 3.86886 12.3616 3.82326 12.3769C3.80047 12.3845 3.78427 12.3902 3.77495 12.3935L3.76651 12.3966L3.76753 12.3962C3.45908 12.514 3.10988 12.4162 2.90746 12.1553C2.70494 11.8943 2.69704 11.5315 2.888 11.262L4.98256 8.30528C4.98252 8.30534 4.98261 8.30522 4.98256 8.30528C5.97257 6.90706 7.6814 6.20691 9.36747 6.50912C9.36741 6.50911 9.36752 6.50914 9.36747 6.50912L10.5288 6.71705ZM9.27733 8.01684L9.10311 7.98565C7.9897 7.78603 6.86085 8.24819 6.20681 9.17202L5.21611 10.5705C5.86935 10.5013 6.65851 10.4783 7.53984 10.572C7.965 9.776 8.52991 8.89694 9.27733 8.01684ZM8.63525 11.7255C8.6395 11.7172 8.64359 11.7087 8.64754 11.7002C9.1857 10.5977 10.0348 9.25626 11.3589 7.99431C14.5137 4.98755 18.0733 4.62296 19.6242 4.62501C19.6694 4.62507 19.698 4.6411 19.716 4.65907C19.7339 4.67704 19.75 4.70566 19.75 4.75084C19.752 6.30179 19.3872 9.86161 16.3807 13.0161C15.1198 14.3391 13.7795 15.1879 12.6776 15.7261C12.6673 15.7308 12.6572 15.7358 12.6473 15.7409C11.9828 16.0633 11.4068 16.2724 10.9897 16.4045L7.97052 13.3853C8.1028 12.9677 8.31224 12.3909 8.63525 11.7255ZM13.8033 16.8351C13.897 17.7161 13.874 18.5051 13.8048 19.1582L15.2063 18.1649C16.1266 17.5133 16.5883 16.3866 16.3896 15.2749L16.358 15.0979C15.478 15.8451 14.5991 16.41 13.8033 16.8351ZM3.5 11.6955L3.76753 12.3962C3.76738 12.3962 3.76767 12.3961 3.76753 12.3962C3.76773 12.3961 3.76795 12.396 3.5 11.6955Z" fill="#303236"/>
</svg>
