<svg width="24" height="24" viewBox="0 0 24 24" fill="none" xmlns="http://www.w3.org/2000/svg">
<path d="M17.25 4C19.3211 4 21 5.67893 21 7.75V11.2646C20.9998 11.6787 20.6641 12.0146 20.25 12.0146C19.8359 12.0146 19.5002 11.6787 19.5 11.2646V9.38281H3.5V16.7129C3.5 17.9555 4.50736 18.9629 5.75 18.9629H11.1504L11.2266 18.9668C11.6047 19.0051 11.9002 19.3247 11.9004 19.7129C11.9004 20.1012 11.6048 20.4206 11.2266 20.459L11.1504 20.4629H5.75C3.67893 20.4629 2 18.784 2 16.7129V7.75C2 5.67893 3.67893 4 5.75 4H17.25ZM11.3213 16.1543H6.43555V14.6543H11.3213V16.1543ZM5.75 5.5C4.50736 5.5 3.5 6.50736 3.5 7.75V7.88281H19.5V7.75C19.5 6.50736 18.4926 5.5 17.25 5.5H5.75Z" fill="#303236"/>
<path d="M17 20V18H15C14.5858 18 14.25 17.6642 14.25 17.25C14.25 16.8358 14.5858 16.5 15 16.5H17V14.5C17 14.0858 17.3358 13.75 17.75 13.75C18.1642 13.75 18.5 14.0858 18.5 14.5V16.5H20.5L20.5771 16.5039C20.9551 16.5425 21.25 16.8618 21.25 17.25C21.25 17.6382 20.9551 17.9575 20.5771 17.9961L20.5 18H18.5V20C18.5 20.4142 18.1642 20.75 17.75 20.75C17.3358 20.75 17 20.4142 17 20Z" fill="#0068FF"/>
</svg>
