<svg width="24" height="24" viewBox="0 0 24 24" fill="none" xmlns="http://www.w3.org/2000/svg">
<path fill-rule="evenodd" clip-rule="evenodd" d="M4 8.75C3.58579 8.75 3.25 9.08579 3.25 9.5L3.25 14.5C3.25 14.9142 3.58579 15.25 4 15.25C4.41421 15.25 4.75 14.9142 4.75 14.5V9.5C4.75 9.08579 4.41421 8.75 4 8.75Z" fill="#0068FF"/>
<path fill-rule="evenodd" clip-rule="evenodd" d="M2.69614 9.30702C1.96392 8.89833 1.97426 7.8413 2.71434 7.44702L10.5894 3.25148C11.4712 2.78173 12.5289 2.78173 13.4106 3.25148L21.2857 7.44702C22.0258 7.84131 22.0361 8.89834 21.3039 9.30702L18.25 11.0116V17.8561C18.25 18.5423 17.8489 19.1653 17.2242 19.4492L13.138 21.3066C12.4149 21.6352 11.5851 21.6352 10.862 21.3066L6.77585 19.4492C6.15111 19.1653 5.75 18.5423 5.75 17.8561V11.0115L2.69614 9.30702ZM11.269 12.3741L4.13267 8.39099L11.2947 4.57533C11.7356 4.34045 12.2645 4.34045 12.7053 4.57533L19.8674 8.39099L12.7311 12.3741C12.2767 12.6277 11.7233 12.6277 11.269 12.3741ZM7.25 11.8488V17.8561C7.25 17.9541 7.3073 18.0431 7.39655 18.0837L11.4827 19.941C11.8114 20.0904 12.1886 20.0904 12.5173 19.941L16.6034 18.0837C16.6927 18.0431 16.75 17.9541 16.75 17.8561V11.8488L13.4621 13.6839C12.5534 14.1911 11.4467 14.1911 10.5379 13.6839L7.25 11.8488Z" fill="#303236"/>
</svg>
