<svg width="24" height="24" viewBox="0 0 24 24" fill="none" xmlns="http://www.w3.org/2000/svg">
<path fill-rule="evenodd" clip-rule="evenodd" d="M12 4.25415C11.3096 4.25415 10.75 4.81379 10.75 5.50415C10.75 6.19451 11.3096 6.75415 12 6.75415C12.6904 6.75415 13.25 6.19451 13.25 5.50415C13.25 4.81379 12.6904 4.25415 12 4.25415ZM9.25 5.50415C9.25 3.98537 10.4812 2.75415 12 2.75415C13.5188 2.75415 14.75 3.98537 14.75 5.50415C14.75 7.02293 13.5188 8.25415 12 8.25415C10.4812 8.25415 9.25 7.02293 9.25 5.50415Z" fill="#0068FF"/>
<path d="M7.69314 6.31321C7.9344 6.6499 7.85704 7.11843 7.52035 7.3597L6.02192 8.43343C5.69432 8.66817 5.5 9.04647 5.5 9.44949V10.2501C5.5 10.6643 5.16421 11.0001 4.75 11.0001C4.33579 11.0001 4 10.6643 4 10.2501V9.44949C4 8.56284 4.4275 7.73059 5.14822 7.21414L6.64665 6.14042C6.98334 5.89915 7.45187 5.97651 7.69314 6.31321Z" fill="#303236"/>
<path d="M16.4739 6.31317C16.7152 5.97649 17.1837 5.89916 17.5204 6.14044L19.0186 7.21417C19.7392 7.73062 20.1667 8.56283 20.1667 9.44941V10.2501C20.1667 10.6643 19.8309 11.0001 19.4167 11.0001C19.0025 11.0001 18.6667 10.6643 18.6667 10.2501V9.44941C18.6667 9.04642 18.4724 8.66814 18.1448 8.43339L16.6466 7.35967C16.3099 7.11838 16.2326 6.64985 16.4739 6.31317Z" fill="#303236"/>
<path d="M8.41305 18.4139C8.59871 18.0436 9.04939 17.894 9.41966 18.0796L11.5231 19.1343C11.8757 19.3111 12.291 19.3111 12.6436 19.1343L14.7474 18.0796C15.1176 17.894 15.5683 18.0436 15.754 18.4139C15.9396 18.7842 15.7899 19.2349 15.4196 19.4205L13.3159 20.4752C12.5402 20.8641 11.6264 20.8641 10.8508 20.4752L8.74733 19.4205C8.37705 19.2348 8.22739 18.7842 8.41305 18.4139Z" fill="#303236"/>
<path fill-rule="evenodd" clip-rule="evenodd" d="M2.25 15.504C2.25 13.9852 3.48122 12.754 5 12.754C6.51878 12.754 7.75 13.9852 7.75 15.504C7.75 17.0228 6.51878 18.254 5 18.254C3.48122 18.254 2.25 17.0228 2.25 15.504ZM5 14.254C4.30964 14.254 3.75 14.8137 3.75 15.504C3.75 16.1944 4.30964 16.754 5 16.754C5.69036 16.754 6.25 16.1944 6.25 15.504C6.25 14.8137 5.69036 14.254 5 14.254Z" fill="#303236"/>
<path fill-rule="evenodd" clip-rule="evenodd" d="M19 12.754C17.4812 12.754 16.25 13.9852 16.25 15.504C16.25 17.0228 17.4812 18.254 19 18.254C20.5188 18.254 21.75 17.0228 21.75 15.504C21.75 13.9852 20.5188 12.754 19 12.754ZM17.75 15.504C17.75 14.8137 18.3096 14.254 19 14.254C19.6904 14.254 20.25 14.8137 20.25 15.504C20.25 16.1944 19.6904 16.754 19 16.754C18.3096 16.754 17.75 16.1944 17.75 15.504Z" fill="#303236"/>
</svg>
