<svg width="24" height="24" viewBox="0 0 24 24" fill="none" xmlns="http://www.w3.org/2000/svg">
<path fill-rule="evenodd" clip-rule="evenodd" d="M19.4526 12.4026C19.0526 11.8005 18.1929 11.7353 17.7066 12.2701L14.1603 16.1706C13.5656 16.8246 12.7226 17.1975 11.8386 17.1975H8.20517C7.79096 17.1975 7.45517 16.8617 7.45517 16.4475C7.45517 16.0333 7.79096 15.6975 8.20517 15.6975H11.8386C12.3 15.6975 12.74 15.5029 13.0504 15.1615L14.1684 13.932C13.5334 13.1825 12.6008 12.7501 11.6181 12.7501H7.31896C5.76209 12.7501 4.5 14.0122 4.5 15.5691V16.0001C4.5 16.4144 4.16421 16.7501 3.75 16.7501C3.33579 16.7501 3 16.4144 3 16.0001V15.5691C3 13.1838 4.93367 11.2501 7.31896 11.2501H11.6181C12.9764 11.2501 14.2687 11.8203 15.1834 12.8156L16.5968 11.261C17.7402 10.0035 19.7614 10.1568 20.702 11.5725C21.2755 12.4358 21.2839 13.5565 20.7235 14.4283L18.3833 18.0686C17.3089 19.7399 15.4584 20.7501 13.4716 20.7501H3.75C3.33579 20.7501 3 20.4144 3 20.0001C3 19.5859 3.33579 19.2501 3.75 19.2501H13.4716C14.9481 19.2501 16.3232 18.4994 17.1215 17.2575L19.4617 13.6172C19.7001 13.2464 19.6965 12.7697 19.4526 12.4026Z" fill="#303236"/>
<path fill-rule="evenodd" clip-rule="evenodd" d="M11.25 3L18.75 3V4.5L11.25 4.5L11.25 3ZM11.25 6.75L18.75 6.75V8.25L11.25 8.25L11.25 6.75Z" fill="#0068FF"/>
</svg>
