<svg width="24" height="24" viewBox="0 0 24 24" fill="none" xmlns="http://www.w3.org/2000/svg">
<path d="M12 6.75C13.5188 6.75 14.75 7.98122 14.75 9.5C14.75 10.7584 13.9037 11.8158 12.75 12.1426V13.7998H14.1797V15.2998H12.75V16.5117H11.25V12.1426C10.0963 11.8158 9.25 10.7584 9.25 9.5C9.25 7.98122 10.4812 6.75 12 6.75ZM12 8.25C11.3096 8.25 10.75 8.80964 10.75 9.5C10.75 10.1904 11.3096 10.75 12 10.75C12.6904 10.75 13.25 10.1904 13.25 9.5C13.25 8.80964 12.6904 8.25 12 8.25Z" fill="#0068FF"/>
<path d="M13.3593 3.2577C13.7735 3.2577 14.1093 3.59352 14.1093 4.0077C14.1093 4.42192 13.7735 4.7577 13.3593 4.7577H8.07513C7.32581 4.75777 6.63151 5.15169 6.247 5.79482L3.78802 9.90909C3.2887 10.7447 3.4193 11.8133 4.1054 12.5038L10.4853 18.9238C11.3181 19.7618 12.6749 19.7618 13.5078 18.9238L19.8876 12.5038C20.5739 11.8133 20.7044 10.7448 20.205 9.90909L19.5351 8.78897C19.3058 8.40526 19.4615 7.90725 19.8681 7.72158C20.2157 7.56295 20.627 7.69056 20.8232 8.01846L21.4931 9.13956C22.3441 10.5637 22.1205 12.3837 20.9511 13.5605L14.5712 19.9804C13.1518 21.4086 10.8412 21.4087 9.42181 19.9804L3.04192 13.5605C1.87257 12.3837 1.64894 10.5637 2.49993 9.13956L4.95892 5.02528C5.61418 3.92896 6.79791 3.25776 8.07513 3.2577H13.3593ZM17.0253 3.07118C17.1616 2.66363 17.8374 2.66359 17.9736 3.07118L18.3945 4.33387L19.6562 4.7538C19.8602 4.82181 19.997 5.01339 19.997 5.22939C19.9968 5.4452 19.8581 5.63605 19.6542 5.704L18.3935 6.12392L17.9716 7.38662C17.9049 7.58896 17.7134 7.72732 17.499 7.72744C17.2844 7.72744 17.0934 7.59045 17.0253 7.38662L16.6044 6.12392L15.3427 5.704C15.1389 5.63605 15.0001 5.4452 14.9999 5.22939C14.9999 5.01339 15.1387 4.8218 15.3427 4.7538L16.6044 4.33387L17.0253 3.07118Z" fill="#303236"/>
</svg>
