<svg width="24" height="24" viewBox="0 0 24 24" fill="none" xmlns="http://www.w3.org/2000/svg">
<path d="M7.75354 11.5322H5.7262V10.0322H7.75354V7.97363H9.25354V10.0322H11.2809V11.5322H9.25354V13.5928H7.75354V11.5322Z" fill="#0068FF"/>
<path d="M17.6971 10.9771C17.7391 10.9813 17.7805 10.9873 17.8212 10.9956C17.9837 11.0289 18.1345 11.0943 18.2674 11.1841C18.4004 11.2739 18.5155 11.3881 18.6053 11.521C18.7402 11.7205 18.8192 11.9612 18.8192 12.2202C18.8192 12.3663 18.792 12.5059 18.746 12.6362C18.7385 12.6573 18.731 12.6782 18.7225 12.6987C18.7166 12.713 18.7094 12.7267 18.703 12.7407C18.6938 12.7608 18.6849 12.7808 18.6747 12.8003C18.6647 12.8192 18.6543 12.8377 18.6434 12.856C18.635 12.8702 18.626 12.8841 18.6171 12.8979C18.6056 12.9157 18.5932 12.9326 18.5809 12.9497C18.5686 12.9667 18.5569 12.9841 18.5438 13.0005C18.5341 13.0126 18.5237 13.0239 18.5135 13.0356C18.5001 13.0512 18.4867 13.0667 18.4725 13.0815C18.4558 13.0991 18.4384 13.1158 18.4208 13.1323C18.4123 13.1402 18.404 13.1481 18.3954 13.1558C18.3779 13.1712 18.36 13.1862 18.3417 13.2007C18.3248 13.214 18.3074 13.2263 18.2899 13.2388C18.2744 13.2497 18.259 13.2607 18.243 13.271C18.2334 13.2772 18.2235 13.2827 18.2137 13.2886C18.1878 13.3043 18.1618 13.3197 18.1346 13.3335C18.1263 13.3377 18.1177 13.3412 18.1092 13.3452C18.0873 13.3558 18.0654 13.3662 18.0428 13.3755C18.0169 13.3862 17.9905 13.3958 17.9637 13.4048C17.9537 13.4081 17.9436 13.4114 17.9335 13.4146C17.9096 13.4218 17.8856 13.4282 17.8612 13.4341C17.8446 13.4381 17.8282 13.4425 17.8114 13.4458C17.733 13.4612 17.6521 13.4702 17.5692 13.4702C17.4655 13.4702 17.3648 13.4559 17.2684 13.4321C17.2451 13.4264 17.2219 13.4206 17.1991 13.4136C17.1915 13.4112 17.1841 13.4082 17.1766 13.4058C17.1478 13.3962 17.1195 13.386 17.0917 13.3745C17.0752 13.3677 17.0589 13.3605 17.0428 13.353C17.0244 13.3445 17.006 13.3361 16.9881 13.3267C16.9702 13.3172 16.9529 13.3067 16.9354 13.2964C16.9186 13.2865 16.9019 13.2767 16.8856 13.2661C16.8662 13.2534 16.8476 13.2398 16.829 13.2261C16.8201 13.2196 16.8112 13.2133 16.8026 13.2065C16.7794 13.1885 16.7571 13.1695 16.7352 13.1499C16.7266 13.1422 16.7182 13.1344 16.7098 13.1265C16.6944 13.1119 16.6795 13.0969 16.6649 13.0815C16.6509 13.0669 16.6372 13.052 16.6239 13.0366C16.6109 13.0216 16.5981 13.0064 16.5858 12.9907C16.576 12.9783 16.5668 12.9655 16.5575 12.9526C16.544 12.9341 16.5309 12.9153 16.5184 12.896C16.5076 12.8793 16.4971 12.8624 16.4872 12.8452C16.4788 12.8307 16.4706 12.8161 16.4628 12.8013C16.4531 12.783 16.4441 12.7644 16.4354 12.7456C16.3612 12.5858 16.3192 12.408 16.3192 12.2202C16.3192 11.5299 16.8788 10.9702 17.5692 10.9702L17.6971 10.9771Z" fill="#303236"/>
<path d="M15.285 8.10205C15.9151 8.16625 16.4071 8.69814 16.4071 9.34521C16.4071 9.49132 16.3799 9.6309 16.3338 9.76123C16.3264 9.78229 16.3189 9.80321 16.3104 9.82373C16.3045 9.83803 16.2973 9.8517 16.2909 9.86572C16.2817 9.88577 16.2728 9.90583 16.2626 9.92529C16.2526 9.94418 16.2422 9.96265 16.2313 9.98096C16.2229 9.99521 16.2139 10.0091 16.2049 10.0229C16.1935 10.0407 16.1811 10.0576 16.1688 10.0747C16.1565 10.0917 16.1448 10.1091 16.1317 10.1255C16.122 10.1376 16.1115 10.1489 16.1014 10.1606C16.0874 10.1769 16.0733 10.193 16.0585 10.2085C16.0454 10.2221 16.0321 10.2355 16.0184 10.2485C16.0037 10.2626 15.9888 10.2763 15.9735 10.2896C15.96 10.3012 15.9464 10.3126 15.9325 10.3237C15.9126 10.3395 15.8918 10.3541 15.871 10.3687C15.8618 10.3751 15.853 10.382 15.8436 10.3882C15.8258 10.3999 15.8073 10.4105 15.7889 10.4214C15.7673 10.4341 15.7459 10.4471 15.7235 10.4585C15.7149 10.4629 15.7058 10.466 15.6971 10.4702C15.6752 10.4808 15.6533 10.4912 15.6307 10.5005C15.6048 10.5112 15.5784 10.5209 15.5516 10.5298C15.5416 10.5331 15.5315 10.5365 15.5213 10.5396C15.4975 10.5468 15.4735 10.5532 15.4491 10.5591C15.4325 10.5631 15.4161 10.5675 15.3993 10.5708C15.3684 10.5769 15.3371 10.5807 15.3055 10.5845C15.298 10.5854 15.2906 10.5876 15.2831 10.5884C15.2416 10.5925 15.1996 10.5952 15.1571 10.5952L15.0292 10.5884C14.9896 10.5844 14.9504 10.5784 14.912 10.5708C14.8955 10.5675 14.8794 10.563 14.8631 10.5591C14.8375 10.5529 14.812 10.5463 14.787 10.5386C14.7807 10.5366 14.7747 10.5338 14.7684 10.5317C14.737 10.5215 14.7059 10.5112 14.6756 10.4985C14.6657 10.4944 14.6562 10.4893 14.6463 10.4849C14.6224 10.4741 14.5982 10.4639 14.5751 10.4517C14.5573 10.4423 14.5405 10.4315 14.5233 10.4214C14.5065 10.4115 14.4897 10.4017 14.4735 10.3911C14.4565 10.38 14.4401 10.3679 14.4237 10.356C14.4101 10.3461 14.3968 10.3361 14.3837 10.3257C14.3684 10.3136 14.3534 10.3013 14.3387 10.2886C14.3211 10.2733 14.3037 10.2579 14.287 10.2417C14.2762 10.2313 14.2661 10.2203 14.2557 10.2095C14.2407 10.1938 14.226 10.178 14.2118 10.1616C14.1988 10.1466 14.186 10.1314 14.1737 10.1157C14.1639 10.1033 14.1547 10.0905 14.1454 10.0776C14.1319 10.0591 14.1188 10.0403 14.1063 10.021C14.0955 10.0043 14.085 9.98745 14.0751 9.97021C14.0667 9.95572 14.0585 9.94113 14.0506 9.92627C14.041 9.908 14.032 9.8894 14.0233 9.87061C13.9982 9.81649 13.9761 9.76062 13.9588 9.70264C13.9521 9.67986 13.9468 9.65661 13.9413 9.6333C13.9194 9.54074 13.9071 9.44445 13.9071 9.34521C13.9071 8.65486 14.4667 8.09521 15.1571 8.09521L15.285 8.10205Z" fill="#303236"/>
<path fill-rule="evenodd" clip-rule="evenodd" d="M18.3768 4.604C20.2105 4.69351 21.7005 6.15099 21.8124 8.00244L22.3182 16.3843C22.4168 18.0181 21.118 19.3978 19.4813 19.3979L19.2567 19.3892C18.8094 19.3537 18.3764 19.2128 17.994 18.978L17.8075 18.853L16.6991 18.0444C15.5679 17.2202 14.2184 16.753 12.8241 16.6978L12.5448 16.6919H11.6786C10.207 16.6919 8.77439 17.1662 7.59361 18.0444L6.57994 18.7993L6.37877 18.936C5.89835 19.2368 5.3414 19.3979 4.77135 19.3979L4.60631 19.3931C2.97508 19.3059 1.70383 17.9335 1.74205 16.3003L1.74986 16.1362L2.37877 7.94385C2.519 6.11607 3.99954 4.69115 5.81236 4.604L5.98814 4.6001H18.1981L18.3768 4.604ZM5.98814 6.1001C4.94912 6.10031 4.07418 6.85057 3.89928 7.85498L3.87389 8.05908L3.24596 16.2515C3.17809 17.1397 3.88048 17.8979 4.77135 17.8979C5.10015 17.8978 5.42062 17.7915 5.68443 17.5952L6.69811 16.8413L6.97154 16.646C8.35618 15.7001 9.9965 15.1919 11.6786 15.1919H12.5448C14.3551 15.192 16.1188 15.7665 17.5819 16.8325L18.6913 17.6401L18.7792 17.6997C18.9897 17.8289 19.2329 17.8979 19.4813 17.8979C20.2056 17.8978 20.7901 17.3256 20.8221 16.6187L20.8212 16.4751L20.3153 8.09326C20.2477 6.97381 19.3196 6.10027 18.1981 6.1001H5.98814Z" fill="#303236"/>
</svg>
