<svg width="24" height="24" viewBox="0 0 24 24" fill="none" xmlns="http://www.w3.org/2000/svg">
<path d="M12 3.5C12.4142 3.5 12.75 3.83579 12.75 4.25C12.75 4.66421 12.4142 5 12 5C7.58172 5 4 8.58172 4 13C4 17.4183 7.58172 21 12 21C16.4183 21 20 17.4183 20 13C20 12.5858 20.3358 12.25 20.75 12.25C21.1642 12.25 21.5 12.5858 21.5 13C21.5 18.2467 17.2467 22.5 12 22.5C6.75329 22.5 2.5 18.2467 2.5 13C2.5 7.75329 6.75329 3.5 12 3.5ZM19.3203 5.70117C19.549 5.66862 19.7456 5.86506 19.7129 6.09375L19.1367 10.1279C19.1098 10.3164 18.8788 10.3934 18.7441 10.2588L17.4629 8.97656V8.97754L14.1035 12.3359L12.0381 10.2705L9.0332 13.2764C8.74049 13.5688 8.26649 13.5686 7.97363 13.2764C7.68082 12.9835 7.6798 12.5077 7.97266 12.2148L11.5078 8.67969L12.0381 8.15039L12.5674 8.68066L14.1025 10.2148L16.4014 7.91797L16.4023 7.91699L15.1543 6.66992C15.0203 6.53526 15.0979 6.30533 15.2861 6.27832L19.3203 5.70117Z" fill="#303236"/>
<path d="M14 16.25C14.4142 16.25 14.75 16.5858 14.75 17C14.75 17.4142 14.4142 17.75 14 17.75H10C9.58579 17.75 9.25 17.4142 9.25 17C9.25 16.5858 9.58579 16.25 10 16.25H14Z" fill="#0068FF"/>
</svg>
