<svg width="24" height="24" viewBox="0 0 24 24" fill="none" xmlns="http://www.w3.org/2000/svg">
<path fill-rule="evenodd" clip-rule="evenodd" d="M17.25 4C19.3211 4 21 5.67893 21 7.75V11.2646C20.9998 11.6787 20.6641 12.0146 20.25 12.0146C19.8359 12.0146 19.5002 11.6787 19.5 11.2646V9.38281H3.5V16.7129C3.5 17.9555 4.50736 18.9629 5.75 18.9629H11.1504L11.2266 18.9668C11.6047 19.0051 11.9002 19.3247 11.9004 19.7129C11.9004 20.1012 11.6048 20.4206 11.2266 20.459L11.1504 20.4629H5.75C3.67893 20.4629 2 18.784 2 16.7129V7.75C2 5.67893 3.67893 4 5.75 4H17.25ZM5.75 5.5C4.50736 5.5 3.5 6.50736 3.5 7.75V7.88281H19.5V7.75C19.5 6.50736 18.4926 5.5 17.25 5.5H5.75Z" fill="#303236"/>
<path d="M11.3213 16.1543H6.43555V14.6543H11.3213V16.1543Z" fill="#303236"/>
<path d="M19.4087 14.8516C19.1773 14.6719 18.8439 14.674 18.6128 14.8721C18.3487 15.0985 18.318 15.4956 18.5444 15.7598L19.7524 17.1699H16.9224C15.724 17.1698 14.7524 16.1984 14.7524 15C14.7524 14.6521 14.4705 14.3701 14.1226 14.3701C13.7746 14.3701 13.4927 14.6521 13.4927 15C13.4927 16.8943 15.0281 18.4296 16.9224 18.4297H19.7524L18.5444 19.8398C18.318 20.104 18.3486 20.5021 18.6128 20.7285C18.8769 20.9547 19.2741 20.924 19.5005 20.6602L21.6011 18.21C21.8032 17.974 21.8033 17.6255 21.6011 17.3896L19.5005 14.9404L19.4087 14.8516Z" fill="#0068FF"/>
</svg>
