<svg width="24" height="24" viewBox="0 0 24 24" fill="none" xmlns="http://www.w3.org/2000/svg">
<path d="M15.75 14.75V16.25H8.25V14.75H15.75Z" fill="#0068FF"/>
<path d="M15.25 7.75V6.5H8.75V7.75C8.75 8.16421 8.41421 8.5 8 8.5C7.58579 8.5 7.25 8.16421 7.25 7.75V6.5H6C5.30964 6.5 4.75 7.05964 4.75 7.75V18C4.75 18.6904 5.30964 19.25 6 19.25H18C18.6904 19.25 19.25 18.6904 19.25 18V7.75C19.25 7.05964 18.6904 6.5 18 6.5H16.75V7.75C16.75 8.16421 16.4142 8.5 16 8.5C15.5858 8.5 15.25 8.16421 15.25 7.75ZM20.75 18C20.75 19.5188 19.5188 20.75 18 20.75H6C4.48122 20.75 3.25 19.5188 3.25 18V7.75C3.25 6.23122 4.48122 5 6 5H7.25V3.75C7.25 3.33579 7.58579 3 8 3C8.41421 3 8.75 3.33579 8.75 3.75V5H15.25V3.75C15.25 3.33579 15.5858 3 16 3C16.4142 3 16.75 3.33579 16.75 3.75V5H18C19.5188 5 20.75 6.23122 20.75 7.75V18Z" fill="#303236"/>
</svg>
