<svg width="24" height="24" viewBox="0 0 24 24" fill="none" xmlns="http://www.w3.org/2000/svg">
<path d="M10 12.249C10.4142 12.249 10.7499 12.5849 10.75 12.999C10.75 13.4132 10.4142 13.749 10 13.749H9.0459C6.53532 13.7491 4.5001 15.7844 4.5 18.2949C4.5 19.0506 5.11253 19.663 5.86816 19.6631H9L9.07715 19.667C9.455 19.7056 9.7498 20.0251 9.75 20.4131C9.75 20.8012 9.4551 21.1205 9.07715 21.1592L9 21.1631H5.86816C4.2841 21.163 3 19.879 3 18.2949C3.0001 14.9559 5.7069 12.2491 9.0459 12.249H10Z" fill="#303236"/>
<path fill-rule="evenodd" clip-rule="evenodd" d="M11.5459 2.5C13.803 2.50037 15.6328 4.33068 15.6328 6.58789C15.6326 8.84491 13.8029 10.6744 11.5459 10.6748C9.2886 10.6748 7.45824 8.84513 7.45801 6.58789C7.45801 4.33045 9.28846 2.5 11.5459 2.5ZM11.5459 4C10.1169 4 8.95801 5.15888 8.95801 6.58789C8.95824 8.01671 10.117 9.1748 11.5459 9.1748C12.9745 9.17444 14.1326 8.01648 14.1328 6.58789C14.1328 5.1591 12.9746 4.00037 11.5459 4Z" fill="#303236"/>
<path d="M19.75 15.7002C19.75 15.3156 19.5971 14.9467 19.3252 14.6748C19.0873 14.4369 18.7753 14.2898 18.4434 14.2568L18.2998 14.25C18.023 14.25 17.83 14.2883 17.6602 14.3623C17.5292 14.4194 17.3852 14.5095 17.2129 14.6592L17.0303 14.8301C16.7556 15.1047 16.321 15.1222 16.0264 14.8818L15.9697 14.8301C15.7126 14.573 15.5145 14.4384 15.3398 14.3623C15.2123 14.3068 15.0717 14.2711 14.8926 14.2568L14.7002 14.25C14.3156 14.25 13.9467 14.4029 13.6748 14.6748C13.4029 14.9467 13.25 15.3156 13.25 15.7002L13.2539 15.8076C13.2914 16.2719 13.5714 16.6921 14.0088 17.1475L14.2305 17.3691L13.7002 17.9004L14.2305 17.3701L16.3516 19.4912C16.4335 19.5729 16.5665 19.5729 16.6484 19.4912L18.7754 17.3643L18.9883 17.1484C19.4609 16.6519 19.7499 16.2037 19.75 15.7002ZM21.25 15.7002C21.2499 16.953 20.4231 17.8472 19.8291 18.4297L19.8301 18.4307L17.709 20.5518C17.0412 21.2193 15.9588 21.2193 15.291 20.5518L12.9443 18.2051C12.4219 17.6665 11.8401 16.9186 11.7598 15.9316L11.75 15.7002C11.75 14.9178 12.061 14.1675 12.6143 13.6143C13.1675 13.061 13.9178 12.75 14.7002 12.75L15.0166 12.7627C15.3304 12.7882 15.6353 12.8553 15.9385 12.9873C16.1361 13.0734 16.3215 13.1823 16.5 13.3115C16.6785 13.1823 16.8639 13.0734 17.0615 12.9873C17.4655 12.8113 17.8728 12.75 18.2998 12.75L18.5918 12.7646C19.267 12.8317 19.9017 13.1302 20.3857 13.6143C20.939 14.1675 21.25 14.9178 21.25 15.7002Z" fill="#0068FF"/>
</svg>
