<svg width="24" height="24" viewBox="0 0 24 24" fill="none" xmlns="http://www.w3.org/2000/svg">
<path fill-rule="evenodd" clip-rule="evenodd" d="M14.4445 5V9.55556H19V5H14.4445ZM13.8889 3.5C13.3673 3.5 12.9445 3.92284 12.9445 4.44444V10.1111C12.9445 10.6327 13.3673 11.0556 13.8889 11.0556H19.5556C20.0772 11.0556 20.5 10.6327 20.5 10.1111V4.44444C20.5 3.92284 20.0772 3.5 19.5556 3.5H13.8889Z" fill="#0068FF"/>
<path fill-rule="evenodd" clip-rule="evenodd" d="M5 5V9.55556H9.55556V5H5ZM5 14.4444V19H9.55556V14.4444H5ZM14.4444 14.4444V19H19V14.4444H14.4444ZM3.5 4.44444C3.5 3.92284 3.92284 3.5 4.44444 3.5H10.1111C10.6327 3.5 11.0556 3.92284 11.0556 4.44444V10.1111C11.0556 10.6327 10.6327 11.0556 10.1111 11.0556H4.44444C3.92284 11.0556 3.5 10.6327 3.5 10.1111V4.44444ZM3.5 13.8889C3.5 13.3673 3.92284 12.9444 4.44444 12.9444H10.1111C10.6327 12.9444 11.0556 13.3673 11.0556 13.8889V19.5556C11.0556 20.0772 10.6327 20.5 10.1111 20.5H4.44444C3.92284 20.5 3.5 20.0772 3.5 19.5556V13.8889ZM13.8889 12.9444C13.3673 12.9444 12.9444 13.3673 12.9444 13.8889V19.5556C12.9444 20.0772 13.3673 20.5 13.8889 20.5H19.5556C20.0772 20.5 20.5 20.0772 20.5 19.5556V13.8889C20.5 13.3673 20.0772 12.9444 19.5556 12.9444H13.8889Z" fill="#303236"/>
</svg>
