<svg width="24" height="24" viewBox="0 0 24 24" fill="none" xmlns="http://www.w3.org/2000/svg">
<path d="M15.3588 13.1699C13.504 15.0243 10.4969 15.0241 8.64197 13.1699L6.47205 11H8.59314L9.70251 12.1094C10.9717 13.3778 13.0292 13.378 14.2982 12.1094L15.4076 11H17.5287L15.3588 13.1699Z" fill="#0068FF"/>
<path d="M19.5 9.71387C19.4998 9.15425 19.0698 8.75 18.5996 8.75H5.40039C4.93021 8.75 4.50021 9.15425 4.5 9.71387V18.2861C4.50021 18.8458 4.93021 19.25 5.40039 19.25H18.5996C19.0698 19.25 19.4998 18.8458 19.5 18.2861V9.71387ZM15.25 5.44434C15.25 5.23794 15.1544 5.00871 14.9297 4.81836C14.7012 4.62481 14.368 4.5 14 4.5H10C9.63196 4.5 9.2988 4.62481 9.07031 4.81836C8.84564 5.00871 8.75 5.23794 8.75 5.44434V7.25H15.25V5.44434ZM16.75 7.25H18.5996C19.9517 7.25 20.9998 8.38034 21 9.71387V18.2861C20.9998 19.6197 19.9517 20.75 18.5996 20.75H5.40039C4.04829 20.75 3.00022 19.6197 3 18.2861V9.71387C3.00022 8.38034 4.04829 7.25 5.40039 7.25H7.25V5.44434C7.25 4.75223 7.5753 4.11888 8.10059 3.67383C8.62224 3.23196 9.30718 3 10 3H14C14.6928 3 15.3778 3.23196 15.8994 3.67383C16.4247 4.11888 16.75 4.75223 16.75 5.44434V7.25Z" fill="#303236"/>
</svg>
