<svg width="24" height="24" viewBox="0 0 24 24" fill="none" xmlns="http://www.w3.org/2000/svg">
<path fill-rule="evenodd" clip-rule="evenodd" d="M7.56257 7.39519L6.55293 5.71244C6.23993 5.19077 6.38366 4.51588 6.88206 4.16701C9.95502 2.01595 14.0451 2.01595 17.118 4.16701C17.6164 4.51588 17.7602 5.19077 17.4472 5.71245L16.4375 7.39524C18.4403 8.79638 19.75 11.1202 19.75 13.7499V19.4999C19.75 20.4664 18.9665 21.2499 18 21.2499H6C5.0335 21.2499 4.25 20.4664 4.25 19.4999V13.7499C4.25 11.1201 5.55978 8.79633 7.56257 7.39519ZM8.8696 6.6581L8.0063 5.21926C10.4405 3.6652 13.5596 3.6652 15.9938 5.21926L15.1305 6.65814C14.1731 6.23493 13.114 5.99988 12 5.99988C10.886 5.99988 9.82692 6.23492 8.8696 6.6581ZM5.75 13.7499C5.75 10.2981 8.54822 7.49988 12 7.49988C15.4518 7.49988 18.25 10.2981 18.25 13.7499V19.4999C18.25 19.638 18.1381 19.7499 18 19.7499H6C5.86193 19.7499 5.75 19.638 5.75 19.4999V13.7499Z" fill="#303236"/>
<path fill-rule="evenodd" clip-rule="evenodd" d="M12 10.4392L15.5355 13.9748L12 17.5103L8.46448 13.9748L12 10.4392ZM12 12.5605L10.5858 13.9748L12 15.389L13.4142 13.9748L12 12.5605Z" fill="#0068FF"/>
</svg>
