<svg width="24" height="24" viewBox="0 0 24 24" fill="none" xmlns="http://www.w3.org/2000/svg">
<path d="M17.25 4C19.3211 4 21 5.67893 21 7.75V11.2646C20.9998 11.6787 20.6641 12.0146 20.25 12.0146C19.8359 12.0146 19.5002 11.6787 19.5 11.2646V9.38281H3.5V16.7129C3.5 17.9555 4.50736 18.9629 5.75 18.9629H11.1504L11.2266 18.9668C11.6047 19.0051 11.9002 19.3247 11.9004 19.7129C11.9004 20.1012 11.6048 20.4206 11.2266 20.459L11.1504 20.4629H5.75C3.67893 20.4629 2 18.784 2 16.7129V7.75C2 5.67893 3.67893 4 5.75 4H17.25ZM11.3213 16.1543H6.43555V14.6543H11.3213V16.1543ZM5.75 5.5C4.50736 5.5 3.5 6.50736 3.5 7.75V7.88281H19.5V7.75C19.5 6.50736 18.4926 5.5 17.25 5.5H5.75Z" fill="#303236"/>
<path d="M15.8364 14.8516C16.0679 14.6719 16.4012 14.674 16.6323 14.8721C16.8964 15.0985 16.9271 15.4956 16.7007 15.7598L15.4927 17.1699H18.3228C19.5211 17.1698 20.4927 16.1984 20.4927 15C20.4927 14.6521 20.7746 14.3701 21.1226 14.3701C21.4705 14.3701 21.7524 14.6521 21.7524 15C21.7524 16.8943 20.217 18.4296 18.3228 18.4297H15.4927L16.7007 19.8398C16.9271 20.104 16.8965 20.5021 16.6323 20.7285C16.3683 20.9547 15.9711 20.924 15.7446 20.6602L13.6441 18.21C13.4419 17.974 13.4419 17.6255 13.6441 17.3896L15.7446 14.9404L15.8364 14.8516Z" fill="#0068FF"/>
</svg>
