<svg width="24" height="24" viewBox="0 0 24 24" fill="none" xmlns="http://www.w3.org/2000/svg">
<path d="M13.146 7.02612V13.1462H7.02588V7.02612H13.146ZM8.52588 11.6462H11.646V8.52612H8.52588V11.6462Z" fill="#0068FF"/>
<path d="M14.29 3C15.8088 3.00002 17.04 4.23123 17.04 5.75V8.28027H20.25C20.6642 8.28027 21 8.61606 21 9.03027V16.9502C21 18.1106 20.6101 19.136 19.873 19.873C19.136 20.6101 18.1106 21 16.9502 21H7.0498C5.88945 21 4.864 20.6101 4.12695 19.873C3.38991 19.136 3.00004 18.1106 3 16.9502V5.75C3 4.23122 4.23122 3 5.75 3H14.29ZM5.75 4.5C5.05964 4.5 4.5 5.05964 4.5 5.75V16.9502C4.50004 17.7697 4.76962 18.3946 5.1875 18.8125C5.60538 19.2304 6.23034 19.5 7.0498 19.5H15.54V5.75C15.54 5.05966 14.9804 4.50002 14.29 4.5H5.75ZM17.04 19.4961C17.8154 19.477 18.41 19.215 18.8125 18.8125C19.2304 18.3946 19.5 17.7697 19.5 16.9502V9.78027H17.04V19.4961ZM13.1465 17.04H7.02637V15.54H13.1465V17.04Z" fill="#303236"/>
</svg>
