<svg width="24" height="24" viewBox="0 0 24 24" fill="none" xmlns="http://www.w3.org/2000/svg">
<path fill-rule="evenodd" clip-rule="evenodd" d="M8 3C8.41421 3 8.75 3.33579 8.75 3.75V5.03125H15.25V3.75C15.25 3.33579 15.5858 3 16 3C16.4142 3 16.75 3.33579 16.75 3.75V5.03125H17.6719C19.5099 5.03125 21 6.5213 21 8.35938V17.6406C21 19.4787 19.5099 20.9688 17.6719 20.9688H6.32813C4.49005 20.9688 3 19.4787 3 17.6406V8.35938C3 6.5213 4.49005 5.03125 6.32812 5.03125H7.25V3.75C7.25 3.33579 7.58579 3 8 3ZM7.25 6.53125H6.32812C5.31848 6.53125 4.5 7.34973 4.5 8.35938V17.6406C4.5 18.6503 5.31848 19.4688 6.32813 19.4688H17.6719C18.6815 19.4688 19.5 18.6503 19.5 17.6406V8.35938C19.5 7.34973 18.6815 6.53125 17.6719 6.53125H16.75V7.75C16.75 8.16421 16.4142 8.5 16 8.5C15.5858 8.5 15.25 8.16421 15.25 7.75V6.53125H8.75V7.75C8.75 8.16421 8.41421 8.5 8 8.5C7.58579 8.5 7.25 8.16421 7.25 7.75V6.53125Z" fill="#303236"/>
<path fill-rule="evenodd" clip-rule="evenodd" d="M16.7804 12.4108L12.924 16.2672L10.7066 14.0498L8.28039 16.476L7.21973 15.4153L10.7066 11.9285L12.924 14.1459L15.7197 11.3501L16.7804 12.4108Z" fill="#0068FF"/>
</svg>
