<svg width="24" height="24" viewBox="0 0 24 24" fill="none" xmlns="http://www.w3.org/2000/svg">
<path d="M8.95996 3.2688C10.2112 3.33211 11.3105 3.97016 12 4.92407C12.6895 3.97025 13.7889 3.3321 15.04 3.2688L15.2461 3.26392H18.8154L19.0645 3.27661C20.2919 3.40116 21.2499 4.43818 21.25 5.69849V17.6936L21.2461 17.8499C21.1673 19.4056 19.9199 20.6536 18.3643 20.7327L18.207 20.7366H5.79297L5.63574 20.7327C4.08005 20.6536 2.8327 19.4056 2.75391 17.8499L2.75 17.6936V5.69849C2.75 4.43807 3.70798 3.40116 4.93555 3.27661L5.18457 3.26392H8.75391L8.95996 3.2688ZM5.18457 4.76392C4.66863 4.76392 4.25 5.18255 4.25 5.69849V17.6936C4.25011 18.5455 4.941 19.2366 5.79297 19.2366H11.2432V7.26685C11.2432 7.20499 11.2443 7.14345 11.2471 7.08228C11.1525 5.78626 10.0741 4.76392 8.75391 4.76392H5.18457ZM15.2461 4.76392C13.926 4.76392 12.8466 5.78634 12.752 7.08228C12.7547 7.14346 12.7568 7.20497 12.7568 7.26685V19.2366H18.207C19.059 19.2366 19.7499 18.5455 19.75 17.6936V5.69849C19.7499 5.18266 19.3313 4.76392 18.8154 4.76392H15.2461Z" fill="#303236"/>
<path d="M16.25 11.7708C16.6642 11.7708 17 12.1065 17 12.5208C16.9997 12.9347 16.6641 13.2708 16.25 13.2708H14.8125C14.3984 13.2708 14.0628 12.9347 14.0625 12.5208C14.0625 12.1065 14.3983 11.7708 14.8125 11.7708H16.25Z" fill="#0068FF"/>
<path d="M17.2539 8.76782C17.6659 8.76782 17.9999 9.10198 18 9.51392C18 9.9259 17.6659 10.26 17.2539 10.26H14.8076C14.3959 10.2597 14.0625 9.92574 14.0625 9.51392C14.0626 9.10215 14.3959 8.76808 14.8076 8.76782H17.2539Z" fill="#0068FF"/>
</svg>
