<svg width="24" height="24" viewBox="0 0 24 24" fill="none" xmlns="http://www.w3.org/2000/svg">
<path fill-rule="evenodd" clip-rule="evenodd" d="M7.13936 19.6254C6.27944 19.1419 5.22972 19.1414 4.36938 19.6242L3.3669 20.1867C3.00567 20.3894 2.54852 20.2609 2.34582 19.8997C2.14313 19.5384 2.27165 19.0813 2.63288 18.8786L3.63536 18.3161C4.95201 17.5773 6.55849 17.578 7.8745 18.3179L8.1552 18.4757C8.86421 18.8744 9.73225 18.8635 10.4311 18.4473C11.6203 17.7389 13.102 17.7389 14.2912 18.4473L14.327 18.4685C15.0184 18.8804 15.873 18.9083 16.5898 18.5423L16.9755 18.3454C18.2214 17.7093 19.6882 17.6713 20.9654 18.2418L21.3058 18.3939C21.684 18.5628 21.8536 19.0064 21.6847 19.3845C21.5157 19.7627 21.0722 19.9324 20.694 19.7634L20.3536 19.6114C19.4905 19.2258 18.4994 19.2516 17.6576 19.6814L17.2719 19.8783C16.0958 20.4787 14.6938 20.433 13.5594 19.7573L13.5237 19.736C12.8074 19.3094 11.9149 19.3094 11.1987 19.736C10.0384 20.4271 8.59722 20.4451 7.42006 19.7832L7.13936 19.6254Z" fill="#0068FF"/>
<path fill-rule="evenodd" clip-rule="evenodd" d="M5.12842 5.27355C11.8881 5.72373 15.959 10.2355 17.7884 15.7237C17.9194 16.1167 18.3442 16.3291 18.7371 16.1981C19.1301 16.0671 19.3424 15.6424 19.2115 15.2494C17.203 9.22399 12.5572 4.05865 4.73902 3.751C3.8509 3.71605 3.21966 4.60646 3.56617 5.43608C3.69132 5.73571 3.82781 6.04471 3.96968 6.36591C4.92751 8.53438 6.13115 11.2594 5.75303 15.4187C5.71553 15.8312 6.01953 16.196 6.43205 16.2335C6.84456 16.271 7.20937 15.967 7.24687 15.5545C7.66201 10.9879 6.30271 7.9233 5.33565 5.74299C5.26413 5.58176 5.19476 5.42536 5.12842 5.27355Z" fill="#303236"/>
</svg>
