<svg width="24" height="24" viewBox="0 0 24 24" fill="none" xmlns="http://www.w3.org/2000/svg">
<path fill-rule="evenodd" clip-rule="evenodd" d="M4.96239 5.01795C5.61765 3.92141 6.80103 3.25 8.07842 3.25H15.9215C17.1989 3.25 18.3823 3.92141 19.0375 5.01795L21.4961 9.13226C22.3471 10.5564 22.1243 12.3763 20.9549 13.5531L14.5747 19.9731C13.1553 21.4014 10.8446 21.4014 9.42517 19.9731L3.04504 13.5531C1.87557 12.3763 1.65276 10.5564 2.50379 9.13226L4.96239 5.01795ZM8.07842 4.75C7.32888 4.75 6.6345 5.14397 6.25001 5.78739L3.79141 9.9017C3.29204 10.7374 3.42278 11.8052 4.109 12.4958L10.4891 18.9158C11.322 19.7538 12.6779 19.7538 13.5108 18.9158L19.8909 12.4958C20.5771 11.8052 20.7079 10.7374 20.2085 9.9017L17.7499 5.78739C17.3654 5.14397 16.671 4.75 15.9215 4.75H8.07842Z" fill="#303236"/>
<path fill-rule="evenodd" clip-rule="evenodd" d="M8.50895 11.0056L12.0001 14.5565L15.4909 11.0056L16.5606 12.0572L12.0001 16.696L7.43933 12.0572L8.50895 11.0056Z" fill="#0068FF"/>
</svg>
