<svg width="24" height="24" viewBox="0 0 24 24" fill="none" xmlns="http://www.w3.org/2000/svg">
<path d="M12.0005 2C17.5231 2.00029 21.9995 6.47733 21.9995 12C21.9995 17.5227 17.5231 21.9987 12.0005 21.999V20.499C16.6947 20.4987 20.4995 16.6942 20.4995 12C20.4995 7.30576 16.6947 3.50029 12.0005 3.5V2ZM6.05908 18.0762C7.13511 19.1284 8.48858 19.8961 10.0005 20.2607V21.7988C8.07371 21.4078 6.34951 20.4622 4.99854 19.1367L6.05908 18.0762ZM3.56006 13C3.70997 14.2789 4.14342 15.4702 4.79639 16.5107L3.71143 17.5957C2.80704 16.2587 2.21726 14.6915 2.04932 13H3.56006ZM5.01709 7.1543C4.24084 8.2708 3.7263 9.58178 3.56006 11H2.04932C2.23112 9.16891 2.90736 7.48349 3.94189 6.07812L5.01709 7.1543ZM10.0005 3.73828C8.62038 4.07109 7.37189 4.7398 6.34619 5.6543L5.28271 4.59082C6.58764 3.40705 8.20724 2.56411 10.0005 2.2002V3.73828Z" fill="#303236"/>
<path d="M13.3809 7.74023L11.3203 11.1943H15.8223L11.5479 17.2617L10.3213 16.3984L12.9307 12.6943H8.67969L12.0928 6.97168L13.3809 7.74023Z" fill="#0068FF"/>
</svg>
