<svg width="24" height="24" viewBox="0 0 24 24" fill="none" xmlns="http://www.w3.org/2000/svg">
<path d="M12.75 21.0882H15.8868V19.9363H14.1198L15.2841 18.5354C15.6744 18.0684 15.8868 17.7571 15.8868 17.1733C15.8868 16.1304 15.2293 15.5 14.3252 15.5C13.476 15.5 12.75 16.0993 12.75 17.1889H13.8732C13.8732 16.7608 14.1198 16.6519 14.3252 16.6519C14.6129 16.6519 14.7636 16.862 14.7636 17.1656C14.7636 17.3991 14.6951 17.5391 14.517 17.7571L12.75 19.9363V21.0882Z" fill="#0068FF"/>
<path fill-rule="evenodd" clip-rule="evenodd" d="M21.4347 19.4071C21.4347 20.5512 20.6745 21.1349 19.8663 21.1349C19.0582 21.1349 18.2979 20.5512 18.2979 19.4071V17.2278C18.2979 16.0837 19.0582 15.5 19.8663 15.5C20.6745 15.5 21.4347 16.0837 21.4347 17.2278V19.4071ZM20.3115 19.4149V17.2278C20.3115 16.8387 20.106 16.6519 19.8663 16.6519C19.6266 16.6519 19.4212 16.8387 19.4212 17.2278V19.4149C19.4212 19.804 19.6266 19.983 19.8663 19.983C20.106 19.983 20.3115 19.804 20.3115 19.4149Z" fill="#0068FF"/>
<path d="M17.8159 21.0882H16.5831V19.6873H17.8159V21.0882Z" fill="#0068FF"/>
<path d="M3.75 12C3.75 7.71979 7.21979 4.25 11.5 4.25C15.7802 4.25 19.25 7.71979 19.25 12C19.25 12.5413 19.1946 13.0688 19.0895 13.5775C19.0056 13.9832 19.2665 14.38 19.6722 14.4638C20.0778 14.5477 20.4746 14.2868 20.5584 13.8811C20.6841 13.2731 20.75 12.6439 20.75 12C20.75 6.89137 16.6086 2.75 11.5 2.75C6.39137 2.75 2.25 6.89137 2.25 12C2.25 16.6741 5.71603 20.5373 10.2183 21.1618C10.6286 21.2187 11.0074 20.9323 11.0643 20.522C11.1212 20.1117 10.8347 19.733 10.4244 19.6761C6.65356 19.153 3.75 15.9149 3.75 12Z" fill="#303236"/>
<path d="M8.5 12.049L11.5 7.07483L14.5 12.049L11.5 13.8214L8.5 12.049Z" fill="#303236"/>
<path d="M8.5 12.6177L11.5 16.8442L14.5 12.6177L11.5 14.4018L8.5 12.6177Z" fill="#303236"/>
</svg>
