<svg width="24" height="24" viewBox="0 0 24 24" fill="none" xmlns="http://www.w3.org/2000/svg">
<path d="M18.9268 14.2686C19.4464 14.3298 19.9161 14.6216 20.2002 15.0703L20.8194 16.0488L20.8965 16.1826C21.2501 16.8673 21.1147 17.7121 20.5479 18.252L18.832 19.8867C18.1562 20.5302 17.0938 20.5302 16.418 19.8867L14.707 18.2568C14.0987 17.6774 13.9881 16.7471 14.4434 16.041L15.0606 15.084L15.1895 14.9082C15.515 14.5195 15.9966 14.2882 16.5108 14.2822L18.7012 14.2568L18.9268 14.2686ZM16.5283 15.7822C16.4654 15.783 16.4054 15.8067 16.3604 15.8486L16.3213 15.8965L15.7041 16.8535C15.6392 16.9543 15.6546 17.0871 15.7412 17.1699L17.4522 18.7998C17.5487 18.8918 17.7013 18.8918 17.7979 18.7998L19.5137 17.166C19.5893 17.094 19.6109 16.9836 19.5723 16.8896L19.5527 16.8506L18.9326 15.873C18.8862 15.7998 18.8055 15.7558 18.7188 15.7568L16.5283 15.7822Z" fill="#0068FF"/>
<path d="M11.375 3.25C16.2075 3.25 20.125 7.16751 20.125 12C20.125 12.4142 19.7892 12.75 19.375 12.75C18.9608 12.75 18.625 12.4142 18.625 12C18.625 7.99594 15.3791 4.75 11.375 4.75C7.37094 4.75 4.125 7.99594 4.125 12C4.125 16.0041 7.37094 19.25 11.375 19.25C11.8406 19.25 12.2953 19.2065 12.7354 19.123L12.8115 19.1123C13.1902 19.0797 13.5399 19.3383 13.6123 19.7197C13.6895 20.1267 13.4216 20.5195 13.0146 20.5967L12.6133 20.6631C12.2084 20.7205 11.795 20.75 11.375 20.75C6.54251 20.75 2.625 16.8325 2.625 12C2.625 7.16751 6.54251 3.25 11.375 3.25Z" fill="#303236"/>
<path d="M12.1748 8.98047H14.0254V10.4805H10.2754C10.0545 10.4805 9.875 10.6599 9.875 10.8809C9.87516 11.1016 10.0546 11.2803 10.2754 11.2803H12.5752C13.6244 11.2804 14.4746 12.1314 14.4746 13.1807C14.4746 14.2299 13.6244 15.08 12.5752 15.0801H12.1748V16.46H10.6748V15.0801H8.77539V13.5801H12.5752C12.796 13.58 12.9746 13.4015 12.9746 13.1807C12.9746 12.9598 12.796 12.7804 12.5752 12.7803H10.2754C9.22615 12.7803 8.37516 11.9301 8.375 10.8809C8.375 9.83152 9.22605 8.98047 10.2754 8.98047H10.6748V7.59961H12.1748V8.98047Z" fill="#303236"/>
</svg>
