<svg width="24" height="24" viewBox="0 0 24 24" fill="none" xmlns="http://www.w3.org/2000/svg">
<path d="M16.25 3C18.8734 3 21 5.12665 21 7.75V11C21 11.4142 20.6642 11.75 20.25 11.75C19.8358 11.75 19.5 11.4142 19.5 11V7.75C19.5 5.95507 18.0449 4.5 16.25 4.5H7.75C5.95507 4.5 4.5 5.95507 4.5 7.75V16.25C4.5 17.5035 5.21052 18.5897 6.25 19.1318V18.5801C6.25021 16.16 8.07022 14.1267 10.4756 13.8594L12 13.6904V15.1982L11.583 15.2451L10.6406 15.3496C8.99508 15.5327 7.75021 16.9244 7.75 18.5801V19.5H12C12.4142 19.5 12.75 19.8358 12.75 20.25C12.75 20.6642 12.4142 21 12 21H7.75C5.12665 21 3 18.8734 3 16.25V7.75C3 5.12665 5.12665 3 7.75 3H16.25Z" fill="#303236"/>
<path fill-rule="evenodd" clip-rule="evenodd" d="M12 5.75C13.7949 5.75 15.25 7.20507 15.25 9C15.25 10.7949 13.7949 12.25 12 12.25C10.2051 12.25 8.75 10.7949 8.75 9C8.75 7.20507 10.2051 5.75 12 5.75ZM12 7.25C11.0335 7.25 10.25 8.0335 10.25 9C10.25 9.9665 11.0335 10.75 12 10.75C12.9665 10.75 13.75 9.9665 13.75 9C13.75 8.0335 12.9665 7.25 12 7.25Z" fill="#303236"/>
<path d="M17.5996 15.0914C18.3497 14.463 19.4336 14.3954 20.2607 14.9468L20.4678 15.1021C21.4449 15.9289 21.5303 17.4399 20.5996 18.3707L18.2383 20.732C17.6855 21.2848 16.8107 21.3194 16.2178 20.8355L16.1035 20.732L13.7412 18.3707C12.7486 17.378 12.913 15.7255 14.081 14.9468L14.249 14.8443C15.1078 14.3751 16.1847 14.5213 16.8877 15.2242L17.1709 15.5074L17.4541 15.2242L17.5996 15.0914ZM19.4287 16.1949C19.1772 16.0272 18.8531 16.0353 18.6123 16.2037L18.5146 16.2847L17.1709 17.6285L15.8271 16.2847C15.5829 16.0406 15.2004 16.0034 14.9131 16.1949C14.5326 16.4485 14.4785 16.9868 14.8017 17.3101L17.1641 19.6714C17.166 19.6734 17.167 19.6734 17.167 19.6734L17.1709 19.6744L17.1748 19.6734C17.1748 19.6734 17.1763 19.6729 17.1777 19.6714L19.5391 17.3101C19.8422 17.007 19.8143 16.515 19.4961 16.2457L19.4287 16.1949Z" fill="#0068FF"/>
</svg>
