<svg width="24" height="24" viewBox="0 0 24 24" fill="none" xmlns="http://www.w3.org/2000/svg">
<path fill-rule="evenodd" clip-rule="evenodd" d="M9.59782 4.43654C6.58701 5.30418 5.17662 7.75502 4.67434 9.58753C4.6702 9.60262 4.6665 9.61786 4.66323 9.63325C6.0063 9.64543 7.02434 9.80548 7.77002 9.99929C7.9204 10.0384 8.07334 10.0686 8.22665 10.0896C8.22955 10 8.23426 9.89976 8.24148 9.78888C8.27563 9.26472 8.36601 8.50449 8.58742 7.52156C8.76824 6.71886 9.11123 5.67198 9.50185 4.66494C9.53203 4.58713 9.56404 4.51096 9.59782 4.43654ZM14.3996 4.43585C14.4342 4.51031 14.4671 4.58651 14.4981 4.66434C14.9078 5.69298 15.266 6.7763 15.3943 7.5661C15.5791 8.70347 15.6728 9.43953 15.7204 9.89683C15.7327 10.0146 15.7419 10.1143 15.7489 10.1978C15.8037 10.1851 15.858 10.1701 15.9118 10.1528C16.7745 9.87559 18.0592 9.55783 19.3329 9.61959C19.3295 9.60322 19.3255 9.58701 19.3211 9.57097C18.8145 7.73966 17.403 5.30025 14.3996 4.43585ZM18.4682 11.1358L14.7223 14.9763C14.4331 15.2729 14.439 15.7477 14.7355 16.0369C15.032 16.3261 15.5069 16.3202 15.7961 16.0237L20.0647 11.6472C20.6649 11.0318 21.0271 10.112 20.7668 9.17104C20.0312 6.51208 17.5929 2.61572 11.9999 2.61572C6.39275 2.61572 3.95667 6.53144 3.22769 9.19101C2.97402 10.1165 3.32225 11.0221 3.9037 11.6358L8.05314 16.0158C8.33802 16.3165 8.81272 16.3293 9.11342 16.0445C9.41412 15.7596 9.42695 15.2849 9.14207 14.9842L5.52481 11.166C6.31759 11.2197 6.93228 11.3314 7.3927 11.4511C8.39264 11.7109 9.60705 11.7157 10.6276 11.2125C10.8979 11.0792 11.1729 10.9591 11.4256 10.8736C11.6878 10.785 11.8805 10.7495 12 10.7495C12.1441 10.7495 12.3823 10.8001 12.7024 10.9191C13.0088 11.033 13.335 11.1882 13.6363 11.3472C14.4777 11.7913 15.473 11.8693 16.3707 11.5809C16.9647 11.39 17.7125 11.2012 18.4682 11.1358ZM14.2186 9.95924C14.1716 9.52912 14.0825 8.84514 13.9138 7.80664C13.8124 7.18291 13.5041 6.22254 13.1046 5.21944C12.7648 4.36644 12.2804 4.14514 11.9917 4.14417C11.708 4.14322 11.231 4.35488 10.9003 5.20739C10.5238 6.17799 10.209 7.14865 10.0508 7.85119C9.84663 8.75739 9.76739 9.44001 9.73831 9.8864C9.73655 9.91331 9.73498 9.93937 9.73358 9.96457C9.81329 9.93603 9.89036 9.90358 9.96427 9.86714C10.2701 9.71636 10.609 9.56633 10.9452 9.45265C11.272 9.34216 11.6433 9.24951 12 9.24951C12.4121 9.24951 12.8497 9.37358 13.225 9.51305C13.569 9.64091 13.9129 9.80191 14.2186 9.95924Z" fill="#303236"/>
<path fill-rule="evenodd" clip-rule="evenodd" d="M4.09469 20.8757C4.31925 20.9586 4.56251 21 4.82449 21C5.14573 21 5.42954 20.9426 5.67592 20.8279C5.92542 20.7099 6.13126 20.5442 6.29344 20.3306L5.59639 19.6947C5.49971 19.819 5.39211 19.9162 5.2736 19.9863C5.1582 20.0533 5.02721 20.0867 4.88063 20.0867C4.76523 20.0867 4.66075 20.0676 4.56719 20.0294C4.47363 19.9911 4.39254 19.9353 4.32393 19.862C4.25843 19.7887 4.20697 19.701 4.16955 19.599C4.13212 19.4939 4.11341 19.3775 4.11341 19.25C4.11341 19.1225 4.13212 19.0077 4.16955 18.9057C4.20697 18.8005 4.25843 18.7113 4.32393 18.638C4.39254 18.5647 4.47363 18.5089 4.56719 18.4706C4.66075 18.4324 4.76523 18.4133 4.88063 18.4133C5.02721 18.4133 5.1582 18.4483 5.2736 18.5184C5.39211 18.5854 5.49971 18.681 5.59639 18.8053L6.29344 18.1694C6.13126 17.9526 5.92542 17.7869 5.67592 17.6721C5.42954 17.5574 5.14573 17.5 4.82449 17.5C4.56251 17.5 4.31925 17.543 4.09469 17.6291C3.87326 17.712 3.6799 17.8315 3.5146 17.9877C3.35242 18.1439 3.22611 18.3288 3.13567 18.5423C3.04522 18.7559 3 18.9918 3 19.25C3 19.5082 3.04522 19.7441 3.13567 19.9577C3.22611 20.1712 3.35242 20.3561 3.5146 20.5123C3.6799 20.6685 3.87326 20.7896 4.09469 20.8757ZM6.21094 20.9236L7.64246 17.5766H8.7278L10.1593 20.9236H9.01785L8.79848 20.3403H7.55307L7.3337 20.9236H6.21094ZM8.17577 18.6844L8.49281 19.5274H7.85874L8.17577 18.6844ZM10.3356 17.5766V20.9236H11.4116V19.4017L12.6559 20.9236H13.5635V17.5766H12.4875V19.0985L11.2431 17.5766H10.3356ZM14.0955 20.9236V17.5766H15.7094C16.0743 17.5766 16.3956 17.6451 16.6731 17.7822C16.9507 17.9161 17.1675 18.1073 17.3234 18.356C17.4793 18.6046 17.5573 18.9011 17.5573 19.2453C17.5573 19.5928 17.4793 19.8924 17.3234 20.1442C17.1675 20.3929 16.9507 20.5857 16.6731 20.7228C16.3956 20.8567 16.0743 20.9236 15.7094 20.9236H14.0955ZM15.1995 20.0438H15.6627C15.8186 20.0438 15.9543 20.0135 16.0697 19.953C16.1882 19.8924 16.2802 19.8032 16.3457 19.6852C16.4112 19.5641 16.4439 19.4175 16.4439 19.2453C16.4439 19.0764 16.4112 18.9329 16.3457 18.815C16.2802 18.6971 16.1882 18.6078 16.0697 18.5472C15.9543 18.4867 15.8186 18.4564 15.6627 18.4564H15.1995V20.0438ZM18.6609 20.9236V19.6963L17.4259 17.5766H18.5908L19.259 18.736L19.9334 17.5766H21L19.765 19.7097V20.9236H18.6609Z" fill="#0068FF"/>
</svg>
