<svg width="24" height="24" viewBox="0 0 24 24" fill="none" xmlns="http://www.w3.org/2000/svg">
<path d="M17.4097 5.06348H18.9097V11.542H21.1099V13.042H18.9097V13.0439H17.4097V13.042H15.2095V11.542H17.4097V5.06348ZM5.09033 3.75H6.59033V9.78223H8.78955V11.2822H2.89014V9.78223H5.09033V3.75Z" fill="#0068FF"/>
<path d="M3.3301 3.25392L20.8301 5.12306L20.9053 5.13478C21.2773 5.21299 21.5372 5.56217 21.4961 5.94825C21.4549 6.33436 21.1272 6.62109 20.7471 6.61915L20.6699 6.61427L12.75 5.76856V19.3389H17.251L17.3272 19.3428C17.7055 19.381 18.001 19.7004 18.001 20.0889C18.001 20.4773 17.7055 20.7967 17.3272 20.835L17.251 20.8389H6.84963C6.43561 20.8387 6.09965 20.503 6.09963 20.0889C6.09963 19.6748 6.4356 19.3391 6.84963 19.3389H11.25V5.60841L3.16995 4.7461L3.09475 4.73341C2.72271 4.65511 2.46269 4.3061 2.50393 3.91993C2.54535 3.53402 2.87297 3.24807 3.25295 3.25001L3.3301 3.25392Z" fill="#303236"/>
</svg>
