<svg width="24" height="24" viewBox="0 0 24 24" fill="none" xmlns="http://www.w3.org/2000/svg">
<path fill-rule="evenodd" clip-rule="evenodd" d="M9.83691 6.02839C10.1297 5.73559 10.6045 5.73579 10.8975 6.02839C11.1904 6.32128 11.1904 6.79604 10.8975 7.08893L7.4541 10.5313C7.70562 10.9634 7.85251 11.4641 7.85254 12.0001C7.85249 12.5354 7.70511 13.0352 7.4541 13.4669L10.5312 16.544C10.9632 16.2926 11.4643 16.1466 12 16.1466C12.5351 16.1466 13.0352 16.2931 13.4668 16.544L16.5439 13.4669C16.2933 13.0354 16.1475 12.5351 16.1475 12.0001C16.1475 11.4646 16.2938 10.9641 16.5449 10.5323L13.1016 7.08893L13.0508 7.03229C12.8104 6.73779 12.8271 6.30305 13.1016 6.02839C13.376 5.7539 13.8109 5.73665 14.1055 5.97663L14.1621 6.02839L17.6055 9.47077C18.0372 9.21956 18.5378 9.07335 19.0732 9.07331C20.6894 9.07331 21.9999 10.3839 22 12.0001C21.9998 13.6162 20.6894 14.9258 19.0732 14.9258C18.5374 14.9258 18.0364 14.7798 17.6045 14.5284L14.5283 17.6046C14.7799 18.0366 14.9267 18.5374 14.9268 19.0733C14.9268 20.6895 13.6162 22 12 22.0001C10.3838 22.0001 9.07324 20.6896 9.07324 19.0733C9.07328 18.5379 9.21953 18.0373 9.4707 17.6055L6.39453 14.5284C5.96278 14.7796 5.46233 14.9258 4.92676 14.9258C3.31061 14.9258 2.00016 13.6162 2 12.0001C2.00009 10.3839 3.31057 9.07331 4.92676 9.07331C5.46193 9.07336 5.96202 9.21982 6.39355 9.47077L9.83691 6.02839ZM12 17.6466C11.2123 17.6466 10.5734 18.2856 10.5732 19.0733C10.5732 19.8611 11.2122 20.5001 12 20.5001C12.7878 20.5 13.4268 19.8611 13.4268 19.0733C13.4266 18.2856 12.7877 17.6466 12 17.6466ZM4.92676 10.5733C4.139 10.5733 3.50009 11.2123 3.5 12.0001C3.50016 12.7878 4.13904 13.4258 4.92676 13.4258C5.71435 13.4257 6.35238 12.7877 6.35254 12.0001C6.35245 11.2124 5.71439 10.5735 4.92676 10.5733ZM19.0732 10.5733C18.2856 10.5734 17.6476 11.2124 17.6475 12.0001C17.6476 12.7877 18.2856 13.4257 19.0732 13.4258C19.861 13.4258 20.4998 12.7878 20.5 12.0001C20.4999 11.2123 19.861 10.5733 19.0732 10.5733Z" fill="#303236"/>
<path d="M13.426 4.92676C13.426 4.13904 12.7879 3.50016 12.0002 3.5C11.2124 3.5 10.5735 4.13894 10.5735 4.92676C10.5736 5.71444 11.2125 6.35254 12.0002 6.35254C12.7878 6.35238 13.4259 5.71435 13.426 4.92676ZM14.926 4.92676C14.9259 6.54278 13.6163 7.85238 12.0002 7.85254C10.3841 7.85254 9.07364 6.54287 9.07349 4.92676C9.07349 3.31051 10.384 2 12.0002 2C13.6164 2.00016 14.926 3.31061 14.926 4.92676Z" fill="#0068FF"/>
</svg>
