<svg width="24" height="24" viewBox="0 0 24 24" fill="none" xmlns="http://www.w3.org/2000/svg">
<path fill-rule="evenodd" clip-rule="evenodd" d="M9.70487 15.9738C9.03521 15.3998 9.44113 14.3025 10.3231 14.3025H17.0002C17.4145 14.3025 17.7502 14.6383 17.7502 15.0525C17.7502 15.4667 17.4145 15.8025 17.0002 15.8025H11.8099L12.8575 16.7004C13.172 16.97 13.2084 17.4435 12.9389 17.758C12.6693 18.0725 12.1958 18.1089 11.8813 17.8393L9.70487 15.9738Z" fill="#0068FF"/>
<path d="M16 3C16.4142 3 16.75 3.33579 16.75 3.75V4.5H17.5C19.2949 4.5 20.75 5.95508 20.75 7.75V17.5C20.75 19.2949 19.2949 20.75 17.5 20.75H6.5C4.70507 20.75 3.25 19.2949 3.25 17.5V16.1316C3.25 15.7174 3.58579 15.3816 4 15.3816C4.41421 15.3816 4.75 15.7174 4.75 16.1316V17.5C4.75 18.4665 5.5335 19.25 6.5 19.25H17.5C18.4665 19.25 19.25 18.4665 19.25 17.5V7.75C19.25 6.7835 18.4665 6 17.5 6H16.75V6.75C16.75 7.16421 16.4142 7.5 16 7.5C15.5858 7.5 15.25 7.16421 15.25 6.75V6H8.75V6.75C8.75 7.16421 8.41421 7.5 8 7.5C7.58579 7.5 7.25 7.16421 7.25 6.75V6H6.5C5.5335 6 4.75 6.7835 4.75 7.75V10.5217C4.75 10.9239 5.07605 11.25 5.47826 11.25H11.3838L10.4648 10.4519C10.152 10.1803 10.1187 9.70658 10.3902 9.39383C10.6618 9.08109 11.1355 9.04772 11.4483 9.31932L13.4789 11.0827C14.1425 11.659 13.7349 12.75 12.856 12.75H5.47826C4.24763 12.75 3.25 11.7524 3.25 10.5217V7.75C3.25 5.95507 4.70507 4.5 6.5 4.5H7.25V3.75C7.25 3.33579 7.58579 3 8 3C8.41421 3 8.75 3.33579 8.75 3.75V4.5H15.25V3.75C15.25 3.33579 15.5858 3 16 3Z" fill="#303236"/>
</svg>
