<svg width="24" height="24" viewBox="0 0 24 24" fill="none" xmlns="http://www.w3.org/2000/svg">
<path fill-rule="evenodd" clip-rule="evenodd" d="M13.4932 15.0386C13.4931 15.0386 13.4935 15.0373 13.4949 15.0347C13.494 15.0373 13.4933 15.0386 13.4932 15.0386ZM13.5227 14.9972C13.532 14.9866 13.544 14.974 13.5595 14.9593C13.657 14.8671 13.8384 14.7494 14.1248 14.6349C14.6934 14.4074 15.5303 14.25 16.4929 14.25C17.4555 14.25 18.2925 14.4074 18.861 14.6349C19.1474 14.7494 19.3288 14.8671 19.4264 14.9593C19.4419 14.974 19.4539 14.9866 19.4632 14.9972C19.4539 15.0078 19.4419 15.0204 19.4264 15.035C19.3288 15.1273 19.1474 15.2449 18.861 15.3595C18.2925 15.5869 17.4555 15.7443 16.4929 15.7443C15.5303 15.7443 14.6934 15.5869 14.1248 15.3595C13.8384 15.2449 13.657 15.1273 13.5595 15.035C13.544 15.0204 13.532 15.0078 13.5227 14.9972ZM19.4927 15.0386C19.4925 15.0386 19.4919 15.0373 19.491 15.0347C19.4923 15.0373 19.4928 15.0386 19.4927 15.0386ZM19.491 14.9597C19.4919 14.9571 19.4925 14.9558 19.4927 14.9558C19.4928 14.9558 19.4923 14.9571 19.491 14.9597ZM13.4949 14.9597C13.4935 14.9571 13.4931 14.9558 13.4932 14.9558C13.4933 14.9558 13.494 14.9571 13.4949 14.9597ZM13.5677 13.2422C14.3538 12.9277 15.3884 12.75 16.4929 12.75C17.5975 12.75 18.632 12.9277 19.4181 13.2422C19.8091 13.3985 20.1758 13.6035 20.4571 13.8695C20.7399 14.137 20.9859 14.5178 20.9859 14.9972C20.9859 15.4766 20.7399 15.8574 20.4571 16.1249C20.1758 16.3908 19.8091 16.5958 19.4181 16.7522C18.632 17.0666 17.5975 17.2443 16.4929 17.2443C15.3884 17.2443 14.3538 17.0666 13.5677 16.7522C13.1768 16.5958 12.8101 16.3908 12.5288 16.1249C12.246 15.8574 12 15.4766 12 14.9972C12 14.5178 12.246 14.137 12.5288 13.8695C12.8101 13.6035 13.1768 13.3985 13.5677 13.2422ZM13.4994 18.7103C13.4837 18.31 13.1542 17.9902 12.75 17.9902C12.3358 17.9902 12 18.326 12 18.7402C12 19.2196 12.246 19.6004 12.5288 19.8679C12.8101 20.1339 13.1768 20.3389 13.5677 20.4953C14.3538 20.8097 15.3884 20.9874 16.4929 20.9874C17.5 20.9874 18.445 20.8398 19.1963 20.5781C19.5716 20.4474 19.9204 20.2807 20.2084 20.0727C20.4907 19.8688 20.7632 19.5897 20.8995 19.2195C20.9548 19.0695 20.9859 18.9084 20.9859 18.7402C20.9859 18.326 20.6501 17.9902 20.2359 17.9902C19.8319 17.9902 19.5025 18.3097 19.4865 18.7098C19.4731 18.7302 19.4328 18.7826 19.3303 18.8566C19.1928 18.9558 18.9851 19.0633 18.703 19.1615C18.1395 19.3578 17.3662 19.4874 16.4929 19.4874C15.5303 19.4874 14.6934 19.33 14.1248 19.1025C13.8384 18.988 13.657 18.8703 13.5595 18.7781C13.5249 18.7454 13.5075 18.7228 13.4994 18.7103ZM13.4949 18.7027C13.4935 18.7001 13.4931 18.6988 13.4932 18.6988C13.4933 18.6988 13.494 18.7001 13.4949 18.7027Z" fill="#0068FF"/>
<path fill-rule="evenodd" clip-rule="evenodd" d="M12 4.5C10.6193 4.5 9.5 5.61929 9.5 7C9.5 8.38071 10.6193 9.5 12 9.5C13.3807 9.5 14.5 8.38071 14.5 7C14.5 5.61929 13.3807 4.5 12 4.5ZM8 7C8 4.79086 9.79086 3 12 3C14.2091 3 16 4.79086 16 7C16 9.20914 14.2091 11 12 11C9.79086 11 8 9.20914 8 7ZM8.99979 13.75C6.65274 13.75 4.75 15.6529 4.75 18C4.75 18.6904 5.30965 19.25 5.99992 19.25H9.19829V20.75H5.99992C4.48114 20.75 3.25 19.5187 3.25 18C3.25 14.8245 5.82423 12.25 8.99979 12.25H10.75V13.75H8.99979Z" fill="#303236"/>
</svg>
