<svg width="24" height="24" viewBox="0 0 24 24" fill="none" xmlns="http://www.w3.org/2000/svg">
<path d="M19.5 16.2686C19.5 14.4736 18.0449 13.0186 16.25 13.0186C14.4551 13.0186 13 14.4736 13 16.2686C13 18.0635 14.4551 19.5186 16.25 19.5186C18.0449 19.5186 19.5 18.0635 19.5 16.2686ZM15.2031 14.1387H16.7031V16.0498H18.6143V17.5498H15.2031V14.1387ZM21 16.2686C21 18.8919 18.8734 21.0186 16.25 21.0186C13.6266 21.0186 11.5 18.8919 11.5 16.2686C11.5 13.6452 13.6267 11.5186 16.25 11.5186C18.8733 11.5186 21 13.6452 21 16.2686Z" fill="#0068FF"/>
<path d="M10 10.9268L10.0771 10.9297C10.4551 10.9683 10.75 11.2886 10.75 11.6768C10.7498 12.0647 10.455 12.3843 10.0771 12.4229L10 12.4268H7C6.58595 12.4268 6.25026 12.0907 6.25 11.6768C6.25 11.2625 6.58579 10.9268 7 10.9268H10ZM17.75 8.11719V6.75C17.75 5.50736 16.7426 4.5 15.5 4.5H6.75C5.50736 4.5 4.5 5.50736 4.5 6.75V17.25C4.5 18.4926 5.50736 19.5 6.75 19.5H9.2793L9.35547 19.5039C9.73382 19.5422 10.0293 19.8616 10.0293 20.25C10.0293 20.6384 9.73382 20.9578 9.35547 20.9961L9.2793 21H6.75C4.67893 21 3 19.3211 3 17.25V6.75C3 4.67893 4.67893 3 6.75 3H15.5C17.5711 3 19.25 4.67893 19.25 6.75V8.11719C19.25 8.5314 18.9142 8.86719 18.5 8.86719C18.0858 8.86719 17.75 8.5314 17.75 8.11719ZM13.375 7.125C13.7892 7.125 14.125 7.46079 14.125 7.875C14.125 8.28921 13.7892 8.625 13.375 8.625H7.21289C6.79868 8.625 6.46289 8.28921 6.46289 7.875C6.46289 7.46079 6.79868 7.125 7.21289 7.125H13.375Z" fill="#303236"/>
</svg>
