<svg width="24" height="24" viewBox="0 0 24 24" fill="none" xmlns="http://www.w3.org/2000/svg">
<path d="M6.75 4C6.75 3.58579 7.08579 3.25 7.5 3.25C7.91421 3.25 8.25 3.58579 8.25 4V10.1895L9.46973 8.96973L9.52637 8.91797C9.82095 8.67766 10.2557 8.69512 10.5303 8.96973L11.75 10.1895V4C11.75 3.58579 12.0858 3.25 12.5 3.25C12.9142 3.25 13.25 3.58579 13.25 4V12C13.25 12.3033 13.0674 12.5773 12.7871 12.6934C12.5069 12.8094 12.1842 12.7448 11.9697 12.5303L10 10.5605L8.03027 12.5303C7.81579 12.7448 7.49313 12.8094 7.21289 12.6934C6.93263 12.5773 6.75 12.3033 6.75 12V4Z" fill="#0068FF"/>
<path d="M19.25 5.5C19.25 4.80964 18.6904 4.25 18 4.25H6C5.30964 4.25 4.75 4.80964 4.75 5.5V18.5C4.75 19.1904 5.30964 19.75 6 19.75H18C18.6904 19.75 19.25 19.1904 19.25 18.5V5.5ZM20.75 18.5C20.75 20.0188 19.5188 21.25 18 21.25H6C4.48122 21.25 3.25 20.0188 3.25 18.5V5.5C3.25 3.98122 4.48122 2.75 6 2.75H18C19.5188 2.75 20.75 3.98122 20.75 5.5V18.5Z" fill="#303236"/>
</svg>
