<svg width="24" height="24" viewBox="0 0 24 24" fill="none" xmlns="http://www.w3.org/2000/svg">
<path fill-rule="evenodd" clip-rule="evenodd" d="M19.1543 3.75391C20.7394 3.83421 22 5.14489 22 6.75V17.25L21.9961 17.4043C21.9184 18.9383 20.6883 20.1684 19.1543 20.2461L19 20.25H5L4.8457 20.2461C3.31166 20.1684 2.08163 18.9383 2.00391 17.4043L2 17.25V6.75C2 5.14489 3.26055 3.83421 4.8457 3.75391L5 3.75H19L19.1543 3.75391ZM3.5 9.5V17.25C3.5 18.0784 4.17157 18.75 5 18.75H19C19.8284 18.75 20.5 18.0784 20.5 17.25V9.5H3.5ZM5 5.25C4.22334 5.25 3.58461 5.84028 3.50781 6.59668L3.5 6.75V8H20.5V6.75C20.5 5.92157 19.8284 5.25 19 5.25H5Z" fill="#303236"/>
<path fill-rule="evenodd" clip-rule="evenodd" d="M6.95837 12.4982C7.25623 12.4982 7.53028 12.5453 7.77966 12.6388C8.02898 12.7324 8.24552 12.866 8.42908 13.0392C8.61258 13.2089 8.75441 13.4097 8.85486 13.6417C8.9588 13.8704 9.01109 14.1233 9.01111 14.4005C9.01111 14.6742 8.95879 14.9272 8.85486 15.1593C8.75438 15.3914 8.6127 15.5944 8.42908 15.7677C8.24547 15.9374 8.02907 16.0696 7.77966 16.1632C7.53028 16.2567 7.25623 16.3028 6.95837 16.3029C6.66401 16.3029 6.38992 16.2566 6.13708 16.1632C5.88757 16.0696 5.67036 15.9375 5.48669 15.7677C5.30309 15.5945 5.15899 15.3914 5.05505 15.1593C4.95467 14.9272 4.90466 14.6741 4.90466 14.4005C4.90468 14.1234 4.95461 13.8704 5.05505 13.6417C5.15896 13.4097 5.30317 13.2089 5.48669 13.0392C5.67036 12.8659 5.88757 12.7324 6.13708 12.6388C6.38997 12.5453 6.66394 12.4982 6.95837 12.4982ZM6.95837 13.4913C6.84411 13.4913 6.73654 13.5123 6.63611 13.5538C6.53908 13.5954 6.45161 13.6558 6.37537 13.7355C6.30271 13.8117 6.24601 13.9074 6.20447 14.0216C6.16296 14.1324 6.14199 14.2586 6.14197 14.4005C6.14197 14.5426 6.16288 14.6709 6.20447 14.7853C6.24604 14.8961 6.30264 14.9917 6.37537 15.0714C6.45161 15.1477 6.53908 15.2066 6.63611 15.2482C6.73647 15.2896 6.84419 15.3107 6.95837 15.3107C7.07246 15.3106 7.17795 15.2896 7.27478 15.2482C7.37516 15.2066 7.46183 15.1475 7.53455 15.0714C7.61077 14.9917 7.66972 14.8962 7.7113 14.7853C7.75289 14.6709 7.7738 14.5426 7.7738 14.4005C7.77379 14.2586 7.75282 14.1324 7.7113 14.0216C7.66972 13.9072 7.61079 13.8117 7.53455 13.7355C7.46179 13.6558 7.37523 13.5954 7.27478 13.5538C7.17788 13.5123 7.07255 13.4914 6.95837 13.4913Z" fill="#0068FF"/>
<path d="M14.6381 12.4982C14.9948 12.4982 15.3097 12.561 15.5834 12.6857C15.8605 12.8104 16.0897 12.9901 16.2699 13.2257L15.4955 13.9171C15.3882 13.7821 15.2686 13.6783 15.1371 13.6056C15.009 13.5294 14.8633 13.4914 14.7006 13.4913C14.5723 13.4913 14.4559 13.5122 14.3519 13.5538C14.248 13.5954 14.1576 13.6558 14.0814 13.7355C14.0087 13.8152 13.9511 13.9122 13.9095 14.0265C13.868 14.1373 13.848 14.2621 13.848 14.4005C13.848 14.5391 13.868 14.666 13.9095 14.7804C13.9511 14.8913 14.0087 14.9868 14.0814 15.0665C14.1576 15.1461 14.248 15.2066 14.3519 15.2482C14.4559 15.2897 14.5724 15.3107 14.7006 15.3107C14.8633 15.3106 15.009 15.274 15.1371 15.2013C15.2687 15.1251 15.3881 15.019 15.4955 14.8839L16.2699 15.5753C16.0897 15.8075 15.8606 15.9881 15.5834 16.1163C15.3098 16.2409 14.9947 16.3028 14.6381 16.3029C14.347 16.3029 14.076 16.2582 13.8265 16.1681C13.5806 16.0745 13.3656 15.9423 13.182 15.7726C13.002 15.6028 12.8615 15.4021 12.7611 15.17C12.6606 14.9379 12.6107 14.6812 12.6107 14.4005C12.6107 14.1199 12.6606 13.8631 12.7611 13.631C12.8616 13.399 13.002 13.1981 13.182 13.0284C13.3656 12.8587 13.5806 12.7289 13.8265 12.6388C14.076 12.5452 14.347 12.4982 14.6381 12.4982Z" fill="#0068FF"/>
<path d="M12.4877 13.5323H11.4222V16.2198H10.1957V13.5323H9.13025V12.5812H12.4877V13.5323Z" fill="#0068FF"/>
</svg>
