<svg width="24" height="24" viewBox="0 0 24 24" fill="none" xmlns="http://www.w3.org/2000/svg">
<path d="M10.5371 2.70755C11.3809 2.29131 12.3796 2.31003 13.2109 2.76712L15.1016 3.80716L15.1182 3.81693L19.5674 6.42044C20.4544 6.93946 21 7.88983 21 8.91751V13.0386C21 13.4528 20.6642 13.7886 20.25 13.7886C19.8358 13.7886 19.5 13.4528 19.5 13.0386V8.91751C19.5 8.42264 19.2377 7.96435 18.8105 7.71439L14.3779 5.12064L12.4883 4.08158C12.0612 3.84673 11.5423 3.85257 11.1201 4.09623L5.19727 7.51517C4.76609 7.76406 4.50004 8.22436 4.5 8.7222V15.2915C4.5 15.7996 4.77663 16.2673 5.22168 16.5122L10.2227 19.2632L10.2881 19.3033C10.6008 19.5192 10.7056 19.9416 10.5186 20.2818C10.3313 20.622 9.91827 20.7596 9.56836 20.6109L9.5 20.5777L4.49902 17.8267C3.57452 17.3181 3 16.3467 3 15.2915V8.7222C3.00004 7.68841 3.55193 6.73219 4.44727 6.21537L10.3701 2.79642L10.5371 2.70755Z" fill="#303236"/>
<path fill-rule="evenodd" clip-rule="evenodd" d="M15.8184 11.9995L12 15.8189L8.18164 11.9995L12 8.18119L15.8184 11.9995ZM10.3027 11.9995L12 13.6968L13.6973 11.9995L12 10.3023L10.3027 11.9995Z" fill="#303236"/>
<path d="M15.397 15.7959C15.5625 15.7961 15.6968 15.9301 15.6968 16.0957V16.5791C15.6967 16.7446 15.5625 16.8787 15.397 16.8789H13.4429V17.876C13.5392 17.7701 13.6748 17.6826 13.8481 17.6152C14.0212 17.548 14.2088 17.5147 14.4106 17.5146C14.7718 17.5146 15.0712 17.5961 15.3071 17.7598C15.5477 17.9234 15.7228 18.1357 15.8335 18.3955C15.9442 18.6554 15.9995 18.9371 15.9995 19.2402C15.9995 19.8036 15.8407 20.2518 15.5229 20.584C15.2052 20.9112 14.7577 21.0752 14.1802 21.0752C13.795 21.0752 13.4603 21.0099 13.1763 20.8799C12.8923 20.7451 12.6731 20.56 12.519 20.3242C12.3826 20.1153 12.3009 19.8778 12.2739 19.6123C12.2682 19.5557 12.3137 19.508 12.3706 19.5078H13.3901C13.4378 19.508 13.4784 19.5423 13.4927 19.5879C13.5285 19.7024 13.5918 19.8013 13.6821 19.8838C13.7927 19.9798 13.9441 20.0282 14.1362 20.0283C14.3624 20.0283 14.5313 19.9558 14.6421 19.8115C14.7528 19.6671 14.8081 19.4741 14.8081 19.2334C14.8081 18.9975 14.7508 18.8166 14.6352 18.6914C14.5197 18.5663 14.3508 18.5039 14.1294 18.5039C13.9657 18.5039 13.831 18.5451 13.7251 18.627C13.6192 18.704 13.5488 18.8075 13.5151 18.9375H12.8237C12.5477 18.9374 12.3238 18.7135 12.3237 18.4375V16.2959C12.3237 16.0198 12.5477 15.796 12.8237 15.7959H15.397Z" fill="#0068FF"/>
<path d="M17.6128 15.8486C17.6863 15.8488 17.7554 15.8849 17.7974 15.9453L18.9175 17.5586L20.0376 15.9453C20.0797 15.8849 20.1486 15.8486 20.2222 15.8486H20.852C21.0354 15.8486 21.1418 16.0562 21.0347 16.2051L19.4751 18.3721L21.1206 20.666C21.2273 20.8149 21.1212 21.0215 20.938 21.0215H20.2222C20.1484 21.0214 20.0796 20.9854 20.0376 20.9248L18.8462 19.2061L17.6489 20.9258C17.6069 20.986 17.5378 21.0214 17.4644 21.0215H16.8335C16.6503 21.0212 16.5438 20.8138 16.6509 20.665L18.2886 18.3926L16.7319 16.2041C16.6262 16.0551 16.7328 15.8486 16.9155 15.8486H17.6128Z" fill="#0068FF"/>
</svg>
