<svg width="24" height="24" viewBox="0 0 24 24" fill="none" xmlns="http://www.w3.org/2000/svg">
<path fill-rule="evenodd" clip-rule="evenodd" d="M3.25 8.65217C3.25 7.04935 4.54935 5.75 6.15217 5.75H6.5C6.91421 5.75 7.25 6.08579 7.25 6.5C7.25 6.91421 6.91421 7.25 6.5 7.25H6.15217C5.37777 7.25 4.75 7.87777 4.75 8.65217V15.3478C4.75 16.1222 5.37777 16.75 6.15217 16.75H6.5C6.91421 16.75 7.25 17.0858 7.25 17.5C7.25 17.9142 6.91421 18.25 6.5 18.25H6.15217C4.54935 18.25 3.25 16.9507 3.25 15.3478V8.65217Z" fill="#0068FF"/>
<path fill-rule="evenodd" clip-rule="evenodd" d="M8.25 5.46566C8.25 3.70699 9.80175 2.35248 11.5443 2.5901L18.2399 3.50315C19.6779 3.69923 20.75 4.92741 20.75 6.37871V8.86772C20.75 9.36761 20.5786 9.85239 20.2643 10.2412L17.552 13.5966C17.4148 13.7664 17.2103 13.8679 16.9921 13.8747C16.7738 13.8815 16.5634 13.7928 16.4159 13.6319L14.6465 11.7017L12.6931 14.543L11.4571 13.6932L13.9445 10.0752C14.0739 9.88688 14.2822 9.76787 14.5102 9.75192C14.7381 9.73598 14.9609 9.82484 15.1154 9.9933L16.933 11.9762L19.0978 9.2982C19.1963 9.17635 19.25 9.0244 19.25 8.86772V6.37871C19.25 5.67752 18.732 5.08413 18.0373 4.98939L11.3416 4.07635C10.4997 3.96154 9.75 4.61597 9.75 5.46566V18.5345C9.75 19.3842 10.4997 20.0386 11.3416 19.9238L18.0373 19.0108C18.732 18.9161 19.25 18.3227 19.25 17.6215V15.0001C19.25 14.5859 19.5858 14.2501 20 14.2501C20.4142 14.2501 20.75 14.5859 20.75 15.0001V17.6215C20.75 19.0728 19.6779 20.301 18.2399 20.497L11.5443 21.4101C9.80174 21.6477 8.25 20.2932 8.25 18.5345V5.46566Z" fill="#303236"/>
</svg>
