<svg width="24" height="24" viewBox="0 0 24 24" fill="none" xmlns="http://www.w3.org/2000/svg">
<path d="M16.25 3C18.8734 3 21 5.12665 21 7.75V16.25C21 18.8734 18.8734 21 16.25 21H7.75C5.12665 21 3 18.8734 3 16.25V12C3 11.5858 3.33579 11.25 3.75 11.25C4.16421 11.25 4.5 11.5858 4.5 12V16.25C4.5 18.0449 5.95507 19.5 7.75 19.5H16.25C18.0449 19.5 19.5 18.0449 19.5 16.25V7.75C19.5 5.95507 18.0449 4.5 16.25 4.5H12C11.5858 4.5 11.25 4.16421 11.25 3.75C11.25 3.33579 11.5858 3 12 3H16.25Z" fill="#303236"/>
<path fill-rule="evenodd" clip-rule="evenodd" d="M6 2.2998C6.32791 2.2998 6.61224 2.52761 6.68359 2.84766V2.84961C6.68401 2.85146 6.68463 2.85442 6.68555 2.8584C6.68755 2.86705 6.69102 2.88056 6.69531 2.89844C6.70399 2.93454 6.71684 2.98869 6.73438 3.05566C6.76957 3.19008 6.82214 3.3759 6.88867 3.58105C7.02899 4.01373 7.20743 4.44846 7.3916 4.69824C7.45392 4.78221 7.58203 4.9004 7.7832 5.03809C7.97655 5.17039 8.20261 5.29627 8.4248 5.4082C8.64541 5.51933 8.8525 5.61184 9.00488 5.67578C9.08052 5.70752 9.14195 5.73171 9.18359 5.74805C9.20441 5.75622 9.22028 5.76272 9.23047 5.7666C9.23536 5.76847 9.23901 5.76968 9.24121 5.77051L9.24316 5.77148L9.3418 5.81641C9.56062 5.9387 9.70022 6.17152 9.7002 6.42773C9.70013 6.68375 9.56039 6.91579 9.3418 7.03809L9.24316 7.08398L9.24121 7.08496C9.23902 7.08579 9.23538 7.087 9.23047 7.08887C9.22031 7.09274 9.20433 7.09831 9.18359 7.10645C9.14195 7.12278 9.08061 7.14792 9.00488 7.17969C8.85241 7.24365 8.64451 7.33508 8.42383 7.44629C8.20164 7.55826 7.97637 7.68504 7.7832 7.81738C7.58192 7.95532 7.45444 8.07342 7.39258 8.15723C7.20843 8.40614 7.02917 8.84133 6.88867 9.27441C6.82213 9.47953 6.76957 9.66541 6.73438 9.7998C6.71691 9.86651 6.70398 9.91999 6.69531 9.95606C6.69098 9.97409 6.68756 9.98837 6.68555 9.99707C6.68461 10.0011 6.684 10.0041 6.68359 10.0059V10.0078C6.61214 10.3277 6.32779 10.5547 6 10.5547C5.71319 10.5547 5.46022 10.3809 5.35352 10.123L5.31641 10.0078V10.0059C5.316 10.0041 5.31539 10.0011 5.31445 9.99707C5.31244 9.98838 5.30902 9.97407 5.30469 9.95606C5.29601 9.92 5.28309 9.86644 5.26562 9.7998C5.23042 9.6655 5.17791 9.47947 5.11133 9.27441C4.97076 8.84162 4.79145 8.40652 4.60645 8.15625C4.54455 8.07267 4.41809 7.95521 4.2168 7.81738C4.02355 7.68507 3.79741 7.55932 3.5752 7.44727C3.35463 7.33605 3.14753 7.24373 2.99512 7.17969C2.91924 7.14781 2.85714 7.12284 2.81543 7.10645C2.79521 7.0985 2.77965 7.09273 2.76953 7.08887C2.76444 7.08692 2.75999 7.0848 2.75781 7.08398H2.75586C2.48178 6.98205 2.29988 6.72014 2.2998 6.42773C2.29989 6.1351 2.48246 5.87325 2.75684 5.77148L2.75879 5.77051C2.76099 5.76968 2.76464 5.76846 2.76953 5.7666C2.77972 5.76272 2.7956 5.75621 2.81641 5.74805C2.85805 5.7317 2.91948 5.70752 2.99512 5.67578C3.14751 5.61183 3.35463 5.51935 3.5752 5.4082C3.79724 5.29631 4.02272 5.1703 4.21582 5.03809C4.41706 4.90026 4.54457 4.78194 4.60645 4.69824L4.67578 4.59668C4.83585 4.34046 4.98828 3.96005 5.11133 3.58105C5.1779 3.37598 5.23042 3.19004 5.26562 3.05566C5.28317 2.9887 5.29601 2.93453 5.30469 2.89844C5.30899 2.88055 5.31245 2.86705 5.31445 2.8584C5.31537 2.85442 5.31599 2.85146 5.31641 2.84961V2.84766L5.35352 2.73242C5.46015 2.47443 5.71307 2.2998 6 2.2998ZM5.99902 5.09473C5.91755 5.24926 5.82938 5.39793 5.73145 5.53027L5.73242 5.53125C5.53544 5.79769 5.26084 6.01842 5.00684 6.19238C4.88498 6.27584 4.75821 6.35439 4.63184 6.42773C4.75821 6.50109 4.88499 6.57966 5.00684 6.66309C5.26073 6.83692 5.53449 7.05824 5.73145 7.32422L5.85156 7.49902C5.90405 7.58212 5.95297 7.6696 6 7.75879C6.04705 7.66958 6.09592 7.58208 6.14844 7.49902L6.2666 7.3252C6.46349 7.05859 6.73726 6.83715 6.99121 6.66309C7.11282 6.57975 7.23911 6.50001 7.36523 6.42676C7.23964 6.35383 7.1133 6.27625 6.99219 6.19336C6.73804 6.01942 6.46478 5.79741 6.26758 5.53125L6.2666 5.53027C6.16885 5.3979 6.08037 5.24931 5.99902 5.09473Z" fill="#303236"/>
<path d="M17.0735 8C16.7731 9.08443 16.2658 10.5754 15.593 12.0371C15.9406 13.8343 15.8732 15.9065 15.7786 17.2793H14.2747C14.3331 16.4627 14.3809 15.4152 14.3381 14.3506C13.9282 14.9814 13.477 15.5638 12.9837 16.0371C12.2556 16.7356 11.3657 17.2674 10.3411 17.2676C9.73846 17.2676 9.20179 17.1124 8.76004 16.8027C8.32104 16.4948 8.02278 16.0667 7.83621 15.5986C7.47194 14.6841 7.5047 13.5551 7.75614 12.5146C8.0108 11.4613 8.51371 10.3935 9.20926 9.57422C9.90052 8.76012 10.8543 8.1145 12.0003 8.11426C13.107 8.11428 13.9439 8.61438 14.5266 9.37598C14.6516 9.53932 14.7623 9.71596 14.8645 9.89941C15.1257 9.217 15.3433 8.56497 15.512 8H17.0735ZM12.0003 9.61426C11.4517 9.6145 10.8793 9.92492 10.3528 10.5449C9.83027 11.1604 9.42202 12.0074 9.21414 12.8672C9.0034 13.7393 9.02258 14.5238 9.22976 15.0439C9.32907 15.2929 9.4639 15.4637 9.62136 15.5742C9.77634 15.6828 10.0016 15.7676 10.3411 15.7676C10.8243 15.7674 11.3609 15.516 11.9456 14.9551C12.5262 14.398 13.0836 13.6013 13.593 12.6807C13.7411 12.4131 13.8806 12.1361 14.0169 11.8574C13.8523 11.205 13.6267 10.6693 13.3352 10.2881C13.0034 9.85451 12.5884 9.61428 12.0003 9.61426Z" fill="#0068FF"/>
</svg>
