<svg width="24" height="24" viewBox="0 0 24 24" fill="none" xmlns="http://www.w3.org/2000/svg">
<path fill-rule="evenodd" clip-rule="evenodd" d="M8.80002 2.39062C9.0708 2.39076 9.32717 2.50544 9.50705 2.70312L9.57931 2.79297L12.2463 6.55273C13.6484 6.59583 14.9582 7.003 16.0832 7.68652L18.7932 3.89062H15.467L14.0979 5.70215C13.8482 6.03231 13.3785 6.09792 13.0481 5.84863C12.7177 5.59892 12.652 5.1283 12.9016 4.79785L14.4328 2.77051L14.5061 2.68555C14.6853 2.49853 14.9343 2.39067 15.1965 2.39062H19.8488C20.5778 2.39062 21.0219 3.16317 20.7024 3.78125L20.6281 3.90234L17.2863 8.58398C18.8764 10.0248 19.8752 12.1071 19.8752 14.4219C19.8749 18.7708 16.3492 22.2967 12.0002 22.2969C7.65113 22.2969 4.12548 18.7709 4.12521 14.4219C4.12521 12.1216 5.11112 10.0511 6.68381 8.61133L3.36545 3.89746C2.91955 3.26397 3.37301 2.39075 4.14767 2.39062H8.80002ZM12.0002 8.04688C8.4794 8.04688 5.62521 10.9011 5.62521 14.4219C5.62548 17.9425 8.47956 20.7969 12.0002 20.7969C15.5208 20.7967 18.3749 17.9424 18.3752 14.4219C18.3752 10.9011 15.5209 8.04701 12.0002 8.04688ZM7.88205 7.70801C8.67446 7.22091 9.55974 6.87114 10.5051 6.68945L8.51877 3.89062H5.19455L7.88205 7.70801Z" fill="#303236"/>
<path d="M11.1377 10.4937C11.5391 9.87727 12.4608 9.87727 12.8623 10.4937L12.9404 10.6353L13.6513 12.1948L15.3545 12.3902C16.2341 12.4911 16.5879 13.5796 15.9355 14.1782L14.6718 15.3364L15.0127 17.0161L15.0332 17.1763C15.0709 17.9111 14.3258 18.4527 13.6386 18.19L13.4921 18.1206L12 17.2779L10.5078 18.1206C9.73673 18.5562 8.81131 17.884 8.98726 17.0161L9.32711 15.3364L8.06441 14.1782C7.41198 13.5796 7.7658 12.4911 8.64547 12.3902L10.3466 12.1948L11.0595 10.6353L11.1377 10.4937ZM11.458 13.1363C11.356 13.3593 11.1441 13.5126 10.9003 13.5405L9.6025 13.689L10.5654 14.5718C10.7462 14.7377 10.827 14.9866 10.7783 15.2271L10.5185 16.5064L11.6552 15.8648L11.7382 15.8247C11.9342 15.7458 12.1579 15.7593 12.3447 15.8648L13.4804 16.5064L13.2216 15.2271C13.1729 14.9866 13.2538 14.7377 13.4345 14.5718L14.3964 13.689L13.0996 13.5405C12.8559 13.5126 12.6439 13.3593 12.542 13.1363L12 11.9478L11.458 13.1363Z" fill="#0068FF"/>
</svg>
