<svg width="24" height="24" viewBox="0 0 24 24" fill="none" xmlns="http://www.w3.org/2000/svg">
<path fill-rule="evenodd" clip-rule="evenodd" d="M12.25 9.88232V14.074L15.9487 15.3069L15.4743 16.7299L10.75 15.1551V9.88232H12.25Z" fill="#0068FF"/>
<path fill-rule="evenodd" clip-rule="evenodd" d="M8 3C8.41421 3 8.75 3.33579 8.75 3.75V5.25H15.25V3.75C15.25 3.33579 15.5858 3 16 3C16.4142 3 16.75 3.33579 16.75 3.75V5.25H18C19.5188 5.25 20.75 6.48122 20.75 8V18C20.75 19.5188 19.5188 20.75 18 20.75H6C4.48122 20.75 3.25 19.5188 3.25 18V8C3.25 6.48122 4.48122 5.25 6 5.25H7.25V3.75C7.25 3.33579 7.58579 3 8 3ZM7.25 6.75H6C5.30964 6.75 4.75 7.30964 4.75 8V18C4.75 18.6904 5.30964 19.25 6 19.25H18C18.6904 19.25 19.25 18.6904 19.25 18V8C19.25 7.30964 18.6904 6.75 18 6.75H16.75V7.75C16.75 8.16421 16.4142 8.5 16 8.5C15.5858 8.5 15.25 8.16421 15.25 7.75V6.75H8.75V7.75C8.75 8.16421 8.41421 8.5 8 8.5C7.58579 8.5 7.25 8.16421 7.25 7.75V6.75Z" fill="#303236"/>
</svg>
