<svg width="24" height="24" viewBox="0 0 24 24" fill="none" xmlns="http://www.w3.org/2000/svg">
<path d="M21 16.5H15.5L15.5 18L21 18V16.5Z" fill="#0068FF"/>
<path d="M21 19.5H13.5V21H21V19.5Z" fill="#0068FF"/>
<path fill-rule="evenodd" clip-rule="evenodd" d="M12.7461 4.13285C14.5572 4.85071 16.0833 6.23562 16.6444 6.85996C19.5265 9.97608 19.7307 13.7884 19.7494 14.301C19.7605 14.6044 19.5876 14.8845 19.3114 15.0106C19.0352 15.1367 18.7102 15.0838 18.4883 14.8767C17.0029 13.4906 15.5448 12.2693 14.153 11.1954C13.9462 11.306 13.7133 11.3593 13.4802 11.3507L7.54299 19.8364C6.79614 20.9038 5.32422 21.1639 4.25679 20.417C3.18935 19.6702 2.92927 18.1983 3.67613 17.1308L9.61377 8.64454C9.5262 8.4288 9.49664 8.19227 9.5296 7.96046C8.0435 7.02074 6.3962 6.06929 4.58467 5.14866C4.31401 5.01111 4.15298 4.72395 4.17677 4.42128C4.20056 4.11861 4.40448 3.86013 4.69331 3.76656C5.18119 3.6085 8.83164 2.49427 12.7461 4.13285ZM10.7218 9.67743L4.90516 17.9908C4.63323 18.3794 4.72806 18.9161 5.11671 19.188C5.50536 19.4599 6.04203 19.3651 6.31396 18.9765L12.1306 10.6631L10.7218 9.67743ZM13.4844 9.77969C13.6006 9.61406 13.7788 9.5023 13.9787 9.46994C14.1806 9.43725 14.3872 9.48848 14.5504 9.61175C15.6415 10.4355 16.7762 11.3486 17.936 12.3591C17.6055 11.0719 16.9284 9.37452 15.5398 7.87474L15.5316 7.86592L15.5317 7.86586C15.068 7.34862 13.7186 6.13011 12.1874 5.52497L12.173 5.5191C10.2882 4.72857 8.46154 4.67408 7.139 4.80474C8.48584 5.54801 9.73245 6.30112 10.8802 7.04382C11.0513 7.15451 11.17 7.33004 11.2089 7.53003C11.2478 7.72951 11.2041 7.9362 11.0878 8.1028L13.4844 9.77969Z" fill="#303236"/>
</svg>
