<svg width="24" height="24" viewBox="0 0 24 24" fill="none" xmlns="http://www.w3.org/2000/svg">
<path d="M9.99997 3.25C14.8324 3.25 18.7499 7.16751 18.7499 12C18.7499 16.8325 14.8324 20.75 9.99997 20.75C5.16749 20.75 1.25 16.8325 1.25 12C1.25 7.16751 5.16749 3.25 9.99997 3.25ZM17.3281 4.66602C17.5123 4.2954 17.9621 4.14428 18.3329 4.32812C20.9694 5.63691 22.7499 8.61085 22.7499 12C22.7499 15.3891 20.9694 18.3631 18.3329 19.6719C17.962 19.8558 17.5122 19.7039 17.3281 19.333C17.1442 18.9622 17.2953 18.5123 17.666 18.3281C19.7353 17.3008 21.2499 14.8857 21.2499 12C21.2499 9.11428 19.7353 6.69916 17.666 5.67188C17.2952 5.48761 17.1439 5.03693 17.3281 4.66602ZM9.99997 4.75C5.99592 4.75 2.74999 7.99594 2.74999 12C2.74999 16.0041 5.99592 19.25 9.99997 19.25C14.004 19.25 17.2499 16.0041 17.2499 12C17.2499 7.99594 14.004 4.75 9.99997 4.75Z" fill="#303236"/>
<path fill-rule="evenodd" clip-rule="evenodd" d="M12.1212 12L9.99994 9.87866L7.87863 12L9.99994 14.1213L12.1212 12ZM9.99994 7.75732L5.75732 12L9.99994 16.2427L14.2426 12L9.99994 7.75732Z" fill="#0068FF"/>
</svg>
