<svg width="24" height="24" viewBox="0 0 24 24" fill="none" xmlns="http://www.w3.org/2000/svg">
<path d="M12 2.25C7.03374 2.25 3 6.28372 3 11.25C3 13.851 4.1069 16.1974 5.87813 17.8356L6.42875 18.3448L7.44722 17.2436L6.89661 16.7344C5.4204 15.3691 4.5 13.4169 4.5 11.25C4.5 7.11215 7.86216 3.75 12 3.75C16.1384 3.75 19.5 7.10332 19.5 11.25C19.5 13.4077 18.5887 15.3428 17.1284 16.7092L16.5807 17.2216L17.6056 18.3169L18.1532 17.8045C19.9028 16.1674 21 13.8414 21 11.25C21 6.27378 16.9657 2.25 12 2.25Z" fill="#303236"/>
<path d="M8.62451 11.088C8.62451 9.22558 10.1371 7.71301 11.9995 7.71301C13.8619 7.71301 15.3745 9.22558 15.3745 11.088C15.3745 11.9834 15.0265 12.7883 14.4556 13.4026L13.945 13.952L15.0438 14.9731L15.5544 14.4237C16.366 13.5503 16.8745 12.3866 16.8745 11.088C16.8745 8.39715 14.6904 6.21301 11.9995 6.21301C9.30866 6.21301 7.12451 8.39715 7.12451 11.088C7.12451 12.3846 7.63165 13.5577 8.44725 14.4265L8.96057 14.9733L10.0542 13.9466L9.54085 13.3998C8.97394 12.7959 8.62451 11.9854 8.62451 11.088Z" fill="#303236"/>
<path fill-rule="evenodd" clip-rule="evenodd" d="M13.8651 16.6202L14.9556 17.9261L14.9565 17.9271C16.2798 19.5029 15.0532 21.75 13.0897 21.75H10.9089C8.93615 21.75 7.73526 19.5063 9.0393 17.9306L9.04143 17.928L10.1348 16.6187C11.0935 15.4631 12.9094 15.4573 13.8651 16.6202ZM12.7071 17.5736C12.3554 17.1442 11.6518 17.1389 11.2888 17.5769L11.287 17.5792L10.194 18.888C9.76688 19.4058 10.101 20.25 10.9089 20.25H13.0897C13.907 20.25 14.2304 19.3945 13.8075 18.8914L13.8059 18.8895L12.7071 17.5736Z" fill="#0068FF"/>
</svg>
