<svg width="24" height="24" viewBox="0 0 24 24" fill="none" xmlns="http://www.w3.org/2000/svg">
<path d="M20.0675 17.5591L19.3146 18.3706C19.5534 18.418 19.7472 18.5065 19.8956 18.6372C20.1319 18.8387 20.2501 19.0998 20.2501 19.4194C20.2501 19.6277 20.1928 19.8243 20.0782 20.0083C19.9671 20.1924 19.7943 20.3433 19.5616 20.4614C19.3289 20.5759 19.0283 20.6333 18.6603 20.6333C18.4068 20.6333 18.153 20.6021 17.8995 20.5396C17.6496 20.477 17.4308 20.3885 17.2433 20.2739L17.6183 19.4976C17.7641 19.5947 17.9257 19.6691 18.1027 19.7212C18.2832 19.7733 18.4589 19.7993 18.629 19.7993C18.806 19.7993 18.9467 19.7665 19.0509 19.7007C19.155 19.6347 19.208 19.5409 19.2081 19.4194C19.2081 19.3117 19.1641 19.2261 19.0773 19.1636C18.9905 19.0977 18.8482 19.065 18.6505 19.0649H18.2179V18.4136L18.8702 17.7095H17.4308V16.9126H20.0675V17.5591Z" fill="#0068FF"/>
<path d="M5.54602 19.2407L6.31946 16.9126H7.2677L8.00403 19.2612L8.76868 16.9126H9.75305L8.57043 20.5601H7.46497L6.76575 18.3384L6.03723 20.5601H4.93274L3.75012 16.9126H4.81262L5.54602 19.2407Z" fill="#0068FF"/>
<path d="M12.9835 17.7095H11.1437V18.3247H12.7648V19.0962H11.1437V19.7632H13.0509V20.5601H10.1232V16.9126H12.9835V17.7095Z" fill="#0068FF"/>
<path fill-rule="evenodd" clip-rule="evenodd" d="M15.4894 16.9126C15.9686 16.9126 16.3264 17.0012 16.5626 17.1782C16.7989 17.3519 16.9171 17.5818 16.9171 17.8667C16.917 18.0541 16.8664 18.2186 16.7657 18.3608C16.6812 18.4816 16.5646 18.5799 16.4171 18.6587C16.4417 18.6673 16.4668 18.6742 16.4904 18.6841C16.6812 18.7605 16.8286 18.8737 16.9327 19.0229C17.0404 19.1689 17.0948 19.3481 17.0948 19.5601C17.0948 19.8759 16.9658 20.1222 16.7091 20.2993C16.4555 20.473 16.0836 20.56 15.5939 20.5601H13.6241V16.9126H15.4894ZM14.6456 19.8149H15.5099C15.6871 19.8149 15.8209 19.7851 15.9113 19.7261C16.005 19.6635 16.0519 19.5699 16.0519 19.4448C16.0518 19.3199 16.005 19.2284 15.9113 19.1694C15.8209 19.1069 15.6871 19.0747 15.5099 19.0747H14.6456V19.8149ZM14.6456 18.3608H15.3536C15.5273 18.3608 15.6584 18.332 15.7452 18.2729C15.8319 18.214 15.875 18.1251 15.8751 18.0073C15.8751 17.8894 15.8318 17.8022 15.7452 17.7466C15.6584 17.6875 15.5273 17.6577 15.3536 17.6577H14.6456V18.3608Z" fill="#0068FF"/>
<path fill-rule="evenodd" clip-rule="evenodd" d="M9.59782 4.43654C6.58701 5.30418 5.17662 7.75502 4.67434 9.58753C4.6702 9.60262 4.6665 9.61786 4.66323 9.63325C6.0063 9.64543 7.02434 9.80548 7.77002 9.99929C7.9204 10.0384 8.07334 10.0686 8.22665 10.0896C8.22955 10 8.23426 9.89976 8.24148 9.78888C8.27563 9.26472 8.36601 8.50449 8.58742 7.52156C8.76824 6.71886 9.11123 5.67198 9.50185 4.66494C9.53203 4.58713 9.56404 4.51096 9.59782 4.43654ZM14.3996 4.43585C14.4342 4.51031 14.4671 4.58651 14.4981 4.66434C14.9078 5.69298 15.266 6.7763 15.3943 7.5661C15.5791 8.70347 15.6728 9.43953 15.7204 9.89683C15.7327 10.0146 15.7419 10.1143 15.7489 10.1978C15.8037 10.1851 15.858 10.1701 15.9118 10.1528C16.7745 9.87559 18.0592 9.55783 19.3329 9.61959C19.3295 9.60322 19.3255 9.58701 19.3211 9.57097C18.8145 7.73966 17.403 5.30025 14.3996 4.43585ZM18.4682 11.1358L14.7223 14.9763C14.4331 15.2729 14.439 15.7477 14.7355 16.0369C15.032 16.3261 15.5069 16.3202 15.7961 16.0237L20.0647 11.6472C20.6649 11.0318 21.0271 10.112 20.7668 9.17104C20.0312 6.51208 17.5929 2.61572 11.9999 2.61572C6.39275 2.61572 3.95667 6.53144 3.22769 9.19101C2.97402 10.1165 3.32225 11.0221 3.9037 11.6358L8.05314 16.0158C8.33802 16.3165 8.81272 16.3293 9.11342 16.0445C9.41412 15.7596 9.42695 15.2849 9.14207 14.9842L5.52481 11.166C6.31759 11.2197 6.93228 11.3314 7.3927 11.4511C8.39264 11.7109 9.60705 11.7157 10.6276 11.2125C10.8979 11.0792 11.1729 10.9591 11.4256 10.8736C11.6878 10.785 11.8805 10.7495 12 10.7495C12.1441 10.7495 12.3823 10.8001 12.7024 10.9191C13.0088 11.033 13.335 11.1882 13.6363 11.3472C14.4777 11.7913 15.473 11.8693 16.3707 11.5809C16.9647 11.39 17.7125 11.2012 18.4682 11.1358ZM14.2186 9.95924C14.1716 9.52912 14.0825 8.84514 13.9138 7.80664C13.8124 7.18291 13.5041 6.22254 13.1046 5.21944C12.7648 4.36644 12.2804 4.14514 11.9917 4.14417C11.708 4.14322 11.231 4.35488 10.9003 5.20739C10.5238 6.17799 10.209 7.14865 10.0508 7.85119C9.84663 8.75739 9.76739 9.44001 9.73831 9.8864C9.73655 9.91331 9.73498 9.93937 9.73358 9.96457C9.81329 9.93603 9.89036 9.90358 9.96427 9.86714C10.2701 9.71636 10.609 9.56633 10.9452 9.45265C11.272 9.34216 11.6433 9.24951 12 9.24951C12.4121 9.24951 12.8497 9.37358 13.225 9.51305C13.569 9.64091 13.9129 9.80191 14.2186 9.95924Z" fill="#303236"/>
</svg>
