<svg width="24" height="24" viewBox="0 0 24 24" fill="none" xmlns="http://www.w3.org/2000/svg">
<path fill-rule="evenodd" clip-rule="evenodd" d="M9.59789 4.43643C6.63031 5.29139 5.21828 7.68426 4.69659 9.50813C4.68494 9.54886 4.67647 9.59069 4.67119 9.63332C6.01033 9.64606 7.02582 9.80586 7.77003 9.99929C7.92042 10.0384 8.07335 10.0686 8.22667 10.0896C8.22957 10 8.23427 9.89976 8.2415 9.78888C8.27565 9.26472 8.36603 8.50449 8.58744 7.52156C8.76825 6.71886 9.11125 5.67198 9.50186 4.66494C9.53206 4.58709 9.56409 4.51088 9.59789 4.43643ZM14.3996 4.43574C14.4342 4.51023 14.4671 4.58647 14.4981 4.66434C14.9078 5.69298 15.266 6.7763 15.3944 7.5661C15.5791 8.70347 15.6728 9.43953 15.7205 9.89683C15.7327 10.0146 15.742 10.1143 15.7489 10.1978C15.8037 10.1851 15.858 10.1701 15.9118 10.1528C16.7727 9.8762 18.0535 9.55923 19.3246 9.61919C19.3192 9.57548 19.3105 9.5326 19.2985 9.49086C18.7725 7.66859 17.3595 5.28739 14.3996 4.43574ZM18.2587 11.157L14.7594 14.2848C14.4506 14.5608 14.424 15.035 14.7 15.3438C14.9761 15.6526 15.4502 15.6792 15.759 15.4032L19.9098 11.6931C20.601 11.0753 21.0323 10.0887 20.7396 9.07486C19.9733 6.41992 17.5253 2.61572 11.9999 2.61572C6.45994 2.61572 4.01412 6.43965 3.25443 9.09562C2.96885 10.094 3.38505 11.0664 4.05661 11.6844L8.08976 15.3959C8.39456 15.6764 8.86902 15.6566 9.14951 15.3518C9.42999 15.047 9.41028 14.5726 9.10549 14.2921L5.72473 11.181C6.42182 11.2389 6.97175 11.3416 7.39271 11.4511C8.39266 11.7109 9.60706 11.7157 10.6276 11.2125C10.898 11.0792 11.1729 10.9591 11.4257 10.8736C11.6878 10.785 11.8805 10.7495 12.0001 10.7495C12.1442 10.7495 12.3823 10.8001 12.7024 10.9191C13.0088 11.033 13.3351 11.1882 13.6363 11.3472C14.4777 11.7913 15.473 11.8693 16.3707 11.5809C16.9097 11.4077 17.5754 11.2361 18.2587 11.157ZM14.2186 9.95924C14.1716 9.52912 14.0825 8.84514 13.9138 7.80664C13.8124 7.18291 13.5042 6.22254 13.1046 5.21944C12.7648 4.36644 12.2804 4.14514 11.9917 4.14417C11.708 4.14322 11.231 4.35488 10.9003 5.20739C10.5239 6.17799 10.209 7.14865 10.0508 7.85119C9.84664 8.75739 9.76741 9.44001 9.73832 9.8864C9.73657 9.91331 9.735 9.93937 9.73359 9.96457C9.81331 9.93603 9.89037 9.90358 9.96428 9.86714C10.2701 9.71636 10.609 9.56633 10.9452 9.45265C11.272 9.34216 11.6433 9.24951 12.0001 9.24951C12.4121 9.24951 12.8497 9.37358 13.225 9.51305C13.569 9.64091 13.9129 9.80191 14.2186 9.95924Z" fill="#303236"/>
<path fill-rule="evenodd" clip-rule="evenodd" d="M6.75 16.3999H17.25V19.6499C17.25 20.6164 16.4665 21.3999 15.5 21.3999H8.5C7.5335 21.3999 6.75 20.6164 6.75 19.6499V16.3999ZM8.25 17.8999V19.6499C8.25 19.788 8.36193 19.8999 8.5 19.8999H15.5C15.6381 19.8999 15.75 19.788 15.75 19.6499V17.8999H8.25Z" fill="#0068FF"/>
</svg>
