<svg width="104" height="24" viewBox="0 0 104 24" fill="none" xmlns="http://www.w3.org/2000/svg">
<path d="M12 18.5171C8.34512 18.5171 5.42166 15.5937 5.42166 11.9388C5.42166 8.28388 8.34512 5.36042 12 5.36042V0C5.36043 0 0 5.36042 0 12C0 18.6396 5.36043 24 12 24C18.6396 24 24 18.6396 24 12H18.6396C18.5784 15.5937 15.6549 18.5182 12 18.5182V18.5171Z" fill="#0068FF"/>
<path d="M18.5787 5.3595H12.0004V11.9378H18.5787V5.3595Z" fill="#17E29D"/>
<path d="M37.5775 10.5348V14.4925H43.6672L43.6215 14.6005C42.5862 17.0842 40.1804 18.6884 37.4918 18.6884C33.8303 18.6884 30.8522 15.7093 30.8522 12.0488C30.8522 8.3884 33.8314 5.40927 37.4918 5.40927C39.6059 5.40927 41.562 6.40231 42.8144 8.08892H47.6661C46.0396 3.90301 42.0117 1.12427 37.4929 1.12427C31.469 1.12427 26.5684 6.02491 26.5684 12.0488C26.5684 18.0728 31.469 22.9734 37.4929 22.9734C40.4097 22.9734 43.1495 21.8368 45.2079 19.7739C47.2653 17.7121 48.3975 14.9679 48.3975 12.0488C48.3975 11.5067 48.3652 11.0113 48.2995 10.5359H37.5775V10.5348ZM103.457 13.9704C103.515 13.5473 103.517 13.1198 103.517 12.6812C103.517 7.4499 99.3143 3.20944 94.083 3.20944C88.8517 3.20944 84.6112 7.4499 84.6112 12.6812C84.6112 17.9125 88.8517 22.1529 94.083 22.1529C98.1743 22.1529 101.654 19.5557 102.978 15.9219H98.702C97.68 17.3759 95.9956 18.3288 94.083 18.3288C91.4078 18.3288 89.1723 16.4663 88.5879 13.9692H99.5781H103.457V13.9704ZM88.904 10.4279C89.7746 8.42959 91.764 7.03131 94.083 7.03131C96.402 7.03131 98.3914 8.42959 99.262 10.4279H88.9052H88.904ZM65.5275 5.01406C63.9177 3.7516 61.8926 2.99569 59.6928 2.99569C54.4704 2.99569 50.221 7.24506 50.221 12.4674C50.221 17.6898 54.4704 21.9392 59.6928 21.9392C61.8926 21.9392 63.9177 21.1833 65.5275 19.9208V21.7945H69.3805V3.81395H65.5275V5.01517V5.01406ZM59.6928 18.0271C56.6268 18.0271 54.132 15.5323 54.132 12.4663C54.132 9.40036 56.6268 6.90551 59.6928 6.90551C62.7587 6.90551 65.2536 9.40036 65.2536 12.4663C65.2536 15.5323 62.7587 18.0271 59.6928 18.0271ZM78.2355 0.441833H74.0307V3.81283H72.0579V7.66811H74.0307V16.3561C74.0307 19.4388 76.5389 21.947 79.6215 21.947H83.1395V17.819H79.6983C78.8912 17.819 78.2355 17.1621 78.2355 16.3561V7.66811H83.1417V3.81283H78.2355V0.441833Z" fill="#070808"/>
</svg>
