<svg width="36" height="36" viewBox="0 0 36 36" fill="none" xmlns="http://www.w3.org/2000/svg">
<path d="M0 18C0 8.05887 8.05887 0 18 0V0C27.9411 0 36 8.05887 36 18V18C36 27.9411 27.9411 36 18 36V36C8.05887 36 0 27.9411 0 18V18Z" fill="#F2F3F4"/>
<path fill-rule="evenodd" clip-rule="evenodd" d="M17.0373 17.9999L21.088 14.0587C21.2225 13.9278 21.2225 13.7118 21.088 13.5809L20.3808 12.8928C20.2514 12.7669 20.0452 12.7669 19.9158 12.8928L14.9124 17.761C14.7779 17.8919 14.7779 18.108 14.9124 18.2388L19.9158 23.1071C20.0452 23.233 20.2514 23.233 20.3808 23.1071L21.088 22.419C21.2225 22.2881 21.2225 22.072 21.088 21.9411L17.0373 17.9999Z" fill="#303236"/>
</svg>
