<svg width="36" height="36" viewBox="0 0 36 36" fill="none" xmlns="http://www.w3.org/2000/svg">
<path d="M0 18C0 8.05887 8.05887 0 18 0V0C27.9411 0 36 8.05887 36 18V18C36 27.9411 27.9411 36 18 36V36C8.05887 36 0 27.9411 0 18V18Z" fill="#F2F3F4"/>
<path fill-rule="evenodd" clip-rule="evenodd" d="M19.0069 17.9999L14.7724 22.041C14.6318 22.1752 14.6318 22.3967 14.7724 22.5309L15.5118 23.2364C15.647 23.3655 15.8625 23.3655 15.9978 23.2364L21.2282 18.2449C21.3688 18.1107 21.3688 17.8891 21.2282 17.755L15.9978 12.7634C15.8625 12.6343 15.647 12.6343 15.5118 12.7634L14.7725 13.469C14.6318 13.6031 14.6318 13.8247 14.7724 13.9589L19.0069 17.9999Z" fill="#303236"/>
</svg>
