<svg width="26" height="16" viewBox="0 0 26 16" fill="none" xmlns="http://www.w3.org/2000/svg">
<rect width="26" height="16" rx="2" fill="#FFD98C"/>
<g filter="url(#filter0_d_73317_6585)">
<path d="M7.37 12.0401L4.635 5.24506C4.575 5.09506 4.50833 4.98006 4.435 4.90006C4.365 4.82006 4.265 4.76172 4.135 4.72506C4.005 4.68506 3.82333 4.65672 3.59 4.64006V4.32006H7.415V4.64006C7.09167 4.66339 6.85333 4.69506 6.7 4.73506C6.55 4.77173 6.46333 4.83339 6.44 4.92006C6.41667 5.00339 6.43333 5.12839 6.49 5.29506L8.03 9.62506L8.125 9.63006L9.54 5.72506C9.62667 5.48506 9.655 5.29506 9.625 5.15506C9.59833 5.01506 9.5 4.90672 9.33 4.83006C9.16333 4.75006 8.91 4.68672 8.57 4.64006V4.32006H11.55V4.64006C11.2367 4.68672 10.9967 4.74672 10.83 4.82006C10.6633 4.89339 10.5317 5.00006 10.435 5.14006C10.3417 5.28006 10.2467 5.48006 10.15 5.74006L7.755 12.0401H7.37ZM11.7336 11.9351V11.6101L12.5936 11.4051V4.83506L11.7336 4.64006V4.32006H14.9436V4.64006L14.0986 4.83506V11.4051L14.9436 11.6101V11.9351H11.7336ZM15.8061 11.9351V11.6101L16.6511 11.4001V4.84506L15.8061 4.64006V4.32006H19.0411C19.6144 4.32006 20.1128 4.41006 20.5361 4.59006C20.9594 4.77006 21.2878 5.02839 21.5211 5.36506C21.7544 5.69839 21.8711 6.10172 21.8711 6.57506C21.8711 7.26839 21.6078 7.80339 21.0811 8.18006C20.5578 8.55339 19.8244 8.74006 18.8811 8.74006H18.1611V11.4001L19.3611 11.6101V11.9351H15.8061ZM18.1611 8.25006H18.4261C18.7628 8.25006 19.0428 8.21339 19.2661 8.14006C19.4894 8.06339 19.6761 7.95172 19.8261 7.80506C19.9794 7.65173 20.0894 7.46673 20.1561 7.25006C20.2228 7.03339 20.2561 6.77839 20.2561 6.48506C20.2561 6.14506 20.2094 5.85839 20.1161 5.62506C20.0261 5.39173 19.8961 5.21506 19.7261 5.09506C19.5028 4.90506 19.1261 4.81006 18.5961 4.81006H18.1611V8.25006Z" fill="#080200"/>
</g>
<defs>
<filter id="filter0_d_73317_6585" x="3.08984" y="4.32007" width="18.7813" height="8.21997" filterUnits="userSpaceOnUse" color-interpolation-filters="sRGB">
<feFlood flood-opacity="0" result="BackgroundImageFix"/>
<feColorMatrix in="SourceAlpha" type="matrix" values="0 0 0 0 0 0 0 0 0 0 0 0 0 0 0 0 0 0 127 0" result="hardAlpha"/>
<feOffset dx="-0.4" dy="0.4"/>
<feGaussianBlur stdDeviation="0.05"/>
<feComposite in2="hardAlpha" operator="out"/>
<feColorMatrix type="matrix" values="0 0 0 0 1 0 0 0 0 1 0 0 0 0 1 0 0 0 1 0"/>
<feBlend mode="soft-light" in2="BackgroundImageFix" result="effect1_dropShadow_73317_6585"/>
<feBlend mode="normal" in="SourceGraphic" in2="effect1_dropShadow_73317_6585" result="shape"/>
</filter>
</defs>
</svg>
