<svg width="16" height="16" viewBox="0 0 16 16" fill="none" xmlns="http://www.w3.org/2000/svg">
<g clip-path="url(#clip0_134856_59986)">
<path d="M2 0C0.895431 0 0 0.895431 0 2V14C0 15.1046 0.895431 16 2 16H14C15.1046 16 16 15.1046 16 14V2C16 0.895431 15.1046 0 14 0H2ZM12.7398 6.28225L7.30863 11.4999C7.13778 11.664 6.90849 11.7531 6.67164 11.7475C6.4348 11.7419 6.21001 11.6419 6.04718 11.4698L3.2154 8.47733C3.04669 8.29904 3.05445 8.01774 3.23274 7.84903L3.87838 7.23806C4.05667 7.06935 4.33797 7.07711 4.50668 7.2554L6.72286 9.59737L11.5081 5.00023C11.6851 4.83018 11.9665 4.83582 12.1365 5.01283L12.7524 5.65384C12.9224 5.83085 12.9168 6.1122 12.7398 6.28225Z" fill="#303236"/>
</g>
<defs>
<clipPath id="clip0_134856_59986">
<rect width="16" height="16" fill="white"/>
</clipPath>
</defs>
</svg>
