<svg width="12" height="12" viewBox="0 0 12 12" fill="none" xmlns="http://www.w3.org/2000/svg">
<g clip-path="url(#clip0_134856_60034)">
<path d="M1.5 0C0.671573 0 0 0.671573 0 1.5V10.5C0 11.3284 0.671573 12 1.5 12H10.5C11.3284 12 12 11.3284 12 10.5V1.5C12 0.671573 11.3284 0 10.5 0H1.5ZM9.55482 4.71169L5.48147 8.6249C5.35334 8.748 5.18136 8.81485 5.00373 8.81062C4.8261 8.80639 4.65751 8.73142 4.53538 8.60237L2.41155 6.35799C2.28502 6.22428 2.29084 6.0133 2.42455 5.88677L2.90878 5.42855C3.0425 5.30201 3.25347 5.30784 3.38001 5.44155L5.04215 7.19803L8.6311 3.75017C8.76385 3.62263 8.97487 3.62686 9.10241 3.75962L9.56427 4.24038C9.6918 4.37314 9.68757 4.58415 9.55482 4.71169Z" fill="#303236"/>
</g>
<defs>
<clipPath id="clip0_134856_60034">
<rect width="12" height="12" fill="white"/>
</clipPath>
</defs>
</svg>
