<svg width="12" height="12" viewBox="0 0 12 12" fill="none" xmlns="http://www.w3.org/2000/svg">
<g clip-path="url(#clip0_134856_60039)">
<path d="M1.5 0C0.671573 0 0 0.671573 0 1.5V10.5C0 11.3284 0.671573 12 1.5 12H10.5C11.3284 12 12 11.3284 12 10.5V1.5C12 0.671573 11.3284 0 10.5 0H1.5ZM3.00001 5.33334H9.00001C9.1841 5.33334 9.33334 5.48258 9.33334 5.66668V6.33334C9.33334 6.51744 9.1841 6.66668 9 6.66668H3.00001C2.81591 6.66668 2.66667 6.51744 2.66667 6.33334V5.66668C2.66667 5.48258 2.81591 5.33334 3.00001 5.33334Z" fill="#C4C7CA"/>
</g>
<defs>
<clipPath id="clip0_134856_60039">
<rect width="12" height="12" fill="white"/>
</clipPath>
</defs>
</svg>
