<svg width="16" height="16" viewBox="0 0 16 16" fill="none" xmlns="http://www.w3.org/2000/svg">
<g clip-path="url(#clip0_134856_59996)">
<path d="M2 0C0.895431 0 0 0.895431 0 2V14C0 15.1046 0.895431 16 2 16H14C15.1046 16 16 15.1046 16 14V2C16 0.895431 15.1046 0 14 0H2ZM4.00001 7.11112H12C12.2455 7.11112 12.4445 7.31011 12.4445 7.55557V8.44446C12.4445 8.68992 12.2455 8.8889 12 8.8889H4.00001C3.75455 8.8889 3.55556 8.68992 3.55556 8.44446V7.55557C3.55556 7.31011 3.75455 7.11112 4.00001 7.11112Z" fill="#C4C7CA"/>
</g>
<defs>
<clipPath id="clip0_134856_59996">
<rect width="16" height="16" fill="white"/>
</clipPath>
</defs>
</svg>
