<svg width="12" height="12" viewBox="0 0 12 12" fill="none" xmlns="http://www.w3.org/2000/svg">
<path d="M6 8.25C7.24264 8.25 8.25 7.24264 8.25 6C8.25 4.75736 7.24264 3.75 6 3.75C4.75736 3.75 3.75 4.75736 3.75 6C3.75 7.24264 4.75736 8.25 6 8.25Z" fill="#303236"/>
<path d="M12 6C12 9.31371 9.31371 12 6 12C2.68629 12 0 9.31371 0 6C0 2.68629 2.68629 0 6 0C9.31371 0 12 2.68629 12 6ZM10.875 6C10.875 3.30761 8.69239 1.125 6 1.125C3.30761 1.125 1.125 3.30761 1.125 6C1.125 8.69239 3.30761 10.875 6 10.875C8.69239 10.875 10.875 8.69239 10.875 6Z" fill="#303236"/>
</svg>
