<svg width="28" height="28" viewBox="0 0 28 28" fill="none" xmlns="http://www.w3.org/2000/svg">
<circle cx="14" cy="14" r="14" fill="#D35152"/>
<path fill-rule="evenodd" clip-rule="evenodd" d="M14.695 5.54914C14.2924 4.85366 13.6518 4.85366 13.2492 5.54914L5.93747 18.4247C5.53483 19.1293 5.86426 19.6875 6.66956 19.6875H10.3391C11.0804 19.6418 11.7484 19.2483 12.151 18.626L16.571 10.9666C16.8913 10.3077 16.8913 9.52985 16.571 8.87097L15.2533 6.55575L14.695 5.54914ZM19.5543 14.023C19.1517 13.3275 18.502 13.3275 18.0993 14.023L15.5462 18.4247C15.1527 19.1202 15.4821 19.6875 16.2783 19.6875H21.3296C22.1349 19.6875 22.4644 19.1202 22.0617 18.4247L19.5543 14.023Z" fill="white"/>
</svg>
