<svg width="29" height="29" viewBox="0 0 29 29" fill="none" xmlns="http://www.w3.org/2000/svg">
<path fill-rule="evenodd" clip-rule="evenodd" d="M10.5432 27.6852C3.1567 25.7505 -1.40866 18.1539 0.393213 10.6726C2.33149 3.15313 9.92905 -1.41124 17.5432 0.394073C24.9299 2.32845 29.4939 9.92595 27.6932 17.4067C25.7542 24.9267 18.1567 29.4902 10.5432 27.6852Z" fill="#F7931A"/>
<path fill-rule="evenodd" clip-rule="evenodd" d="M20.7851 12.325C21.0645 10.4861 19.6425 9.49762 17.6978 8.83818L18.3289 6.34725L16.789 5.96938L16.1749 8.39467C15.7701 8.29534 15.3543 8.20163 14.9416 8.10878L15.5596 5.66751L14.021 5.28964L13.3898 7.77971C13.0547 7.70457 12.7258 7.63029 12.4065 7.55212L12.4082 7.54435L10.2845 7.02224L9.87487 8.64169C9.87487 8.64169 11.0174 8.89951 10.9929 8.91548C11.617 9.06879 11.7297 9.47517 11.7109 9.79733L9.98276 16.621C9.90645 16.8076 9.71258 17.087 9.27705 16.9812C9.29197 17.0032 8.15774 16.7061 8.15774 16.7061L7.39282 18.4422L9.39723 18.9345C9.7696 19.0265 10.135 19.1223 10.495 19.213L9.85732 21.7325L11.3955 22.1103L12.0266 19.6172C12.4468 19.7295 12.8543 19.8332 13.2538 19.9312L12.6249 22.4118L14.1648 22.7896L14.8021 20.2754C17.4276 20.7647 19.4026 20.5673 20.2337 18.2293C20.9035 16.3468 20.2004 15.2603 18.8188 14.5516C19.825 14.3227 20.5829 13.6711 20.7851 12.325ZM17.7429 12.2978C17.3087 14.0105 14.6284 13.1403 13.7595 12.927L14.5262 9.89969C15.3951 10.113 18.1951 10.5112 17.7429 12.2978ZM17.2666 17.1825C16.7907 19.0649 13.5709 18.0479 12.5266 17.7922L13.3727 14.4544C14.4165 14.711 17.7639 15.2192 17.2666 17.1825Z" fill="white"/>
</svg>
