<svg width="28" height="28" viewBox="0 0 28 28" fill="none" xmlns="http://www.w3.org/2000/svg">
<path d="M14 28C21.732 28 28 21.732 28 14C28 6.26801 21.732 0 14 0C6.26801 0 0 6.26801 0 14C0 21.732 6.26801 28 14 28Z" fill="#006AFF"/>
<path d="M14 19.1682C11.1456 19.1682 8.83183 16.8544 8.83183 14C8.83183 11.1456 11.1456 8.83183 14 8.83183V4.60352C8.81027 4.60352 4.60352 8.81069 4.60352 14C4.60352 19.1893 8.81027 23.3965 14 23.3965C19.1897 23.3965 23.3965 19.1893 23.3965 14H19.1682C19.1682 16.8544 16.8544 19.1682 14 19.1682Z" fill="white"/>
<path d="M19.1682 8.83179H14V14H19.1682V8.83179Z" fill="white"/>
</svg>
