<svg width="28" height="28" viewBox="0 0 28 28" fill="none" xmlns="http://www.w3.org/2000/svg">
<g clip-path="url(#clip0_1404_6420)">
<circle cx="14" cy="14" r="14" fill="#006CFF"/>
<path d="M20.7342 7.42489C18.9896 5.64212 16.609 4.6242 14.1148 4.59442C11.6206 4.56465 9.21647 5.52545 7.42978 7.26606C6.54297 8.12719 5.83578 9.15567 5.34915 10.292C4.86252 11.4283 4.60611 12.6498 4.59477 13.8859C4.57651 15.1209 4.80333 16.3474 5.26209 17.4942C5.72085 18.6411 6.40245 19.6856 7.26747 20.5674C7.28473 20.5855 7.30376 20.6018 7.32425 20.6162C7.36087 20.6509 7.39986 20.683 7.44094 20.7123C7.45948 20.7247 7.4789 20.7357 7.49905 20.7453L7.50877 20.75C7.54914 20.7747 7.591 20.797 7.63411 20.8166C7.65473 20.8246 7.67576 20.8315 7.69713 20.8372L7.7101 20.8405C7.75168 20.8557 7.79418 20.8683 7.83735 20.8782C7.86052 20.8825 7.88393 20.8854 7.90746 20.8869L7.92199 20.8878C7.96572 20.8944 8.00982 20.8985 8.05404 20.8998C8.08293 20.8994 8.11176 20.8971 8.14036 20.8929L8.18838 20.8881C8.21255 20.8868 8.23661 20.884 8.26041 20.8796C8.30059 20.8708 8.34023 20.8597 8.37914 20.8464L8.39607 20.8417C8.41788 20.8363 8.4393 20.8295 8.46018 20.8213C8.5092 20.8003 8.55684 20.7763 8.6028 20.7492C8.61766 20.7422 8.63205 20.7341 8.6459 20.7252C8.70795 20.6856 8.76579 20.6397 8.81853 20.5882L13.5125 16.0023C13.8759 16.0959 14.2578 16.0908 14.6186 15.9872C14.8855 15.9116 15.1347 15.7838 15.352 15.6112C15.5692 15.4386 15.75 15.2246 15.884 14.9817C16.0193 14.7395 16.1052 14.4728 16.1368 14.1972C16.1683 13.9216 16.1449 13.6424 16.0678 13.3759C15.9922 13.109 15.8644 12.8597 15.6918 12.6425C15.5193 12.4253 15.3053 12.2445 15.0624 12.1105C14.8202 11.9753 14.5535 11.8894 14.2779 11.8578C14.0023 11.8263 13.7231 11.8497 13.4566 11.9267C12.9357 12.0765 12.4922 12.4206 12.2178 12.888C11.9433 13.3553 11.8588 13.9102 11.9816 14.4381L10.8395 15.5536C10.5982 15.0699 10.4725 14.5367 10.4725 13.9961C10.4735 13.0605 10.8456 12.1636 11.5071 11.5021C12.1686 10.8406 13.0655 10.4684 14.001 10.4674C14.9366 10.4684 15.8335 10.8404 16.4951 11.502C17.1567 12.1635 17.5288 13.0605 17.5298 13.9961C17.5287 14.9316 17.1566 15.8286 16.4951 16.4901C15.8335 17.1516 14.9366 17.5237 14.001 17.5246H13.8289V19.7143H14.0032C15.1667 19.7159 16.3028 19.3607 17.2584 18.6967C18.503 17.8323 19.354 16.5095 19.6245 15.0185C19.8951 13.5275 19.5633 11.99 18.7017 10.7434C18.2757 10.125 17.7313 9.59723 17.1 9.19061C16.4687 8.784 15.763 8.50662 15.0238 8.3745C14.2854 8.23858 13.5273 8.2504 12.7934 8.40928C12.0595 8.56815 11.3644 8.87093 10.7482 9.30011C10.1299 9.72604 9.60212 10.2704 9.19553 10.9016C8.78894 11.5329 8.51158 12.2385 8.3795 12.9777C8.11363 14.4196 8.41602 15.9084 9.22334 17.1323L8.1358 18.1946C7.25545 16.9611 6.78224 15.4834 6.78222 13.968C6.78806 12.0528 7.55241 10.2178 8.90796 8.86487C10.2635 7.5119 12.0999 6.75106 14.0151 6.74888H14.0292C14.9795 6.7481 15.9204 6.93581 16.7976 7.30113C17.6748 7.66645 18.4709 8.20213 19.1397 8.87716C19.8121 9.54861 20.3447 10.3467 20.7067 11.2254C21.0686 12.104 21.2527 13.0457 21.2484 13.9959C21.2425 15.9112 20.4781 17.7461 19.1225 19.0991C17.767 20.452 15.9306 21.2129 14.0154 21.2152H14.0015H13.8289V23.232L13.8307 23.3109L13.9371 23.4062H14.0031C16.4603 23.4114 18.821 22.4498 20.5752 20.7291C22.3579 18.9845 23.3758 16.604 23.4056 14.1098C23.4354 11.6157 22.4747 9.21159 20.7342 7.42489Z" fill="white"/>
</g>
<defs>
<clipPath id="clip0_1404_6420">
<rect width="28" height="28" rx="14" fill="white"/>
</clipPath>
</defs>
</svg>
