<svg width="28" height="28" viewBox="0 0 28 28" fill="none" xmlns="http://www.w3.org/2000/svg">
<rect width="28" height="28" rx="14" fill="#070808"/>
<path d="M10.3391 18.76V9.24001H13.8391C15.8551 9.24001 17.1291 10.234 17.1291 11.83C17.1291 12.712 16.6811 13.398 15.8551 13.748C17.0311 14.098 17.6611 14.924 17.6611 16.044C17.6611 17.766 16.4151 18.76 14.3151 18.76H10.3391ZM13.7971 10.486H11.9071V13.286H13.7691C14.8891 13.286 15.5191 12.726 15.5191 11.914C15.5191 11.032 14.8751 10.486 13.7971 10.486ZM14.1191 14.504H11.9071V17.514H14.2731C15.3791 17.514 16.0511 16.912 16.0511 16.002C16.0511 15.092 15.3371 14.504 14.1191 14.504Z" fill="white"/>
</svg>
