<svg width="14" height="14" viewBox="0 0 14 14" fill="none" xmlns="http://www.w3.org/2000/svg">
<path d="M6.99978 8.54004C7.85192 8.54004 8.54271 7.84924 8.54271 6.99711C8.54271 6.14497 7.85192 5.45418 6.99978 5.45418C6.14764 5.45418 5.45685 6.14497 5.45685 6.99711C5.45685 7.84924 6.14764 8.54004 6.99978 8.54004Z" fill="#84888C"/>
<path fill-rule="evenodd" clip-rule="evenodd" d="M0.275368 6.77076L4.17803 3.51853C5.81286 2.15618 8.18755 2.15617 9.82238 3.51853L13.725 6.77076C13.8682 6.89009 13.8682 7.11003 13.725 7.22936L9.82238 10.4816C8.18755 11.8439 5.81286 11.8439 4.17804 10.4816L0.275368 7.22936C0.132169 7.11003 0.132169 6.89009 0.275368 6.77076ZM9.75669 7.0295C9.75669 8.55117 8.52313 9.78473 7.00146 9.78473C5.47978 9.78473 4.24622 8.55117 4.24622 7.0295C4.24622 5.50782 5.47978 4.27426 7.00146 4.27426C8.52313 4.27426 9.75669 5.50782 9.75669 7.0295Z" fill="#84888C"/>
</svg>
