<svg width="14" height="14" viewBox="0 0 14 14" fill="none" xmlns="http://www.w3.org/2000/svg">
<path fill-rule="evenodd" clip-rule="evenodd" d="M1.92112 10.8417C1.80722 10.9556 1.80722 11.1403 1.92112 11.2542L2.74608 12.0792C2.85999 12.1931 3.04466 12.1931 3.15856 12.0792L12.0794 3.15831C12.1933 3.04441 12.1933 2.85974 12.0794 2.74583L11.2545 1.92088C11.1406 1.80697 10.9559 1.80697 10.842 1.92088L9.49344 3.26942C7.88091 2.16206 5.70623 2.24513 4.17803 3.51862L0.275368 6.77084C0.132169 6.89018 0.132169 7.11011 0.275368 7.22945L3.14339 9.61947L1.92112 10.8417ZM4.52422 8.23864L8.20985 4.553C7.84478 4.3744 7.43439 4.27414 7.00059 4.27414C5.47891 4.27414 4.24535 5.5077 4.24535 7.02937C4.24535 7.46318 4.34561 7.87357 4.52422 8.23864Z" fill="#84888C"/>
<path d="M9.82238 10.4817C8.52117 11.566 6.75124 11.7873 5.25873 11.1455L6.64267 9.76157C6.75983 9.77677 6.87929 9.78461 7.00059 9.78461C8.52226 9.78461 9.75582 8.55105 9.75582 7.02937C9.75582 6.90808 9.74798 6.78861 9.73279 6.67145L11.4932 4.911L13.725 6.77084C13.8682 6.89018 13.8682 7.11011 13.725 7.22945L9.82238 10.4817Z" fill="#84888C"/>
</svg>
