<svg width="24" height="24" viewBox="0 0 24 24" fill="none" xmlns="http://www.w3.org/2000/svg">
<path d="M4.00004 2C3.7239 2 3.50004 2.22386 3.50004 2.5V4.5C3.50004 4.77614 3.7239 5 4.00004 5H20C20.2762 5 20.5 4.77614 20.5 4.5V2.5C20.5 2.22386 20.2762 2 20 2H4.00004Z" fill="#303236"/>
<path d="M5.62766 13.693L11.2107 6.51488C11.611 6.00014 12.389 6.00013 12.7894 6.51488L14.6652 8.92663L18.373 5.69726C18.5812 5.51589 18.897 5.53767 19.0784 5.74591L20.392 7.25407C20.5733 7.4623 20.5516 7.77814 20.3433 7.9595L5.5974 20.8027C5.38917 20.9841 5.07334 20.9623 4.89197 20.7541L3.57841 19.2459C3.39705 19.0377 3.41883 18.7218 3.62706 18.5405L8.26613 14.5H6.02234C5.60627 14.5 5.37222 14.0215 5.62766 13.693Z" fill="#303236"/>
<path d="M15.1942 14.5L17.4676 12.5297L18.3724 13.693C18.6278 14.0215 18.3938 14.5 17.9777 14.5H15.1942Z" fill="#303236"/>
<path d="M10 19.0016L14 15.5349V21C14 21.5523 13.5523 22 13 22H11C10.4477 22 10 21.5523 10 21V19.0016Z" fill="#303236"/>
</svg>
