<svg width="24" height="24" viewBox="0 0 24 24" fill="none" xmlns="http://www.w3.org/2000/svg">
<path fill-rule="evenodd" clip-rule="evenodd" d="M12 22C17.5228 22 22 17.5228 22 12C22 6.47715 17.5228 2 12 2C6.47715 2 2 6.47715 2 12C2 17.5228 6.47715 22 12 22ZM13.4043 9.69101H13.5101C13.322 10.61 13.0595 11.4974 12.7978 12.3818C12.3983 13.7319 12.0009 15.075 11.8736 16.513C11.9041 16.5435 11.917 16.5565 11.9326 16.562C11.9441 16.566 11.957 16.566 11.9795 16.566C12.4457 16.7527 12.7838 16.2445 13.0693 15.8154C13.2687 15.5159 13.4423 15.2549 13.616 15.296C14.0922 15.402 13.2995 16.248 13.1936 16.354C12.7713 16.883 11.9795 17.835 11.0289 17.835C10.342 17.835 9.65499 17.414 9.76085 16.301C9.83003 15.5736 10.1248 14.645 10.4091 13.7494C10.5598 13.2747 10.7076 12.8093 10.8172 12.388C10.841 12.2978 10.8656 12.2088 10.8897 12.1216C11.1341 11.2379 11.328 10.537 10.0784 10.537V10.272C10.5536 10.087 11.1476 10.0343 11.7416 9.98152C12.3356 9.92877 12.9295 9.87603 13.4043 9.69101ZM12.4421 6.39617C12.6332 6.26827 12.8579 6.2 13.0878 6.2C13.3952 6.20261 13.6893 6.32609 13.9067 6.54381C14.1241 6.76154 14.2474 7.0561 14.25 7.364C14.25 7.59422 14.1818 7.81927 14.0541 8.01069C13.9264 8.20211 13.7449 8.3513 13.5325 8.4394C13.3202 8.5275 13.0865 8.55055 12.861 8.50564C12.6356 8.46073 12.4285 8.34987 12.266 8.18708C12.1034 8.02429 11.9927 7.81688 11.9479 7.59109C11.903 7.36529 11.926 7.13125 12.014 6.91856C12.102 6.70586 12.2509 6.52407 12.4421 6.39617Z" fill="#303236"/>
</svg>
