<svg width="24" height="24" viewBox="0 0 24 24" fill="none" xmlns="http://www.w3.org/2000/svg">
<path d="M10.3244 20.7368C10.6854 21.0385 11.0567 21.3228 11.4355 21.5983C11.7725 21.8435 12.2287 21.8452 12.5652 21.5993C12.9435 21.3228 13.3137 21.0352 13.6756 20.7368C14.576 19.988 15.4234 19.176 16.2116 18.3068C18.0284 16.2946 20 13.3775 20 10.103C20 9.0389 19.7931 7.98522 19.391 7.00211C18.989 6.01901 18.3997 5.12575 17.6569 4.37331C16.914 3.62088 16.0321 3.02402 15.0615 2.6168C14.0909 2.20959 13.0506 2 12 2C10.9494 2 9.90914 2.20959 8.93853 2.6168C7.96793 3.02402 7.08601 3.62088 6.34315 4.37331C5.60028 5.12575 5.011 6.01901 4.60896 7.00211C4.20693 7.98522 4 9.0389 4 10.103C4 13.3775 5.97156 16.2937 7.78844 18.3068C8.57655 19.1763 9.42397 19.9877 10.3244 20.7368ZM12 13.0291C11.2338 13.0291 10.499 12.7208 9.95725 12.1721C9.41548 11.6233 9.11111 10.879 9.11111 10.103C9.11111 9.32695 9.41548 8.58269 9.95725 8.03395C10.499 7.4852 11.2338 7.17692 12 7.17692C12.7662 7.17692 13.501 7.4852 14.0428 8.03395C14.5845 8.58269 14.8889 9.32695 14.8889 10.103C14.8889 10.879 14.5845 11.6233 14.0428 12.1721C13.501 12.7208 12.7662 13.0291 12 13.0291Z" fill="#303236"/>
</svg>
