<svg width="24" height="24" viewBox="0 0 24 24" fill="none" xmlns="http://www.w3.org/2000/svg">
<path d="M9.81409 16.8496C9.63557 16.9567 9.46753 17.0805 9.3122 17.2191C9.11077 17.4024 9.11043 17.5021 9.17174 17.5438C9.25931 17.6034 9.43009 17.5452 9.61502 17.2161C9.68137 17.0982 9.74773 16.9756 9.81409 16.8496Z" fill="#303236"/>
<path d="M14.124 16.0287C14.3783 16.315 14.5797 16.4909 14.6774 16.5158C14.9886 16.5946 15.0877 16.4851 15.0361 16.3949C14.9539 16.2524 14.5912 16.1143 14.124 16.0287Z" fill="#303236"/>
<path d="M11.9116 14.5102L11.8954 14.5594L11.8799 14.5291L11.7802 14.7878C11.7405 14.8889 11.7004 14.9899 11.6593 15.091L11.6866 15.0819L11.6505 15.1614L11.827 15.1267C11.9591 15.1021 12.0911 15.0809 12.2222 15.0633L12.1838 15.0094L12.2137 15.0088L12.1278 14.8707C12.0547 14.7518 11.9823 14.6315 11.9116 14.5102Z" fill="#303236"/>
<path d="M11.5559 10.9509C11.5266 11.0041 11.5155 11.126 11.5323 11.2432C11.5609 11.4386 11.6253 11.6771 11.7209 11.9479C11.7876 11.6269 11.7907 11.3362 11.7391 11.121C11.7264 11.0594 11.704 11.0003 11.6728 10.9458C11.5751 10.9283 11.5653 10.9337 11.5559 10.9509Z" fill="#303236"/>
<path fill-rule="evenodd" clip-rule="evenodd" d="M6 2C4.89543 2 4 2.89543 4 4V20C4 21.1046 4.89543 22 6 22H18C19.1046 22 20 21.1046 20 20V7H16.5C15.6716 7 15 6.32843 15 5.5V2H6ZM11.9045 10.0296C12.6355 10.1731 12.879 11.1961 12.6136 12.273C12.5269 12.6162 12.4283 12.9563 12.3178 13.2926L12.2451 13.1511L12.3384 13.333C12.6384 13.9075 12.9713 14.4642 13.3354 15.0003C14.4642 15.0273 15.502 15.3129 15.8536 15.925C16.3481 16.7856 15.5175 17.7015 14.4456 17.43C14.0017 17.3175 13.4658 16.7876 12.852 15.9506C12.3056 15.9799 11.7157 16.0886 11.1544 16.2623C10.9336 16.7433 10.6943 17.2157 10.4369 17.6782C10.0004 18.455 9.22597 18.7207 8.64155 18.3239C8.04602 17.9191 8.04804 17.0941 8.67725 16.5219C9.12186 16.1173 9.74362 15.7674 10.461 15.5019L10.5026 15.4093C10.7951 14.7385 11.0608 14.0565 11.2992 13.3647C10.924 12.5913 10.6761 11.9041 10.5993 11.3797C10.5551 11.0778 10.5848 10.7602 10.7289 10.4971C10.9476 10.0993 11.374 9.92552 11.9045 10.0296Z" fill="#303236"/>
</svg>
