<svg width="24" height="24" viewBox="0 0 24 24" fill="none" xmlns="http://www.w3.org/2000/svg">
<path d="M9.49998 3.64258L9.49998 20.484C9.49998 20.9087 9.004 21.14 8.67864 20.867L3.17929 16.2538C2.82163 15.9537 3.03379 15.3707 3.50063 15.3707L7.04219 15.3707L7.04219 3.64258C7.04219 3.28769 7.32989 3 7.68477 3H8.8574C9.21229 3 9.49998 3.2877 9.49998 3.64258Z" fill="#303236"/>
<path fill-rule="evenodd" clip-rule="evenodd" d="M15.276 3.5023C15.3605 3.26219 15.5874 3.10155 15.8419 3.10155H16.902C17.1565 3.10155 17.3833 3.26207 17.4679 3.50206L19.7498 9.97478C19.8874 10.3651 19.5978 10.7743 19.1839 10.7743H18.6304C18.3726 10.7743 18.1437 10.6097 18.0616 10.3654L17.5964 8.98095H15.1499L14.6857 10.3651C14.6037 10.6095 14.3747 10.7743 14.1168 10.7743H13.5632C13.1494 10.7743 12.8599 10.3653 12.9973 9.97503L15.276 3.5023ZM16.372 5.33686L15.639 7.52271H17.1065L16.372 5.33686Z" fill="#303236"/>
<path fill-rule="evenodd" clip-rule="evenodd" d="M13.3946 20.1288V19.8452C13.3946 19.6925 13.4445 19.5439 13.5368 19.4222L16.829 15.0811H14.0733C13.6867 15.0811 13.3733 14.7677 13.3733 14.3811V14.0767C13.3733 13.6901 13.6867 13.3767 14.0733 13.3767H18.6568C19.0434 13.3767 19.3568 13.6901 19.3568 14.0767V14.3604C19.3568 14.513 19.3069 14.6615 19.2148 14.7831L15.9256 19.1244H18.8733C19.2599 19.1244 19.5733 19.4378 19.5733 19.8244V20.1288C19.5733 20.5154 19.2599 20.8288 18.8733 20.8288H14.0946C13.708 20.8288 13.3946 20.5154 13.3946 20.1288Z" fill="#303236"/>
</svg>
