<svg width="24" height="24" viewBox="0 0 24 24" fill="none" xmlns="http://www.w3.org/2000/svg">
<path d="M10.1042 2.91732C9.80846 3.87803 9.0068 5.60546 6.83339 7.89652C3.06555 11.8546 2.56852 18.2319 8.34587 21.3665C8.73492 21.5989 9.23074 21.5057 9.51452 21.1469C10.4979 20.0978 10.9255 18.5594 10.7972 16.5319C10.7616 15.9738 11.0056 15.8274 11.4884 16.2098C12.8601 17.2931 13.7544 18.9547 13.7544 20.7553C13.7544 21.3665 13.9932 21.6886 14.5508 21.5788C18.2367 20.8468 22.726 15.4541 17.8875 7.55432C17.5971 7.15357 17.1749 7.15357 17.1749 7.70438C17.1836 8.38252 17.1076 9.05902 16.9486 9.71728C16.8382 10.1748 16.4142 10.1693 16.318 9.71728C15.7147 6.96997 14.0377 4.63683 11.2871 2.71786C10.546 2.19816 10.2752 2.35188 10.1042 2.91732Z" fill="#F7594B"/>
</svg>
