<svg width="24" height="24" viewBox="0 0 24 24" fill="none" xmlns="http://www.w3.org/2000/svg">
<path fill-rule="evenodd" clip-rule="evenodd" d="M8.04883 4.5C7.57258 4.5 7.12463 4.72616 6.84186 5.10937L2.19535 11.4062C1.93488 11.7592 1.93488 12.2408 2.19535 12.5938L6.84186 18.8906C7.12463 19.2738 7.57258 19.5 8.04883 19.5H20.2572C21.0856 19.5 21.7572 18.8284 21.7572 18V6C21.7572 5.17157 21.0856 4.5 20.2572 4.5H8.04883ZM14.988 12L17.7572 9.23079L16.5264 8.00002L13.7572 10.7692L10.988 8L9.75725 9.23076L12.5265 12L9.75722 14.7692L10.988 16L13.7572 13.2307L16.5265 16L17.7572 14.7692L14.988 12Z" fill="#303236"/>
</svg>
