<svg width="24" height="24" viewBox="0 0 24 24" fill="none" xmlns="http://www.w3.org/2000/svg">
<path d="M20.8179 5.53413C21.1999 5.16201 21.2227 4.55563 20.8697 4.15592L20.1096 3.29522C19.7287 2.86384 19.0631 2.84224 18.655 3.248L13.5 8.37322L10.433 5.19864C10.0571 4.80956 9.43996 4.78997 9.04014 5.15442L3.22282 10.4573C2.82105 10.8236 2.78547 11.4437 3.14272 11.8535L3.91341 12.7375C4.27928 13.1572 4.91745 13.1973 5.33291 12.8266L9.75805 8.8788L12.8021 11.9576C13.1884 12.3483 13.8175 12.3542 14.211 11.9708L20.8179 5.53413Z" fill="#303236"/>
<path d="M3.5 20.5C3.5 21.0523 3.94771 21.5 4.5 21.5H5.5C6.05228 21.5 6.5 21.0523 6.5 20.5V15.5C6.5 14.9477 6.05228 14.5 5.5 14.5H4.5C3.94771 14.5 3.5 14.9477 3.5 15.5V20.5Z" fill="#303236"/>
<path d="M12 21.5C11.4477 21.5 11 21.0523 11 20.5V15.5C11 14.9477 11.4477 14.5 12 14.5H13C13.5523 14.5 14 14.9477 14 15.5V20.5C14 21.0523 13.5523 21.5 13 21.5H12Z" fill="#303236"/>
<path d="M18.5 20.5C18.5 21.0523 18.9477 21.5 19.5 21.5H20.5C21.0523 21.5 21.5 21.0523 21.5 20.5V12.5C21.5 11.9477 21.0523 11.5 20.5 11.5H19.5C18.9477 11.5 18.5 11.9477 18.5 12.5V20.5Z" fill="#303236"/>
</svg>
