<svg width="24" height="24" viewBox="0 0 24 24" fill="none" xmlns="http://www.w3.org/2000/svg">
<path d="M11.3598 9.92887L13.3682 7.8954C13.5439 7.71967 13.7448 7.49372 13.9456 7.24268C14.1464 7.01674 14.3724 6.8159 14.5983 6.64017C15.0251 6.2636 15.5272 5.93724 16.1548 5.93724C16.7071 5.93724 17.1841 6.18828 17.5356 6.51464C17.887 6.841 18.0879 7.31799 18.0879 7.87029C18.0879 8.09623 18.0628 8.34728 17.9874 8.52301C17.8117 8.87448 17.6611 9.12552 17.5105 9.32636C17.4351 9.42678 17.3598 9.5272 17.3598 9.62761C17.3598 9.70293 17.3598 9.77824 17.41 9.80335C17.6862 10.4812 17.887 11.0586 18.0126 11.7615C18.0879 12.0377 18.2385 12.1632 18.4895 12.1632C18.59 12.1632 18.6904 12.1381 18.7908 12.0628C18.9916 11.9372 19.1674 11.7364 19.3431 11.5356C19.4435 11.4351 19.5188 11.3347 19.569 11.2845C20.4728 10.4059 21 9.15063 21 7.87029C21 6.51464 20.4477 5.30962 19.569 4.43096C18.6904 3.57741 17.4603 3 16.1548 3C14.8494 3 13.5941 3.5272 12.7155 4.45607L9.27615 7.87029C8.37239 8.79916 7.87029 10.0042 7.87029 11.2845C7.87029 11.6611 8.02092 12.4393 8.27197 13.1674C8.52301 13.8703 8.84937 14.4979 9.27615 14.4979C9.50209 14.4979 9.97908 14.1213 10.3808 13.6946C10.7824 13.2678 11.1841 12.7908 11.1841 12.6151C11.1841 12.4895 11.0837 12.3389 10.9833 12.113C10.8577 11.887 10.8075 11.6109 10.8075 11.2845C10.8075 10.7824 11.0084 10.2803 11.3598 9.92887ZM11.2845 19.569L14.7238 16.1548C15.6276 15.2762 16.1297 13.9958 16.1297 12.7155C16.1297 12.3389 15.9791 11.5858 15.728 10.8577C15.5021 10.1548 15.1506 9.50209 14.7238 9.50209C14.5481 9.50209 14.0209 9.90377 13.6444 10.3305C13.2176 10.7573 12.8159 11.2092 12.8159 11.3849C12.8159 11.5105 12.8912 11.7113 13.0167 11.9121C13.1423 12.1381 13.2427 12.3891 13.2427 12.7155C13.2176 13.2176 13.0167 13.7197 12.6653 14.1213L10.6318 16.1297C10.4561 16.3305 10.2552 16.5314 10.0544 16.7573L9.42678 17.3849C9 17.7866 8.4728 18.0628 7.84519 18.0628C6.79079 18.0628 5.93724 17.2343 5.93724 16.1548C5.93724 15.9038 5.98745 15.6778 6.06276 15.5021C6.21339 15.1506 6.36402 14.8996 6.53975 14.6987C6.61506 14.5983 6.64017 14.4979 6.64017 14.4226C6.64017 14.3724 6.61506 14.3222 6.58996 14.2218C6.2887 13.5439 6.11297 12.9665 5.98745 12.2636C5.93724 12.1381 5.91213 12.0377 5.83682 11.9874C5.76151 11.887 5.63598 11.8619 5.51046 11.8619C5.41004 11.8619 5.33473 11.887 5.23431 11.9623C5.03347 12.0879 4.83264 12.2887 4.6569 12.4895C4.58159 12.59 4.48117 12.6653 4.43096 12.7155C3.5272 13.6192 3 14.8745 3 16.1548C3 17.4854 3.5272 18.7155 4.43096 19.5941C5.30962 20.4728 6.51464 21 7.84519 21C9.15063 21 10.4059 20.4979 11.2845 19.569Z" fill="#303236"/>
</svg>
