<svg width="24" height="24" viewBox="0 0 24 24" fill="none" xmlns="http://www.w3.org/2000/svg">
<path d="M4.26756 4.14493C4.47042 3.95175 4.7933 3.95163 4.99608 4.14493L12.8418 11.6322C13.0527 11.8335 13.0527 12.1663 12.8418 12.3676L4.99608 19.8549C4.79325 20.0484 4.47046 20.0483 4.26756 19.8549L3.15819 18.7963C2.94741 18.595 2.94742 18.2632 3.15819 18.0619L9.50975 12.0004L3.15819 5.93887C2.94727 5.73759 2.94727 5.4048 3.15819 5.20352L4.26756 4.14493Z" fill="#303236"/>
<path d="M12.2676 4.14493C12.4704 3.95175 12.7933 3.95163 12.9961 4.14493L20.8418 11.6322C21.0527 11.8335 21.0527 12.1663 20.8418 12.3676L12.9961 19.8549C12.7933 20.0484 12.4705 20.0483 12.2676 19.8549L11.1582 18.7963C10.9474 18.595 10.9474 18.2632 11.1582 18.0619L17.5097 12.0004L11.1582 5.93887C10.9473 5.73759 10.9473 5.4048 11.1582 5.20352L12.2676 4.14493Z" fill="#303236"/>
</svg>
