<svg width="24" height="24" viewBox="0 0 24 24" fill="none" xmlns="http://www.w3.org/2000/svg">
<path d="M6.50556 10.7143C7.01667 8.14286 9.31667 6.21429 12 6.21429C13.6807 6.21429 15.0667 6.90636 16.0718 8.03042C16.2884 8.27268 16.6751 8.28837 16.8848 8.04011L18.3707 6.28116C18.5286 6.09424 18.5293 5.81928 18.3606 5.64201C16.8206 4.02322 14.5233 3 12 3C7.52778 3 3.82222 6.34286 3.18333 10.7143H1.59741C1.16855 10.7143 0.938699 11.2188 1.22011 11.5424L4.59493 15.4233C4.79424 15.6525 5.1502 15.6525 5.34952 15.4233L8.72433 11.5424C9.00574 11.2188 8.77589 10.7143 8.34704 10.7143H6.50556ZM19.4051 8.57673C19.2058 8.34753 18.8498 8.34753 18.6505 8.57673L15.2757 12.4576C14.9943 12.7812 15.2241 13.2857 15.653 13.2857H17.4944C16.8556 15.8571 14.6833 17.7857 12 17.7857C10.3131 17.7857 8.92321 17.0886 7.9173 15.9573C7.70483 15.7184 7.3263 15.698 7.11382 15.937L5.63499 17.6C5.47347 17.7817 5.46472 18.0544 5.6261 18.2362C7.16623 19.9709 9.46948 21 12 21C16.4722 21 20.1778 17.6571 20.8167 13.2857H22.4026C22.8314 13.2857 23.0613 12.7812 22.7799 12.4576L19.4051 8.57673Z" fill="#303236"/>
</svg>
