<svg width="24" height="24" viewBox="0 0 24 24" fill="none" xmlns="http://www.w3.org/2000/svg">
<path fill-rule="evenodd" clip-rule="evenodd" d="M12.9626 3.05861C12.5399 2.3138 11.4601 2.3138 11.0374 3.05861L8.56575 7.41414C8.40807 7.692 8.13649 7.88798 7.8217 7.95107L2.88738 8.93994C2.04359 9.10904 1.7099 10.1291 2.29246 10.7585L5.69922 14.4393C5.91655 14.6741 6.02028 14.9912 5.98342 15.308L5.4055 20.2747C5.30667 21.124 6.18029 21.7545 6.96301 21.3987L11.5402 19.318C11.8322 19.1852 12.1678 19.1852 12.4598 19.318L17.037 21.3987C17.8197 21.7545 18.6933 21.124 18.5945 20.2747L18.0166 15.308C17.9797 14.9912 18.0835 14.6741 18.3008 14.4393L21.7075 10.7585C22.2901 10.1291 21.9564 9.10904 21.1126 8.93994L16.1783 7.95107C15.8635 7.88798 15.5919 7.692 15.4343 7.41414L12.9626 3.05861Z" fill="#FEBE00"/>
</svg>
