<svg width="24" height="24" viewBox="0 0 24 24" fill="none" xmlns="http://www.w3.org/2000/svg">
<path fill-rule="evenodd" clip-rule="evenodd" d="M15.4936 4.37915C14.9314 4.34619 14.2944 4.53261 13.6756 5.14937L6.34823 12.4525C5.32242 13.4749 4.98424 14.5644 5.04255 15.5524C5.10235 16.5655 5.58569 17.5555 6.34823 18.3156C7.1107 19.0755 8.10529 19.5585 9.12478 19.6183C10.1195 19.6766 11.2144 19.3381 12.2403 18.3156L18.8476 11.7301C19.2453 11.3337 19.889 11.3348 20.2853 11.7325C20.6817 12.1301 20.6806 12.7738 20.283 13.1702L13.6756 19.7556C12.259 21.1675 10.6062 21.7419 9.00578 21.648C7.43016 21.5557 5.98229 20.8215 4.91291 19.7556C3.84361 18.6899 3.10572 17.2455 3.01287 15.6722C2.91852 14.0736 3.49626 12.4244 4.91291 11.0124L12.2403 3.70929C13.2498 2.70312 14.4447 2.28095 15.6126 2.34942C16.7557 2.41644 17.7965 2.94775 18.5605 3.70929C19.3245 4.47076 19.8589 5.5094 19.9263 6.65166C19.9952 7.81913 19.5701 9.01189 18.5605 10.0181L11.2332 17.3213C10.6307 17.9217 9.89379 18.1917 9.15844 18.1486C8.44785 18.1069 7.81413 17.7785 7.35537 17.3213C6.89668 16.8641 6.56588 16.2312 6.5239 15.52C6.48044 14.7836 6.75287 14.0473 7.35537 13.4468L13.9627 6.86132C14.3604 6.46497 15.0041 6.46604 15.4004 6.86371C15.7968 7.26137 15.7957 7.90505 15.398 8.3014L8.79069 14.8869C8.57904 15.0978 8.54616 15.2744 8.55359 15.4002C8.5625 15.5512 8.63877 15.7298 8.79069 15.8812C8.94255 16.0325 9.12298 16.1098 9.27744 16.1189C9.40712 16.1265 9.58611 16.0922 9.79783 15.8812L17.1252 8.57804C17.7439 7.96136 17.9295 7.32833 17.8966 6.77145C17.8623 6.18936 17.5824 5.60508 17.1252 5.14937C16.668 4.69371 16.0805 4.41356 15.4936 4.37915Z" fill="#303236"/>
</svg>
