<svg width="24" height="24" viewBox="0 0 24 24" fill="none" xmlns="http://www.w3.org/2000/svg">
<path d="M4.14791 5.3245L3.11223 12.7181C3.00843 13.4592 3.5839 14.1209 4.33221 14.1209H6.99074C7.52233 14.1209 7.99396 14.4619 8.16056 14.9667L8.50218 16.0018L9.58224 19.4068C9.80871 20.1207 10.4151 20.6483 11.1535 20.7738L12.3913 20.9842C13.0628 21.0984 13.6756 20.5809 13.6756 19.8998V17.0612C13.6756 16.5023 13.9095 15.9689 14.3206 15.5902L15.9157 14.1209V3.20251H6.58786C5.35921 3.20251 4.31835 4.10774 4.14791 5.3245Z" fill="#303236"/>
<path d="M19.9157 14.2025C20.468 14.2025 20.9157 13.7548 20.9157 13.2025V4.20251C20.9157 3.65023 20.468 3.20251 19.9157 3.20251H17.9157V14.2025H19.9157Z" fill="#303236"/>
</svg>
