<svg width="24" height="24" viewBox="0 0 24 24" fill="none" xmlns="http://www.w3.org/2000/svg">
<path fill-rule="evenodd" clip-rule="evenodd" d="M10.8001 3C10.3583 3 10.0001 3.35817 10.0001 3.8V20.2C10.0001 20.6418 10.3583 21 10.8001 21H13.2001C13.6419 21 14.0001 20.6418 14.0001 20.2V3.8C14.0001 3.35817 13.6419 3 13.2001 3H10.8001ZM16.9999 9.8C16.9999 9.35817 17.3581 9 17.7999 9H20.1999C20.6417 9 20.9999 9.35817 20.9999 9.8V20.2C20.9999 20.6418 20.6417 21 20.1999 21H17.7999C17.3581 21 16.9999 20.6418 16.9999 20.2V9.8ZM3 12.8C3 12.3582 3.35817 12 3.8 12H6.2C6.64183 12 7 12.3582 7 12.8V20.2C7 20.6418 6.64183 21 6.2 21H3.8C3.35817 21 3 20.6418 3 20.2V12.8Z" fill="#303236"/>
</svg>
