<svg width="24" height="24" viewBox="0 0 24 24" fill="none" xmlns="http://www.w3.org/2000/svg">
<path fill-rule="evenodd" clip-rule="evenodd" d="M13 5.68633C13.4534 5.37009 13.75 4.84469 13.75 4.25C13.75 3.2835 12.9665 2.5 12 2.5C11.0335 2.5 10.25 3.2835 10.25 4.25C10.25 4.84469 10.5466 5.37009 11 5.68633V6.66016H5C4.44772 6.66016 4 7.10787 4 7.66016V11.5H2.5C2.22386 11.5 2 11.7239 2 12V15C2 15.2761 2.22386 15.5 2.5 15.5H4V20C4 20.5523 4.44772 21 5 21H19C19.5523 21 20 20.5523 20 20V15.5H21.5C21.7761 15.5 22 15.2761 22 15V12C22 11.7239 21.7761 11.5 21.5 11.5H20V7.66016C20 7.10787 19.5523 6.66016 19 6.66016H13V5.68633ZM10.125 14C10.125 14.8284 9.45343 15.5 8.625 15.5C7.79657 15.5 7.125 14.8284 7.125 14C7.125 13.1716 7.79657 12.5 8.625 12.5C9.45343 12.5 10.125 13.1716 10.125 14ZM16.875 14C16.875 14.8284 16.2034 15.5 15.375 15.5C14.5466 15.5 13.875 14.8284 13.875 14C13.875 13.1716 14.5466 12.5 15.375 12.5C16.2034 12.5 16.875 13.1716 16.875 14Z" fill="#303236"/>
</svg>
