<svg width="24" height="24" viewBox="0 0 24 24" fill="none" xmlns="http://www.w3.org/2000/svg">
<path d="M12.2793 10.752C12.6035 10.752 12.8659 10.8809 13.1162 11.1836C13.3798 11.5027 13.6094 12.0006 13.7832 12.6631C13.6585 12.9095 13.53 13.1533 13.3926 13.3868C12.9772 14.0922 12.5284 14.6796 12.0684 15.0811C11.6102 15.4808 11.1985 15.6484 10.8271 15.6485C10.5731 15.6485 10.4192 15.5868 10.3213 15.5196C10.2201 15.45 10.1226 15.3356 10.0439 15.1504C9.87661 14.7563 9.83826 14.127 10.0029 13.3985C10.1646 12.6836 10.4978 11.987 10.9297 11.4873C11.3609 10.9886 11.8256 10.7521 12.2793 10.752Z" fill="#303236"/>
<path fill-rule="evenodd" clip-rule="evenodd" d="M16.75 3.75003C18.9591 3.75003 20.75 5.54089 20.75 7.75003V16.75C20.75 18.9592 18.9591 20.75 16.75 20.75H7.75C5.54086 20.75 3.75 18.9592 3.75 16.75V9.45804C4.10197 10.2339 4.87639 10.75 5.75 10.75C6.70158 10.75 7.54454 10.1353 7.83887 9.23441L7.83789 9.23343L8.19043 8.16995L9.24707 7.81644L9.41211 7.75394C10.2185 7.40956 10.75 6.61331 10.75 5.72464C10.7498 4.88426 10.2737 4.12029 9.52832 3.75003H16.75ZM12.2793 8.95218C11.1453 8.95226 10.2227 9.55296 9.56836 10.3096C8.91498 11.0654 8.46387 12.0431 8.24707 13.002C8.03343 13.9472 8.02099 14.9932 8.38672 15.8545C8.57459 16.2967 8.87036 16.7065 9.30176 17.003C9.7367 17.3018 10.2567 17.4483 10.8271 17.4483C11.7751 17.4482 12.591 17.0142 13.252 16.4375C13.562 16.1669 13.8495 15.8529 14.1172 15.5147C14.1251 16.1705 14.0971 16.8249 14.0371 17.4307L15.8291 17.6084C15.9715 16.1703 15.9689 14.4156 15.6768 12.8799C16.2299 11.6758 16.6354 10.4578 16.8682 9.56058L15.126 9.10941C15.0302 9.47855 14.8998 9.90624 14.7432 10.3643C14.6675 10.2506 14.5887 10.1399 14.5029 10.0362C13.9691 9.39061 13.2254 8.95218 12.2793 8.95218Z" fill="#303236"/>
<path d="M5.08691 2.68167C5.27743 2.10611 6.22454 2.1061 6.41504 2.68167L7.00488 4.46292L8.77148 5.0557C9.05709 5.15158 9.2498 5.42012 9.25 5.72464C9.25 6.02936 9.05528 6.29863 8.76953 6.39456L7.00293 6.98734L6.41309 8.76859C6.31969 9.05446 6.05068 9.25003 5.75 9.25003C5.44932 9.25003 5.18218 9.05634 5.08691 8.76859L4.49707 6.98734L2.73047 6.39456C2.44472 6.29863 2.25 6.02936 2.25 5.72464C2.2502 5.42012 2.44486 5.15158 2.73047 5.0557L4.49707 4.46292L5.08691 2.68167Z" fill="#303236"/>
</svg>
