<svg width="24" height="24" viewBox="0 0 24 24" fill="none" xmlns="http://www.w3.org/2000/svg">
<path d="M4.8 2.5C4.63431 2.5 4.5 2.63431 4.5 2.8V4.7C4.5 4.86569 4.63431 5 4.8 5H6.7C6.86569 5 7 4.86569 7 4.7V2.8C7 2.63431 6.86569 2.5 6.7 2.5H4.8Z" fill="#303236"/>
<path d="M4.8 8C4.63431 8 4.5 8.13431 4.5 8.3V10.2C4.5 10.3657 4.63431 10.5 4.8 10.5H6.7C6.86569 10.5 7 10.3657 7 10.2V8.3C7 8.13431 6.86569 8 6.7 8H4.8Z" fill="#303236"/>
<path d="M4.5 13.8C4.5 13.6343 4.63431 13.5 4.8 13.5H6.7C6.86569 13.5 7 13.6343 7 13.8V15.7C7 15.8657 6.86569 16 6.7 16H4.8C4.63431 16 4.5 15.8657 4.5 15.7V13.8Z" fill="#303236"/>
<path d="M11.05 2.5C10.8843 2.5 10.75 2.63431 10.75 2.8V4.7C10.75 4.86569 10.8843 5 11.05 5H12.95C13.1157 5 13.25 4.86569 13.25 4.7V2.8C13.25 2.63431 13.1157 2.5 12.95 2.5H11.05Z" fill="#303236"/>
<path d="M10.75 8.3C10.75 8.13431 10.8843 8 11.05 8H12.95C13.1157 8 13.25 8.13431 13.25 8.3V10.2C13.25 10.3657 13.1157 10.5 12.95 10.5H11.05C10.8843 10.5 10.75 10.3657 10.75 10.2V8.3Z" fill="#303236"/>
<path d="M11.05 13.5C10.8843 13.5 10.75 13.6343 10.75 13.8V15.7C10.75 15.8657 10.8843 16 11.05 16H12.95C13.1157 16 13.25 15.8657 13.25 15.7V13.8C13.25 13.6343 13.1157 13.5 12.95 13.5H11.05Z" fill="#303236"/>
<path d="M10.75 19.3C10.75 19.1343 10.8843 19 11.05 19H12.95C13.1157 19 13.25 19.1343 13.25 19.3V21.2C13.25 21.3657 13.1157 21.5 12.95 21.5H11.05C10.8843 21.5 10.75 21.3657 10.75 21.2V19.3Z" fill="#303236"/>
<path d="M17.3 2.5C17.1343 2.5 17 2.63431 17 2.8V4.7C17 4.86569 17.1343 5 17.3 5H19.2C19.3657 5 19.5 4.86569 19.5 4.7V2.8C19.5 2.63431 19.3657 2.5 19.2 2.5H17.3Z" fill="#303236"/>
<path d="M17 8.3C17 8.13431 17.1343 8 17.3 8H19.2C19.3657 8 19.5 8.13431 19.5 8.3V10.2C19.5 10.3657 19.3657 10.5 19.2 10.5H17.3C17.1343 10.5 17 10.3657 17 10.2V8.3Z" fill="#303236"/>
<path d="M17.3 13.5C17.1343 13.5 17 13.6343 17 13.8V15.7C17 15.8657 17.1343 16 17.3 16H19.2C19.3657 16 19.5 15.8657 19.5 15.7V13.8C19.5 13.6343 19.3657 13.5 19.2 13.5H17.3Z" fill="#303236"/>
</svg>
