<svg width="24" height="24" viewBox="0 0 24 24" fill="none" xmlns="http://www.w3.org/2000/svg">
<path d="M10 3.5C10 3.22386 10.2239 3 10.5 3H13.5C13.7761 3 14 3.22386 14 3.5V11H16.3647C16.7998 11 17.0273 11.5172 16.7333 11.8379L12.7385 16.1958C12.3422 16.6282 11.6605 16.6282 11.2642 16.1958L7.2694 11.8379C6.97543 11.5172 7.20293 11 7.63798 11H10V3.5Z" fill="#303236"/>
<path d="M3.5 14C3.22386 14 3 14.2239 3 14.5V19C3 20.1046 3.89543 21 5 21H19C20.1046 21 21 20.1046 21 19V14.5C21 14.2239 20.7761 14 20.5 14H18.5C18.2239 14 18 14.2239 18 14.5V18H6V14.5C6 14.2239 5.77614 14 5.5 14H3.5Z" fill="#303236"/>
</svg>
