<svg width="24" height="24" viewBox="0 0 24 24" fill="none" xmlns="http://www.w3.org/2000/svg">
<path d="M6.4 4.69998C6.4 5.63885 5.63888 6.39995 4.7 6.39995C3.76112 6.39995 3 5.63885 3 4.69998C3 3.76111 3.76112 3 4.7 3C5.63888 3 6.4 3.76111 6.4 4.69998Z" fill="#303236"/>
<path d="M6.4 11.9998C6.4 12.9387 5.63888 13.6998 4.7 13.6998C3.76112 13.6998 3 12.9387 3 11.9998C3 11.0609 3.76112 10.2998 4.7 10.2998C5.63888 10.2998 6.4 11.0609 6.4 11.9998Z" fill="#303236"/>
<path d="M4.7 21.0001C5.63888 21.0001 6.4 20.2389 6.4 19.3001C6.4 18.3612 5.63888 17.6001 4.7 17.6001C3.76112 17.6001 3 18.3612 3 19.3001C3 20.2389 3.76112 21.0001 4.7 21.0001Z" fill="#303236"/>
<path d="M13.6999 4.69999C13.6999 5.63886 12.9388 6.39997 11.9999 6.39997C11.061 6.39997 10.2999 5.63886 10.2999 4.69999C10.2999 3.76111 11.061 3 11.9999 3C12.9388 3 13.6999 3.76111 13.6999 4.69999Z" fill="#303236"/>
<path d="M11.9999 13.6998C12.9388 13.6998 13.6999 12.9387 13.6999 11.9998C13.6999 11.0609 12.9388 10.2998 11.9999 10.2998C11.061 10.2998 10.2999 11.0609 10.2999 11.9998C10.2999 12.9387 11.061 13.6998 11.9999 13.6998Z" fill="#303236"/>
<path d="M13.6999 19.3001C13.6999 20.239 12.9388 21.0001 11.9999 21.0001C11.061 21.0001 10.2999 20.239 10.2999 19.3001C10.2999 18.3612 11.061 17.6001 11.9999 17.6001C12.9388 17.6001 13.6999 18.3612 13.6999 19.3001Z" fill="#303236"/>
<path d="M19.3 6.39997C20.2389 6.39997 21 5.63886 21 4.69999C21 3.76111 20.2389 3 19.3 3C18.3611 3 17.6 3.76111 17.6 4.69999C17.6 5.63886 18.3611 6.39997 19.3 6.39997Z" fill="#303236"/>
<path d="M21 11.9998C21 12.9387 20.2389 13.6998 19.3 13.6998C18.3611 13.6998 17.6 12.9387 17.6 11.9998C17.6 11.0609 18.3611 10.2998 19.3 10.2998C20.2389 10.2998 21 11.0609 21 11.9998Z" fill="#303236"/>
<path d="M19.3 21.0001C20.2389 21.0001 21 20.239 21 19.3001C21 18.3612 20.2389 17.6001 19.3 17.6001C18.3611 17.6001 17.6 18.3612 17.6 19.3001C17.6 20.239 18.3611 21.0001 19.3 21.0001Z" fill="#303236"/>
</svg>
