<svg width="24" height="24" viewBox="0 0 24 24" fill="none" xmlns="http://www.w3.org/2000/svg">
<path fill-rule="evenodd" clip-rule="evenodd" d="M5 3H12.8661H19C20.1046 3 21 3.89543 21 5V11.0926V19C21 20.1046 20.1046 21 19 21H12.8661H5C3.89543 21 3 20.1046 3 19V5C3 3.89543 3.89543 3 5 3ZM13.1986 9.17847C13.1986 9.82932 13.7263 10.3569 14.3771 10.3569C15.028 10.3569 15.5556 9.82932 15.5556 9.17847C15.5556 8.52762 15.028 8 14.3771 8C13.7263 8 13.1986 8.52762 13.1986 9.17847ZM13.8764 11.3208C13.222 11.168 12.6798 10.7232 12.3948 10.1312L9.87886 13.2276C10.5428 13.3545 11.1008 13.7798 11.4081 14.3585L13.8764 11.3208ZM5.52231 10.8298L7.61299 14.1971C7.96512 13.6516 8.55194 13.2718 9.23065 13.2005L7.13649 9.82764L5.52231 10.8298ZM16.259 10.3217C15.9202 10.8774 15.3419 11.2712 14.6675 11.3596L16.8853 14.8062L18.4831 13.7781L16.259 10.3217ZM8.28607 15.3886C8.28607 16.0395 8.81369 16.5671 9.46454 16.5671C10.1154 16.5671 10.643 16.0395 10.643 15.3886C10.643 14.7378 10.1154 14.2101 9.46454 14.2101C8.81369 14.2101 8.28607 14.7378 8.28607 15.3886Z" fill="#303236"/>
</svg>
