<svg width="24" height="24" viewBox="0 0 24 24" fill="none" xmlns="http://www.w3.org/2000/svg">
<path d="M19 3C19.5523 3 20 3.44772 20 4V9C20 9.55229 19.5523 10 19 10H14.875V9.125C14.875 7.53718 13.5878 6.25 12 6.25C10.4122 6.25 9.125 7.53718 9.125 9.125V10H5C4.44772 10 4 9.55228 4 9L4 4C4 3.44772 4.44772 3 5 3L19 3Z" fill="#303236"/>
<path d="M9.125 14H5C4.44772 14 4 14.4477 4 15L4 20C4 20.5523 4.44772 21 5 21H19C19.5523 21 20 20.5523 20 20V15C20 14.4477 19.5523 14 19 14L14.875 14V14.875C14.875 16.4628 13.5878 17.75 12 17.75C10.4122 17.75 9.125 16.4628 9.125 14.875V14Z" fill="#303236"/>
<path d="M12 8C12.8284 8 13.5 8.67157 13.5 9.5V14.5C13.5 15.3284 12.8284 16 12 16C11.1716 16 10.5 15.3284 10.5 14.5V9.5C10.5 8.67157 11.1716 8 12 8Z" fill="#303236"/>
<path fill-rule="evenodd" clip-rule="evenodd" d="M21.5 5.5C21.7761 5.5 22 5.72386 22 6V7C22 7.27614 21.7761 7.5 21.5 7.5H19.5C19.2239 7.5 19 7.27614 19 7V6C19 5.72386 19.2239 5.5 19.5 5.5L21.5 5.5ZM5 6C5 5.72386 4.77614 5.5 4.5 5.5H2.5C2.22386 5.5 2 5.72386 2 6L2 7C2 7.27614 2.22386 7.5 2.5 7.5H4.5C4.77614 7.5 5 7.27614 5 7V6ZM5 17C5 16.7239 4.77614 16.5 4.5 16.5H2.5C2.22386 16.5 2 16.7239 2 17L2 18C2 18.2761 2.22386 18.5 2.5 18.5H4.5C4.77614 18.5 5 18.2761 5 18V17ZM19 18C19 18.2761 19.2239 18.5 19.5 18.5H21.5C21.7761 18.5 22 18.2761 22 18V17C22 16.7239 21.7761 16.5 21.5 16.5H19.5C19.2239 16.5 19 16.7239 19 17V18Z" fill="#303236"/>
</svg>
