<svg width="24" height="24" viewBox="0 0 24 24" fill="none" xmlns="http://www.w3.org/2000/svg">
<path fill-rule="evenodd" clip-rule="evenodd" d="M21.5002 8.5454C21.5002 11.8842 18.7935 14.5908 15.4548 14.5908C12.116 14.5908 9.40936 11.8842 9.40936 8.5454C9.40936 5.20662 12.116 2.5 15.4548 2.5C18.7935 2.5 21.5002 5.20662 21.5002 8.5454ZM13.26 8.54522L15.4585 6.34678L17.6569 8.54522L15.4585 10.7437L13.26 8.54522Z" fill="#303236"/>
<path d="M7.19569 7.79271C7.14204 7.79083 7.08815 7.78989 7.03405 7.78989C4.52996 7.78989 2.5 9.81985 2.5 12.3239C2.5 14.828 4.52996 16.858 7.03405 16.858C8.50453 16.858 9.81151 16.158 10.6399 15.073C8.50122 14.0088 7.03168 11.8011 7.03168 9.25006C7.03168 8.74902 7.08837 8.26121 7.19569 7.79271Z" fill="#303236"/>
<path d="M20.9492 14.2633L3.25006 19.0058L3.74678 20.8596L11.1955 18.8637L9.27356 21.6093C9.15836 21.7739 9.2761 22.0001 9.47699 22.0001H15.5231C15.724 22.0001 15.8418 21.7739 15.7266 21.6093L13.3925 18.275L21.4459 16.1171L20.9492 14.2633Z" fill="#303236"/>
</svg>
