<svg width="24" height="24" viewBox="0 0 24 24" fill="none" xmlns="http://www.w3.org/2000/svg">
<path fill-rule="evenodd" clip-rule="evenodd" d="M17 10.5C19.7614 10.5 22 12.7386 22 15.5C22 18.2614 19.7614 20.5 17 20.5C14.2386 20.5 12 18.2614 12 15.5C12 12.7386 14.2386 10.5 17 10.5ZM16.3457 12.8262H15.9795C15.0561 12.8264 14.3076 13.5756 14.3076 14.499C14.3077 15.4224 15.0561 16.1706 15.9795 16.1709H18.0195C18.2222 16.1709 18.3866 16.3355 18.3867 16.5381C18.3867 16.7408 18.2222 16.9052 18.0195 16.9053H14.5527V18.2109H16.3457V19.1895H17.6514V18.2109H18.0195C18.9431 18.2109 19.6914 17.4617 19.6914 16.5381C19.6913 15.6146 18.943 14.8663 18.0195 14.8662H15.9795C15.777 14.866 15.6134 14.7015 15.6133 14.499C15.6133 14.2964 15.777 14.1321 15.9795 14.1318H19.4473V12.8262H17.6514V11.8105H16.3457V12.8262Z" fill="#303236"/>
<path d="M13.3936 10C11.3603 11.2248 10 13.4533 10 16C10 17.4877 10.4655 18.866 11.2568 20H4C2.89543 20 2.00001 19.1046 2 18V10H13.3936Z" fill="#303236"/>
<path d="M17.5 4C18.6046 4 19.5 4.89543 19.5 6V8H2V6C2 4.89543 2.89543 4 4 4H17.5Z" fill="#303236"/>
</svg>
