<svg width="24" height="24" viewBox="0 0 24 24" fill="none" xmlns="http://www.w3.org/2000/svg">
<path d="M11.9993 14.64C13.4601 14.64 14.6443 13.4558 14.6443 11.995C14.6443 10.5342 13.4601 9.35 11.9993 9.35C10.5385 9.35 9.35425 10.5342 9.35425 11.995C9.35425 13.4558 10.5385 14.64 11.9993 14.64Z" fill="#303236"/>
<path fill-rule="evenodd" clip-rule="evenodd" d="M0.47171 11.607L7.162 6.03175C9.96456 3.69629 14.0354 3.69628 16.838 6.03175L23.5283 11.607C23.7738 11.8116 23.7738 12.1886 23.5283 12.3932L16.838 17.9684C14.0355 20.3039 9.96456 20.3039 7.162 17.9684L0.471711 12.3932C0.226227 12.1886 0.226227 11.8116 0.47171 11.607ZM16.7254 12.0505C16.7254 14.6591 14.6107 16.7738 12.0021 16.7738C9.39357 16.7738 7.27889 14.6591 7.27889 12.0505C7.27889 9.44196 9.39357 7.32729 12.0021 7.32729C14.6107 7.32729 16.7254 9.44196 16.7254 12.0505Z" fill="#303236"/>
</svg>
