<svg width="24" height="24" viewBox="0 0 24 24" fill="none" xmlns="http://www.w3.org/2000/svg">
<path d="M2 6C2 4.89543 2.89543 4 4 4H20C21.1046 4 22 4.89543 22 6V8H2V6Z" fill="#303236"/>
<path fill-rule="evenodd" clip-rule="evenodd" d="M2 10H22V18C22 19.1046 21.1046 20 20 20H4C2.89543 20 2 19.1046 2 18V10ZM14.75 15C14.75 14.0336 15.5334 13.2501 16.4998 13.25V15H18.3298V13.1699H16.5V11.75C14.7051 11.75 13.25 13.2051 13.25 15C13.25 16.7949 14.7051 18.25 16.5 18.25C18.2949 18.25 19.75 16.7949 19.75 15H18.25C18.25 15.9665 17.4665 16.75 16.5 16.75C15.5335 16.75 14.75 15.9665 14.75 15Z" fill="#303236"/>
</svg>
