<svg width="24" height="24" viewBox="0 0 24 24" fill="none" xmlns="http://www.w3.org/2000/svg">
<path d="M9.79197 2.8835C9.92457 2.48931 10.224 2.15098 10.636 2.09407C11.5403 1.96913 12.4575 1.96864 13.362 2.09261C13.7744 2.14915 14.0744 2.48777 14.2072 2.88238C14.3239 3.22944 14.4881 3.55987 14.6959 3.86399C15.0345 4.35934 15.4801 4.77219 15.9999 5.07192C16.5195 5.37193 17.1 5.55117 17.6984 5.59634C18.0655 5.62406 18.4335 5.60087 18.7922 5.52832C19.2007 5.44572 19.6443 5.53621 19.8996 5.86553C20.4594 6.58761 20.9175 7.38305 21.2613 8.22957C21.4177 8.61473 21.2744 9.04299 20.9994 9.35475C20.7572 9.62926 20.5532 9.93654 20.3937 10.2685C20.1341 10.8088 19.9993 11.4005 19.9992 12C19.9992 13.0151 20.3772 13.9418 21 14.647C21.2753 14.9588 21.4184 15.3874 21.2616 15.7726C20.9172 16.6184 20.4586 17.413 19.8986 18.1343C19.6432 18.4632 19.1999 18.5534 18.7918 18.4709C18.4331 18.3984 18.065 18.3752 17.6979 18.4029C17.0997 18.4481 16.5194 18.6272 15.9999 18.9271C15.4805 19.2267 15.0352 19.6393 14.6969 20.1343C14.489 20.4384 14.3248 20.7689 14.208 21.116C14.0754 21.5099 13.7762 21.8481 13.3645 21.9052C12.4604 22.0306 11.5433 22.0316 10.639 21.9082C10.226 21.8518 9.92572 21.5127 9.79304 21.1177C9.6765 20.7706 9.51252 20.4402 9.30491 20.136C8.96654 19.6403 8.52093 19.2271 8.00113 18.9271C7.4814 18.6272 6.90086 18.4482 6.30253 18.4032C5.93549 18.3756 5.56752 18.3988 5.2089 18.4715C4.80042 18.5542 4.3566 18.4637 4.10126 18.1343C3.54156 17.4123 3.08343 16.6169 2.73971 15.7704C2.5833 15.3853 2.72661 14.957 3.00161 14.6452C3.24376 14.3707 3.4478 14.0635 3.60727 13.7315C3.86687 13.1912 4.00169 12.5995 4.00176 12C4.00176 10.9847 3.62297 10.0584 2.99965 9.35286C2.72438 9.04129 2.58159 8.61278 2.73841 8.22775C3.08284 7.38209 3.54151 6.58756 4.10158 5.8664C4.35685 5.5377 4.79994 5.44738 5.20789 5.52976C5.56698 5.60227 5.93541 5.62531 6.30287 5.59736C6.90121 5.55184 7.48163 5.37226 8.00113 5.07192C8.52027 4.77217 8.96538 4.35954 9.30355 3.86456C9.51122 3.5606 9.6753 3.23035 9.79197 2.8835ZM12.0005 15.0006C12.796 15.0006 13.559 14.6846 14.1215 14.122C14.684 13.5595 15 12.7965 15 12.001C15 11.2055 14.684 10.4425 14.1215 9.87996C13.559 9.31743 12.796 9.0014 12.0005 9.0014C11.205 9.0014 10.442 9.31743 9.87951 9.87996C9.31699 10.4425 9.00097 11.2055 9.00097 12.001C9.00097 12.7965 9.31699 13.5595 9.87951 14.122C10.442 14.6846 11.205 15.0006 12.0005 15.0006Z" fill="#303236"/>
</svg>
