<svg width="24" height="24" viewBox="0 0 24 24" fill="none" xmlns="http://www.w3.org/2000/svg">
<path d="M2.18247 8.06624L6.9687 4.11733C7.29901 3.84481 7.80048 4.07736 7.80048 4.50305V6.94569H15.4074C19.0484 6.94569 22 9.868 22 13.4728C22 17.0777 19.0484 20 15.4074 20H6.82003C6.25987 20 5.80578 19.5504 5.80578 18.9958V17.9916C5.80578 17.4371 6.25987 16.9875 6.82003 16.9875H15.4074C17.3679 16.9875 18.9572 15.4139 18.9572 13.4728C18.9572 11.5318 17.3679 9.95822 15.4074 9.95822H7.80048V12.4009C7.80048 12.8266 7.29901 13.0591 6.9687 12.7866L2.18247 8.83767C1.93918 8.63694 1.93918 8.26697 2.18247 8.06624Z" fill="#303236"/>
</svg>
