<svg width="24" height="24" viewBox="0 0 24 24" fill="none" xmlns="http://www.w3.org/2000/svg">
<path fill-rule="evenodd" clip-rule="evenodd" d="M11.016 21.4927C11.6266 21.8378 12.3734 21.8378 12.984 21.4927L18.4679 18.3937C19.7236 17.6842 20.5 16.3536 20.5 14.9113V6.5348C20.5 5.68589 19.9641 4.92948 19.1632 4.64797L12.6632 2.36317C12.234 2.21228 11.766 2.21228 11.3368 2.36317L4.83677 4.64797C4.0359 4.92948 3.5 5.68589 3.5 6.5348V14.9113C3.5 16.3536 4.27643 17.6842 5.53207 18.3937L11.016 21.4927ZM14.4205 9.28619C14.4205 10.623 13.3368 11.7067 12 11.7067C10.6631 11.7067 9.57941 10.623 9.57941 9.28619C9.57941 7.94935 10.6631 6.86564 12 6.86564C13.3368 6.86564 14.4205 7.94935 14.4205 9.28619ZM7.84556 14.7797C7.67283 14.4918 7.74388 14.1285 7.9813 13.8911L8.29996 13.5725C8.60259 13.2698 9.01304 13.0998 9.44102 13.0998H14.559C14.987 13.0998 15.3974 13.2698 15.7 13.5724L16.0187 13.8911C16.2561 14.1285 16.3272 14.4918 16.1544 14.7797C15.3084 16.1902 13.7644 17.1341 12 17.1341C10.2356 17.1341 8.69162 16.1902 7.84556 14.7797Z" fill="#303236"/>
</svg>
