<svg width="24" height="24" viewBox="0 0 24 24" fill="none" xmlns="http://www.w3.org/2000/svg">
<g clip-path="url(#clip0_10360_369)">
<path d="M10.25 14.2832V15.5957H6.75V14.2832H10.25Z" fill="#DFE0E2"/>
<path d="M10.25 11.2207V12.5332H6.75V11.2207H10.25Z" fill="#DFE0E2"/>
<path d="M17.4688 14.2207V15.5332H14.8438V14.2207H17.4688Z" fill="#DFE0E2"/>
<path fill-rule="evenodd" clip-rule="evenodd" d="M12 0C18.6274 0 24 5.37258 24 12C24 18.6274 18.6274 24 12 24C5.37258 24 0 18.6274 0 12C0 5.37258 5.37258 0 12 0ZM12 5.12598C11.9999 4.49509 11.3524 4.07148 10.7744 4.32422L5.52441 6.62109C5.206 6.76044 5.00004 7.07528 5 7.42285V18.1631C5.00012 18.4391 5.22393 18.6631 5.5 18.6631H12V5.12598ZM13.8809 8.31348C13.5992 8.22546 13.3126 8.43542 13.3125 8.73047V18.6631H18.5C18.7761 18.6631 18.9999 18.4391 19 18.1631V10.5566C19 10.1739 18.751 9.83485 18.3857 9.7207L13.8809 8.31348Z" fill="#DFE0E2"/>
</g>
<defs>
<clipPath id="clip0_10360_369">
<rect width="24" height="24" fill="white"/>
</clipPath>
</defs>
</svg>
