<svg width="24" height="24" viewBox="0 0 24 24" fill="none" xmlns="http://www.w3.org/2000/svg">
<path fill-rule="evenodd" clip-rule="evenodd" d="M12 22C17.5228 22 22 17.5228 22 12C22 6.47715 17.5228 2 12 2C6.47715 2 2 6.47715 2 12C2 17.5228 6.47715 22 12 22ZM14.75 9C14.75 10.5188 13.5188 11.75 12 11.75C10.4812 11.75 9.25 10.5188 9.25 9C9.25 7.48122 10.4812 6.25 12 6.25C13.5188 6.25 14.75 7.48122 14.75 9ZM6.85104 16.0821C6.63697 15.7252 6.72502 15.275 7.01928 14.9807L7.41422 14.5858C7.78929 14.2107 8.298 14 8.82843 14H15.1716C15.702 14 16.2107 14.2107 16.5858 14.5858L16.9807 14.9807C17.275 15.275 17.363 15.7252 17.149 16.0821C16.1004 17.8301 14.1868 19 12 19C9.8132 19 7.89964 17.8301 6.85104 16.0821Z" fill="#DFE0E2"/>
</svg>
