<svg width="24" height="24" viewBox="0 0 24 24" fill="none" xmlns="http://www.w3.org/2000/svg">
<path d="M6.699 18.1579C6.98335 17.8722 7.43531 17.8571 7.76595 18.087C8.56872 18.6452 9.48737 19.0472 10.4782 19.2484C10.8665 19.3273 11.1673 19.6566 11.1673 20.0551V21.249C11.1673 21.7022 10.7829 22.0625 10.3381 21.9909C8.69932 21.7269 7.19244 21.0644 5.91919 20.1058C5.56237 19.8369 5.54847 19.3153 5.86378 18.9981L6.699 18.1579Z" fill="#303236"/>
<path d="M13.544 2.00911C18.3374 2.78137 22 6.9605 22 12C22 17.0395 18.3374 21.2186 13.544 21.9909C13.0993 22.0624 12.7148 21.7021 12.7148 21.249V20.0551C12.7148 19.6566 13.0156 19.3273 13.404 19.2484C16.7628 18.5661 19.2918 15.5799 19.2918 12C19.2918 8.42008 16.7628 5.43386 13.404 4.75159C13.0156 4.67272 12.7148 4.34338 12.7148 3.94486V2.75098C12.7148 2.29789 13.0993 1.93756 13.544 2.00911Z" fill="#303236"/>
<path d="M3.9334 12.7784C4.32957 12.7784 4.65697 13.0809 4.73537 13.4716C4.91653 14.374 5.26133 15.217 5.73683 15.9678C5.94632 16.2985 5.92281 16.7364 5.64717 17.0137L4.80388 17.863C4.48194 18.1868 3.95033 18.1634 3.68958 17.788C2.84091 16.566 2.25335 15.1469 2.00906 13.6124C1.93784 13.165 2.29609 12.7784 2.74655 12.7784H3.9334Z" fill="#303236"/>
<path d="M13.4876 7.15962C13.6329 7.03493 13.8523 7.1636 13.816 7.35218L13.0392 11.3716C13.015 11.497 13.1107 11.6139 13.2377 11.6139H15.8975C16.0227 11.6139 16.0803 11.7703 15.9852 11.852L10.1558 16.8454C10.0108 16.9696 9.7913 16.8421 9.8263 16.6539L10.6111 12.4338C10.6343 12.3089 10.5389 12.1938 10.4127 12.1936H7.98357C7.8584 12.1936 7.80067 12.0361 7.89592 11.9544L13.4876 7.15962Z" fill="#303236"/>
<path d="M3.88302 5.94243C4.15035 5.58347 4.66891 5.5695 4.98423 5.88669L5.81945 6.72686C6.10342 7.01291 6.11852 7.46755 5.88997 7.80014C5.33503 8.60768 4.93543 9.53175 4.73537 10.5284C4.65697 10.9191 4.32957 11.2216 3.9334 11.2216H2.74655C2.29609 11.2216 1.93784 10.835 2.00906 10.3876C2.27149 8.73902 2.93003 7.22324 3.88302 5.94243Z" fill="#303236"/>
<path d="M10.3381 2.00911C10.7829 1.93747 11.1673 2.29784 11.1673 2.75098V3.94486C11.1673 4.34338 10.8665 4.67272 10.4782 4.75159C9.581 4.93382 8.74304 5.28067 7.99667 5.75899C7.66789 5.9697 7.23261 5.94604 6.95692 5.66879L6.11263 4.81949C5.79093 4.49562 5.81405 3.96183 6.18719 3.6996C7.40197 2.8459 8.81267 2.25484 10.3381 2.00911Z" fill="#303236"/>
</svg>
