<svg width="24" height="24" viewBox="0 0 24 24" fill="none" xmlns="http://www.w3.org/2000/svg">
<path d="M12 11.084C14.2091 11.084 16 9.29312 16 7.08398C16 4.87485 14.2091 3.08398 12 3.08398C9.79086 3.08398 8 4.87485 8 7.08398C8 9.29312 9.79086 11.084 12 11.084Z" fill="#303236"/>
<path d="M13 13H8.76471C6.13323 13 4 15.1332 4 17.7647V19.4118C4 19.9641 4.44772 20.4118 5 20.4118L15 20.4118V17.0004C13.7856 16.0882 13 14.6358 13 13Z" fill="#303236"/>
<path fill-rule="evenodd" clip-rule="evenodd" d="M21 13C21 14.3538 20.1033 15.4981 18.8715 15.8715L20 17L19 18L20 19L18.2458 21L17 19.5V15.8293C15.8348 15.4175 15 14.3062 15 13C15 11.3431 16.3431 10 18 10C19.6569 10 21 11.3431 21 13ZM18 14C18.5523 14 19 13.5523 19 13C19 12.4477 18.5523 12 18 12C17.4477 12 17 12.4477 17 13C17 13.5523 17.4477 14 18 14Z" fill="#303236"/>
</svg>
