<svg width="24" height="24" viewBox="0 0 24 24" fill="none" xmlns="http://www.w3.org/2000/svg">
<path d="M12 17.6C13.1046 17.6 14 16.7045 14 15.6C14 14.4954 13.1046 13.6 12 13.6C10.8954 13.6 10 14.4954 10 15.6C10 16.7045 10.8954 17.6 12 17.6Z" fill="#303236"/>
<path fill-rule="evenodd" clip-rule="evenodd" d="M6 2C4.89543 2 4 2.89543 4 4V20C4 21.1046 4.89543 22 6 22H18C19.1046 22 20 21.1046 20 20V4C20 2.89543 19.1046 2 18 2H6ZM6 4H18V9H6V4ZM12 19.1C13.933 19.1 15.5 17.533 15.5 15.6C15.5 13.667 13.933 12.1 12 12.1C10.067 12.1 8.5 13.667 8.5 15.6C8.5 17.533 10.067 19.1 12 19.1Z" fill="#303236"/>
</svg>
