<svg width="24" height="24" viewBox="0 0 24 24" fill="none" xmlns="http://www.w3.org/2000/svg">
<path d="M4.56137 10.8104C3.98093 10.8104 3.68769 10.1109 4.0946 9.69695L11.4166 2.24875C11.7372 1.92262 12.2629 1.92262 12.5835 2.24875L19.9055 9.69695C20.3124 10.1109 20.0192 10.8104 19.4387 10.8104H15.5001V15.3965C15.5001 15.6727 15.2762 15.8965 15.0001 15.8965H9.00006C8.72392 15.8965 8.50006 15.6727 8.50006 15.3965V10.8104H4.56137Z" fill="#303236"/>
<path d="M16.0001 18.4482C16.0001 18.7244 15.7762 18.9482 15.5001 18.9482H8.50006C8.22392 18.9482 8.00006 18.7244 8.00006 18.4482V17.4138C8.00006 17.1376 8.22392 16.9138 8.50006 16.9138H15.5001C15.7762 16.9138 16.0001 17.1376 16.0001 17.4138V18.4482Z" fill="#303236"/>
<path d="M14.5001 21.9999C14.7762 21.9999 15.0001 21.7761 15.0001 21.4999V20.4655C15.0001 20.1893 14.7762 19.9655 14.5001 19.9655H9.50006C9.22392 19.9655 9.00006 20.1893 9.00006 20.4655V21.4999C9.00006 21.7761 9.22392 21.9999 9.50006 21.9999H14.5001Z" fill="#303236"/>
</svg>
