<svg width="24" height="24" viewBox="0 0 24 24" fill="none" xmlns="http://www.w3.org/2000/svg">
<path d="M14.4711 14.4381L12.6004 13.0631V15.7476L14.4711 14.4381Z" fill="#303236"/>
<path d="M12.6004 8.25237V10.9368L14.4711 9.56187L12.6004 8.25237Z" fill="#303236"/>
<path fill-rule="evenodd" clip-rule="evenodd" d="M6 3C4.34315 3 3 4.34315 3 6V18C3 19.6569 4.34315 21 6 21H18C19.6569 21 21 19.6569 21 18V6C21 4.34315 19.6569 3 18 3H6ZM11.4004 5.94758V10.6918L8.37231 8.46618L7.66163 9.43309L11.154 12L7.66163 14.5669L8.37231 15.5338L11.4004 13.3081V18.0524L16.5297 14.4619L13.1802 12L16.5297 9.53808L11.4004 5.94758Z" fill="#303236"/>
</svg>
