<svg width="24" height="24" viewBox="0 0 24 24" fill="none" xmlns="http://www.w3.org/2000/svg">
<path d="M18 9.5C18.2564 9.5 18.5071 9.47588 18.75 9.42979V13.8063C18.75 13.8591 18.7648 13.9109 18.7928 13.9557L20.524 16.7357C20.7315 17.0687 20.492 17.5 20.0996 17.5H3.90046C3.5081 17.5 3.26862 17.0687 3.47603 16.7357L5.20731 13.9557C5.23524 13.9109 5.25004 13.8591 5.25004 13.8063V9.25C5.25004 5.52208 8.27212 2.5 12 2.5C12.9974 2.5 13.9443 2.71632 14.7963 3.1046C14.2962 3.77234 14 4.60158 14 5.5C14 7.70914 15.7909 9.5 18 9.5Z" fill="#303236"/>
<path d="M9.27277 18.5C9.12214 18.5 9.00004 18.6221 9.00004 18.7727C9.00004 20.279 10.2211 21.5 11.7273 21.5H12.2728C13.779 21.5 15 20.279 15 18.7727C15 18.6221 14.8779 18.5 14.7273 18.5H9.27277Z" fill="#303236"/>
<path d="M18 8C19.3807 8 20.5 6.88071 20.5 5.5C20.5 4.11929 19.3807 3 18 3C16.6193 3 15.5 4.11929 15.5 5.5C15.5 6.88071 16.6193 8 18 8Z" fill="#303236"/>
</svg>
