<svg width="24" height="24" viewBox="0 0 24 24" fill="none" xmlns="http://www.w3.org/2000/svg">
<path fill-rule="evenodd" clip-rule="evenodd" d="M6 3C4.34315 3 3 4.34315 3 6V18C3 19.6569 4.34315 21 6 21H18C19.6569 21 21 19.6569 21 18V6C21 4.34315 19.6569 3 18 3H6ZM12.4666 6.22725C12.2446 5.92425 11.7554 5.92425 11.5334 6.22725L8.09512 10.7066C7.84668 11.0457 8.11383 11.5 8.5617 11.5H10.5714V17.4286C10.5714 17.7442 10.8273 18 11.1429 18H12.8571C13.1727 18 13.4286 17.7442 13.4286 17.4286L13.4286 11.5H15.4383C15.8862 11.5 16.1533 11.0457 15.9049 10.7066L12.4666 6.22725Z" fill="#F74B60"/>
</svg>
