<svg width="24" height="24" viewBox="0 0 24 24" fill="none" xmlns="http://www.w3.org/2000/svg">
<path d="M6.20706 2H17.7928C18.2383 2 18.4614 2.53857 18.1464 2.85355L16.2928 4.70711C16.1053 4.89464 16 5.149 16 5.41421V6.7387L17.6129 5.24098C17.8152 5.05308 18.1316 5.0648 18.3195 5.26715L19.6804 6.73274C19.8683 6.9351 19.8566 7.25146 19.6542 7.43936L6.38703 19.7589C6.18467 19.9468 5.86831 19.9351 5.68041 19.7327L4.3195 18.2672C4.1316 18.0648 4.14332 17.7484 4.34568 17.5605L6.02625 16H4.20706C3.76161 16 3.53852 15.4614 3.8535 15.1464L7.70706 11.2929C7.89459 11.1054 7.99995 10.851 7.99995 10.5858V5.41421C7.99995 5.149 7.89459 4.89464 7.70706 4.70711L5.8535 2.85355C5.53852 2.53857 5.7616 2 6.20706 2Z" fill="#303236"/>
<path d="M10.4999 18.5507L17.267 12.267L20.1464 15.1464C20.4614 15.4614 20.2383 16 19.7928 16H13.5V21.5C13.5 21.7761 13.2761 22 12.9999 22H10.9999C10.7238 22 10.4999 21.7761 10.4999 21.5V18.5507Z" fill="#303236"/>
</svg>
