<svg width="24" height="24" viewBox="0 0 24 24" fill="none" xmlns="http://www.w3.org/2000/svg">
<path d="M15 5.25C15 4.97386 15.2239 4.75 15.5 4.75H17.5C17.7761 4.75 18 4.97386 18 5.25V6.25H21.5C21.7761 6.25 22 6.47386 22 6.75V8.75C22 9.02614 21.7761 9.25 21.5 9.25H18V10.25C18 10.5261 17.7761 10.75 17.5 10.75H15.5C15.2239 10.75 15 10.5261 15 10.25V5.25Z" fill="#303236"/>
<path d="M2.5 6.25C2.22386 6.25 2 6.47386 2 6.75V8.75C2 9.02614 2.22386 9.25 2.5 9.25H12.5C12.7761 9.25 13 9.02614 13 8.75V6.75C13 6.47386 12.7761 6.25 12.5 6.25H2.5Z" fill="#303236"/>
<path d="M9 13.75C9 13.4739 8.77614 13.25 8.5 13.25H6.5C6.22386 13.25 6 13.4739 6 13.75V14.75H2.5C2.22386 14.75 2 14.9739 2 15.25V17.25C2 17.5261 2.22386 17.75 2.5 17.75H6V18.75C6 19.0261 6.22386 19.25 6.5 19.25H8.5C8.77614 19.25 9 19.0261 9 18.75V13.75Z" fill="#303236"/>
<path d="M21.5 14.75C21.7761 14.75 22 14.9739 22 15.25V17.25C22 17.5261 21.7761 17.75 21.5 17.75H11.5C11.2239 17.75 11 17.5261 11 17.25V15.25C11 14.9739 11.2239 14.75 11.5 14.75H21.5Z" fill="#303236"/>
</svg>
