<svg width="24" height="24" viewBox="0 0 24 24" fill="none" xmlns="http://www.w3.org/2000/svg">
<path fill-rule="evenodd" clip-rule="evenodd" d="M3.29301 18.5858C3.09774 18.7811 3.09774 19.0977 3.29301 19.2929L4.70722 20.7071C4.90248 20.9024 5.21906 20.9024 5.41433 20.7071L20.7072 5.41425C20.9025 5.21899 20.9025 4.90241 20.7072 4.70714L19.293 3.29293C19.0977 3.09767 18.7812 3.09767 18.5859 3.29293L16.2741 5.60472C13.5098 3.70639 9.78175 3.84879 7.162 6.03192L0.47171 11.6072C0.226227 11.8117 0.226227 12.1888 0.471711 12.3933L5.38832 16.4905L3.29301 18.5858ZM7.75545 14.1234L14.0737 7.80515C13.4479 7.49896 12.7443 7.3271 12.0007 7.3271C9.39208 7.3271 7.2774 9.44177 7.2774 12.0504C7.2774 12.794 7.44927 13.4975 7.75545 14.1234Z" fill="#303236"/>
<path d="M16.838 17.9686C14.6074 19.8274 11.5732 20.2068 9.01462 19.1066L11.3871 16.7341C11.5879 16.7602 11.7927 16.7736 12.0007 16.7736C14.6092 16.7736 16.7239 14.6589 16.7239 12.0504C16.7239 11.8424 16.7105 11.6376 16.6844 11.4368L19.7023 8.41886L23.5283 11.6072C23.7738 11.8117 23.7738 12.1888 23.5283 12.3933L16.838 17.9686Z" fill="#303236"/>
</svg>
