<svg width="24" height="24" viewBox="0 0 24 24" fill="none" xmlns="http://www.w3.org/2000/svg">
<path d="M22.0755 16.5141C22.1216 16.6862 21.9366 16.8281 21.7823 16.739L20.5465 16.0256C19.0341 19.2366 15.7686 21.459 11.9841 21.459C7.62044 21.459 3.9469 18.5044 2.85491 14.4866C2.772 14.1816 3.00932 13.8912 3.32542 13.8912H4.76372C4.98863 13.8912 5.18415 14.0422 5.25562 14.2554C6.19813 17.0678 8.85445 19.0942 11.9841 19.0942C14.8933 19.0942 17.3936 17.343 18.4884 14.8373L16.8259 13.8775C16.6715 13.7884 16.702 13.5572 16.8741 13.5111L20.4933 12.5413C20.7601 12.4698 21.0342 12.6281 21.1057 12.8948L22.0755 16.5141Z" fill="#303236"/>
<path d="M1.44186 8.24042C1.35277 8.08611 1.49472 7.90112 1.66683 7.94723L3.24578 8.37031C4.66916 4.94706 8.04552 2.54004 11.9841 2.54004C16.3475 2.54004 20.021 5.49444 21.1131 9.51201C21.196 9.81705 20.9587 10.1074 20.6426 10.1074H19.2043C18.9794 10.1074 18.7839 9.95647 18.7124 9.74323C17.7697 6.93113 15.1135 4.90491 11.9841 4.90491C9.14182 4.90491 6.68994 6.57627 5.55764 8.98977L7.19501 9.42851C7.36712 9.47462 7.39755 9.70581 7.24325 9.7949L3.99833 11.6684C3.75918 11.8064 3.45339 11.7245 3.31531 11.4853L1.44186 8.24042Z" fill="#303236"/>
<path d="M12 8.85589L8.6059 12.25L12 15.6441L15.3941 12.25L12 8.85589Z" fill="#303236"/>
</svg>
