<svg width="24" height="24" viewBox="0 0 24 24" fill="none" xmlns="http://www.w3.org/2000/svg">
<path d="M6.25 5.5C5.83579 5.5 5.5 5.83579 5.5 6.25V8.75C5.5 9.02614 5.27614 9.25 5 9.25H3.5C3.22386 9.25 3 9.02614 3 8.75V6.25C3 4.45507 4.45507 3 6.25 3H8.75C9.02614 3 9.25 3.22386 9.25 3.5V5C9.25 5.27614 9.02614 5.5 8.75 5.5H6.25Z" fill="#303236"/>
<path d="M6.25 18.5C5.83579 18.5 5.5 18.1642 5.5 17.75V15.25C5.5 14.9739 5.27614 14.75 5 14.75H3.5C3.22386 14.75 3 14.9739 3 15.25V17.75C3 19.5449 4.45507 21 6.25 21H8.75C9.02614 21 9.25 20.7761 9.25 20.5V19C9.25 18.7239 9.02614 18.5 8.75 18.5H6.25Z" fill="#303236"/>
<path d="M18.5 6.25C18.5 5.83579 18.1642 5.5 17.75 5.5H15.25C14.9739 5.5 14.75 5.27614 14.75 5V3.5C14.75 3.22386 14.9739 3 15.25 3H17.75C19.5449 3 21 4.45507 21 6.25V8.75C21 9.02614 20.7761 9.25 20.5 9.25H19C18.7239 9.25 18.5 9.02614 18.5 8.75V6.25Z" fill="#303236"/>
<path d="M17.75 18.5C18.1642 18.5 18.5 18.1642 18.5 17.75V15.25C18.5 14.9739 18.7239 14.75 19 14.75H20.5C20.7761 14.75 21 14.9739 21 15.25V17.75C21 19.5449 19.5449 21 17.75 21H15.25C14.9739 21 14.75 20.7761 14.75 20.5V19C14.75 18.7239 14.9739 18.5 15.25 18.5H17.75Z" fill="#303236"/>
<path d="M14.4 9.24998C14.4 10.5755 13.3255 11.65 12 11.65C10.6745 11.65 9.60001 10.5755 9.60001 9.24998C9.60001 7.92449 10.6745 6.84998 12 6.84998C13.3255 6.84998 14.4 7.92449 14.4 9.24998Z" fill="#303236"/>
<path d="M7.5 15.75C7.5 14.0931 8.84315 12.75 10.5 12.75H13.5C15.1569 12.75 16.5 14.0931 16.5 15.75V16.75H7.5V15.75Z" fill="#303236"/>
</svg>
