<svg width="24" height="24" viewBox="0 0 24 24" fill="none" xmlns="http://www.w3.org/2000/svg">
<path d="M5.5 9C5.77614 9 6 9.22386 6 9.5V20.5C6 20.7761 5.77614 21 5.5 21H3.5C3.22386 21 3 20.7761 3 20.5V9.5C3 9.22386 3.22386 9 3.5 9H5.5Z" fill="#303236"/>
<path fill-rule="evenodd" clip-rule="evenodd" d="M19 3C20.1046 3 21 3.89543 21 5V19C21 20.1046 20.1046 21 19 21H8C7.72386 21 7.5 20.7761 7.5 20.5V5C7.5 3.89543 8.39543 3 9.5 3H19ZM12.8496 8.5V14.0566L13.3477 14.3047L17.3477 16.3047L18.1523 14.6953L14.6504 12.9443V8.5H12.8496Z" fill="#303236"/>
</svg>
