<svg width="24" height="24" viewBox="0 0 24 24" fill="none" xmlns="http://www.w3.org/2000/svg">
<path d="M19.8551 4.26756C20.0482 4.47042 20.0483 4.7933 19.8551 4.99608L12.3677 12.8418C12.1665 13.0527 11.8337 13.0527 11.6324 12.8418L4.14509 4.99608C3.95157 4.79325 3.9517 4.47046 4.14509 4.26756L5.20368 3.15819C5.40494 2.94741 5.73679 2.94742 5.93806 3.15819L11.9996 9.50975L18.0611 3.15819C18.2624 2.94727 18.5952 2.94727 18.7965 3.15819L19.8551 4.26756Z" fill="#303236"/>
<path d="M19.8551 12.2676C20.0482 12.4704 20.0483 12.7933 19.855 12.9961L12.3677 20.8418C12.1665 21.0527 11.8337 21.0527 11.6324 20.8418L4.14509 12.9961C3.95157 12.7933 3.9517 12.4705 4.14509 12.2676L5.20368 11.1582C5.40494 10.9474 5.73679 10.9474 5.93806 11.1582L11.9996 17.5097L18.0611 11.1582C18.2624 10.9473 18.5952 10.9473 18.7965 11.1582L19.8551 12.2676Z" fill="#303236"/>
</svg>
