<svg width="24" height="24" viewBox="0 0 24 24" fill="none" xmlns="http://www.w3.org/2000/svg">
<path fill-rule="evenodd" clip-rule="evenodd" d="M16.9301 19.9907C16.9301 20.2668 16.7063 20.4907 16.4301 20.4907H14.1081C13.832 20.4907 13.6081 20.2668 13.6081 19.9907V7.78268H13.6096V3.50092C13.6096 3.0865 14.0848 2.85197 14.4138 3.10406L20.3819 7.67789C20.6095 7.8523 20.4861 8.21601 20.1994 8.21601H16.9301V19.9907ZM7.06971 4.01154C7.06971 3.7354 7.29357 3.51154 7.56971 3.51154H9.89169C10.1678 3.51154 10.3917 3.7354 10.3917 4.01154V16.2195H10.3904V20.5013C10.3904 20.9157 9.91518 21.1502 9.58624 20.8981L3.6181 16.3243C3.39052 16.1499 3.51386 15.7862 3.80059 15.7862H7.06971V4.01154Z" fill="#303236"/>
</svg>
