<svg width="24" height="24" viewBox="0 0 24 24" fill="none" xmlns="http://www.w3.org/2000/svg">
<path fill-rule="evenodd" clip-rule="evenodd" d="M14.5 3.5C15.6046 3.5 16.5 4.39543 16.5 5.5V18.5C16.5 19.6046 15.6046 20.5 14.5 20.5H5C3.89543 20.5 3 19.6046 3 18.5V5.5C3 4.39543 3.89543 3.5 5 3.5H14.5ZM8.7002 10.7344L6 10.9688L8.04395 12.7402L7.43457 15.375L9.75 13.9785L12.0654 15.375L11.4561 12.7402L13.5 10.9688L10.7998 10.7344L9.75 8.25L8.7002 10.7344Z" fill="#303236"/>
<path d="M20.4697 5.92578C21.7214 6.39531 22.3419 7.97521 21.8076 9.33203L18.1934 18.5098C18.153 18.6123 18.0004 18.5836 18 18.4736V5L20.4697 5.92578Z" fill="#303236"/>
</svg>
