<svg width="24" height="24" viewBox="0 0 24 24" fill="none" xmlns="http://www.w3.org/2000/svg">
<path d="M12.4389 2.08371L13.7246 2.32879L13.7361 2.33151C19.4868 3.69067 22.9303 9.01845 21.7789 14.4866C21.7196 14.7681 21.4401 14.9455 21.1602 14.8793L19.8188 14.5623C19.5597 14.5011 19.3954 14.246 19.4468 13.9848C20.0138 11.1006 18.9557 8.29087 16.8208 6.44113L15.6237 7.10019C15.3882 7.22985 15.0923 7.15005 14.9539 6.91956L12.23 2.38312C12.1411 2.23497 12.2692 2.05135 12.4389 2.08371Z" fill="#303236"/>
<path d="M6.52816 9.54631C6.23647 9.07734 6.38017 8.4607 6.84914 8.16901L11.0949 5.52819C11.5638 5.23649 12.1805 5.3802 12.4722 5.84917L18.2809 15.188C18.5726 15.657 18.4289 16.2736 17.9599 16.5653L13.7142 19.2061C13.2452 19.4978 12.6286 19.3541 12.3369 18.8851L6.52816 9.54631Z" fill="#303236"/>
<path d="M10.2754 21.6713L11.5611 21.9163C11.7308 21.9487 11.8589 21.7651 11.77 21.6169L9.04612 17.0805C8.90772 16.85 8.61184 16.7702 8.37632 16.8999L7.17916 17.5589C5.04428 15.7092 3.98622 12.8994 4.55323 10.0152C4.60458 9.75403 4.44026 9.49897 4.1812 9.43774L2.8398 9.1207C2.55986 9.05454 2.28037 9.23195 2.22111 9.51343C1.06973 14.9816 4.51323 20.3094 10.2639 21.6685L10.2754 21.6713Z" fill="#303236"/>
</svg>
