<svg width="24" height="24" viewBox="0 0 24 24" fill="none" xmlns="http://www.w3.org/2000/svg">
<path fill-rule="evenodd" clip-rule="evenodd" d="M2 6C2 4.89543 2.89543 4 4 4H20C21.1046 4 22 4.89543 22 6V9.24995C20.4812 9.24995 19.25 10.4812 19.25 12C19.25 13.5187 20.4812 14.75 22 14.75V18C22 19.1046 21.1046 20 20 20H4C2.89543 20 2 19.1046 2 18V14.75C3.51878 14.75 4.75 13.5187 4.75 12C4.75 10.4812 3.51878 9.24995 2 9.24995V6ZM10.2937 12.7282L9.68437 15.3625L12 13.9657L14.3156 15.3625L13.7062 12.7282L15.75 10.9563L13.05 10.7219L12 8.23755L10.95 10.7219L8.25 10.9563L10.2937 12.7282Z" fill="#303236"/>
</svg>
