<svg width="24" height="24" viewBox="0 0 24 24" fill="none" xmlns="http://www.w3.org/2000/svg">
<path fill-rule="evenodd" clip-rule="evenodd" d="M4 4C2.89543 4 2 4.89543 2 6V18C2 19.1046 2.89543 20 4 20H20C21.1046 20 22 19.1046 22 18V6C22 4.89543 21.1046 4 20 4H4ZM8.5 11.3192C7.95 11.3192 7.47917 11.1233 7.0875 10.7317C6.69583 10.34 6.5 9.86915 6.5 9.31915C6.5 8.76915 6.69583 8.29832 7.0875 7.90665C7.47917 7.51499 7.95 7.31915 8.5 7.31915C9.05 7.31915 9.52083 7.51499 9.9125 7.90665C10.3042 8.29832 10.5 8.76915 10.5 9.31915C10.5 9.86915 10.3042 10.34 9.9125 10.7317C9.52083 11.1233 9.05 11.3192 8.5 11.3192ZM6.27778 12.6526C5.29594 12.6526 4.5 13.4485 4.5 14.4303V16.4306H12.5V14.4303C12.5 13.4485 11.7041 12.6526 10.7222 12.6526H6.27778ZM20 8H14.5V10.5H20V8ZM20 13H15.5V15.5H20V13Z" fill="#303236"/>
</svg>
