<svg width="24" height="24" viewBox="0 0 24 24" fill="none" xmlns="http://www.w3.org/2000/svg">
<path d="M15.3931 3.69292C15.7836 3.30239 16.4168 3.30239 16.8073 3.69292L20.2925 7.17811C20.683 7.56863 20.683 8.20179 20.2925 8.59232L17.8966 10.9882L12.9915 6.09459L15.3931 3.69292Z" fill="#303236"/>
<path d="M11.9307 7.1553L16.8217 12.0632L10.899 17.9858H20C20.5523 17.9858 21 18.4336 21 18.9858V19.9858C21 20.5381 20.5523 20.9858 20 20.9858H5V20.9832L4.00234 20.9822C3.45079 20.9817 3.0038 20.5347 3.00328 19.9832L3 16.5012C2.99975 16.2357 3.10513 15.981 3.29289 15.7932L11.9307 7.1553Z" fill="#303236"/>
</svg>
