<svg width="24" height="24" viewBox="0 0 24 24" fill="none" xmlns="http://www.w3.org/2000/svg">
<path d="M13.9893 12.751C13.0143 13.249 12.4062 13.9534 12.4062 14.7354V21.3428C11.8698 21.3868 11.3302 21.3856 10.7939 21.3389L10.7568 21.3047C10.3609 20.9307 9.9368 20.32 9.54688 19.4512C8.80388 17.7942 8.29693 15.437 8.25293 12.751H13.9893Z" fill="#303236"/>
<path d="M6.75293 12.75C6.80294 16.037 7.50701 18.9531 8.58301 20.873C5.11203 19.6901 2.55688 16.536 2.25586 12.75H6.75293Z" fill="#303236"/>
<path d="M13.9688 16.3594C13.9692 17.4381 15.7098 18.3124 17.8594 18.3125C20.0071 18.3125 21.7496 17.4382 21.75 16.3604V18.6484H21.748C21.75 18.6663 21.75 18.6853 21.75 18.7031C21.7498 19.782 20.0083 20.6562 17.8584 20.6562C15.7107 20.6561 13.9689 19.782 13.9688 18.7031C13.9686 18.6845 13.9689 18.6651 13.9697 18.6465L13.9688 16.3037V16.3594Z" fill="#303236"/>
<path d="M17.8877 13.5C20.0207 13.5 21.75 14.34 21.75 15.375C21.7499 16.41 20.0197 17.25 17.8877 17.25C15.7538 17.25 14.0245 16.4099 14.0244 15.375C14.0244 14.339 15.7548 13.5 17.8877 13.5Z" fill="#303236"/>
<path d="M21.75 16.3604C21.7499 16.3417 21.7493 16.3224 21.748 16.3037H21.75V16.3604Z" fill="#303236"/>
<path d="M20.9941 12.7578L20.9775 12.751H20.9941V12.7578Z" fill="#303236"/>
<path d="M11.625 3C11.815 3.00004 12.1053 3.08038 12.4932 3.44629C12.8891 3.81932 13.3142 4.43007 13.7031 5.29883C14.3761 6.79983 14.8557 8.876 14.9727 11.25H8.27832L8.27734 11.251C8.39434 8.87598 8.87388 6.79983 9.54688 5.29883C9.9368 4.43002 10.3609 3.81929 10.7568 3.44629C11.1448 3.08029 11.435 3 11.625 3Z" fill="#303236"/>
<path d="M9.19922 2.93945C7.87322 4.63945 6.93939 7.691 6.77539 11.25H2.25586C2.57386 7.244 5.41822 3.94545 9.19922 2.93945Z" fill="#303236"/>
<path d="M14.0508 2.93945C17.8328 3.94445 20.6771 7.243 20.9941 11.25H16.4736C16.3106 7.691 15.3768 4.63945 14.0508 2.93945Z" fill="#303236"/>
</svg>
