<svg width="24" height="24" viewBox="0 0 24 24" fill="none" xmlns="http://www.w3.org/2000/svg">
<path fill-rule="evenodd" clip-rule="evenodd" d="M5.25 4.5C5.25 3.39543 6.14543 2.5 7.25 2.5H18.75C19.8546 2.5 20.75 3.39543 20.75 4.5V19.5C20.75 20.6046 19.8546 21.5 18.75 21.5H7.25C6.14543 21.5 5.25 20.6046 5.25 19.5V18H3.75C3.47386 18 3.25 17.7761 3.25 17.5V16.5C3.25 16.2239 3.47386 16 3.75 16H5.25V13H3.75C3.47386 13 3.25 12.7761 3.25 12.5V11.5C3.25 11.2239 3.47386 11 3.75 11H5.25V8H3.75C3.47386 8 3.25 7.77614 3.25 7.5V6.5C3.25 6.22386 3.47386 6 3.75 6H5.25V4.5ZM10.0602 9.77067C10.0185 9.77123 9.97725 9.7633 9.9388 9.74736C9.90034 9.73141 9.86555 9.70779 9.83654 9.67794C9.80754 9.64808 9.78492 9.61262 9.77009 9.57373C9.75526 9.53484 9.74851 9.49333 9.75027 9.45174C9.87165 7.26311 11.6626 6.5 13.2998 6.5C15.1024 6.5 16.75 7.44259 16.75 9.39234C16.75 10.7869 15.9301 11.4506 15.1437 12.0484C14.1921 12.7702 13.8396 13.0401 13.8396 13.9671V14.1027C13.8396 14.1883 13.8056 14.2704 13.745 14.331C13.6845 14.3915 13.6024 14.4255 13.5168 14.4255H12.4709C12.3862 14.4255 12.3048 14.3922 12.2444 14.3328C12.184 14.2734 12.1494 14.1926 12.1481 14.1079L12.1429 13.8277C12.0938 12.6307 12.7821 11.8934 13.6511 11.262C14.4129 10.6887 14.8971 10.3117 14.8971 9.49177C14.8971 8.42651 14.0862 7.98362 13.2004 7.98362C12.1636 7.98362 11.5825 8.60082 11.4676 9.44786C11.4444 9.62476 11.3023 9.77067 11.1241 9.77067H10.0602ZM12.125 15.8755C12.125 15.6339 12.3209 15.438 12.5625 15.438H13.4375C13.6791 15.438 13.875 15.6339 13.875 15.8755V16.7505C13.875 16.9921 13.6791 17.188 13.4375 17.188H12.5625C12.3209 17.188 12.125 16.9921 12.125 16.7505V15.8755Z" fill="#303236"/>
</svg>
