<svg width="24" height="24" viewBox="0 0 24 24" fill="none" xmlns="http://www.w3.org/2000/svg">
<path fill-rule="evenodd" clip-rule="evenodd" d="M18.4007 8.88594C17.4556 5.37402 13.8304 3.28438 10.3006 4.2261C9.86183 4.34316 9.44622 4.50114 9.05643 4.69452C8.56169 4.93997 7.96164 4.73788 7.71619 4.24314C7.47074 3.74839 7.67283 3.14834 8.16758 2.90289C8.67619 2.65056 9.21681 2.44529 9.78507 2.29368C14.3756 1.06899 19.099 3.7844 20.332 8.3662C21.3445 12.1283 20.9386 15.9385 19.4413 19.2282C19.2125 19.7309 18.6196 19.9529 18.1169 19.7241C17.6142 19.4953 17.3922 18.9024 17.621 18.3997C18.933 15.5173 19.2881 12.1831 18.4007 8.88594ZM6.30465 5.46934C6.75968 5.78233 6.87483 6.40494 6.56183 6.85997C5.50724 8.39313 5.10846 10.3552 5.62884 12.2888L5.70771 12.5819C5.95487 13.5003 5.85866 14.4207 5.68621 15.2162C5.56481 15.7762 5.38377 16.3558 5.22915 16.8508C5.17061 17.0383 5.11585 17.2136 5.06955 17.3711C4.91381 17.901 4.35802 18.2043 3.82815 18.0486C3.29827 17.8928 2.99497 17.337 3.1507 16.8072C3.21647 16.5834 3.28343 16.3693 3.34892 16.1598C3.49309 15.6988 3.63013 15.2606 3.73161 14.7925C3.87411 14.1351 3.90432 13.5769 3.77643 13.1017L3.69755 12.8086C3.01838 10.2849 3.54164 7.72167 4.91402 5.72652C5.22702 5.27149 5.84962 5.15634 6.30465 5.46934ZM15.166 9.74892C14.7001 8.01762 12.9116 6.98509 11.1683 7.45019C9.42654 7.91486 8.39806 9.6962 8.86354 11.4258L8.90298 11.5724C9.68416 14.4751 9.13355 17.4219 7.62714 19.7645C7.32842 20.229 6.70968 20.3634 6.24516 20.0647C5.78063 19.766 5.64622 19.1472 5.94494 18.6827C7.15905 16.7947 7.60005 14.427 6.97169 12.0921L6.93225 11.9456C6.17796 9.14275 7.84706 6.26629 10.6527 5.51778C13.4568 4.7697 16.3435 6.42799 17.0973 9.22918L17.1368 9.37572C17.2803 9.90903 16.9643 10.4577 16.431 10.6012C15.8977 10.7448 15.349 10.4288 15.2055 9.89547L15.166 9.74892ZM11.7944 9.76829C12.3277 9.62476 12.8763 9.94075 13.0199 10.4741C14.0871 14.4397 13.0955 18.4712 10.7027 21.4397C10.3561 21.8697 9.72654 21.9373 9.29655 21.5907C8.86656 21.2441 8.79896 20.6146 9.14556 20.1846C11.1548 17.692 11.9825 14.3154 11.0886 10.9938C10.9451 10.4605 11.261 9.91181 11.7944 9.76829ZM16.5086 11.0401C17.059 10.9944 17.5422 11.4036 17.5878 11.954C17.6062 12.1759 17.6194 12.3975 17.6275 12.6186C17.7465 15.8798 16.7492 19.023 14.9085 21.5837C14.5862 22.0322 13.9613 22.1344 13.5128 21.8121C13.0644 21.4897 12.9622 20.8648 13.2845 20.4164C14.8734 18.2059 15.7312 15.4969 15.6288 12.6916C15.6219 12.5013 15.6105 12.3105 15.5947 12.1193C15.549 11.5689 15.9582 11.0857 16.5086 11.0401Z" fill="#303236"/>
</svg>
