<svg width="24" height="24" viewBox="0 0 24 24" fill="none" xmlns="http://www.w3.org/2000/svg">
<path d="M3.5 15.4999C3.5 16.0522 3.94772 16.4999 4.5 16.4999H19.5C20.0523 16.4999 20.5 16.0522 20.5 15.4999V3.74832C20.5 3.29718 19.9497 3.07676 19.6382 3.40317L14.1152 9.19201C13.9459 9.3695 13.6728 9.39793 13.4705 9.25912L10.497 7.21846C10.3094 7.08974 10.0586 7.10385 9.88668 7.2528L3.84522 12.4866C3.62597 12.6765 3.5 12.9523 3.5 13.2424V15.4999Z" fill="#303236"/>
<path d="M4 17.9999C3.44772 17.9999 3 18.4477 3 18.9999V19.9999C3 20.5522 3.44772 20.9999 4 20.9999H20C20.5523 20.9999 21 20.5522 21 19.9999V18.9999C21 18.4477 20.5523 17.9999 20 17.9999H4Z" fill="#303236"/>
</svg>
