<svg width="24" height="24" viewBox="0 0 24 24" fill="none" xmlns="http://www.w3.org/2000/svg">
<path fill-rule="evenodd" clip-rule="evenodd" d="M3.5 4.5C3.5 3.39543 4.39543 2.5 5.5 2.5H18.5C19.6046 2.5 20.5 3.39543 20.5 4.5V19.5C20.5 20.6046 19.6046 21.5 18.5 21.5H5.5C4.39543 21.5 3.5 20.6046 3.5 19.5V4.5ZM5.5 18C5.5 17.7239 5.72386 17.5 6 17.5H18C18.2761 17.5 18.5 17.7239 18.5 18V19C18.5 19.2761 18.2761 19.5 18 19.5H6C5.72386 19.5 5.5 19.2761 5.5 19V18ZM13.6819 6.56343C14.0543 6.19101 14.6581 6.19101 15.0305 6.56343L15.7048 7.23776C16.0772 7.61017 16.0772 8.21398 15.7048 8.5864L15.0305 9.26072L13.0075 7.23776L13.6819 6.56343ZM12.3332 7.91212L14.3562 9.93509L10.4227 13.8686C10.3497 13.9416 10.2551 13.9889 10.1529 14.0035L8.20188 14.2822C8.07601 14.3002 7.96812 14.1923 7.9861 14.0664L8.26482 12.1154C8.27941 12.0133 8.32673 11.9186 8.39968 11.8457L12.3332 7.91212Z" fill="#303236"/>
</svg>
