<svg width="24" height="24" viewBox="0 0 24 24" fill="none" xmlns="http://www.w3.org/2000/svg">
<path d="M15.6155 12.316C14.4927 11.2671 14.6924 7.93811 17.256 4.4796C17.5984 4.78446 17.8899 5.14209 18.1194 5.53896C18.6074 6.38998 18.6273 7.12801 18.6896 8.4021C18.7544 9.79832 18.8264 11.1942 18.9055 12.5896C17.6986 12.8701 16.3074 12.9613 15.614 12.3133V12.316H15.6155ZM3.59948 7.54395C3.77592 7.44372 3.88966 7.48614 4.45351 7.54395C4.96742 7.59688 6.69499 7.72376 7.58506 7.25715C8.62603 6.7132 8.10047 5.73116 9.15158 4.53778C10.5383 2.96412 13.1616 2.72762 14.989 3.24942C15.363 3.35658 15.7255 3.50082 16.0709 3.68C13.0677 7.73765 12.9048 11.7364 14.6477 13.3652C15.3788 13.9808 16.3176 14.2936 17.2718 14.2395C17.8558 14.2328 18.4376 14.166 19.008 14.0402C19.0391 14.6485 19.1234 15.2529 19.2599 15.8466C19.8443 17.8576 20.8467 19.2679 20.1139 20.4264C19.9668 20.6556 19.7728 20.8511 19.5448 21H7.86998C7.86998 21 7.86998 18.4237 9.57841 17.278C9.80855 17.0718 9.99281 16.8195 10.1192 16.5376C10.2457 16.2556 10.3114 15.9502 10.3123 15.6412C10.3053 15.3512 10.2361 15.066 10.1095 14.805C9.98292 14.544 9.80181 14.3131 9.57841 14.128C9.23115 13.9141 8.82308 13.8205 8.41731 13.8619C7.26297 13.8926 5.54553 13.7012 4.73843 13.2691C2.8562 12.2619 2.54462 8.14646 3.59948 7.54395ZM10.4317 9.12061C10.6868 9.12187 10.9365 9.0474 11.1492 8.90663C11.362 8.76586 11.5281 8.56512 11.6267 8.32984C11.7253 8.09455 11.7518 7.83531 11.7029 7.58494C11.654 7.33458 11.5319 7.10435 11.3521 6.92342C11.1723 6.74249 10.9428 6.61899 10.6928 6.56858C10.4427 6.51816 10.1833 6.5431 9.94741 6.64022C9.71153 6.73734 9.50977 6.90228 9.3677 7.11414C9.22563 7.32601 9.14963 7.57528 9.14933 7.83038C9.14889 7.99922 9.18172 8.16649 9.24596 8.32263C9.31019 8.47878 9.40457 8.62073 9.5237 8.74038C9.64283 8.86003 9.78436 8.95503 9.94023 9.01995C10.0961 9.08487 10.2632 9.11844 10.4321 9.11873L10.4317 9.12061Z" fill="#303236"/>
</svg>
