<svg width="24" height="24" viewBox="0 0 24 24" fill="none" xmlns="http://www.w3.org/2000/svg">
<path d="M18.6111 17.1103C18.8259 17.1103 19 17.2844 19 17.4992V18.5102C19 18.7249 18.8259 18.8991 18.6111 18.8991H5.38889C5.17411 18.8991 5 18.7249 5 18.5102V17.4992C5 17.2844 5.17411 17.1103 5.38889 17.1103H18.6111Z" fill="#303236"/>
<path d="M17.9085 5.01451C18.0608 4.95861 18.2221 5.07112 18.2222 5.23326V6.63311C18.2221 6.79596 18.1206 6.94143 17.9678 6.99769L8.85775 10.3435L17.9678 13.6886C18.1207 13.7448 18.2222 13.8909 18.2222 14.0539V15.4537C18.2222 15.616 18.0608 15.7284 17.9085 15.6725L6.03299 11.3127C5.87989 11.2565 5.77778 11.1104 5.77778 10.9473V9.73967C5.77788 9.57668 5.87997 9.43126 6.03299 9.37508L17.9085 5.01451Z" fill="#303236"/>
</svg>
