<svg width="24" height="24" viewBox="0 0 24 24" fill="none" xmlns="http://www.w3.org/2000/svg">
<path fill-rule="evenodd" clip-rule="evenodd" d="M12 2.5C15.728 2.5 18.75 5.52208 18.75 9.25V13.8063C18.75 13.8591 18.7648 13.9109 18.7928 13.9557L20.524 16.7357C20.7315 17.0687 20.492 17.5 20.0996 17.5H3.90046C3.5081 17.5 3.26862 17.0687 3.47603 16.7357L5.20731 13.9557C5.23524 13.9109 5.25004 13.8591 5.25004 13.8063V9.25C5.25004 5.52208 8.27212 2.5 12 2.5ZM9.27277 18.5C9.12214 18.5 9.00004 18.6221 9.00004 18.7727C9.00004 20.279 10.2211 21.5 11.7273 21.5H12.2728C13.779 21.5 15 20.279 15 18.7727C15 18.6221 14.8779 18.5 14.7273 18.5H9.27277Z" fill="#303236"/>
</svg>
