<svg width="24" height="24" viewBox="0 0 24 24" fill="none" xmlns="http://www.w3.org/2000/svg">
<path d="M12 22C17.5228 22 22 17.5228 22 12C22 6.47715 17.5228 2 12 2C6.47715 2 2 6.47715 2 12C2 17.5228 6.47715 22 12 22Z" fill="#303236"/>
<path d="M6.86975 9.14987C6.86975 8.85046 6.92872 8.55398 7.04331 8.27736C7.15789 8.00073 7.32583 7.74939 7.53755 7.53767C7.74927 7.32595 8.00061 7.15801 8.27723 7.04343C8.55386 6.92885 8.85034 6.86987 9.14975 6.86987C9.44917 6.86987 9.74565 6.92885 10.0223 7.04343C10.2989 7.15801 10.5502 7.32595 10.762 7.53767C10.9737 7.74939 11.1416 8.00073 11.2562 8.27736C11.3708 8.55398 11.4298 8.85046 11.4298 9.14987V11.1449C11.4298 11.1823 11.4224 11.2194 11.4081 11.2539C11.3937 11.2885 11.3727 11.3199 11.3463 11.3464C11.3198 11.3729 11.2884 11.3939 11.2538 11.4082C11.2192 11.4225 11.1822 11.4299 11.1448 11.4299H9.14975C8.54506 11.4299 7.96513 11.1897 7.53755 10.7621C7.10996 10.3345 6.86975 9.75457 6.86975 9.14987ZM12.5698 9.14987C12.5698 8.69893 12.7035 8.25812 12.954 7.88317C13.2045 7.50823 13.5606 7.216 13.9772 7.04343C14.3938 6.87086 14.8523 6.82571 15.2946 6.91368C15.7368 7.00166 16.1431 7.21881 16.462 7.53767C16.7808 7.85653 16.998 8.26279 17.0859 8.70507C17.1739 9.14734 17.1288 9.60578 16.9562 10.0224C16.7836 10.439 16.4914 10.7951 16.1165 11.0456C15.7415 11.2962 15.3007 11.4299 14.8498 11.4299H12.8548C12.8173 11.4299 12.7803 11.4225 12.7457 11.4082C12.7111 11.3939 12.6797 11.3729 12.6532 11.3464C12.6268 11.3199 12.6058 11.2885 12.5914 11.2539C12.5771 11.2194 12.5698 11.1823 12.5698 11.1449V9.14987ZM6.86975 14.8499C6.86975 14.2452 7.10996 13.6653 7.53755 13.2377C7.96513 12.8101 8.54506 12.5699 9.14975 12.5699H11.1448C11.1822 12.5699 11.2192 12.5772 11.2538 12.5916C11.2884 12.6059 11.3198 12.6269 11.3463 12.6533C11.3727 12.6798 11.3937 12.7112 11.4081 12.7458C11.4224 12.7804 11.4298 12.8174 11.4298 12.8549V14.8499C11.4298 15.4546 11.1895 16.0345 10.762 16.4621C10.3344 16.8897 9.75445 17.1299 9.14975 17.1299C8.54506 17.1299 7.96513 16.8897 7.53755 16.4621C7.10996 16.0345 6.86975 15.4546 6.86975 14.8499ZM12.5698 12.8549C12.5698 12.7793 12.5998 12.7068 12.6532 12.6533C12.7067 12.5999 12.7792 12.5699 12.8548 12.5699H14.8498C15.3007 12.5699 15.7415 12.7036 16.1165 12.9541C16.4914 13.2047 16.7836 13.5607 16.9562 13.9774C17.1288 14.394 17.1739 14.8524 17.0859 15.2947C16.998 15.737 16.7808 16.1432 16.462 16.4621C16.1431 16.7809 15.7368 16.9981 15.2946 17.0861C14.8523 17.174 14.3938 17.1289 13.9772 16.9563C13.5606 16.7838 13.2045 16.4915 12.954 16.1166C12.7035 15.7416 12.5698 15.3008 12.5698 14.8499V12.8549Z" fill="white"/>
</svg>
