<svg width="24" height="24" viewBox="0 0 24 24" fill="none" xmlns="http://www.w3.org/2000/svg">
<rect width="24" height="24" fill="white"/>
<path fill-rule="evenodd" clip-rule="evenodd" d="M16.5 3C16.8978 3 17.2792 3.15815 17.5605 3.43945C17.8419 3.72076 18 4.10218 18 4.5V9.84863C16.618 9.6005 15.1926 9.81608 13.9453 10.4609C12.6983 11.1057 11.699 12.1442 11.1025 13.415C10.5061 14.6861 10.3455 16.1188 10.6465 17.4902C10.9475 18.8616 11.6927 20.0956 12.7666 21H4.5C4.10218 21 3.72076 20.8419 3.43945 20.5605C3.15815 20.2792 3 19.8978 3 19.5V4.5C3 4.10218 3.15815 3.72076 3.43945 3.43945C3.72076 3.15815 4.10218 3 4.5 3H16.5ZM6 4.5V10.5L7.875 9L9.75 10.5V4.5H6Z" fill="#303236"/>
<path fill-rule="evenodd" clip-rule="evenodd" d="M16.875 11.25C18.1679 11.25 19.408 11.7635 20.3223 12.6777C21.2365 13.592 21.75 14.8321 21.75 16.125C21.75 17.4179 21.2365 18.658 20.3223 19.5723C19.408 20.4865 18.1679 21 16.875 21C15.5821 21 14.342 20.4865 13.4277 19.5723C12.5135 18.658 12 17.4179 12 16.125C12 14.8321 12.5135 13.592 13.4277 12.6777C14.342 11.7635 15.5821 11.25 16.875 11.25ZM15.75 13.875V17.3389L18.415 18.6709L19.085 17.3291L17.25 16.4121V13.875H15.75Z" fill="#303236"/>
</svg>
