<svg width="24" height="24" viewBox="0 0 24 24" fill="none" xmlns="http://www.w3.org/2000/svg">
<path fill-rule="evenodd" clip-rule="evenodd" d="M7.5 5C7.5 3.89543 8.39543 3 9.5 3H19C20.1046 3 21 3.89543 21 5V19C21 20.1046 20.1046 21 19 21H8C7.72386 21 7.5 20.7761 7.5 20.5V5ZM15.8743 12.0512L18.6512 9.13967L17.3487 7.89734L15.2115 10.1381L13.9652 8.87723C13.7949 8.70494 13.5624 8.60858 13.3201 8.60992C13.0779 8.61126 12.8464 8.7102 12.678 8.88436L9.93927 11.7173L11.2334 12.9684L13.3322 10.7974L14.5829 12.0627C14.754 12.2358 14.9878 12.3322 15.231 12.33C15.4743 12.3278 15.7064 12.2273 15.8743 12.0512ZM18.25 15H10.25V17H18.25V15Z" fill="#303236"/>
<path d="M3.5 9C3.22386 9 3 9.22386 3 9.5V20.5C3 20.7761 3.22386 21 3.5 21H5.5C5.77614 21 6 20.7761 6 20.5V9.5C6 9.22386 5.77614 9 5.5 9H3.5Z" fill="#303236"/>
</svg>
