<svg width="24" height="24" viewBox="0 0 24 24" fill="none" xmlns="http://www.w3.org/2000/svg">
<path fill-rule="evenodd" clip-rule="evenodd" d="M6.50006 3C6.22391 3 6.00006 3.22386 6.00006 3.5V5H4C3.44771 5 3 5.44772 3 6L3.00005 20C3.00006 20.5523 3.44777 21 4.00005 21H20.0001C20.5523 21 21.0001 20.5523 21.0001 20L21 6C21 5.44771 20.5523 5 20 5H18.0001V3.5C18.0001 3.22386 17.7762 3 17.5001 3H15.5001C15.2239 3 15.0001 3.22386 15.0001 3.5V5H9.00006V3.5C9.00006 3.22386 8.7762 3 8.50006 3H6.50006ZM15.1729 11.1503L14.3725 8.55473L13.808 9.39649C13.2566 9.1448 12.6439 9.00464 12 9.00464C9.59353 9.00464 7.64267 10.9555 7.64267 13.362C7.64267 13.8974 7.73964 14.4122 7.91773 14.8884L9.5238 14.2876C9.41648 14.0007 9.3574 13.6892 9.3574 13.362C9.3574 11.9025 10.5405 10.7194 12 10.7194C12.2912 10.7194 12.5706 10.7662 12.8316 10.8526L12.4679 11.3949L15.1729 11.1503ZM14.5801 12.7867C14.6209 12.9711 14.6427 13.1635 14.6427 13.362C14.6427 14.8215 13.4595 16.0046 12 16.0046C11.683 16.0046 11.3804 15.9492 11.1005 15.8478L11.5106 14.9572L8.87846 15.6277L10.0803 18.0634L10.3817 17.4087C10.883 17.6093 11.4296 17.7194 12 17.7194C14.4065 17.7194 16.3574 15.7685 16.3574 13.362C16.3574 13.0379 16.3219 12.7211 16.2541 12.4156L14.5801 12.7867Z" fill="#303236"/>
</svg>
