<svg width="24" height="24" viewBox="0 0 24 24" fill="none" xmlns="http://www.w3.org/2000/svg">
<path fill-rule="evenodd" clip-rule="evenodd" d="M18.75 9.25C18.75 5.52208 15.728 2.5 12 2.5C8.27212 2.5 5.25004 5.52208 5.25004 9.25V13.8063C5.25004 13.8591 5.23524 13.9109 5.20731 13.9557L3.47603 16.7357C3.26862 17.0687 3.5081 17.5 3.90046 17.5H20.0996C20.492 17.5 20.7315 17.0687 20.524 16.7357L18.7928 13.9557C18.7648 13.9109 18.75 13.8591 18.75 13.8063V9.25ZM16.0582 8.74536L15.4074 9.50462L12.3518 13.0696L11.7151 13.8123L10.9586 13.1921L9.01423 11.5983L8.24086 10.9643L9.50876 9.4176L10.2821 10.0516L11.4699 11.0252L13.8889 8.20304L14.5397 7.44378L16.0582 8.74536ZM9.27277 18.5C9.12214 18.5 9.00004 18.6221 9.00004 18.7727C9.00004 20.279 10.2211 21.5 11.7273 21.5H12.2728C13.779 21.5 15 20.279 15 18.7727C15 18.6221 14.8779 18.5 14.7273 18.5H9.27277Z" fill="#303236"/>
</svg>
