<svg width="24" height="24" viewBox="0 0 24 24" fill="none" xmlns="http://www.w3.org/2000/svg">
<path d="M15.712 16.1641C15.7077 16.1729 15.6964 16.1936 15.6885 16.2062C15.6664 16.2351 15.5474 16.3189 15.4393 16.339C15.5594 16.3138 15.6885 16.2053 15.712 16.1641Z" fill="#303236"/>
<path fill-rule="evenodd" clip-rule="evenodd" d="M6 2C4.89543 2 4 2.89543 4 4V20C4 21.1046 4.89543 22 6 22H18C19.1046 22 20 21.1046 20 20V7H16.5C15.6716 7 15 6.32843 15 5.5V2H6ZM9.67215 12.9869V16.2166L9.49531 16.2112L9.49401 16.2112L9.49076 16.2111L9.48172 16.2111C9.47458 16.211 9.46523 16.2111 9.45384 16.2114C9.4311 16.212 9.40012 16.2134 9.36238 16.2169C9.28713 16.2238 9.18361 16.2387 9.06419 16.2707C8.82578 16.3346 8.51598 16.469 8.24632 16.7513C7.64521 17.3805 7.46942 18.375 8.07497 18.9534C8.68052 19.532 9.66583 19.3108 10.267 18.6816C10.4327 18.5082 10.536 18.3482 10.5992 18.2259C10.6307 18.1648 10.6521 18.1135 10.6662 18.0748C10.6733 18.0554 10.6785 18.0393 10.6823 18.0266L10.687 18.0104L10.6885 18.0044L10.6892 18.002L10.6894 18.0009L10.7702 17.6673L10.7948 17.5665L10.8013 17.54L10.8026 17.5349L10.802 17.5371L10.7999 17.5445C10.7999 17.5445 10.7977 17.5519 10.7949 17.5596C10.7939 17.5624 10.7898 17.5738 10.7833 17.5875L10.7817 17.5905C10.7904 17.571 10.8007 17.5418 10.8037 17.531C10.8081 17.5133 10.8099 17.4987 10.8104 17.4952C10.8115 17.4859 10.8121 17.4765 10.8121 17.4765L10.8126 17.4666L10.8127 17.46L10.8128 17.4503L10.813 17.4207L10.8132 17.3159L10.8134 14.1935C10.8134 14.1374 10.8371 14.0656 10.8886 13.9991C10.9401 13.9327 11.0037 13.8919 11.058 13.8779L14.4923 12.9933C14.5425 12.9804 14.5621 12.9943 14.5655 12.997C14.5689 12.9996 14.5873 13.0151 14.5873 13.0669V14.6596C14.5873 14.7608 14.5032 14.8448 14.4021 14.8448L14.4022 15.1423C14.4021 14.8448 14.401 14.8448 14.401 14.8448L14.3997 14.8448L14.3965 14.8449L14.3881 14.845C14.3815 14.8452 14.373 14.8456 14.3627 14.8462C14.3422 14.8474 14.3147 14.8496 14.2812 14.8539C14.2145 14.8623 14.1232 14.8788 14.0176 14.9111C13.8062 14.9758 13.5331 15.1051 13.2872 15.3625C12.7161 15.9605 12.5449 16.9107 13.1258 17.4658C13.7071 18.021 14.6485 17.8063 15.2196 17.2084C15.3752 17.0455 15.4719 16.9008 15.5313 16.79C15.5609 16.7347 15.581 16.6882 15.5944 16.6525C15.6011 16.6347 15.6061 16.6197 15.6098 16.6076L15.6144 16.5918L15.616 16.5856L15.6167 16.583L15.617 16.5818L15.6172 16.5807L15.6973 16.2479L15.7217 16.1471L15.7282 16.1205L15.729 16.117L15.7271 16.1238L15.7257 16.1284L15.7226 16.1377C15.7217 16.1403 15.7178 16.1514 15.712 16.1641C15.7198 16.1456 15.7291 16.1166 15.7317 16.1063C15.7356 16.0894 15.7371 16.0759 15.7374 16.0732C15.7384 16.0644 15.7389 16.056 15.7389 16.056L15.7393 16.0469L15.7394 16.0407L15.7395 16.0312L15.7396 16.0017L15.7398 15.8969L15.74 11.8647C15.74 11.5935 15.7175 11.2429 15.6825 11.0808C15.6304 10.839 15.4098 10.7488 15.2802 10.7201C15.1305 10.6869 14.9586 10.6961 14.7941 10.7383L12.4684 11.3345C12.1564 11.4141 11.8437 11.4917 11.5308 11.5673L10.6527 11.7783C10.5048 11.8139 10.3537 11.8661 10.2265 11.9228C10.1628 11.9513 10.1011 11.9826 10.0468 12.0157C9.99689 12.0462 9.93494 12.089 9.88598 12.1449C9.83217 12.2063 9.79862 12.2796 9.7772 12.3357C9.75373 12.3972 9.73481 12.4652 9.71991 12.5341C9.69013 12.6717 9.67215 12.8321 9.67215 12.9869Z" fill="#303236"/>
</svg>
