<svg width="24" height="24" viewBox="0 0 24 24" fill="none" xmlns="http://www.w3.org/2000/svg">
<path fill-rule="evenodd" clip-rule="evenodd" d="M17.1195 7.98059H19.5214C19.9355 7.98059 20.1654 8.45997 19.9061 8.78284L18.4925 10.543C18.8355 10.8847 19.5214 11.773 19.5214 12.593H21.2783C21.7287 12.593 22.0938 12.9581 22.0938 13.4084V15.2805C22.0938 15.5256 21.9835 15.7578 21.7935 15.9126L19.1562 18.0621C18.5865 18.5265 17.9706 18.9226 17.3211 19.246L18.1064 20.0283C18.3191 20.2402 18.3191 20.5837 18.1064 20.7956L17.4215 21.4778C17.2088 21.6897 16.8639 21.6897 16.6512 21.4778L15.1853 20.0175C14.4489 20.191 13.6902 20.2803 12.9236 20.2803H9.20828C8.86444 20.2803 8.5272 20.2521 8.19873 20.1978L6.70683 21.684C6.49411 21.8959 6.14924 21.8959 5.93652 21.684L5.2517 21.0018C5.03898 20.7899 5.03898 20.4463 5.2517 20.2345L6.06932 19.42C4.54633 18.5142 3.4478 16.9694 3.14349 15.1553H1.54364C1.2434 15.1553 1 14.9119 1 14.6117V13.649C1 13.3488 1.2434 13.1054 1.54364 13.1054H3.14352C3.54535 10.7104 5.33136 8.78492 7.65078 8.17954C8.68416 9.63819 10.3893 10.5908 12.3178 10.5908C14.3326 10.5908 16.1036 9.55097 17.1195 7.98059ZM14.1836 13.6232C14.1836 14.341 14.7678 14.9229 15.4884 14.9229C16.209 14.9229 16.7931 14.341 16.7931 13.6232C16.7931 12.9053 16.209 12.3234 15.4884 12.3234C14.7678 12.3234 14.1836 12.9053 14.1836 13.6232Z" fill="#303236"/>
<path fill-rule="evenodd" clip-rule="evenodd" d="M12.3193 9.40457C10.0675 9.40457 8.24204 7.57911 8.24204 5.32728C8.24204 3.07546 10.0675 1.25 12.3193 1.25C14.5711 1.25 16.3966 3.07546 16.3966 5.32728C16.3966 7.57911 14.5711 9.40457 12.3193 9.40457ZM12.3195 3.63853L14.008 5.32708L12.3195 7.01564L10.6309 5.32708L12.3195 3.63853Z" fill="#303236"/>
</svg>
