<svg width="24" height="24" viewBox="0 0 24 24" fill="none" xmlns="http://www.w3.org/2000/svg">
<path fill-rule="evenodd" clip-rule="evenodd" d="M5 3H19C20.1046 3 21 3.89543 21 5V19C21 20.1046 20.1046 21 19 21H5C3.89543 21 3 20.1046 3 19V5C3 3.89543 3.89543 3 5 3ZM17.5934 6.77578C17.8211 7.03445 17.8064 7.42687 17.5601 7.66769L13.2983 11.8332C13.0445 12.0813 12.6387 12.0775 12.3895 11.8246L10.426 9.83219L7.57159 12.387C7.3036 12.6269 6.89196 12.601 6.65596 12.3294L6.15883 11.7573C5.92839 11.4921 5.95134 11.0908 6.2105 10.8537L9.9629 7.42196C10.2208 7.1861 10.6189 7.19878 10.8614 7.45057L12.8397 9.50501L16.1649 6.18822C16.4281 5.92563 16.8574 5.93961 17.1031 6.21878L17.5934 6.77578ZM7.03433 18C6.67808 18 6.38929 17.7103 6.38929 17.3529V14.1171C6.38929 13.7597 6.67808 13.47 7.03433 13.47H7.67937C8.03561 13.47 8.32441 13.7597 8.32441 14.1171V17.3529C8.32441 17.7103 8.03561 18 7.67937 18H7.03433ZM11.8721 18C11.5159 18 11.2271 17.7103 11.2271 17.3529V14.1171C11.2271 13.7597 11.5159 13.47 11.8721 13.47H12.5172C12.8734 13.47 13.1622 13.7597 13.1622 14.1171V17.3529C13.1622 17.7103 12.8734 18 12.5172 18H11.8721ZM16.7099 18C16.3537 18 16.0649 17.7103 16.0649 17.3529V12.1757C16.0649 11.8182 16.3537 11.5285 16.7099 11.5285H17.355C17.7112 11.5285 18 11.8182 18 12.1757V17.3529C18 17.7103 17.7112 18 17.355 18H16.7099Z" fill="#303236"/>
</svg>
