<svg width="24" height="24" viewBox="0 0 24 24" fill="none" xmlns="http://www.w3.org/2000/svg">
<path fill-rule="evenodd" clip-rule="evenodd" d="M7.09411 13.1999L11.692 17.7978C11.8873 17.9931 11.8873 18.3097 11.692 18.5049L10.7021 19.4949C10.5068 19.6901 10.1902 19.6901 9.99497 19.4949L2.85355 12.3534C2.65829 12.1582 2.65829 11.8416 2.85355 11.6463L9.99497 4.50492C10.1902 4.30966 10.5068 4.30966 10.7021 4.50492L11.692 5.49487C11.8873 5.69013 11.8873 6.00671 11.692 6.20198L7.09411 10.7999H21C21.2761 10.7999 21.5 11.0238 21.5 11.2999V12.6999C21.5 12.976 21.2761 13.1999 21 13.1999H7.09411Z" fill="#303236"/>
</svg>
