<svg width="24" height="24" viewBox="0 0 24 24" fill="none" xmlns="http://www.w3.org/2000/svg">
<path fill-rule="evenodd" clip-rule="evenodd" d="M3 4C2.44772 4 2 4.44772 2 5V17.0724C2 17.6233 2.44566 18.0705 2.99662 18.0723L8.8421 18.0921L11.3199 20.3738C11.7038 20.7273 12.2951 20.7261 12.6776 20.3711L15.1579 18.069H21C21.5523 18.069 22 17.6213 22 17.069V5C22 4.44772 21.5523 4 21 4H3ZM8.30006 10H5.50006V12.8H8.30006V10ZM13.4 10H10.6V12.8H13.4V10ZM15.7 10H18.5V12.8H15.7V10Z" fill="#303236"/>
</svg>
