<svg width="24" height="24" viewBox="0 0 24 24" fill="none" xmlns="http://www.w3.org/2000/svg">
<path d="M20.8839 4.88394C21.0792 5.0792 21.0792 5.39578 20.8839 5.59105L5.59105 20.8839C5.39579 21.0792 5.0792 21.0792 4.88394 20.8839L3.11617 19.1162C2.92091 18.9209 2.92091 18.6043 3.11617 18.4091L18.4091 3.11617C18.6043 2.92091 18.9209 2.92091 19.1162 3.11617L20.8839 4.88394Z" fill="#303236"/>
<path d="M9.87505 6.50005C9.87505 8.36401 8.36401 9.87505 6.50005 9.87505C4.63609 9.87505 3.12505 8.36401 3.12505 6.50005C3.12505 4.63609 4.63609 3.12505 6.50005 3.12505C8.36401 3.12505 9.87505 4.63609 9.87505 6.50005Z" fill="#303236"/>
<path d="M17.5001 20.8751C19.364 20.8751 20.8751 19.364 20.8751 17.5001C20.8751 15.6361 19.364 14.1251 17.5001 14.1251C15.6361 14.1251 14.1251 15.6361 14.1251 17.5001C14.1251 19.364 15.6361 20.8751 17.5001 20.8751Z" fill="#303236"/>
</svg>
