<svg width="24" height="24" viewBox="0 0 24 24" fill="none" xmlns="http://www.w3.org/2000/svg">
<path d="M2.50697 4.56922L9.97729 3.91565L11.0486 6.03642L3.79808 6.67076L4.66431 16.5718L7.17007 13.5729L10.43 16.3815L11.6365 15.0552L12.4033 16.4406L11.424 19.2906L3.85287 19.953C3.246 20.0061 2.71099 19.5571 2.6579 18.9503L1.50426 5.76419C1.45117 5.15732 1.9001 4.62231 2.50697 4.56922Z" fill="#303236"/>
<path d="M6.18803 8.67617L9.1549 8.4166L9.41447 11.3835L6.4476 11.643L6.18803 8.67617Z" fill="#303236"/>
<path d="M20.1471 20.055L12.3314 19.3712L13.7945 16.7276L12.7684 13.7411L16.6887 10.7105C16.927 10.5262 17.2692 10.5673 17.4571 10.8028L19.613 13.5043L20.2019 6.77275L14.2693 6.25372L13.5825 3.97913L21.493 4.67121C22.0999 4.7243 22.5488 5.25931 22.4957 5.86618L21.3421 19.0523C21.289 19.6591 20.754 20.1081 20.1471 20.055Z" fill="#303236"/>
</svg>
