<svg width="24" height="24" viewBox="0 0 24 24" fill="none" xmlns="http://www.w3.org/2000/svg">
<path d="M2.5 11C2.5 10.4477 2.94772 10 3.5 10H5.5C6.05228 10 6.5 10.4477 6.5 11V13C6.5 13.5523 6.05228 14 5.5 14H3.5C2.94772 14 2.5 13.5523 2.5 13V11Z" fill="#303236"/>
<path d="M10 11C10 10.4477 10.4477 10 11 10H13C13.5523 10 14 10.4477 14 11V13C14 13.5523 13.5523 14 13 14H11C10.4477 14 10 13.5523 10 13V11Z" fill="#303236"/>
<path d="M18.5 10C17.9477 10 17.5 10.4477 17.5 11V13C17.5 13.5523 17.9477 14 18.5 14H20.5C21.0523 14 21.5 13.5523 21.5 13V11C21.5 10.4477 21.0523 10 20.5 10H18.5Z" fill="#303236"/>
</svg>
