<svg width="24" height="24" viewBox="0 0 24 24" fill="none" xmlns="http://www.w3.org/2000/svg">
<path fill-rule="evenodd" clip-rule="evenodd" d="M7.5 5C7.5 3.89543 8.39543 3 9.5 3H19C20.1046 3 21 3.89543 21 5V19C21 20.1046 20.1046 21 19 21H8C7.72386 21 7.5 20.7761 7.5 20.5V5ZM13.5 8.75H12.75C11.6454 8.75 10.75 9.64543 10.75 10.75C10.75 11.8546 11.6454 12.75 12.75 12.75H15.75C16.0261 12.75 16.25 12.9739 16.25 13.25C16.25 13.5261 16.0261 13.75 15.75 13.75H11.25V15.25H13.5V16.75H15V15.25H15.75C16.8546 15.25 17.75 14.3546 17.75 13.25C17.75 12.1454 16.8546 11.25 15.75 11.25H12.75C12.4739 11.25 12.25 11.0261 12.25 10.75C12.25 10.4739 12.4739 10.25 12.75 10.25H17V8.75H15V7.5H13.5V8.75Z" fill="#303236"/>
<path d="M3.5 9C3.22386 9 3 9.22386 3 9.5V20.5C3 20.7761 3.22386 21 3.5 21H5.5C5.77614 21 6 20.7761 6 20.5V9.5C6 9.22386 5.77614 9 5.5 9H3.5Z" fill="#303236"/>
</svg>
