<svg width="24" height="24" viewBox="0 0 24 24" fill="none" xmlns="http://www.w3.org/2000/svg">
<path d="M18.6111 17.1103C18.8259 17.1103 19 17.2844 19 17.4992V18.5101C19 18.7249 18.8259 18.899 18.6111 18.899H5.38889C5.17411 18.899 5 18.7249 5 18.5101V17.4992C5 17.2844 5.17411 17.1103 5.38889 17.1103H18.6111Z" fill="#303236"/>
<path d="M6.09147 5.01448L17.9678 9.37505C18.1206 9.43133 18.2221 9.57676 18.2222 9.73964V10.9473C18.2222 11.1103 18.1208 11.2564 17.9678 11.3127L6.09147 15.6725C5.93919 15.7284 5.77778 15.6159 5.77778 15.4537V14.0539C5.77778 13.8908 5.8799 13.7447 6.03299 13.6885L15.143 10.3435L6.03299 6.99767C5.88001 6.94148 5.77792 6.79602 5.77778 6.63308V5.23323C5.77787 5.07111 5.93925 4.95866 6.09147 5.01448Z" fill="#303236"/>
</svg>
