<svg width="24" height="24" viewBox="0 0 24 24" fill="none" xmlns="http://www.w3.org/2000/svg">
<path d="M8.675 9.825C9.45833 10.6083 10.4 11 11.5 11C12.6 11 13.5417 10.6083 14.325 9.825C15.1083 9.04167 15.5 8.1 15.5 7C15.5 5.9 15.1083 4.95833 14.325 4.175C13.5417 3.39167 12.6 3 11.5 3C10.4 3 9.45833 3.39167 8.675 4.175C7.89167 4.95833 7.5 5.9 7.5 7C7.5 8.1 7.89167 9.04167 8.675 9.825Z" fill="#303236"/>
<path d="M12.2963 13.4023C12.4582 13.2805 12.3756 13 12.173 13H8.5C5.73858 13 3.5 15.2386 3.5 18V20C3.5 20.5523 3.94772 21 4.5 21H9.78988C9.60128 20.3663 9.5 19.695 9.5 19C9.5 16.7115 10.5982 14.6795 12.2963 13.4023Z" fill="#303236"/>
<path d="M15.25 12.5C15.25 12.2239 15.4739 12 15.75 12H16.75C17.0261 12 17.25 12.2239 17.25 12.5V20.5C17.25 20.7761 17.0261 21 16.75 21H15.75C15.4739 21 15.25 20.7761 15.25 20.5V12.5Z" fill="#303236"/>
<path d="M19 15C18.7239 15 18.5 15.2239 18.5 15.5V20.5C18.5 20.7761 18.7239 21 19 21H20C20.2761 21 20.5 20.7761 20.5 20.5V15.5C20.5 15.2239 20.2761 15 20 15H19Z" fill="#303236"/>
<path d="M12.5 17C12.2239 17 12 17.2239 12 17.5V20.5C12 20.7761 12.2239 21 12.5 21H13.5C13.7761 21 14 20.7761 14 20.5V17.5C14 17.2239 13.7761 17 13.5 17H12.5Z" fill="#303236"/>
</svg>
