<svg width="24" height="24" viewBox="0 0 24 24" fill="none" xmlns="http://www.w3.org/2000/svg">
<path d="M19.9896 7.07099C20.2657 7.07099 20.4896 7.29485 20.4896 7.57099V9.89297C20.4896 10.1691 20.2657 10.393 19.9896 10.393L7.78158 10.393V10.3915H3.49982C3.0854 10.3915 2.85087 9.91628 3.10296 9.58734L7.67679 3.6192C7.8512 3.39162 8.21491 3.51496 8.21491 3.80169L8.21491 7.07099L19.9896 7.07099Z" fill="#303236"/>
<path d="M4.01044 16.9314C3.7343 16.9314 3.51044 16.7075 3.51044 16.4314L3.51044 14.1094C3.51044 13.8333 3.7343 13.6094 4.01044 13.6094H16.2184V13.6107H20.5002C20.9146 13.6107 21.1491 14.0859 20.897 14.4149L16.3232 20.383C16.1488 20.6106 15.7851 20.4872 15.7851 20.2005V16.9314H4.01044Z" fill="#303236"/>
</svg>
