<svg width="24" height="24" viewBox="0 0 24 24" fill="none" xmlns="http://www.w3.org/2000/svg">
<path fill-rule="evenodd" clip-rule="evenodd" d="M2 7.5C2 6.39543 2.89543 5.5 4 5.5H16C17.1046 5.5 18 6.39543 18 7.5V9.75L21.2549 7.91914C21.5882 7.73165 22 7.97251 22 8.35492V15.6451C22 16.0275 21.5882 16.2683 21.2549 16.0809L18 14.25V16.5C18 17.6046 17.1046 18.5 16 18.5H4C2.89543 18.5 2 17.6046 2 16.5V7.5ZM9.25 8.5H10.75V15.5H9.25V8.5ZM5.75 11.5H7.25V15.5H5.75V11.5ZM14.25 10.5H12.75V15.5H14.25V10.5Z" fill="#303236"/>
</svg>
