<svg width="24" height="24" viewBox="0 0 24 24" fill="none" xmlns="http://www.w3.org/2000/svg">
<path d="M2 15.4998V8.49983C2 8.22369 2.22386 7.99983 2.5 7.99983H5.80551C5.9306 7.99983 6.05116 7.95294 6.14337 7.86841L11.1621 3.26791C11.4828 2.97393 12 3.20143 12 3.63648V20.3632C12 20.7983 11.4828 21.0258 11.1621 20.7318L6.14337 16.1313C6.05116 16.0467 5.9306 15.9998 5.80551 15.9998H2.5C2.22386 15.9998 2 15.776 2 15.4998Z" fill="#303236"/>
<path d="M14 19.9999C18.4183 19.9999 22 16.4181 22 11.9999C22 7.58159 18.4183 3.99987 14 3.99987V6.49987C17.0376 6.49987 19.5 8.96231 19.5 11.9999C19.5 15.0374 17.0376 17.4999 14 17.4999V19.9999Z" fill="#303236"/>
<path d="M17.5 12.0406C17.5 13.9933 15.933 15.5764 14 15.5764V8.50476C15.933 8.50476 17.5 10.0878 17.5 12.0406Z" fill="#303236"/>
</svg>
