<svg width="24" height="24" viewBox="0 0 24 24" fill="none" xmlns="http://www.w3.org/2000/svg">
<path fill-rule="evenodd" clip-rule="evenodd" d="M5 3H19C20.1046 3 21 3.89543 21 5V19C21 20.1046 20.1046 21 19 21H5C3.89543 21 3 20.1046 3 19V5C3 3.89543 3.89543 3 5 3ZM6.40657 6.77578C6.17888 7.03445 6.19357 7.42687 6.43995 7.66769L10.7017 11.8332C10.9555 12.0813 11.3613 12.0775 11.6105 11.8246L13.574 9.83219L16.4284 12.387C16.6964 12.6269 17.108 12.601 17.344 12.3294L17.8412 11.7573C18.0716 11.4921 18.0487 11.0908 17.7895 10.8537L14.0371 7.42196C13.7792 7.1861 13.3811 7.19878 13.1386 7.45057L11.1603 9.50501L7.83514 6.18822C7.57188 5.92563 7.14258 5.93961 6.89686 6.21878L6.40657 6.77578ZM16.9657 18C17.3219 18 17.6107 17.7103 17.6107 17.3528V14.1171C17.6107 13.7597 17.3219 13.47 16.9657 13.47H16.3206C15.9644 13.47 15.6756 13.7597 15.6756 14.1171V17.3528C15.6756 17.7103 15.9644 18 16.3206 18H16.9657ZM12.1279 18C12.4841 18 12.7729 17.7103 12.7729 17.3528V14.1171C12.7729 13.7597 12.4841 13.47 12.1279 13.47H11.4828C11.1266 13.47 10.8378 13.7597 10.8378 14.1171V17.3528C10.8378 17.7103 11.1266 18 11.4828 18H12.1279ZM7.29008 18C7.64633 18 7.93512 17.7103 7.93512 17.3528V12.1757C7.93512 11.8182 7.64633 11.5285 7.29008 11.5285H6.64504C6.28879 11.5285 6 11.8182 6 12.1757V17.3528C6 17.7103 6.28879 18 6.64504 18H7.29008Z" fill="#303236"/>
</svg>
