<svg width="24" height="24" viewBox="0 0 24 24" fill="none" xmlns="http://www.w3.org/2000/svg">
<path d="M19.8679 18.7755L20.9036 11.3819C21.0074 10.6408 20.4319 9.97914 19.6836 9.97914H17.0251C16.4935 9.97914 16.0219 9.63814 15.8553 9.13332L15.5137 8.09818L14.4336 4.69321C14.2071 3.97928 13.6007 3.45171 12.8623 3.3262L11.6246 3.11581C10.953 3.00167 10.3402 3.51909 10.3402 4.20026V7.03879C10.3402 7.59772 10.1063 8.13115 9.69524 8.50983L8.1001 9.97914V20.8975H17.428C18.6566 20.8975 19.6975 19.9923 19.8679 18.7755Z" fill="#303236"/>
<path d="M4.1001 9.89751C3.54781 9.89751 3.1001 10.3452 3.1001 10.8975V19.8975C3.1001 20.4498 3.54781 20.8975 4.1001 20.8975H6.1001V9.89751H4.1001Z" fill="#303236"/>
</svg>
