<svg width="24" height="24" viewBox="0 0 24 24" fill="none" xmlns="http://www.w3.org/2000/svg">
<path fill-rule="evenodd" clip-rule="evenodd" d="M4 4C2.89543 4 2 4.89543 2 6V18C2 19.1046 2.89543 20 4 20H20C21.1046 20 22 19.1046 22 18V6C22 4.89543 21.1046 4 20 4H4ZM6.11386 9.6925C6.65797 9.08335 7.43656 8.74926 8.36619 8.75C9.87222 8.75004 11.0181 9.61749 11.2325 10.9921L11.2705 11.2356H9.773L9.72626 11.0885C9.62778 10.7783 9.46016 10.5478 9.2387 10.3935C9.01638 10.2386 8.72565 10.1506 8.3661 10.1506C7.89034 10.1506 7.51571 10.3369 7.25487 10.6695C6.98959 11.0078 6.82876 11.5154 6.82876 12.1729C6.82876 12.8388 6.99268 13.3514 7.26334 13.6927C7.52964 14.0285 7.91294 14.2168 8.40063 14.2168C8.82792 14.2168 9.16981 14.0873 9.40416 13.8788C9.61818 13.6883 9.75472 13.4214 9.78111 13.0934H8.30902V11.8122H11.2854V12.7931C11.2854 13.6386 11.0064 14.3499 10.4916 14.8496C9.9774 15.3488 9.24815 15.6174 8.38336 15.6174C7.44061 15.6174 6.65718 15.2893 6.11149 14.6812C5.56817 14.0758 5.27991 13.2147 5.27991 12.1816C5.27991 11.1588 5.572 10.2991 6.11386 9.6925ZM14.2983 8.90685H18.577V10.2672H15.8026V11.6122H18.3381V12.9394H15.8026V15.416H14.2983V8.90685ZM11.9959 8.92131C12.4517 8.9211 12.9075 8.9212 13.3633 8.92129L13.4541 8.92131V15.416H11.9959V8.92131Z" fill="#303236"/>
</svg>
