<svg width="24" height="24" viewBox="0 0 24 24" fill="none" xmlns="http://www.w3.org/2000/svg">
<path d="M12.8536 3.85355C12.5386 3.53857 12 3.76165 12 4.20711V11C12 11.5523 12.4477 12 13 12H19.7929C20.2383 12 20.4614 11.4614 20.1464 11.1464L17.56 8.56L21 5.12L18.878 3L15.44 6.44L12.8536 3.85355Z" fill="#303236"/>
<path d="M11.1464 20.1464C11.4614 20.4614 12 20.2383 12 19.7929L12 13C12 12.4477 11.5523 12 11 12L4.20711 12C3.76165 12 3.53857 12.5386 3.85355 12.8536L6.44 15.44L3 18.88L5.122 21L8.56 17.56L11.1464 20.1464Z" fill="#303236"/>
</svg>
