<svg width="24" height="24" viewBox="0 0 24 24" fill="none" xmlns="http://www.w3.org/2000/svg">
<path d="M18.7153 4.59088C19.8108 5.58396 20.6725 6.80765 21.2382 8.17379C21.995 10.0009 22.1929 12.0114 21.8071 13.9511C21.4865 15.5627 20.7748 17.0653 19.7411 18.3296C19.3915 18.7571 18.7539 18.7543 18.3634 18.3638L16.9475 16.9482C16.5568 16.5575 16.5651 15.9278 16.8857 15.4779C17.3756 14.7904 17.7172 14.0041 17.8837 13.1688C18.1157 12.0048 17.9972 10.7982 17.5433 9.7015C17.0894 8.60483 16.3204 7.66743 15.3336 7.00789C14.3469 6.34835 13.1866 5.99632 11.9997 5.99632C10.8128 5.99632 9.6526 6.34835 8.66581 7.00789C7.67903 7.66743 6.91004 8.60483 6.45613 9.7015C6.00221 10.7982 5.88377 12.0048 6.11579 13.1688C6.28228 14.0041 6.62386 14.7905 7.11379 15.478C7.43443 15.9279 7.44275 16.5575 7.05208 16.9482L5.63646 18.3638C5.24596 18.7543 4.6084 18.7572 4.2588 18.3297C3.53734 17.4475 2.97041 16.4464 2.58475 15.3688C2.08652 13.9767 1.90324 12.4913 2.04811 11.0198C2.19298 9.54825 2.6624 8.12717 3.42255 6.85888C4.1827 5.59059 5.21467 4.50667 6.44412 3.68518C7.67357 2.8637 9.0699 2.3251 10.5325 2.10819C11.9952 1.89127 13.4877 2.00143 14.9027 2.43073C16.3176 2.86004 17.6198 3.5978 18.7153 4.59088Z" fill="#303236"/>
<path d="M9.3159 21.6289C9.05075 21.5542 8.9103 21.2703 8.9974 21.009L11.9998 12.0005L15.0026 21.009C15.0897 21.2703 14.9493 21.5542 14.6841 21.629C12.929 22.1236 11.071 22.1236 9.3159 21.6289Z" fill="#303236"/>
</svg>
