<svg width="24" height="24" viewBox="0 0 24 24" fill="none" xmlns="http://www.w3.org/2000/svg">
<path fill-rule="evenodd" clip-rule="evenodd" d="M5 3C3.89543 3 3 3.89543 3 5V19C3 20.1046 3.89543 21 5 21L10.1633 21V14.5714H7.57933C7.00349 14.5714 6.66002 13.9582 6.97944 13.5003L11.4001 7.49999C11.6855 7.09094 12.3145 7.09094 12.5999 7.49999L17.0206 13.5003C17.34 13.9582 16.9965 14.5714 16.4207 14.5714H13.8367V21L19 21C20.1046 21 21 20.1046 21 19V5C21 3.89543 20.1046 3 19 3H5Z" fill="#303236"/>
</svg>
