<svg width="24" height="24" viewBox="0 0 24 24" fill="none" xmlns="http://www.w3.org/2000/svg">
<path d="M3.5 3C3.22386 3 3 3.22386 3 3.5V5.5C3 5.77614 3.22386 6 3.5 6H20.5C20.7761 6 21 5.77614 21 5.5V3.5C21 3.22386 20.7761 3 20.5 3H3.5Z" fill="#303236"/>
<path d="M3.5 10.5C3.22386 10.5 3 10.7239 3 11V13C3 13.2761 3.22386 13.5 3.5 13.5H8.5C8.77614 13.5 9 13.2761 9 13V11C9 10.7239 8.77614 10.5 8.5 10.5H3.5Z" fill="#303236"/>
<path d="M3 18.5C3 18.2239 3.22386 18 3.5 18H8.5C8.77614 18 9 18.2239 9 18.5V20.5C9 20.7761 8.77614 21 8.5 21H3.5C3.22386 21 3 20.7761 3 20.5V18.5Z" fill="#303236"/>
<path d="M17.5 13.1213L19.5858 15.2071C19.781 15.4024 20.0976 15.4024 20.2929 15.2071L21.7071 13.7929C21.9024 13.5976 21.9024 13.281 21.7071 13.0858L17.0607 8.43934C16.4749 7.85355 15.5251 7.85355 14.9393 8.43934L10.2929 13.0858C10.0976 13.281 10.0976 13.5976 10.2929 13.7929L11.7071 15.2071C11.9024 15.4024 12.2189 15.4024 12.4142 15.2071L14.5 13.1213L14.5 20.5607C14.5 20.8368 14.7238 21.0607 15 21.0607H17C17.2761 21.0607 17.5 20.8368 17.5 20.5607L17.5 13.1213Z" fill="#303236"/>
</svg>
