<svg width="24" height="24" viewBox="0 0 24 24" fill="none" xmlns="http://www.w3.org/2000/svg">
<path d="M4.18421 4.43077C3.42632 4.89231 3 5.35385 3 5.86154V7.29231C3 7.8 3.42632 8.30769 4.23158 8.72308C5.03684 9.18461 6.12632 9.50769 7.5 9.78462C8.87368 10.0615 10.3421 10.1538 12 10.1538C13.6579 10.1538 15.1263 10.0154 16.5 9.78462C17.8737 9.50769 18.9632 9.18461 19.7684 8.72308C20.5737 8.26154 21 7.8 21 7.29231V5.86154C21 5.35385 20.5737 4.84615 19.7684 4.43077C18.9632 3.96923 17.8737 3.64615 16.5 3.36923C15.1263 3.09231 13.6105 3 12 3C10.3895 3 8.87368 3.13846 7.5 3.36923C6.07895 3.64615 4.98947 4.01538 4.18421 4.43077ZM3.31103 16.3876C3.17435 16.3091 3 16.4058 3 16.5634V18.1385C3 18.6462 3.42632 19.1538 4.23158 19.5692C5.03684 20.0308 6.12632 20.3538 7.5 20.6308C8.87368 20.9077 10.3895 21 12 21C13.6105 21 15.1263 20.8615 16.5 20.6308C17.8737 20.3538 18.9632 20.0308 19.7684 19.5692C20.5737 19.1077 21 18.6462 21 18.1385V16.5785C21 16.4178 20.8191 16.3212 20.6813 16.4039C19.7808 16.9447 18.6462 17.3428 17.2105 17.6308C15.6 17.9538 13.8474 18.1385 12 18.1385C10.1526 18.1385 8.4 17.9538 6.78947 17.6308C5.3497 17.3419 4.21278 16.9056 3.31103 16.3876ZM3.31866 10.9578C3.18089 10.8751 3 10.9716 3 11.1323V12.6923C3 13.2 3.42632 13.7077 4.23158 14.1231C5.03684 14.5846 6.12632 14.9077 7.5 15.1846C8.87368 15.4615 10.3895 15.5538 12 15.5538C13.6105 15.5538 15.1263 15.4154 16.5 15.1846C17.8737 14.9077 18.9632 14.5846 19.7684 14.1231C20.5737 13.6615 21 13.2 21 12.6923V11.1323C21 10.9716 20.8191 10.8751 20.6813 10.9578C19.7808 11.4986 18.6462 11.8966 17.2105 12.1846C15.6 12.5077 13.8474 12.6923 12 12.6923C10.1526 12.6923 8.4 12.5077 6.78947 12.1846C5.35376 11.8966 4.2192 11.4986 3.31866 10.9578Z" fill="#303236"/>
</svg>
