<svg width="24" height="24" viewBox="0 0 24 24" fill="none" xmlns="http://www.w3.org/2000/svg">
<path d="M10.0714 4.125V19.875C10.0711 20.1733 9.94396 20.4592 9.71799 20.6701C9.49202 20.881 9.18564 20.9997 8.86607 21H6.45536C6.13579 20.9997 5.82941 20.881 5.60344 20.6701C5.37747 20.4592 5.25036 20.1733 5.25 19.875V4.125C5.25036 3.82673 5.37747 3.54078 5.60344 3.32987C5.82941 3.11897 6.13579 3.00033 6.45536 3H8.86607C9.18564 3.00033 9.49202 3.11897 9.71799 3.32987C9.94396 3.54078 10.0711 3.82673 10.0714 4.125Z" fill="#303236"/>
<path d="M17.5446 3H15.1339C14.8144 3.00033 14.508 3.11897 14.282 3.32987C14.056 3.54078 13.9289 3.82673 13.9286 4.125V19.875C13.9289 20.1733 14.056 20.4592 14.282 20.6701C14.508 20.881 14.8144 20.9997 15.1339 21H17.5446C17.8642 20.9997 18.1706 20.881 18.3966 20.6701C18.6225 20.4592 18.7496 20.1733 18.75 19.875V4.125C18.7496 3.82673 18.6225 3.54078 18.3966 3.32987C18.1706 3.11897 17.8642 3.00033 17.5446 3Z" fill="#303236"/>
</svg>
