<svg width="24" height="24" viewBox="0 0 24 24" fill="none" xmlns="http://www.w3.org/2000/svg">
<path fill-rule="evenodd" clip-rule="evenodd" d="M9.37075 3.22249C9.86343 2.802 10.2156 2.50152 10.6 2.31713C11.0372 2.10835 11.5155 2 12 2C12.4845 2 12.9628 2.10835 13.4 2.31713C13.7821 2.49944 14.1323 2.79839 14.6204 3.21493L14.6293 3.22249L14.7063 3.28688C15.1317 3.67031 15.6759 3.89591 16.2478 3.9259L16.3473 3.9337L16.3621 3.93489C17.0002 3.98597 17.4577 4.02259 17.8566 4.16297C18.3133 4.32459 18.7281 4.58632 19.0706 4.929C19.4131 5.27167 19.6747 5.68662 19.8361 6.14345C19.9774 6.54235 20.014 6.99986 20.0651 7.63804L20.0663 7.65271L20.0741 7.75222C20.1041 8.3241 20.3297 8.86831 20.7131 9.29367L20.7775 9.37075C21.198 9.86343 21.4985 10.2156 21.6829 10.6C21.8916 11.0372 22 11.5155 22 12C22 12.4845 21.8916 12.9628 21.6829 13.4C21.5006 13.7821 21.2016 14.1324 20.785 14.6204L20.7775 14.6293L20.7131 14.7063C20.3063 15.1844 20.1229 15.6341 20.0741 16.2478L20.0663 16.3473L20.0651 16.3621C20.014 17.0002 19.9774 17.4577 19.837 17.8566C19.6754 18.3133 19.4137 18.7281 19.071 19.0706C18.7283 19.4131 18.3134 19.6747 17.8566 19.8361C17.4577 19.9774 17.0001 20.014 16.362 20.0651L16.3473 20.0663L16.2478 20.0741C15.6224 20.1239 15.1746 20.3131 14.7063 20.7131L14.6293 20.7775C14.1366 21.198 13.7844 21.4985 13.4 21.6829C12.9628 21.8916 12.4845 22 12 22C11.5155 22 11.0372 21.8916 10.6 21.6829C10.2179 21.5006 9.86764 21.2016 9.37958 20.7851L9.37075 20.7775L9.29367 20.7131C8.81563 20.3063 8.36587 20.1229 7.75222 20.0741L7.65271 20.0663L7.63791 20.0651C6.9998 20.014 6.54232 19.9774 6.14345 19.837C5.6867 19.6754 5.27188 19.4137 4.92937 19.071C4.58687 18.7283 4.32534 18.3134 4.16395 17.8566C4.02259 17.4577 3.98597 17.0001 3.93488 16.362L3.9337 16.3473L3.9259 16.2478C3.87614 15.6224 3.68688 15.1746 3.28688 14.7063L3.22249 14.6293C2.802 14.1366 2.50152 13.7844 2.31713 13.4C2.10835 12.9628 2 12.4845 2 12C2 11.5155 2.10835 11.0372 2.31713 10.6C2.4987 10.2195 2.79596 9.8705 3.20986 9.38459L3.22249 9.36977L3.28688 9.29367C3.67031 8.86831 3.89591 8.3241 3.9259 7.75222L3.9337 7.65271L3.93489 7.63791C3.98597 6.9998 4.02259 6.54232 4.16297 6.14345C4.32459 5.6867 4.58632 5.27188 4.929 4.92937C5.27167 4.58687 5.68662 4.32534 6.14345 4.16395C6.54235 4.02259 6.99986 3.98597 7.63804 3.93488L7.65271 3.9337L7.75222 3.9259C8.3241 3.89591 8.86831 3.67031 9.29367 3.28688L9.37075 3.22249ZM14.6052 9.39607C14.6052 10.8349 13.4388 12.0013 11.9999 12.0013C10.5611 12.0013 9.39471 10.8349 9.39471 9.39607C9.39471 7.95724 10.5611 6.79083 11.9999 6.79083C13.4388 6.79083 14.6052 7.95724 14.6052 9.39607ZM7.52857 15.3088C7.34267 14.9989 7.41913 14.6079 7.67467 14.3524L8.01764 14.0094C8.34336 13.6837 8.78513 13.5007 9.24577 13.5007H14.7542C15.2149 13.5007 15.6566 13.6837 15.9824 14.0094L16.3253 14.3523C16.5809 14.6079 16.6573 14.9989 16.4714 15.3088C15.5608 16.8268 13.899 17.8428 12 17.8428C10.1009 17.8428 8.43919 16.8268 7.52857 15.3088Z" fill="#303236"/>
</svg>
