<svg width="24" height="24" viewBox="0 0 24 24" fill="none" xmlns="http://www.w3.org/2000/svg">
<path d="M21.4998 8.83323C21.4998 10.9013 20.5085 12.7379 18.9752 13.8938C18.9916 13.6814 19 13.4666 19 13.25C19 8.69362 15.3063 4.99997 10.75 4.99997C10.5331 4.99997 10.3181 5.00834 10.1053 5.02478C11.2612 3.49121 13.098 2.49976 15.1663 2.49976C18.6642 2.49976 21.4998 5.33535 21.4998 8.83323Z" fill="#303236"/>
<path fill-rule="evenodd" clip-rule="evenodd" d="M17.2779 14.1111C17.2779 18.192 13.9697 21.5002 9.88881 21.5002C5.80795 21.5002 2.49976 18.192 2.49976 14.1111C2.49976 10.0303 5.80795 6.72208 9.88881 6.72208C13.9697 6.72208 17.2779 10.0303 17.2779 14.1111ZM7.20451 14.1112L9.89157 11.4241L12.5786 14.1112L9.89157 16.7983L7.20451 14.1112Z" fill="#303236"/>
</svg>
