<svg width="24" height="24" viewBox="0 0 24 24" fill="none" xmlns="http://www.w3.org/2000/svg">
<path d="M20 6.5C20 6.77614 19.7761 7 19.5 7H3.5C3.22386 7 3 6.77614 3 6.5V4.5C3 4.22386 3.22386 4 3.5 4H19.5C19.7761 4 20 4.22386 20 4.5V6.5Z" fill="#303236"/>
<path d="M12 20V17H3.5C3.22386 17 3 17.2239 3 17.5V19.5C3 19.7761 3.22386 20 3.5 20H12Z" fill="#303236"/>
<path d="M15.7632 10.5L14.0263 13.5H3.5C3.22386 13.5 3 13.2761 3 13V11C3 10.7239 3.22386 10.5 3.5 10.5H15.7632Z" fill="#303236"/>
<path d="M19.433 9.25C19.1939 9.11193 18.8881 9.19387 18.75 9.43301L14.059 17.558C14.0202 17.6253 13.9976 17.7006 13.9929 17.7781L13.823 20.609C13.8131 20.7736 13.9953 20.8787 14.1328 20.7879L16.4996 19.2253C16.5644 19.1825 16.6183 19.1253 16.6571 19.058L21.3481 10.933C21.4861 10.6939 21.4042 10.3881 21.1651 10.25L19.433 9.25Z" fill="#303236"/>
</svg>
