<svg width="24" height="24" viewBox="0 0 24 24" fill="none" xmlns="http://www.w3.org/2000/svg">
<path d="M14.121 12.1602L17.561 8.72016L20.1464 11.3063C20.4614 11.6214 21 11.3983 21 10.9528V4.16016C21 3.60787 20.5523 3.16016 20 3.16016H13.2071C12.7617 3.16016 12.5386 3.69873 12.8536 4.01371L15.44 6.60016L12 10.0382L14.121 12.1582V12.1602ZM3 13.3673C3 12.9218 3.53857 12.6987 3.85355 13.0137L6.44 15.6002L9.878 12.1602L12 14.2802L8.56 17.7202L11.1464 20.3066C11.4614 20.6216 11.2383 21.1602 10.7929 21.1602H4C3.44772 21.1602 3 20.7124 3 20.1602V13.3673Z" fill="#303236"/>
</svg>
