<svg width="24" height="24" viewBox="0 0 24 24" fill="none" xmlns="http://www.w3.org/2000/svg">
<path d="M9 3C7.89543 3 7 3.89543 7 5V6.5C7 6.77614 7.22386 7 7.5 7H8.5C8.77614 7 9 6.77614 9 6.5V5H11V3H9Z" fill="#303236"/>
<path d="M12.5 5H15.5V3H12.5V5Z" fill="#303236"/>
<path d="M17 5H19V7H21V5C21 3.89543 20.1046 3 19 3H17V5Z" fill="#303236"/>
<path d="M19 8.5V12.5H21V8.5H19Z" fill="#303236"/>
<path d="M19 14V16H17.5C17.2239 16 17 16.2239 17 16.5V17.5C17 17.7761 17.2239 18 17.5 18H19C20.1046 18 21 17.1046 21 16V14H19Z" fill="#303236"/>
<path d="M4 8C3.44772 8 3 8.44772 3 9V20C3 20.5523 3.44772 21 4 21H15C15.5523 21 16 20.5523 16 20V9C16 8.44772 15.5523 8 15 8H4Z" fill="#303236"/>
</svg>
