<svg width="24" height="24" viewBox="0 0 24 24" fill="none" xmlns="http://www.w3.org/2000/svg">
<path d="M9.175 9.825C9.95833 10.6083 10.9 11 12 11C13.1 11 14.0417 10.6083 14.825 9.825C15.6083 9.04167 16 8.1 16 7C16 5.9 15.6083 4.95833 14.825 4.175C14.0417 3.39167 13.1 3 12 3C10.9 3 9.95833 3.39167 9.175 4.175C8.39167 4.95833 8 5.9 8 7C8 8.1 8.39167 9.04167 9.175 9.825Z" fill="#303236"/>
<path d="M12.8924 13H8.5C5.73858 13 3.5 15.2386 3.5 18V20C3.5 20.5523 3.94772 21 4.5 21H9.78988C9.60128 20.3663 9.5 19.695 9.5 19C9.5 16.4537 10.8596 14.2249 12.8924 13Z" fill="#303236"/>
<path d="M14.1937 13.7193C14.9061 13.4195 15.8436 13.25 16.8445 13.25C17.8454 13.25 18.7829 13.4195 19.4953 13.7193C19.8496 13.8684 20.1819 14.0639 20.4367 14.3175C20.693 14.5726 20.9159 14.9357 20.9159 15.3929C20.9159 15.85 20.693 16.2131 20.4367 16.4682C20.1819 16.7218 19.8496 16.9173 19.4953 17.0664C18.7829 17.3662 17.8454 17.5357 16.8445 17.5357C15.8436 17.5357 14.9061 17.3662 14.1937 17.0664C13.8394 16.9173 13.5071 16.7218 13.2523 16.4682C12.996 16.2131 12.7731 15.85 12.7731 15.3929C12.7731 14.9357 12.996 14.5726 13.2523 14.3175C13.5071 14.0639 13.8394 13.8684 14.1937 13.7193Z" fill="#303236"/>
<path d="M12.8932 17.6656C12.8503 17.623 12.7732 17.6521 12.7732 17.7126V19.1331H12.7759C12.8023 19.5326 13.0127 19.8524 13.2524 20.0816C13.5072 20.3252 13.8395 20.513 14.1938 20.6563C14.9062 20.9443 15.8437 21.1071 16.8446 21.1071C17.8456 21.1071 18.783 20.9443 19.4954 20.6563C19.8497 20.513 20.182 20.3252 20.4368 20.0816C20.6765 19.8524 20.887 19.5326 20.9133 19.1331H20.916V17.7126C20.916 17.6522 20.8389 17.623 20.7961 17.6656C20.5157 17.9446 20.1502 18.1597 19.7605 18.3236C18.9769 18.6535 17.9457 18.8399 16.8446 18.8399C15.7436 18.8399 14.7123 18.6535 13.9288 18.3236C13.5391 18.1597 13.1735 17.9446 12.8932 17.6656Z" fill="#303236"/>
</svg>
