<svg width="24" height="24" viewBox="0 0 24 24" fill="none" xmlns="http://www.w3.org/2000/svg">
<path fill-rule="evenodd" clip-rule="evenodd" d="M11.013 21.4905C11.6252 21.8365 12.3748 21.8365 12.987 21.4905L18.474 18.3898C19.7262 17.6822 20.5 16.3589 20.5 14.925V6.52667C20.5 5.68215 19.9653 4.92942 19.1656 4.64835L12.6656 2.36356C12.2349 2.21215 11.7651 2.21215 11.3344 2.36356L4.83436 4.64835C4.03474 4.92942 3.5 5.68215 3.5 6.52667V14.925C3.5 16.3589 4.27376 17.6822 5.52599 18.3898L11.013 21.4905ZM14.5 10.0971C14.5 11.1181 13.883 11.9955 13 12.3797V16.5707H11V12.3797C10.117 11.9955 9.5 11.1181 9.5 10.0971C9.5 8.72197 10.6193 7.60723 12 7.60723C13.3807 7.60723 14.5 8.72197 14.5 10.0971Z" fill="#303236"/>
</svg>
