<svg width="24" height="24" viewBox="0 0 24 24" fill="none" xmlns="http://www.w3.org/2000/svg">
<rect width="24" height="24" fill="white"/>
<path d="M12 6.16699C10.8462 6.16679 9.71825 6.50862 8.75879 7.14941C7.79935 7.79031 7.05108 8.70167 6.60938 9.76758C6.16771 10.8336 6.05232 12.0069 6.27734 13.1387C6.50242 14.2705 7.05806 15.31 7.87402 16.126C8.68998 16.9419 9.72955 17.4976 10.8613 17.7227C11.9931 17.9477 13.1664 17.8323 14.2324 17.3906C15.2983 16.9489 16.2097 16.2007 16.8506 15.2412C17.4914 14.2818 17.8332 13.1538 17.833 12H22C22 17.523 17.523 22 12 22C6.477 22 2 17.523 2 12C2 6.477 6.477 2 12 2V6.16699Z" fill="#303236"/>
<path d="M17.833 6.16699V12H12V6.16699H17.833Z" fill="#303236"/>
</svg>
