<svg width="24" height="24" viewBox="0 0 24 24" fill="none" xmlns="http://www.w3.org/2000/svg">
<path fill-rule="evenodd" clip-rule="evenodd" d="M20.9256 12.3993C20.9226 13.0289 20.835 13.6552 20.6649 14.2614C21.2927 14.4213 21.8409 14.804 22.2073 15.3383C22.5737 15.8725 22.7332 16.5218 22.6562 17.165C22.5793 17.8082 22.271 18.4015 21.7888 18.8341C21.3067 19.2668 20.6837 19.5094 20.0359 19.5166H14.9383V19.5153C14.4701 19.4895 14.0983 19.1016 14.0983 18.6269C14.0983 18.1522 14.4701 17.7644 14.9383 17.7386V17.7373H14.9808L14.988 17.7373L14.9951 17.7373H20.0359C20.2719 17.7373 20.4982 17.6436 20.665 17.4767C20.8319 17.3099 20.9256 17.0836 20.9256 16.8476C20.9256 16.6117 20.8319 16.3854 20.665 16.2185C20.4982 16.0517 20.2719 15.958 20.0359 15.958H2.56467C2.43045 15.9579 2.29798 15.9275 2.17717 15.8691C2.05637 15.8106 1.95036 15.7255 1.86709 15.6203C1.78382 15.515 1.72545 15.3923 1.69634 15.2612C1.66724 15.1302 1.66815 14.9943 1.69902 14.8637C2.21242 12.7115 3.2907 10.7352 4.82264 9.13868L5.73188 5.17343C5.7581 5.05949 5.80652 4.95182 5.87438 4.85661C5.94225 4.76139 6.02821 4.68048 6.12736 4.61851C6.22652 4.55654 6.33691 4.51472 6.45224 4.49545C6.56757 4.47617 6.68556 4.47982 6.79948 4.50619C7.798 4.73692 8.6845 5.30935 9.30567 6.12449C10.7407 5.56493 12.268 5.27916 13.8083 5.28197C15.6952 5.28409 17.5043 6.03463 18.8386 7.36893C20.1729 8.70323 20.9235 10.5123 20.9256 12.3993ZM6.96978 12.8833C7.66945 12.8833 8.23665 12.3161 8.23665 11.6164C8.23665 10.9167 7.66945 10.3495 6.96978 10.3495C6.2701 10.3495 5.70291 10.9167 5.70291 11.6164C5.70291 12.3161 6.2701 12.8833 6.96978 12.8833Z" fill="#303236"/>
</svg>
