<svg width="24" height="24" viewBox="0 0 24 24" fill="none" xmlns="http://www.w3.org/2000/svg">
<path d="M6 6.5C6 6.22386 6.22386 6 6.5 6H7.5C7.77614 6 8 6.22386 8 6.5V7.5C8 7.77614 7.77614 8 7.5 8H6.5C6.22386 8 6 7.77614 6 7.5V6.5Z" fill="#303236"/>
<path fill-rule="evenodd" clip-rule="evenodd" d="M11 5V9C11 10.1046 10.1046 11 9 11H5C3.89543 11 3 10.1046 3 9V5C3 3.89543 3.89543 3 5 3H9C10.1046 3 11 3.89543 11 5ZM5 5H9V9H5V5Z" fill="#303236"/>
<path d="M6 16.5C6 16.2239 6.22386 16 6.5 16H7.5C7.77614 16 8 16.2239 8 16.5V17.5C8 17.7761 7.77614 18 7.5 18H6.5C6.22386 18 6 17.7761 6 17.5V16.5Z" fill="#303236"/>
<path fill-rule="evenodd" clip-rule="evenodd" d="M5 13C3.89543 13 3 13.8954 3 15V19C3 20.1046 3.89543 21 5 21H9C10.1046 21 11 20.1046 11 19V15C11 13.8954 10.1046 13 9 13H5ZM5 15H9V19H5V15Z" fill="#303236"/>
<path d="M16 6.5C16 6.22386 16.2239 6 16.5 6H17.5C17.7761 6 18 6.22386 18 6.5V7.5C18 7.77614 17.7761 8 17.5 8H16.5C16.2239 8 16 7.77614 16 7.5V6.5Z" fill="#303236"/>
<path fill-rule="evenodd" clip-rule="evenodd" d="M13 5C13 3.89543 13.8954 3 15 3H19C20.1046 3 21 3.89543 21 5V9C21 10.1046 20.1046 11 19 11H15C13.8954 11 13 10.1046 13 9V5ZM15 5H19V9H15V5Z" fill="#303236"/>
<path d="M15.5 13C15.2239 13 15 13.2239 15 13.5V14.5C15 14.7761 15.2239 15 15.5 15H19.5C19.7761 15 20 14.7761 20 14.5V13.5C20 13.2239 19.7761 13 19.5 13H15.5Z" fill="#303236"/>
<path d="M13.5 15C13.2239 15 13 15.2239 13 15.5V18.5C13 18.7761 13.2239 19 13.5 19H14.5C14.7761 19 15 18.7761 15 18.5V15.5C15 15.2239 14.7761 15 14.5 15H13.5Z" fill="#303236"/>
<path d="M20.5 16C20.2239 16 20 16.2239 20 16.5V18.5C20 18.7761 20.2239 19 20.5 19H21.5C21.7761 19 22 18.7761 22 18.5V16.5C22 16.2239 21.7761 16 21.5 16H20.5Z" fill="#303236"/>
<path d="M18.5 16C18.7761 16 19 16.2239 19 16.5V17.5C19 17.7761 18.7761 18 18.5 18H16.5C16.2239 18 16 17.7761 16 17.5V16.5C16 16.2239 16.2239 16 16.5 16H18.5Z" fill="#303236"/>
<path d="M15 19.5C15 19.2239 15.2239 19 15.5 19H19.5C19.7761 19 20 19.2239 20 19.5V20.5C20 20.7761 19.7761 21 19.5 21H15.5C15.2239 21 15 20.7761 15 20.5V19.5Z" fill="#303236"/>
</svg>
