<svg width="24" height="24" viewBox="0 0 24 24" fill="none" xmlns="http://www.w3.org/2000/svg">
<path d="M5.60319 10.5431H12.4491L11.3314 8.80435H6.84515L5.60319 10.5431Z" fill="#303236"/>
<path d="M6.34744 12.0652C5.87741 12.077 5.5 12.4617 5.5 12.9345C5.5 13.4148 5.88932 13.8041 6.36957 13.8041C6.84981 13.8041 7.23913 13.4148 7.23913 12.9345C7.23913 12.4617 6.86172 12.077 6.39169 12.0652H6.34744Z" fill="#303236"/>
<path d="M11.5974 12.0652C11.1274 12.077 10.75 12.4617 10.75 12.9345C10.75 13.4148 11.1393 13.8041 11.6196 13.8041C12.0998 13.8041 12.4891 13.4148 12.4891 12.9345C12.4891 12.4617 12.1117 12.077 11.6417 12.0652H11.5974Z" fill="#303236"/>
<path fill-rule="evenodd" clip-rule="evenodd" d="M4 4C2.89543 4 2 4.89543 2 6V18C2 19.1046 2.89543 20 4 20H20C21.1046 20 22 19.1046 22 18V6C22 4.89543 21.1046 4 20 4H4ZM4.00028 10.5431L6.17391 7.5H12.0435L13.9998 10.5431L14 15.3257H12.6957V16.6299H10.9565V15.3257H7.04348V16.6299H5.30435V15.3257H4L4.00028 10.5431ZM20 8.25H15.5V10.55H20V8.25ZM20 13H15.5V15.3H20V13Z" fill="#303236"/>
</svg>
