<svg width="24" height="24" viewBox="0 0 24 24" fill="none" xmlns="http://www.w3.org/2000/svg">
<path fill-rule="evenodd" clip-rule="evenodd" d="M15.0886 17.9312C16.5808 16.3997 17.5 14.3072 17.5 12C17.5 9.69279 16.5808 7.60029 15.0886 6.06876C15.3858 6.02347 15.6901 5.99998 16 5.99998C19.3137 5.99998 22 8.68627 22 12C22 15.3137 19.3137 18 16 18C15.6901 18 15.3858 17.9765 15.0886 17.9312Z" fill="#303236"/>
<path fill-rule="evenodd" clip-rule="evenodd" d="M9 19C12.866 19 16 15.866 16 12C16 8.13401 12.866 5 9 5C5.13401 5 2 8.13401 2 12C2 15.866 5.13401 19 9 19ZM9 9.17157L6.17157 12L9 14.8284L11.8284 12L9 9.17157Z" fill="#303236"/>
</svg>
