<svg width="24" height="24" viewBox="0 0 24 24" fill="none" xmlns="http://www.w3.org/2000/svg">
<path d="M7.5 9.57178H5.92871V19.2856H13.2139V18.2856H15.6426V19.8931C15.6424 20.8985 14.8268 21.7144 13.8213 21.7144H5.32129C4.31587 21.7143 3.50015 20.8985 3.5 19.8931V8.96436C3.5 7.95882 4.31577 7.14314 5.32129 7.14307H7.5V9.57178Z" fill="#303236"/>
<path fill-rule="evenodd" clip-rule="evenodd" d="M16.1016 2.28564C16.5835 2.28564 17.0472 2.47928 17.3887 2.8208L19.9648 5.39697C20.3064 5.73849 20.5 6.20216 20.5 6.68408V15.4644C20.4999 16.4698 19.6842 17.2856 18.6787 17.2856H10.3213C9.31582 17.2856 8.50008 16.4698 8.5 15.4644V4.10693C8.50008 3.10146 9.31582 2.28572 10.3213 2.28564H16.1016ZM11.2598 9.91357H13.2012V13.2856H15.3184V9.91357H17.2598L14.2598 6.73682L11.2598 9.91357Z" fill="#303236"/>
</svg>
