<svg width="24" height="24" viewBox="0 0 24 24" fill="none" xmlns="http://www.w3.org/2000/svg">
<path fill-rule="evenodd" clip-rule="evenodd" d="M6.20706 2H17.7928C18.2383 2 18.4614 2.53857 18.1464 2.85355L16.2928 4.70711C16.1053 4.89464 16 5.149 16 5.41421V10.5858C16 10.851 16.1053 11.1054 16.2928 11.2929L20.1464 15.1464C20.4614 15.4614 20.2383 16 19.7928 16H13.5V21.5C13.5 21.7761 13.2761 22 12.9999 22H10.9999C10.7238 22 10.4999 21.7761 10.4999 21.5V16H4.20706C3.76161 16 3.53852 15.4614 3.8535 15.1464L7.70706 11.2929C7.89459 11.1054 7.99995 10.851 7.99995 10.5858V5.41421C7.99995 5.149 7.89459 4.89464 7.70706 4.70711L5.8535 2.85355C5.53852 2.53857 5.7616 2 6.20706 2Z" fill="#303236"/>
</svg>
