<svg width="24" height="24" viewBox="0 0 24 24" fill="none" xmlns="http://www.w3.org/2000/svg">
<path d="M22.0001 12C22.0001 17.5229 17.5229 22.0001 12 22.0001C6.47717 22.0001 2 17.5229 2 12C2 6.47717 6.47717 2 12 2C17.5229 2 22.0001 6.47717 22.0001 12ZM8.84224 8.5C8.12427 8.5 7.54224 9.08203 7.54224 9.8C7.54224 10.518 8.12427 11.1 8.84224 11.1C9.56021 11.1 10.1422 10.518 10.1422 9.8C10.1422 9.08203 9.56021 8.5 8.84224 8.5ZM9.06307 14.2513L8.59091 13.6686L7.42546 14.6129L7.89762 15.1957C10.0956 17.9083 14.2336 17.9083 16.4315 15.1957L16.9036 14.6129L15.7382 13.6686L15.266 14.2513C13.6684 16.2231 10.6607 16.2231 9.06307 14.2513ZM13.8579 9.8C13.8579 10.518 14.4399 11.1 15.1579 11.1C15.8759 11.1 16.4579 10.518 16.4579 9.8C16.4579 9.08203 15.8759 8.5 15.1579 8.5C14.4399 8.5 13.8579 9.08203 13.8579 9.8Z" fill="#303236"/>
</svg>
