<svg width="24" height="24" viewBox="0 0 24 24" fill="none" xmlns="http://www.w3.org/2000/svg">
<path d="M8.5 11C10.433 11 12 9.433 12 7.5C12 5.567 10.433 4 8.5 4C6.567 4 5 5.567 5 7.5C5 9.433 6.567 11 8.5 11Z" fill="#303236"/>
<path d="M16.3 11C17.9568 11 19.3 9.65685 19.3 8C19.3 6.34315 17.9568 5 16.3 5C14.6431 5 13.3 6.34315 13.3 8C13.3 9.65685 14.6431 11 16.3 11Z" fill="#303236"/>
<path d="M2 17.7647C2 15.1332 4.13323 13 6.76471 13H10.2353C12.8668 13 15 15.1332 15 17.7647V19C15 19.5523 14.5523 20 14 20L3 20C2.44772 20 2 19.5523 2 19V17.7647Z" fill="#303236"/>
<path d="M21 20H17V17.2647C17 15.3977 15.9262 13.7815 14.3624 13H17.2353C19.8668 13 22 15.1332 22 17.7647V19C22 19.5523 21.5523 20 21 20Z" fill="#303236"/>
</svg>
