<svg width="24" height="24" viewBox="0 0 24 24" fill="none" xmlns="http://www.w3.org/2000/svg">
<path d="M16.1298 5.62167C16.4059 5.62167 16.6298 5.39781 16.6298 5.12167V3.25C16.6298 2.97386 16.4059 2.75 16.1298 2.75H7.87018C7.59404 2.75 7.37018 2.97386 7.37018 3.25V5.12167C7.37018 5.39781 7.59404 5.62167 7.87018 5.62167H16.1298Z" fill="#303236"/>
<path fill-rule="evenodd" clip-rule="evenodd" d="M20.991 9.45625C20.991 9.73239 20.7671 9.95625 20.491 9.95625H18.7497V20.25C18.7497 20.8023 18.3019 21.25 17.7497 21.25H6.25037C5.69808 21.25 5.25037 20.8023 5.25037 20.25V9.95625H3.50903C3.23289 9.95625 3.00903 9.73239 3.00903 9.45625V7.65625C3.00903 7.38011 3.23289 7.15625 3.50903 7.15625H20.491C20.7671 7.15625 20.991 7.38011 20.991 7.65625V9.45625ZM10.8407 17.2708V11.8789H8.8407V17.2708H10.8407ZM15.1593 17.2708V11.8789H13.1593V17.2708H15.1593Z" fill="#303236"/>
</svg>
