<svg width="24" height="24" viewBox="0 0 24 24" fill="none" xmlns="http://www.w3.org/2000/svg">
<path fill-rule="evenodd" clip-rule="evenodd" d="M12 2.5C8.68629 2.5 6 5.18629 6 8.5V10H5.5C4.39543 10 3.5 10.8954 3.5 12V19C3.5 20.1046 4.39543 21 5.5 21H18.5C19.6046 21 20.5 20.1046 20.5 19V12C20.5 10.8954 19.6046 10 18.5 10H9V8.5C9 6.84315 10.3431 5.5 12 5.5H12.5C13.7106 5.5 14.7202 6.36048 14.9506 7.50319C15.0052 7.77389 15.2239 8 15.5 8H17.5C17.7761 8 18.0024 7.7754 17.9776 7.50037C17.7252 4.69694 15.3691 2.5 12.5 2.5H12ZM11 14.5C11 13.9477 11.4477 13.5 12 13.5C12.5523 13.5 13 13.9477 13 14.5V16.5C13 17.0523 12.5523 17.5 12 17.5C11.4477 17.5 11 17.0523 11 16.5V14.5Z" fill="#303236"/>
</svg>
