<svg width="24" height="24" viewBox="0 0 24 24" fill="none" xmlns="http://www.w3.org/2000/svg">
<path d="M16.5002 7.30009C17.7429 7.30009 18.7502 6.29272 18.7502 5.05007C18.7502 3.80742 17.7429 2.80005 16.5002 2.80005C15.2576 2.80005 14.2502 3.80742 14.2502 5.05007C14.2502 6.29272 15.2576 7.30009 16.5002 7.30009Z" fill="#303236"/>
<path d="M14.5 8.12476C13.1193 8.12476 12 9.24405 12 10.6248V11.8748C12 12.289 12.3358 12.6248 12.75 12.6248H20.2501C20.6643 12.6248 21.0001 12.289 21.0001 11.8748V10.6248C21.0001 9.24405 19.8808 8.12476 18.5001 8.12476H14.5Z" fill="#303236"/>
<path d="M4.5 3.17505C4.10218 3.17505 3.72064 3.33308 3.43934 3.61439C3.15804 3.89569 3 4.27722 3 4.67505V9.92505H6V6.17505H9.75V3.17505H4.5Z" fill="#303236"/>
<path d="M20.5607 20.7357C20.2794 21.017 19.8978 21.175 19.5 21.175H14.25V18.175H18V14.425H21V19.675C21 20.0729 20.842 20.4544 20.5607 20.7357Z" fill="#303236"/>
<path fill-rule="evenodd" clip-rule="evenodd" d="M12 16.675C12 19.1603 9.98528 21.175 7.5 21.175C5.01472 21.175 3 19.1603 3 16.675C3 14.1898 5.01472 12.175 7.5 12.175C9.98528 12.175 12 14.1898 12 16.675ZM5.57348 16.675L7.51033 14.7382L9.44719 16.675L7.51033 18.6119L5.57348 16.675Z" fill="#303236"/>
</svg>
