<svg width="24" height="24" viewBox="0 0 24 24" fill="none" xmlns="http://www.w3.org/2000/svg">
<path d="M15.779 3.00259C14.2551 3.05697 12.9422 3.99917 11.9997 5.43589C11.0158 3.93749 9.61959 2.97402 8.00157 3.00053C6.06716 3.00257 4.50009 4.60204 4.5 6.55904C4.49983 6.99335 4.5783 7.42339 4.73085 7.82796C4.79324 7.99344 4.95153 8.10296 5.12829 8.10296H8.02444C8.22196 8.10296 8.29993 7.84709 8.13597 7.73694L7.52433 7.32605C7.47473 7.29272 7.42806 7.25419 7.38514 7.21074C7.21545 7.03892 7.11909 6.80464 7.11909 6.55914C7.11909 6.41659 7.15157 6.27783 7.21204 6.15288C7.25571 6.06264 7.31398 5.97959 7.38514 5.90754C7.55461 5.73594 7.7832 5.64064 8.02031 5.64064L8.02369 5.64061L8.02753 5.64055C8.29237 5.63606 8.57932 5.7223 8.86799 5.90489C9.38461 6.23165 9.90676 6.86696 10.3176 7.84289C10.3839 8.00048 10.5382 8.10296 10.7091 8.10296H13.2903C13.4612 8.10296 13.6154 8.00049 13.6818 7.8429C14.3228 6.3204 15.2312 5.62821 15.9567 5.64066L15.9665 5.6406C16.2036 5.63924 16.4327 5.73324 16.6031 5.90386C16.7737 6.07469 16.8714 6.3084 16.8728 6.5539C16.8741 6.7994 16.7791 7.03426 16.6103 7.20707C16.5664 7.25202 16.5185 7.29179 16.4675 7.32605L15.8559 7.73695C15.692 7.84709 15.77 8.10296 15.9675 8.10296H18.8712C19.0479 8.10296 19.2061 7.99353 19.2686 7.82815C19.4468 7.35616 19.5239 6.85027 19.4936 6.34409C19.4577 5.74586 19.273 5.16615 18.9561 4.65893C18.6392 4.15168 18.2003 3.7332 17.6797 3.44299C17.1591 3.15275 16.574 3.00041 15.979 3.00051L15.7902 3.0022L15.779 3.00259Z" fill="#303236"/>
<path d="M4 9C3.44772 9 3 9.44771 3 10V11.9981C3 12.5504 3.44772 12.9981 4 12.9981V20.0085C4 20.5561 4.44393 21 4.99154 21H10C10.5523 21 11 20.5523 11 20V10C11 9.44772 10.5523 9 10 9H4Z" fill="#303236"/>
<path d="M20 9C20.5523 9 21 9.44771 21 10V11.9981C21 12.5504 20.5523 12.9981 20 12.9981V20.0085C20 20.5561 19.5561 21 19.0085 21H14C13.4477 21 13 20.5523 13 20V10C13 9.44772 13.4477 9 14 9H20Z" fill="#303236"/>
</svg>
