<svg width="24" height="24" viewBox="0 0 24 24" fill="none" xmlns="http://www.w3.org/2000/svg">
<path d="M12.1607 5.25C9.47705 5.25 7.15917 6.81614 6.07119 9.0843L7.39362 9.43865C7.77741 9.54148 7.84528 10.057 7.50119 10.2557L3.94847 12.3068C3.73516 12.43 3.4624 12.3569 3.33925 12.1436L1.28808 8.59087C1.08942 8.24677 1.40595 7.83426 1.78974 7.93709L3.13795 8.29834C4.59554 4.74925 8.08626 2.25 12.1607 2.25C17.0354 2.25 21.0745 5.82736 21.796 10.5H18.7435C18.0614 7.49402 15.3731 5.25 12.1607 5.25Z" fill="#303236"/>
<path d="M2.76815 14.625H5.94015C6.96428 17.049 9.36385 18.75 12.1607 18.75C14.9576 18.75 17.3571 17.049 18.3813 14.625H18.408L17.079 13.8577C16.7349 13.659 16.8027 13.1435 17.1865 13.0407L21.1491 11.9789C21.387 11.9151 21.6315 12.0563 21.6953 12.2942L22.757 16.2568C22.8599 16.6406 22.4474 16.9571 22.1033 16.7585L20.9995 16.1212C19.4465 19.4461 16.0727 21.75 12.1607 21.75C7.68539 21.75 3.91432 18.7348 2.76815 14.625Z" fill="#303236"/>
<path d="M8.04114 12.2H10.5697C10.7013 12.2 10.8005 12.3196 10.7763 12.4489L9.95917 16.8162C9.92273 17.011 10.1513 17.1434 10.3021 17.0149L16.3708 11.8469C16.4701 11.7624 16.4103 11.6 16.28 11.6H13.5104C13.3782 11.6 13.2788 11.4794 13.3041 11.3496L14.1134 7.1904C14.1514 6.9951 13.922 6.86117 13.7706 6.99026L7.9502 11.9532C7.85104 12.0378 7.91083 12.2 8.04114 12.2Z" fill="#303236"/>
</svg>
