<svg width="24" height="24" viewBox="0 0 24 24" fill="none" xmlns="http://www.w3.org/2000/svg">
<path d="M21 5.67571C21 7.42213 19.5843 8.83787 17.8378 8.83787C17.0486 8.83787 16.327 8.54876 15.7729 8.07066L9.32096 11.7174C9.3232 11.7662 9.32432 11.8152 9.32432 11.8645C9.32432 12.0695 9.30482 12.2699 9.26758 12.464L15.6303 16.0603C16.2001 15.5046 16.979 15.1622 17.8378 15.1622C19.5843 15.1622 21 16.5779 21 18.3244C21 20.0708 19.5843 21.4865 17.8378 21.4865C16.0914 21.4865 14.6757 20.0708 14.6757 18.3244L14.6757 18.3148L7.91761 14.4951C7.4154 14.8309 6.81165 15.0267 6.16216 15.0267C4.41575 15.0267 3 13.6109 3 11.8645C3 10.1181 4.41575 8.70236 6.16216 8.70236C6.97524 8.70236 7.71665 9.00923 8.27688 9.51347L14.683 5.89263C14.6781 5.82095 14.6757 5.74862 14.6757 5.67571C14.6757 3.9293 16.0914 2.51355 17.8378 2.51355C19.5843 2.51355 21 3.9293 21 5.67571Z" fill="#303236"/>
</svg>
