<svg width="24" height="24" viewBox="0 0 24 24" fill="none" xmlns="http://www.w3.org/2000/svg">
<path d="M15.6608 10.9523L12.4374 6.9529C12.2293 6.68237 11.7707 6.68237 11.5626 6.9529L8.33918 10.9523C8.10627 11.2551 8.35671 11.6607 8.7766 11.6607H10.6607L10.6607 16.7398C10.6607 17.0216 10.9006 17.25 11.1964 17.25H12.8036C13.0994 17.25 13.3393 17.0216 13.3393 16.7398L13.3393 11.6607H15.2234C15.6433 11.6607 15.8937 11.2551 15.6608 10.9523Z" fill="#303236"/>
<path fill-rule="evenodd" clip-rule="evenodd" d="M22 12C22 17.5228 17.5228 22 12 22C6.47715 22 2 17.5228 2 12C2 6.47715 6.47715 2 12 2C17.5228 2 22 6.47715 22 12ZM19.8 12C19.8 16.3078 16.3078 19.8 12 19.8C7.69218 19.8 4.2 16.3078 4.2 12C4.2 7.69218 7.69218 4.2 12 4.2C16.3078 4.2 19.8 7.69218 19.8 12Z" fill="#303236"/>
</svg>
