<svg width="24" height="24" viewBox="0 0 24 24" fill="none" xmlns="http://www.w3.org/2000/svg">
<path fill-rule="evenodd" clip-rule="evenodd" d="M12 22C17.5228 22 22 17.5228 22 12C22 6.47715 17.5228 2 12 2C6.47715 2 2 6.47715 2 12C2 17.5228 6.47715 22 12 22ZM7.75733 9.17159L10.5857 12L7.7573 14.8284C7.56204 15.0237 7.56204 15.3402 7.7573 15.5355L8.46441 16.2426C8.65967 16.4379 8.97625 16.4379 9.17151 16.2426L11.9999 13.4142L14.8284 16.2427C15.0237 16.4379 15.3402 16.4379 15.5355 16.2427L16.2426 15.5355C16.4379 15.3403 16.4379 15.0237 16.2426 14.8284L13.4142 12L16.2426 9.17155C16.4378 8.97628 16.4378 8.6597 16.2426 8.46444L15.5355 7.75733C15.3402 7.56207 15.0236 7.56207 14.8284 7.75733L11.9999 10.5858L9.17154 7.75737C8.97628 7.56211 8.6597 7.56211 8.46444 7.75737L7.75733 8.46448C7.56207 8.65974 7.56207 8.97632 7.75733 9.17159Z" fill="#303236"/>
</svg>
