<svg width="24" height="24" viewBox="0 0 24 24" fill="none" xmlns="http://www.w3.org/2000/svg">
<path d="M19.5476 11.0595H18.2262V7.53571C18.2262 7.06843 18.0406 6.62028 17.7101 6.28986C17.3797 5.95944 16.9316 5.77381 16.4643 5.77381H12.9405V4.45238C12.9405 3.86827 12.7084 3.30809 12.2954 2.89506C11.8824 2.48204 11.3222 2.25 10.7381 2.25C10.154 2.25 9.5938 2.48204 9.18078 2.89506C8.76775 3.30809 8.53571 3.86827 8.53571 4.45238V5.77381H5.0119C4.54462 5.77381 4.09647 5.95944 3.76605 6.28986C3.43563 6.62028 3.25 7.06843 3.25 7.53571V10.8833H4.57143C5.89286 10.8833 6.95 11.9405 6.95 13.2619C6.95 14.5833 5.89286 15.6405 4.57143 15.6405H3.25V18.9881C3.25 19.4554 3.43563 19.9035 3.76605 20.2339C4.09647 20.5644 4.54462 20.75 5.0119 20.75H8.35952V19.4286C8.35952 18.1071 9.41667 17.05 10.7381 17.05C12.0595 17.05 13.1167 18.1071 13.1167 19.4286V20.75H16.4643C16.9316 20.75 17.3797 20.5644 17.7101 20.2339C18.0406 19.9035 18.2262 19.4554 18.2262 18.9881V15.4643H19.5476C20.1317 15.4643 20.6919 15.2322 21.1049 14.8192C21.518 14.4062 21.75 13.846 21.75 13.2619C21.75 12.6778 21.518 12.1176 21.1049 11.7046C20.6919 11.2916 20.1317 11.0595 19.5476 11.0595Z" fill="#303236"/>
</svg>
