<svg width="24" height="24" viewBox="0 0 24 24" fill="none" xmlns="http://www.w3.org/2000/svg">
<path d="M13 2.5C13.5523 2.5 14 2.94772 14 3.5L14 5.5C14 6.05228 13.5523 6.5 13 6.5H11C10.4477 6.5 10 6.05228 10 5.5L10 3.5C10 2.94772 10.4477 2.5 11 2.5L13 2.5Z" fill="#303236"/>
<path d="M13 10C13.5523 10 14 10.4477 14 11V13C14 13.5523 13.5523 14 13 14H11C10.4477 14 10 13.5523 10 13L10 11C10 10.4477 10.4477 10 11 10H13Z" fill="#303236"/>
<path d="M13 17.5C13.5523 17.5 14 17.9477 14 18.5V20.5C14 21.0523 13.5523 21.5 13 21.5H11C10.4477 21.5 10 21.0523 10 20.5L10 18.5C10 17.9477 10.4477 17.5 11 17.5H13Z" fill="#303236"/>
</svg>
