<svg width="24" height="24" viewBox="0 0 24 24" fill="none" xmlns="http://www.w3.org/2000/svg">
<path fill-rule="evenodd" clip-rule="evenodd" d="M4 3C2.89543 3 2 3.89543 2 5V19C2 20.1046 2.89543 21 4 21H14.5036C15.6082 21 16.5036 20.1046 16.5036 19V5C16.5036 3.89543 15.6082 3 14.5036 3H4ZM10.7878 17.0144C12.5637 16.4385 13.9042 14.8958 14.1883 13.0072H11.7866C11.6977 14.378 11.3647 15.7364 10.7878 17.0144ZM10.7878 7.50007C12.5637 8.07594 13.9042 9.61861 14.1883 11.5072H11.7866C11.6977 10.1364 11.3647 8.77804 10.7878 7.50007ZM9.24422 7.74689C9.84026 8.9354 10.1865 10.214 10.2829 11.5072H8.20549C8.30193 10.214 8.64817 8.9354 9.24422 7.74689ZM9.24422 16.7676C8.64817 15.5791 8.30193 14.3004 8.20549 13.0072H10.2829C10.1865 14.3004 9.84026 15.5791 9.24422 16.7676ZM7.70067 17.0145C7.1237 15.7365 6.79077 14.378 6.70186 13.0072H4.3C4.58411 14.8959 5.92464 16.4386 7.70067 17.0145ZM7.70067 7.5C7.1237 8.77799 6.79077 10.1364 6.70186 11.5072H4.3C4.58411 9.61854 5.92464 8.07582 7.70067 7.5Z" fill="#303236"/>
<path d="M18.004 19.9739C18.5093 19.723 18.9124 19.2704 19.0771 18.6946L21.923 8.74485C22.2268 7.68287 21.6046 6.60397 20.5332 6.33505L18.004 5.7002V19.9739Z" fill="#303236"/>
</svg>
