<svg width="24" height="24" viewBox="0 0 24 24" fill="none" xmlns="http://www.w3.org/2000/svg">
<path d="M9.33289 4.50968L11.6428 2.15021C11.8388 1.94993 12.1612 1.94993 12.3572 2.15021L14.6671 4.50968C14.7911 4.6363 14.7014 4.84972 14.5242 4.84972H9.47579C9.29861 4.84972 9.20893 4.6363 9.33289 4.50968Z" fill="#303236"/>
<path d="M9.47579 19.1503C9.29861 19.1503 9.20893 19.3637 9.33289 19.4903L11.6428 21.8498C11.8388 22.0501 12.1612 22.0501 12.3572 21.8498L14.6671 19.4903C14.7911 19.3637 14.7014 19.1503 14.5242 19.1503H9.47579Z" fill="#303236"/>
<path d="M4.5 6.12655C4.22386 6.12655 4 6.35048 4 6.62671V8.18007C4 8.4563 4.22386 8.68022 4.5 8.68022H19.5C19.7761 8.68022 20 8.4563 20 8.18007V6.62671C20 6.35048 19.7761 6.12655 19.5 6.12655H4.5Z" fill="#303236"/>
<path d="M4 11.2233C4 10.9471 4.22386 10.7232 4.5 10.7232H19.5C19.7761 10.7232 20 10.9471 20 11.2233V12.7767C20 13.0529 19.7761 13.2768 19.5 13.2768H4.5C4.22386 13.2768 4 13.0529 4 12.7767V11.2233Z" fill="#303236"/>
<path d="M4.5 15.3198C4.22386 15.3198 4 15.5437 4 15.8199V17.3733C4 17.6495 4.22386 17.8734 4.5 17.8734H19.5C19.7761 17.8734 20 17.6495 20 17.3733V15.8199C20 15.5437 19.7761 15.3198 19.5 15.3198H4.5Z" fill="#303236"/>
</svg>
