<svg width="24" height="24" viewBox="0 0 24 24" fill="none" xmlns="http://www.w3.org/2000/svg">
<path d="M9.75 6.75C9.75 8.82109 11.4289 10.5 13.5 10.5C15.5711 10.5 17.25 8.8211 17.25 6.75C17.25 4.67893 15.5711 3 13.5 3C11.4289 3 9.75 4.67893 9.75 6.75Z" fill="#303236"/>
<path d="M19.143 11.1219C17.9856 11.6623 16.6633 11.4189 15.7745 10.6092C17.7839 9.67104 18.6531 7.28116 17.7149 5.27175C18.9162 5.22161 20.0858 5.88322 20.6262 7.04061C21.3437 8.57724 20.6796 10.4045 19.143 11.1219Z" fill="#303236"/>
<path d="M3 12.7105C3 12.3181 3.31811 12 3.71053 12H5.1819C5.57431 12 5.89243 12.3181 5.89243 12.7105V20.2895C5.89243 20.6819 5.57431 21 5.1819 21H3.71053C3.31811 21 3 20.6819 3 20.2895V12.7105Z" fill="#303236"/>
<path d="M6.97729 13.4211C6.97729 12.6362 7.61352 12 8.39835 12H13.4654C13.8456 12 14.21 12.1524 14.477 12.423L18.1995 16.1962C18.3767 16.3758 18.2495 16.68 17.9972 16.68H15.0659C14.5156 16.68 13.9867 16.4672 13.5897 16.0862L13.1431 15.6574L12.5455 15.0539C12.2521 14.7576 11.7469 14.9654 11.7469 15.3824C11.7469 15.5203 11.808 15.6512 11.9136 15.7399L13.4565 17.035C13.7089 17.2468 14.0269 17.3644 14.3563 17.3676L20.8602 17.431C20.9366 19.3791 19.378 21 17.4285 21H9.8194C8.24975 21 6.97729 19.7275 6.97729 18.1579V13.4211Z" fill="#303236"/>
</svg>
