<svg width="24" height="24" viewBox="0 0 24 24" fill="none" xmlns="http://www.w3.org/2000/svg">
<path fill-rule="evenodd" clip-rule="evenodd" d="M12 2C17.5228 2 22 6.47715 22 12C22 17.5228 17.5228 22 12 22C6.47715 22 2 17.5228 2 12C2 6.47715 6.47715 2 12 2ZM16.624 8.16895C16.4169 7.98693 16.1014 8.00701 15.9189 8.21387L10.9482 13.8574L8.22656 11.1709C8.02999 10.9769 7.71349 10.9792 7.51953 11.1758L6.81738 11.8877C6.62355 12.0843 6.62579 12.4008 6.82227 12.5947L10.5986 16.3223C10.844 16.5644 11.2428 16.5507 11.4707 16.292L17.4199 9.53613C17.6022 9.32895 17.582 9.01355 17.375 8.83105L16.624 8.16895Z" fill="#303236"/>
</svg>
