<svg width="24" height="24" viewBox="0 0 24 24" fill="none" xmlns="http://www.w3.org/2000/svg">
<path d="M5.5 9C5.77614 9 6 9.22386 6 9.5V20.5C6 20.7761 5.77614 21 5.5 21H3.5C3.22386 21 3 20.7761 3 20.5V9.5C3 9.22386 3.22386 9 3.5 9H5.5Z" fill="#303236"/>
<path d="M13.6172 12.2373C14.1614 12.3839 15.9068 12.6741 15.6475 13.7959C15.3994 14.8713 13.7216 14.2908 13.1768 14.1445L13.6172 12.2373Z" fill="#303236"/>
<path d="M14.2188 9.63477C14.6718 9.75668 16.1312 9.98403 15.8955 11.0049C15.669 11.9831 14.2725 11.4863 13.8193 11.3643L14.2188 9.63477Z" fill="#303236"/>
<path fill-rule="evenodd" clip-rule="evenodd" d="M19 3C20.1046 3 21 3.89543 21 5V19C21 20.1046 20.1046 21 19 21H8C7.72386 21 7.5 20.7761 7.5 20.5V5C7.5 3.89543 8.39543 3 9.5 3H19ZM13.626 8.42285C13.4514 8.37995 13.2796 8.3376 13.1133 8.29297L13.1143 8.28809L12.0078 7.99023L11.7939 8.91504C11.7939 8.91504 12.3898 9.06314 12.377 9.07227C12.7021 9.15992 12.7608 9.39212 12.751 9.57617L11.8506 13.4746C11.8108 13.5812 11.7094 13.7411 11.4824 13.6807C11.4902 13.6932 10.8984 13.5234 10.8984 13.5234L10.5 14.5156L11.5449 14.7969C11.739 14.8494 11.9295 14.9042 12.1172 14.9561L11.7852 16.3955L12.5869 16.6123L12.916 15.1875C13.1349 15.2516 13.3475 15.3102 13.5557 15.3662L13.2275 16.7842L14.0303 17L14.3623 15.5635C15.7309 15.843 16.761 15.7302 17.1943 14.3945C17.5434 13.3191 17.177 12.6979 16.457 12.293C16.9814 12.1621 17.376 11.7893 17.4814 11.0205C17.6271 9.96975 16.8859 9.40417 15.8721 9.02734L16.2012 7.60449L15.3984 7.38867L15.0781 8.77441C14.8672 8.7177 14.6506 8.66435 14.4355 8.61133L14.7578 7.21582L13.9551 7L13.626 8.42285Z" fill="#303236"/>
</svg>
