<svg width="24" height="24" viewBox="0 0 24 24" fill="none" xmlns="http://www.w3.org/2000/svg">
<path d="M3 3.5C3 3.22386 3.22386 3 3.5 3H20.5C20.7761 3 21 3.22386 21 3.5V5.5C21 5.77614 20.7761 6 20.5 6H3.5C3.22386 6 3 5.77614 3 5.5V3.5Z" fill="#303236"/>
<path d="M3 11C3 10.7239 3.22386 10.5 3.5 10.5H8.5C8.77614 10.5 9 10.7239 9 11V13C9 13.2761 8.77614 13.5 8.5 13.5H3.5C3.22386 13.5 3 13.2761 3 13V11Z" fill="#303236"/>
<path d="M3.5 18C3.22386 18 3 18.2239 3 18.5V20.5C3 20.7761 3.22386 21 3.5 21H8.5C8.77614 21 9 20.7761 9 20.5V18.5C9 18.2239 8.77614 18 8.5 18H3.5Z" fill="#303236"/>
<path d="M14.5 15.9393L14.5 8.5C14.5 8.22386 14.7239 8 15 8H17C17.2761 8 17.5 8.22386 17.5 8.5V15.9393L19.5858 13.8536C19.781 13.6583 20.0976 13.6583 20.2929 13.8536L21.7071 15.2678C21.9024 15.463 21.9024 15.7796 21.7071 15.9749L17.0607 20.6213C16.4749 21.2071 15.5251 21.2071 14.9393 20.6213L10.2929 15.9749C10.0976 15.7796 10.0976 15.463 10.2929 15.2678L11.7071 13.8536C11.9024 13.6583 12.2189 13.6583 12.4142 13.8536L14.5 15.9393Z" fill="#303236"/>
</svg>
