<svg width="24" height="24" viewBox="0 0 24 24" fill="none" xmlns="http://www.w3.org/2000/svg">
<path d="M5.5 17C5.77614 17 6 17.2239 6 17.5V20.5C6 20.7761 5.77614 21 5.5 21H3.5C3.22386 21 3 20.7761 3 20.5V17.5C3 17.2239 3.22386 17 3.5 17H5.5Z" fill="#303236"/>
<path d="M14.5 10.0801C14.8351 10.0801 15.1566 10.2181 15.3936 10.4648C15.6306 10.7118 15.7637 11.0473 15.7637 11.3965C15.7636 11.7456 15.6305 12.0803 15.3936 12.3271C15.1565 12.5741 14.8352 12.7129 14.5 12.7129C14.1648 12.7129 13.8435 12.5741 13.6064 12.3271C13.3695 12.0803 13.2364 11.7456 13.2363 11.3965C13.2363 11.0473 13.3694 10.7118 13.6064 10.4648C13.8434 10.2181 14.1649 10.0801 14.5 10.0801Z" fill="#303236"/>
<path fill-rule="evenodd" clip-rule="evenodd" d="M20 3C20.5523 3 21 3.44772 21 4V20C21 20.5523 20.5523 21 20 21H9C8.44772 21 8 20.5523 8 20V4C8 3.44772 8.44772 3 9 3H20ZM14.5 7.75C14.0404 7.75 13.5848 7.8441 13.1602 8.02734C12.7356 8.21059 12.3503 8.47984 12.0254 8.81836C11.7004 9.15693 11.4425 9.55862 11.2666 10.001C11.0907 10.4434 11 10.9176 11 11.3965C11.0001 12.8698 11.8624 14.182 12.6572 15.0879C13.002 15.4791 13.3727 15.8446 13.7666 16.1816C13.9208 16.3142 14.0796 16.4393 14.2412 16.5605C14.3947 16.6757 14.6055 16.6761 14.7588 16.5605C14.9202 16.4388 15.0789 16.3127 15.2334 16.1816C15.6273 15.8447 15.998 15.4789 16.3428 15.0879C17.1376 14.1824 17.9999 12.8698 18 11.3965C18 10.9176 17.9093 10.4434 17.7334 10.001C17.5575 9.55862 17.2996 9.15693 16.9746 8.81836C16.6497 8.47984 16.2644 8.21059 15.8398 8.02734C15.4152 7.8441 14.9596 7.75 14.5 7.75Z" fill="#303236"/>
<path d="M5.5 10C5.77614 10 6 10.2239 6 10.5V13.5C6 13.7761 5.77614 14 5.5 14H3.5C3.22386 14 3 13.7761 3 13.5V10.5C3 10.2239 3.22386 10 3.5 10H5.5Z" fill="#303236"/>
<path d="M5.5 3C5.77614 3 6 3.22386 6 3.5V6.5C6 6.77614 5.77614 7 5.5 7H3.5C3.22386 7 3 6.77614 3 6.5V3.5C3 3.22386 3.22386 3 3.5 3H5.5Z" fill="#303236"/>
</svg>
