<svg width="24" height="24" viewBox="0 0 24 24" fill="none" xmlns="http://www.w3.org/2000/svg">
<path fill-rule="evenodd" clip-rule="evenodd" d="M20.5 6.5C20.5 6.77614 20.2761 7 20 7H4C3.72386 7 3.5 6.77614 3.5 6.5V4.5C3.5 4.22386 3.72386 4 4 4H20C20.2761 4 20.5 4.22386 20.5 4.5V6.5ZM20.5 13C20.5 13.2761 20.2761 13.5 20 13.5H4C3.72386 13.5 3.5 13.2761 3.5 13V11C3.5 10.7239 3.72386 10.5 4 10.5H20C20.2761 10.5 20.5 10.7239 20.5 11V13ZM20.5 19.5C20.5 19.7761 20.2761 20 20 20H4C3.72386 20 3.5 19.7761 3.5 19.5V17.5C3.5 17.2239 3.72386 17 4 17H20C20.2761 17 20.5 17.2239 20.5 17.5V19.5Z" fill="#303236"/>
</svg>
