<svg width="24" height="24" viewBox="0 0 24 24" fill="none" xmlns="http://www.w3.org/2000/svg">
<path fill-rule="evenodd" clip-rule="evenodd" d="M4.41419 2.29305C4.21893 2.09779 3.90235 2.09779 3.70708 2.29305L2.29287 3.70727C2.09761 3.90253 2.09761 4.21911 2.29287 4.41437L2.78768 4.90918C2.30891 5.27459 2 5.85122 2 6.5V17.5C2 18.6046 2.89543 19.5 4 19.5H17.3785L19.5858 21.7073C19.781 21.9025 20.0976 21.9025 20.2929 21.7073L21.7071 20.2931C21.9023 20.0978 21.9023 19.7812 21.7071 19.5859L4.41419 2.29305ZM12.3785 14.5L9.8785 12H5V14.5H12.3785ZM7.8785 10L5.3785 7.5H5V10H7.8785Z" fill="#303236"/>
<path fill-rule="evenodd" clip-rule="evenodd" d="M20 4.5C21.1046 4.5 22 5.39543 22 6.5V17.5L19 14.5V12H16.5L9 4.5H20ZM19 7.5H15.5V10H19V7.5Z" fill="#303236"/>
</svg>
