<svg width="24" height="24" viewBox="0 0 24 24" fill="none" xmlns="http://www.w3.org/2000/svg">
<path d="M19.6607 10.8729C19.8494 11.067 19.8493 11.3761 19.6607 11.5702L18.6284 12.6317C18.4321 12.8333 18.1079 12.8333 17.9116 12.6317L11.9995 6.55555L6.08839 12.6317C5.89218 12.8334 5.56793 12.8332 5.37159 12.6317L4.33937 11.5702C4.15057 11.3761 4.15053 11.067 4.33937 10.8729L11.6411 3.36805C11.8374 3.16633 12.1616 3.16642 12.3579 3.36805L19.6607 10.8729Z" fill="#303236"/>
<path d="M19.6607 18.8729C19.8494 19.067 19.8493 19.3761 19.6607 19.5702L18.6284 20.6317C18.4321 20.8333 18.1079 20.8333 17.9116 20.6317L11.9995 14.5556L6.08839 20.6317C5.89218 20.8334 5.56793 20.8332 5.37159 20.6317L4.33937 19.5702C4.15057 19.3761 4.15053 19.067 4.33937 18.8729L11.6411 11.3681C11.8374 11.1663 12.1616 11.1664 12.3579 11.3681L19.6607 18.8729Z" fill="#303236"/>
</svg>
