<svg width="24" height="24" viewBox="0 0 24 24" fill="none" xmlns="http://www.w3.org/2000/svg">
<path fill-rule="evenodd" clip-rule="evenodd" d="M3 5C3 4.44772 3.44772 4 4 4H8C10.2091 4 12 5.79086 12 8C12 5.79086 13.7909 4 16 4H20C20.5523 4 21 4.44772 21 5V18C21 18.5523 20.5523 19 20 19H14.594C13.7768 19.3715 13.0671 19.9403 12.5273 20.6519C12.2783 20.9802 11.7217 20.9802 11.4727 20.6519C10.9329 19.9403 10.2232 19.3715 9.40604 19H4C3.44772 19 3 18.5523 3 18V5ZM14 8H19V9.5H14V8ZM14 11.5H17V13H14V11.5Z" fill="#303236"/>
</svg>
