<svg width="24" height="24" viewBox="0 0 24 24" fill="none" xmlns="http://www.w3.org/2000/svg">
<path fill-rule="evenodd" clip-rule="evenodd" d="M22 12C22 17.5229 17.5229 22 12 22C6.47715 22 2 17.5229 2 12C2 6.47715 6.47715 2 12 2C17.5229 2 22 6.47715 22 12ZM10.6364 8.06351C10.3551 7.90112 10.0085 7.90112 9.72727 8.06351C9.446 8.22591 9.27273 8.52602 9.27273 8.85081V15.1492C9.27273 15.474 9.446 15.7741 9.72727 15.9365C10.0085 16.0989 10.3551 16.0989 10.6364 15.9365L16.0909 12.7873C16.3722 12.6249 16.5455 12.3248 16.5455 12C16.5455 11.6752 16.3722 11.3751 16.0909 11.2127L10.6364 8.06351Z" fill="#303236"/>
</svg>
