<svg width="24" height="24" viewBox="0 0 24 24" fill="none" xmlns="http://www.w3.org/2000/svg">
<path fill-rule="evenodd" clip-rule="evenodd" d="M12 22C17.5228 22 22 17.5228 22 12C22 6.47715 17.5228 2 12 2C6.47715 2 2 6.47715 2 12C2 17.5228 6.47715 22 12 22ZM11 7V11H7C6.72386 11 6.5 11.2238 6.5 11.5V12.5C6.5 12.7761 6.72386 13 7 13H11V17C11 17.2761 11.2239 17.5 11.5 17.5H12.5C12.7761 17.5 13 17.2761 13 17V13H17C17.2761 13 17.5 12.7761 17.5 12.5V11.5C17.5 11.2238 17.2761 11 17 11H13V7C13 6.72386 12.7761 6.5 12.5 6.5H11.5C11.2239 6.5 11 6.72386 11 7Z" fill="#303236"/>
</svg>
