<svg width="24" height="24" viewBox="0 0 24 24" fill="none" xmlns="http://www.w3.org/2000/svg">
<path d="M9.2093 11.6331C9.65719 9.03187 9.99311 7.15418 10.2171 6C8.99397 6 8.09819 6.06029 7.52972 6.18088C7.09905 6.28424 6.75452 6.37898 6.49612 6.46512C6.25495 6.55125 5.97933 6.73213 5.66925 7.00775C5.3764 7.26615 5.14384 7.51593 4.97158 7.75711C4.79931 7.99828 4.59259 8.37726 4.35142 8.89406C4.12748 9.41085 3.93798 9.90181 3.78295 10.3669C3.64513 10.8148 3.46425 11.4522 3.24031 12.2791C3.01637 13.1059 2.81826 13.8984 2.64599 14.6563C2.51765 15.2696 2.34798 16.0481 2.13698 16.9919C2.06706 17.3046 2.30473 17.6021 2.62521 17.6021H8.89922C9.29543 17.6021 9.76916 17.3781 10.3204 16.9302C10.8717 16.4651 11.1473 15.8708 11.1473 15.8708C11.1473 15.8708 11.4437 14.2987 11.6195 12.7908C11.6471 12.5536 11.4995 12.3322 11.2712 12.2625L9.2093 11.6331Z" fill="#303236"/>
<path d="M19.5893 11.6331C20.0372 9.03187 20.3731 7.15418 20.5971 6C19.374 6 18.4782 6.06029 17.9097 6.18088C17.4791 6.28424 17.1345 6.37898 16.8761 6.46512C16.635 6.55125 16.3593 6.73213 16.0493 7.00775C15.7564 7.26615 15.5238 7.51593 15.3516 7.75711C15.1793 7.99828 14.9726 8.37726 14.7314 8.89406C14.5075 9.41085 14.318 9.90181 14.1629 10.3669C14.0251 10.8148 13.8443 11.4522 13.6203 12.2791C13.3964 13.1059 13.1983 13.8984 13.026 14.6563C12.8976 15.2696 12.728 16.0481 12.517 16.9919C12.4471 17.3046 12.6847 17.6021 13.0052 17.6021H19.2792C19.6754 17.6021 20.1492 17.3781 20.7004 16.9302C21.2517 16.4651 21.5273 15.8708 21.5273 15.8708C21.5273 15.8708 21.8237 14.2987 21.9995 12.7908C22.0271 12.5536 21.8795 12.3322 21.6512 12.2625L19.5893 11.6331Z" fill="#303236"/>
</svg>
