<svg width="24" height="24" viewBox="0 0 24 24" fill="none" xmlns="http://www.w3.org/2000/svg">
<path d="M2.16763 10.0012C3.09738 5.43619 7.14527 2 12.0007 2C16.6805 2 20.6101 5.19208 21.7207 9.51029C21.79 9.77965 21.6121 10.046 21.3387 10.1013L20.3485 10.3016C20.0751 10.357 19.81 10.1801 19.7372 9.91162C18.8163 6.51378 15.7004 4.01395 12.0007 4.01395C8.71246 4.01395 5.88537 5.98865 4.65067 8.81345L6.22234 8.45774C6.49256 8.39658 6.76176 8.56377 6.82574 8.83247L7.05955 9.81438C7.12421 10.0859 6.95488 10.3581 6.68207 10.4211L3.39109 11.1812L2.62214 11.3631C2.26324 11.448 1.93703 11.1334 2.01041 10.7731L2.16763 10.0012Z" fill="#303236"/>
<path d="M21.9896 13.2331L21.8336 13.9988C20.9039 18.5638 16.856 22 12.0005 22C7.32079 22 3.39118 18.8079 2.28054 14.4897C2.21126 14.2204 2.38916 13.954 2.66259 13.8987L3.65276 13.6984C3.92618 13.643 4.1913 13.8199 4.26405 14.0884C5.18494 17.4862 8.30087 19.986 12.0005 19.986C15.2945 19.986 18.1257 18.0045 19.357 15.1718L18.3911 15.3928C18.1192 15.4551 17.8481 15.2858 17.7857 15.0148L17.5596 14.0334C17.4972 13.7623 17.667 13.4922 17.9389 13.43L21.3815 12.6422C21.7394 12.5603 22.0627 12.8744 21.9896 13.2331Z" fill="#303236"/>
<path fill-rule="evenodd" clip-rule="evenodd" d="M11.2383 6.74103L12.7025 6.74097L16.9123 16.331H14.7066L13.8562 14.3935H10.1452L9.29471 16.331H7.08795L11.2383 6.74103ZM12.9721 12.3796L12.0007 10.1667L11.0293 12.3796H12.9721Z" fill="#303236"/>
</svg>
