<svg width="24" height="24" viewBox="0 0 24 24" fill="none" xmlns="http://www.w3.org/2000/svg">
<path d="M13.4438 7.31354H15.8812C16.137 7.31354 16.2754 7.01393 16.1096 6.81911L12.5787 2.66994C12.2796 2.31846 11.737 2.31795 11.4372 2.66888L7.89249 6.81869C7.72617 7.0134 7.86453 7.31354 8.12059 7.31354H10.5561C10.5557 7.32403 10.5555 7.33456 10.5555 7.34515V15.2394C10.5555 15.6558 10.8913 15.9934 11.3055 15.9934H12.6944C13.1086 15.9934 13.4444 15.6558 13.4444 15.2394V7.34515C13.4444 7.33456 13.4442 7.32403 13.4438 7.31354Z" fill="#303236"/>
<path d="M6.14975 7.34683C6.4573 7.60217 6.49711 8.05798 6.27668 8.39217C5.55724 9.4829 5.13889 10.79 5.13889 12.198C5.13889 16.0075 8.21071 19.0957 12 19.0957C15.7893 19.0957 18.8611 16.0075 18.8611 12.198C18.8611 10.79 18.4428 9.4829 17.7233 8.39217C17.5029 8.05798 17.5427 7.60217 17.8502 7.34683L18.964 6.42213C19.2715 6.16679 19.7292 6.20899 19.9598 6.53617C21.0868 8.13518 21.75 10.0903 21.75 12.198C21.75 17.6115 17.3848 22 12 22C6.61522 22 2.25 17.6115 2.25 12.198C2.25 10.0903 2.9132 8.13518 4.04023 6.53617C4.27084 6.20899 4.72847 6.16679 5.03602 6.42213L6.14975 7.34683Z" fill="#303236"/>
</svg>
