<svg width="24" height="24" viewBox="0 0 24 24" fill="none" xmlns="http://www.w3.org/2000/svg">
<path fill-rule="evenodd" clip-rule="evenodd" d="M6 6H9C9.27614 6 9.5 5.77614 9.5 5.5V3.5C9.5 3.22386 9.27614 3 9 3H5.5C4.11929 3 3 4.11929 3 5.5V9C3 9.27614 3.22386 9.5 3.5 9.5H5.5C5.77614 9.5 6 9.27614 6 9V6ZM14.5 3.5C14.5 3.22386 14.7239 3 15 3H18.5C19.8807 3 21 4.11929 21 5.5V9C21 9.27614 20.7761 9.5 20.5 9.5H18.5C18.2239 9.5 18 9.27614 18 9V6H15C14.7239 6 14.5 5.77614 14.5 5.5V3.5ZM17 13C17 13.2761 16.7761 13.5 16.5 13.5H7.5C7.22386 13.5 7 13.2761 7 13V11C7 10.7239 7.22386 10.5 7.5 10.5H16.5C16.7761 10.5 17 10.7239 17 11V13ZM3 18.5V15C3 14.7239 3.22386 14.5 3.5 14.5H5.5C5.77614 14.5 6 14.7239 6 15V18H9C9.27614 18 9.5 18.2239 9.5 18.5V20.5C9.5 20.7761 9.27614 21 9 21H5.5C4.11929 21 3 19.8807 3 18.5ZM18 18V15C18 14.7239 18.2239 14.5 18.5 14.5H20.5C20.7761 14.5 21 14.7239 21 15V18.5C21 19.8807 19.8807 21 18.5 21H15C14.7239 21 14.5 20.7761 14.5 20.5V18.5C14.5 18.2239 14.7239 18 15 18H18Z" fill="#303236"/>
</svg>
