<svg width="24" height="24" viewBox="0 0 24 24" fill="none" xmlns="http://www.w3.org/2000/svg">
<path d="M5.50196 3C4.12017 3 3 4.11929 3 5.5V18.5C3 19.8807 4.12017 21 5.50196 21H11.5C11.7761 21 12 20.7761 12 20.5V18.5C12 18.2239 11.7761 18 11.5 18H6.00235V6H11.5C11.7761 6 12 5.77614 12 5.5V3.5C12 3.22386 11.7761 3 11.5 3H5.50196Z" fill="#303236"/>
<path d="M16.8363 7.76029L21.093 11.63C21.3113 11.8284 21.3113 12.1716 21.093 12.37L16.8363 16.2397C16.5152 16.5317 16 16.3038 16 15.8697V13.5H8V10.5H16V8.13026C16 7.69619 16.5152 7.4683 16.8363 7.76029Z" fill="#303236"/>
</svg>
