<svg width="24" height="24" viewBox="0 0 24 24" fill="none" xmlns="http://www.w3.org/2000/svg">
<g clip-path="url(#clip0_8286_2753)">
<path fill-rule="evenodd" clip-rule="evenodd" d="M24 12C24 18.6274 18.6274 24 12 24C5.37258 24 0 18.6274 0 12C0 5.37258 5.37258 0 12 0C18.6274 0 24 5.37258 24 12ZM8.19434 14.4004C7.55782 14.4004 6.94716 14.6534 6.49707 15.1035L6.02344 15.5771C5.67036 15.9302 5.56451 16.4702 5.82129 16.8984C7.0796 18.9961 9.37587 20.4004 12 20.4004C14.6242 20.4004 16.9204 18.9961 18.1787 16.8984C18.4356 16.4702 18.3297 15.9302 17.9766 15.5771L17.5029 15.1035C17.0528 14.6534 16.4422 14.4004 15.8057 14.4004H8.19434ZM12 5.10059C10.1775 5.10063 8.7002 6.57788 8.7002 8.40039C8.70035 10.2228 10.1776 11.7002 12 11.7002C13.8224 11.7002 15.2996 10.2228 15.2998 8.40039C15.2998 6.57785 13.8225 5.10059 12 5.10059Z" fill="#DFE0E2"/>
</g>
<defs>
<clipPath id="clip0_8286_2753">
<rect width="24" height="24" fill="white"/>
</clipPath>
</defs>
</svg>
