<svg width="24" height="24" viewBox="0 0 24 24" fill="none" xmlns="http://www.w3.org/2000/svg">
<path d="M5.97651 4.15121C5.7749 3.9496 5.44801 3.9496 5.24639 4.15121L4.15121 5.24639C3.9496 5.44801 3.9496 5.77489 4.15121 5.97651L10.1747 12L4.15121 18.0235C3.9496 18.2251 3.9496 18.552 4.15121 18.7536L5.24639 19.8488C5.44801 20.0504 5.77489 20.0504 5.97651 19.8488L12 13.8253L18.0235 19.8488C18.2251 20.0504 18.552 20.0504 18.7536 19.8488L19.8488 18.7536C20.0504 18.552 20.0504 18.2251 19.8488 18.0235L13.8253 12L19.8488 5.97653C20.0504 5.77491 20.0504 5.44802 19.8488 5.24641L18.7536 4.15123C18.552 3.94961 18.2251 3.94961 18.0235 4.15123L12 10.1747L5.97651 4.15121Z" fill="#303236"/>
</svg>
