<svg width="24" height="24" viewBox="0 0 24 24" fill="none" xmlns="http://www.w3.org/2000/svg">
<path d="M8.66278 20.9036C6.97432 20.2712 5.49987 19.1766 4.40947 17.7462C3.31907 16.3158 2.65713 14.6078 2.5 12.8191H6.59336C6.57775 15.6457 7.29022 18.429 8.66278 20.9036ZM15.774 12.8191C15.6016 17.9727 13.7141 21.5024 12.0095 21.5024C10.3039 21.5024 8.41737 17.9727 8.24397 12.8191H15.774ZM21.5 12.8191C21.3465 14.6102 20.6848 16.321 19.5921 17.7523C18.4993 19.1836 17.0205 20.2765 15.3277 20.9036C16.708 18.4316 17.424 15.6471 17.4066 12.8191H21.5ZM21.5 11.1858H17.4066C17.4256 8.35672 16.7102 5.57292 15.3277 3.10126C17.0211 3.72741 18.5006 4.82 19.5935 6.2515C20.6864 7.683 21.3476 9.39434 21.5 11.1858ZM15.774 11.1858H8.24397C8.41737 6.02274 10.3039 2.50244 12.0095 2.50244C13.7141 2.50244 15.5921 6.02274 15.774 11.1858ZM8.66278 3.14747C7.28879 5.62116 6.57622 8.40461 6.59336 11.2311H2.5C2.65399 9.44154 3.31475 7.73218 4.40558 6.30136C5.49641 4.87055 6.97258 3.77694 8.66278 3.14747Z" fill="#303236"/>
</svg>
