<svg width="24" height="24" viewBox="0 0 24 24" fill="none" xmlns="http://www.w3.org/2000/svg">
<rect width="24" height="24" fill="white"/>
<path fill-rule="evenodd" clip-rule="evenodd" d="M9.25 3C8.71957 3 8.21086 3.21071 7.83579 3.58579C7.46071 3.96086 7.25 4.46957 7.25 5V18.75C7.25 19.3467 7.01295 19.919 6.59099 20.341C6.16903 20.7629 5.59674 21 5 21H19.75C20.1478 21 20.5294 20.842 20.8107 20.5607C21.092 20.2794 21.25 19.8978 21.25 19.5V5C21.25 4.46957 21.0393 3.96086 20.6642 3.58579C20.2891 3.21071 19.7804 3 19.25 3H9.25ZM5.75 11.25C5.75 11.0511 5.67098 10.8603 5.53033 10.7197C5.38968 10.579 5.19891 10.5 5 10.5H3.5C3.30109 10.5 3.11032 10.579 2.96967 10.7197C2.82902 10.8603 2.75 11.0511 2.75 11.25V18C2.75 18.3978 2.90804 18.7794 3.18934 19.0607C3.47064 19.342 3.85218 19.5 4.25 19.5C4.64782 19.5 5.02936 19.342 5.31066 19.0607C5.59196 18.7794 5.75 18.3978 5.75 18V11.25ZM10.75 8H17.75V10H10.75V8ZM10.75 12H17.75V14H10.75V12Z" fill="#303236"/>
</svg>
