<svg width="24" height="24" viewBox="0 0 24 24" fill="none" xmlns="http://www.w3.org/2000/svg">
<path d="M12 10.5C10.3431 10.5 9 11.8431 9 13.5C9 15.1569 10.3431 16.5 12 16.5C13.6569 16.5 15 15.1569 15 13.5C15 11.8431 13.6569 10.5 12 10.5Z" fill="#303236"/>
<path fill-rule="evenodd" clip-rule="evenodd" d="M7 6L8.40627 3.8906C8.7772 3.3342 9.40166 3 10.0704 3H13.9296C14.5983 3 15.2228 3.3342 15.5937 3.8906L17 6H19.5C20.6046 6 21.5 6.89543 21.5 8V19C21.5 20.1046 20.6046 21 19.5 21H4.5C3.39543 21 2.5 20.1046 2.5 19V8C2.5 6.89543 3.39543 6 4.5 6H7ZM7 13.5C7 10.7386 9.23858 8.5 12 8.5C14.7614 8.5 17 10.7386 17 13.5C17 16.2614 14.7614 18.5 12 18.5C9.23858 18.5 7 16.2614 7 13.5Z" fill="#303236"/>
</svg>
