<svg width="24" height="24" viewBox="0 0 24 24" fill="none" xmlns="http://www.w3.org/2000/svg">
<path fill-rule="evenodd" clip-rule="evenodd" d="M15.1715 6.77331L7.29489 6.77331C6.96352 6.77331 6.69489 6.50468 6.69489 6.17331V4.46804C6.69489 4.13667 6.96352 3.86804 7.29489 3.86804L19.5311 3.86804C19.8625 3.86804 20.1311 4.13667 20.1311 4.46804V16.7043C20.1311 17.0356 19.8625 17.3043 19.5311 17.3043H17.8259C17.4945 17.3043 17.2259 17.0356 17.2259 16.7043V8.82764L5.24838 20.8051C5.05312 21.0004 4.73654 21.0004 4.54128 20.8051L3.19405 19.4579C2.99879 19.2626 2.99879 18.946 3.19405 18.7508L15.1715 6.77331Z" fill="#303236"/>
</svg>
