<svg width="24" height="24" viewBox="0 0 24 24" fill="none" xmlns="http://www.w3.org/2000/svg">
<path fill-rule="evenodd" clip-rule="evenodd" d="M16.9059 13.1999L12.308 17.7979C12.1127 17.9931 12.1127 18.3097 12.308 18.505L13.2979 19.4949C13.4932 19.6902 13.8098 19.6902 14.005 19.4949L21.1464 12.3535C21.3417 12.1582 21.3417 11.8417 21.1464 11.6464L14.005 4.50497C13.8098 4.30971 13.4932 4.3097 13.2979 4.50497L12.308 5.49492C12.1127 5.69018 12.1127 6.00676 12.308 6.20202L16.9059 10.7999H3C2.72386 10.7999 2.5 11.0238 2.5 11.2999V12.6999C2.5 12.9761 2.72386 13.1999 3 13.1999H16.9059Z" fill="#303236"/>
</svg>
