<svg width="24" height="24" viewBox="0 0 24 24" fill="none" xmlns="http://www.w3.org/2000/svg">
<path d="M4.23744 2.46969C4.04218 2.27443 3.7256 2.27443 3.53033 2.46969L2.46967 3.53035C2.27441 3.72561 2.27441 4.04219 2.46967 4.23746L6.12056 7.88835C6.03172 7.96044 5.92053 8.00009 5.80551 8.00009H2.5C2.22386 8.00009 2 8.22395 2 8.50009V15.5001C2 15.7762 2.22386 16.0001 2.5 16.0001H5.80551C5.9306 16.0001 6.05116 16.047 6.14337 16.1315L11.1621 20.7321C11.4828 21.0261 12 20.7986 12 20.3635V13.7678L15.5197 17.2875C15.037 17.426 14.5272 17.5001 14 17.5001V20.0001C15.236 20.0001 16.4066 19.7198 17.4515 19.2193L19.7626 21.5304C19.9578 21.7256 20.2744 21.7256 20.4697 21.5304L21.5303 20.4697C21.7256 20.2744 21.7256 19.9578 21.5303 19.7626L4.23744 2.46969Z" fill="#303236"/>
<path d="M14 10.1161L17.247 13.3632C17.4102 12.9547 17.5 12.5083 17.5 12.0408C17.5 10.088 15.933 8.50502 14 8.50502V10.1161Z" fill="#303236"/>
<path d="M18.7159 14.832L20.5203 16.6365C21.452 15.3285 22 13.7283 22 12.0001C22 7.58185 18.4183 4.00013 14 4.00013V6.50013C17.0376 6.50013 19.5 8.96257 19.5 12.0001C19.5 13.0359 19.2137 14.0048 18.7159 14.832Z" fill="#303236"/>
<path d="M9.0699 5.18603L12 8.11613V3.63674C12 3.20169 11.4828 2.97419 11.1621 3.26817L9.0699 5.18603Z" fill="#303236"/>
</svg>
