<svg width="24" height="24" viewBox="0 0 24 24" fill="none" xmlns="http://www.w3.org/2000/svg">
<path d="M13.5 3.5C13.5 4.32843 12.8284 5 12 5C11.1716 5 10.5 4.32843 10.5 3.5C10.5 2.67157 11.1716 2 12 2C12.8284 2 13.5 2.67157 13.5 3.5Z" fill="#303236"/>
<path d="M17.75 12C17.75 15.1756 15.1756 17.75 12 17.75C8.82436 17.75 6.25 15.1756 6.25 12C6.25 8.82436 8.82436 6.25 12 6.25C15.1756 6.25 17.75 8.82436 17.75 12Z" fill="#303236"/>
<path d="M12 22C12.8284 22 13.5 21.3284 13.5 20.5C13.5 19.6716 12.8284 19 12 19C11.1716 19 10.5 19.6716 10.5 20.5C10.5 21.3284 11.1716 22 12 22Z" fill="#303236"/>
<path d="M20.5 13.5C19.6716 13.5 19 12.8284 19 12C19 11.1716 19.6716 10.5 20.5 10.5C21.3284 10.5 22 11.1716 22 12C22 12.8284 21.3284 13.5 20.5 13.5Z" fill="#303236"/>
<path d="M2 12C2 12.8284 2.67157 13.5 3.5 13.5C4.32843 13.5 5 12.8284 5 12C5 11.1716 4.32843 10.5 3.5 10.5C2.67157 10.5 2 11.1716 2 12Z" fill="#303236"/>
<path d="M16.9497 19.0711C16.364 18.4853 16.364 17.5356 16.9497 16.9498C17.5355 16.364 18.4853 16.364 19.0711 16.9498C19.6569 17.5356 19.6569 18.4853 19.0711 19.0711C18.4853 19.6569 17.5355 19.6569 16.9497 19.0711Z" fill="#303236"/>
<path d="M4.92894 4.9289C4.34315 5.51469 4.34315 6.46444 4.92894 7.05022C5.51472 7.63601 6.46447 7.63601 7.05026 7.05022C7.63604 6.46444 7.63604 5.51469 7.05026 4.9289C6.46447 4.34312 5.51472 4.34312 4.92894 4.9289Z" fill="#303236"/>
<path d="M19.0711 7.05027C18.4853 7.63605 17.5355 7.63605 16.9497 7.05027C16.364 6.46448 16.364 5.51473 16.9497 4.92895C17.5355 4.34316 18.4853 4.34316 19.0711 4.92895C19.6569 5.51473 19.6569 6.46448 19.0711 7.05027Z" fill="#303236"/>
<path d="M4.92893 19.0711C5.51472 19.6569 6.46447 19.6569 7.05025 19.0711C7.63604 18.4853 7.63604 17.5355 7.05025 16.9498C6.46447 16.364 5.51472 16.364 4.92893 16.9498C4.34315 17.5355 4.34315 18.4853 4.92893 19.0711Z" fill="#303236"/>
</svg>
