<svg width="24" height="24" viewBox="0 0 24 24" fill="none" xmlns="http://www.w3.org/2000/svg">
<path d="M13.5 4C13.5 3.72386 13.7239 3.5 14 3.5H20.5C20.7761 3.5 21 3.72386 21 4V6C21 6.27614 20.7761 6.5 20.5 6.5H14C13.7239 6.5 13.5 6.27614 13.5 6V4Z" fill="#303236"/>
<path d="M3.71053 12C3.31811 12 3 12.3181 3 12.7105V20.2895C3 20.6819 3.31811 21 3.71053 21H5.1819C5.57432 21 5.89243 20.6819 5.89243 20.2895V12.7105C5.89243 12.3181 5.57431 12 5.1819 12H3.71053Z" fill="#303236"/>
<path d="M8.39833 12C7.61351 12 6.97728 12.6362 6.97728 13.4211V18.1579C6.97728 19.7275 8.24973 21 9.81938 21H17.4285C19.378 21 20.9366 19.3791 20.8601 17.431L14.3563 17.3676C14.0269 17.3644 13.7088 17.2468 13.4565 17.035L11.9136 15.7399C11.808 15.6512 11.7469 15.5203 11.7469 15.3824C11.7469 14.9654 12.2521 14.7576 12.5455 15.0539L13.1431 15.6574L13.5897 16.0861C13.9867 16.4672 14.5156 16.68 15.0659 16.68H17.9972C18.2495 16.68 18.3767 16.3758 18.1995 16.1962L14.477 12.423C14.2099 12.1524 13.8456 12 13.4654 12H8.39833Z" fill="#303236"/>
<path d="M13 8C12.7239 8 12.5 8.22386 12.5 8.5V10.5C12.5 10.7761 12.7239 11 13 11H20.5C20.7761 11 21 10.7761 21 10.5V8.5C21 8.22386 20.7761 8 20.5 8H13Z" fill="#303236"/>
</svg>
