<svg width="24" height="24" viewBox="0 0 24 24" fill="none" xmlns="http://www.w3.org/2000/svg">
<path d="M18 7C19.3807 7 20.5 5.88071 20.5 4.5C20.5 3.11929 19.3807 2 18 2C16.6193 2 15.5 3.11929 15.5 4.5C15.5 5.88071 16.6193 7 18 7Z" fill="#303236"/>
<path d="M5 3H14.2908C14.1033 3.46322 14 3.96955 14 4.5C14 6.60299 15.6229 8.32693 17.6846 8.48775L14 11.8214V18.4908C14 18.988 13.7537 19.4529 13.3423 19.732L10.7808 21.4702C10.4488 21.6955 10 21.4577 10 21.0565V11.8214L4.49363 6.83947C4.17932 6.5551 4 6.15103 4 5.72717V4C4 3.44771 4.44772 3 5 3Z" fill="#303236"/>
</svg>
