<svg width="24" height="24" viewBox="0 0 24 24" fill="none" xmlns="http://www.w3.org/2000/svg">
<path fill-rule="evenodd" clip-rule="evenodd" d="M6 3C4.34315 3 3 4.34315 3 6V18C3 19.6569 4.34315 21 6 21H18C19.6569 21 21 19.6569 21 18V6C21 4.34315 19.6569 3 18 3H6ZM12.4666 17.7727C12.2446 18.0758 11.7554 18.0758 11.5334 17.7727L8.09512 13.2934C7.84668 12.9543 8.11383 12.5 8.5617 12.5H10.5714V6.57143C10.5714 6.25584 10.8273 6 11.1429 6H12.8571C13.1727 6 13.4286 6.25584 13.4286 6.57143L13.4286 12.5H15.4383C15.8862 12.5 16.1533 12.9543 15.9049 13.2934L12.4666 17.7727Z" fill="#2BC287"/>
</svg>
