<svg width="24" height="24" viewBox="0 0 24 24" fill="none" xmlns="http://www.w3.org/2000/svg">
<path d="M6.91677 21.7216C7.19422 22.0928 7.80577 22.0928 8.08323 21.7216L12.3811 15.9719C12.6916 15.5565 12.3577 15 11.7979 15H9.28572V6.7C9.28572 6.3134 8.96592 6 8.57143 6H6.42858C6.03409 6 5.71429 6.3134 5.71429 6.7L5.71429 15H3.20213C2.64228 15 2.30836 15.5565 2.6189 15.9719L6.91677 21.7216Z" fill="#2BC287"/>
<path d="M17.0832 2.27838C16.8058 1.90721 16.1942 1.90721 15.9168 2.27838L11.6189 8.02807C11.3084 8.44352 11.6423 9 12.2021 9H14.7143V17.3C14.7143 17.6866 15.0341 18 15.4286 18H17.5714C17.9659 18 18.2857 17.6866 18.2857 17.3L18.2857 9H20.7979C21.3577 9 21.6916 8.44352 21.3811 8.02807L17.0832 2.27838Z" fill="#F74B60"/>
</svg>
