<svg width="24" height="24" viewBox="0 0 24 24" fill="none" xmlns="http://www.w3.org/2000/svg">
<path fill-rule="evenodd" clip-rule="evenodd" d="M12.0011 14.4455C13.3374 14.4455 14.4207 13.3622 14.4207 12.0259C14.4207 10.6895 13.3374 9.60624 12.0011 9.60624C10.6648 9.60624 9.58148 10.6895 9.58148 12.0259C9.58148 13.3622 10.6648 14.4455 12.0011 14.4455ZM13.3546 11.9974C13.3546 12.7457 12.748 13.3524 11.9996 13.3524C11.2513 13.3524 10.6446 12.7457 10.6446 11.9974C10.6446 11.2491 11.2513 10.6424 11.9996 10.6424C12.748 10.6424 13.3546 11.2491 13.3546 11.9974Z" fill="#303236"/>
<path fill-rule="evenodd" clip-rule="evenodd" d="M4.52153 4C3.40507 4 2.5 4.90507 2.5 6.02153V17.9785C2.5 19.0949 3.40507 20 4.52153 20H19.4785C20.5949 20 21.5 19.0949 21.5 17.9785V6.02153C21.5 4.90507 20.5949 4 19.4785 4H4.52153ZM9.5216 8.94256L6.09432 11.7986C5.96856 11.9034 5.96856 12.0966 6.09432 12.2014L9.5216 15.0574C10.9573 16.2538 13.0427 16.2538 14.4784 15.0574L17.9057 12.2014C18.0314 12.0966 18.0314 11.9034 17.9057 11.7986L14.4784 8.94256C13.0427 7.74615 10.9573 7.74616 9.5216 8.94256Z" fill="#303236"/>
</svg>
