<svg width="24" height="24" viewBox="0 0 24 24" fill="none" xmlns="http://www.w3.org/2000/svg">
<path fill-rule="evenodd" clip-rule="evenodd" d="M3.31878 6.37607L11.6376 3.14099C11.8707 3.05033 12.1293 3.05033 12.3624 3.14099L20.6812 6.37607C20.8734 6.45081 21 6.63587 21 6.84208V10C21 10.2762 20.7761 10.5 20.5 10.5H19V18H20.5C20.7761 18 21 18.2239 21 18.5V20.5C21 20.7762 20.7761 21 20.5 21H3.5C3.22386 21 3 20.7762 3 20.5V18.5C3 18.2239 3.22386 18 3.5 18H5V10.5H3.5C3.22386 10.5 3 10.2762 3 10V6.84208C3 6.63587 3.12659 6.45081 3.31878 6.37607ZM8 18H10.5V10.5H8V18ZM13.5 18H16V10.5H13.5V18Z" fill="#303236"/>
</svg>
