<svg width="24" height="24" viewBox="0 0 24 24" fill="none" xmlns="http://www.w3.org/2000/svg">
<path d="M11.5 11C10.4 11 9.45833 10.6083 8.675 9.825C7.89167 9.04167 7.5 8.1 7.5 7C7.5 5.9 7.89167 4.95833 8.675 4.175C9.45833 3.39167 10.4 3 11.5 3C12.6 3 13.5417 3.39167 14.325 4.175C15.1083 4.95833 15.5 5.9 15.5 7C15.5 8.1 15.1083 9.04167 14.325 9.825C13.5417 10.6083 12.6 11 11.5 11Z" fill="#303236"/>
<path d="M8.5 13H13.2424C11.2096 14.2249 9.85 16.4537 9.85 19C9.85 19.695 9.95128 20.3663 10.1399 21H4.5C3.94772 21 3.5 20.5523 3.5 20V18C3.5 15.2386 5.73858 13 8.5 13Z" fill="#303236"/>
<path d="M20.2418 14.7463C20.3844 14.7463 20.5 14.8762 20.5 15.0365V16.3842C20.5 16.5444 20.3844 16.6744 20.2418 16.6744L13.2587 16.6734C13.0447 16.6734 12.9236 16.3976 13.0537 16.2067L15.4159 13.5685C15.506 13.4365 15.6938 13.508 15.6938 13.6745L15.6938 14.7462L20.2418 14.7463Z" fill="#303236"/>
<path d="M13 19.4635C13 19.6238 13.1156 19.7537 13.2582 19.7537L17.8062 19.7538L17.8062 20.8255C17.8062 20.992 17.994 21.0635 18.0841 20.9315L20.4463 18.2933C20.5764 18.1024 20.4553 17.8266 20.2413 17.8266L13.2582 17.8256C13.1156 17.8256 13 17.9556 13 18.1158V19.4635Z" fill="#303236"/>
</svg>
