<svg width="24" height="24" viewBox="0 0 24 24" fill="none" xmlns="http://www.w3.org/2000/svg">
<path d="M11 3C10.7239 3 10.5 3.22386 10.5 3.5V4.12444C6.56554 4.78452 3.49668 7.99735 3.05476 12.0016C2.99417 12.5506 3.44772 13 4.00001 13H10.5V16C10.5 16.9337 9.86013 17.718 8.99495 17.9383C8.72734 18.0064 8.50001 18.2239 8.50001 18.5V20.5C8.50001 20.7761 8.72451 21.0026 8.99931 20.9754C11.5263 20.7248 13.5 18.5929 13.5 16V13H20C20.5523 13 21.0058 12.5506 20.9453 12.0016C20.5033 7.99735 17.4345 4.78452 13.5 4.12444V3.5C13.5 3.22386 13.2761 3 13 3H11Z" fill="#303236"/>
</svg>
