<svg width="24" height="24" viewBox="0 0 24 24" fill="none" xmlns="http://www.w3.org/2000/svg">
<path fill-rule="evenodd" clip-rule="evenodd" d="M17 4C18.6569 4 20 5.34315 20 7V8.19922C19.9998 8.41947 19.7694 8.56512 19.5645 8.48438C18.7704 8.17158 17.9052 8 17 8C13.134 8 10 11.134 10 15C10 16.6943 10.6018 18.2481 11.6035 19.459C11.7748 19.666 11.635 20 11.3662 20H5C3.34315 20 2 18.6569 2 17V11.499H4.5V8.99902H2V6.5H4.5V4H17ZM4.5 8.99902H7V6.5H4.5V8.99902Z" fill="#303236"/>
<path fill-rule="evenodd" clip-rule="evenodd" d="M17 10C19.7614 10 22 12.2386 22 15C22 17.7614 19.7614 20 17 20C14.2386 20 12 17.7614 12 15C12 12.2386 14.2386 10 17 10ZM14 15L17 17.5V16H20.5V14H17V12.5L14 15Z" fill="#303236"/>
</svg>
