<svg width="24" height="24" viewBox="0 0 24 24" fill="none" xmlns="http://www.w3.org/2000/svg">
<path d="M6 3.5C6 3.22386 6.22385 3 6.5 3H8.5C8.77614 3 9 3.22386 9 3.5V5H15V3.5C15 3.22386 15.2239 3 15.5 3H17.5C17.7761 3 18 3.22386 18 3.5V5H19.9999C20.5522 5 20.9999 5.44771 20.9999 6L20.9999 8.5H2.99995L2.99994 6C2.99994 5.44772 3.44765 5 3.99994 5H6V3.5Z" fill="#303236"/>
<path d="M21 11H2.99996L2.99999 20C2.99999 20.5523 3.44771 21 3.99999 21H20C20.5523 21 21 20.5523 21 20L21 11Z" fill="#303236"/>
</svg>
