<svg width="24" height="24" viewBox="0 0 24 24" fill="none" xmlns="http://www.w3.org/2000/svg">
<path d="M4 2C3.72386 2 3.5 2.22386 3.5 2.5V4.5C3.5 4.77614 3.72386 5 4 5H20C20.2761 5 20.5 4.77614 20.5 4.5V2.5C20.5 2.22386 20.2761 2 20 2H4Z" fill="#303236"/>
<path d="M5.62764 13.693L11.2106 6.51488C11.611 6.00014 12.389 6.00013 12.7894 6.51488L18.3724 13.693C18.6278 14.0215 18.3938 14.5 17.9777 14.5H14V21C14 21.5523 13.5523 22 13 22H11C10.4477 22 10 21.5523 10 21V14.5H6.02232C5.60625 14.5 5.3722 14.0215 5.62764 13.693Z" fill="#303236"/>
</svg>
