<svg width="24" height="24" viewBox="0 0 24 24" fill="none" xmlns="http://www.w3.org/2000/svg">
<path fill-rule="evenodd" clip-rule="evenodd" d="M19.0009 9.5C19.0009 13.366 15.8667 16.5 12.0004 16.5C8.1342 16.5 5 13.366 5 9.5C5 5.63401 8.1342 2.5 12.0004 2.5C15.8667 2.5 19.0009 5.63401 19.0009 9.5ZM12.0005 6.67151L14.8289 9.49994L12.0005 12.3284L9.17203 9.49994L12.0005 6.67151Z" fill="#303236"/>
<path d="M5.90674 16V18.3045H18.0933V16C18.0933 15.7239 18.3171 15.5 18.5933 15.5H20.5C20.7761 15.5 21 15.7239 21 16V20.5C21 21.0523 20.5523 21.5 20 21.5H4C3.44772 21.5 3 21.0523 3 20.5V16C3 15.7239 3.22386 15.5 3.5 15.5H5.40674C5.68288 15.5 5.90674 15.7239 5.90674 16Z" fill="#303236"/>
</svg>
