<svg width="24" height="24" viewBox="0 0 24 24" fill="none" xmlns="http://www.w3.org/2000/svg">
<path d="M14.5 3C14.2239 3 14 3.22386 14 3.5V5.5C14 5.77614 14.2239 6 14.5 6H20.5C20.7761 6 21 5.77614 21 5.5V3.5C21 3.22386 20.7761 3 20.5 3H14.5Z" fill="#303236"/>
<path d="M12.2446 8.50213C12.2446 10.4363 10.6767 12.0043 8.74249 12.0043C6.80831 12.0043 5.24036 10.4363 5.24036 8.50213C5.24036 6.56796 6.80831 5 8.74249 5C10.6767 5 12.2446 6.56796 12.2446 8.50213Z" fill="#303236"/>
<path d="M3 17.5021C3 15.568 4.56796 14 6.50213 14H11.4979C13.432 14 15 15.568 15 17.5021V20C15 20.5523 14.5523 21 14 21H4C3.44772 21 3 20.5523 3 20V17.5021Z" fill="#303236"/>
<path d="M16 8.5C16 8.22386 16.2239 8 16.5 8H20.5C20.7761 8 21 8.22386 21 8.5V10.5C21 10.7761 20.7761 11 20.5 11H16.5C16.2239 11 16 10.7761 16 10.5V8.5Z" fill="#303236"/>
<path d="M16.5 13C16.2239 13 16 13.2239 16 13.5V15.5C16 15.7761 16.2239 16 16.5 16H20.5C20.7761 16 21 15.7761 21 15.5V13.5C21 13.2239 20.7761 13 20.5 13H16.5Z" fill="#303236"/>
</svg>
