<svg width="24" height="24" viewBox="0 0 24 24" fill="none" xmlns="http://www.w3.org/2000/svg">
<path d="M12.6279 11.0463L12.0029 11.6742C11.8398 11.8441 11.6448 11.9796 11.4291 12.0729C11.2134 12.1661 10.9814 12.2151 10.7466 12.2172C10.5119 12.2193 10.2791 12.1742 10.0618 12.0848C9.84453 11.9954 9.64714 11.8633 9.48114 11.6963C9.31514 11.5293 9.18387 11.3307 9.09497 11.1121C9.00608 10.8934 8.96135 10.6592 8.96339 10.423C8.96543 10.1868 9.0142 9.95343 9.10685 9.73641C9.19951 9.5194 9.3342 9.32312 9.50305 9.15903L14.4798 4.14998C15.6581 3.88034 16.8909 3.99131 18.0029 4.46711C19.1148 4.94292 20.0494 5.75933 20.6737 6.80027C21.298 7.84121 21.5803 9.05368 21.4803 10.2653C21.3803 11.4769 20.9033 12.6259 20.1169 13.5491L18.5664 15.1295C18.5255 15.1713 18.4767 15.2045 18.4229 15.2273C18.3691 15.25 18.3113 15.2618 18.253 15.2619C18.1946 15.2621 18.1368 15.2506 18.0829 15.2282C18.029 15.2058 17.98 15.1729 17.9388 15.1313L13.8778 11.0454C13.712 10.8788 13.4871 10.7853 13.2527 10.7855C13.0183 10.7856 12.7936 10.8795 12.6279 11.0463ZM11.2692 4.86505L8.25223 7.90143C7.5988 8.55756 7.22632 9.44479 7.21439 10.3735C7.20246 11.3023 7.55203 12.1989 8.18839 12.8718C8.82476 13.5447 9.69745 13.9405 10.62 13.9747C11.5426 14.0088 12.4418 13.6786 13.1256 13.0546L13.2529 12.9327L16.6915 16.3907C16.7327 16.432 16.7653 16.481 16.7876 16.5351C16.8099 16.5891 16.8214 16.647 16.8214 16.7055C16.8214 16.764 16.8099 16.8219 16.7876 16.8759C16.7653 16.93 16.7327 16.979 16.6915 17.0204L13.2529 20.4792C12.9213 20.8127 12.4717 21 12.0029 21C11.5341 21 11.0845 20.8127 10.753 20.4792L4.1886 13.8746C3.19035 12.873 2.5929 11.5371 2.50996 10.1212C2.42702 8.70523 2.86436 7.308 3.73877 6.19538C4.61318 5.08277 5.86362 4.33242 7.25216 4.08712C8.6407 3.84182 10.0704 4.11869 11.2692 4.86505Z" fill="#303236"/>
</svg>
