<svg width="24" height="24" viewBox="0 0 24 24" fill="none" xmlns="http://www.w3.org/2000/svg">
<path d="M20.9961 13.6425C20.996 14.0083 20.6931 14.1282 20.3201 13.9661C15.5184 12.1463 10.9805 15.9009 6.17878 14.0811C5.80574 13.919 5.50343 13.6237 5.50189 13.0808C5.49621 9.70391 5.50508 6.32675 5.50584 2.95061C5.50591 2.58486 5.80878 2.46496 6.18284 2.62732C10.9835 4.44685 15.5225 0.692547 20.3231 2.5121C20.9348 2.73568 20.9987 3.14729 21 3.5123L20.9961 13.6425ZM19.6459 3.58309C18.6067 3.30452 17.6409 3.23267 16.5806 3.2916L16.5789 6.08701C17.6405 6.02733 18.606 6.10024 19.6455 6.37775L19.6459 3.58309ZM6.85653 10.175C7.94778 10.4705 8.97208 10.5322 10.0843 10.4509L10.0869 7.27491C11.1881 7.14523 12.2572 6.91586 13.3331 6.67006C13.3328 5.7376 13.3321 4.8062 13.3338 3.87435C12.2576 4.12119 11.1885 4.35055 10.0873 4.48021L10.0869 7.27491C8.97332 7.35702 7.94904 7.29525 6.85808 6.99877L6.85653 10.175ZM10.0844 13.2872C11.1776 13.1586 12.2394 12.9316 13.3072 12.6869L13.3081 9.85081C12.2405 10.0945 11.1795 10.3228 10.0853 10.4512L10.0844 13.2872ZM13.3316 9.84636C14.4065 9.60026 15.4748 9.37759 16.5776 9.26224L16.5789 6.08701C15.4761 6.20235 14.4077 6.42503 13.3331 6.67006L13.3319 9.84529L13.3316 9.84636ZM16.596 12.0972C17.6503 12.0399 18.6111 12.1137 19.6434 12.3891L19.644 9.55402C18.6119 9.27762 17.6511 9.20383 16.5968 9.2611L16.596 12.0972Z" fill="#303236"/>
<path d="M3 2.39976C3 2.17884 3.17909 1.99976 3.4 1.99976H4.4C4.62091 1.99976 4.8 2.17884 4.8 2.39976V21.5998C4.8 21.8207 4.62091 21.9998 4.4 21.9998H3.4C3.17909 21.9998 3 21.8207 3 21.5998V2.39976Z" fill="#303236"/>
</svg>
