<svg width="24" height="24" viewBox="0 0 24 24" fill="none" xmlns="http://www.w3.org/2000/svg">
<path d="M6 3C4.34315 3 3 4.34315 3 6V8.5C3 8.77614 3.22386 9 3.5 9H4.5C4.77614 9 5 8.77614 5 8.5V6C5 5.44772 5.44772 5 6 5H8.5C8.77614 5 9 4.77614 9 4.5V3.5C9 3.22386 8.77614 3 8.5 3H6Z" fill="#303236"/>
<path d="M15.5 3C15.2239 3 15 3.22386 15 3.5V4.5C15 4.77614 15.2239 5 15.5 5H18C18.5523 5 19 5.44772 19 6V8.5C19 8.77614 19.2239 9 19.5 9H20.5C20.7761 9 21 8.77614 21 8.5V6C21 4.34315 19.6569 3 18 3H15.5Z" fill="#303236"/>
<path d="M3 15.5V18C3 19.6569 4.34315 21 6 21H8.5C8.77614 21 9 20.7761 9 20.5V19.5C9 19.2239 8.77614 19 8.5 19H6C5.44772 19 5 18.5523 5 18V15.5C5 15.2239 4.77614 15 4.5 15H3.5C3.22386 15 3 15.2239 3 15.5Z" fill="#303236"/>
<path d="M19 15.5V18C19 18.5523 18.5523 19 18 19H15.5C15.2239 19 15 19.2239 15 19.5V20.5C15 20.7761 15.2239 21 15.5 21H18C19.6569 21 21 19.6569 21 18V15.5C21 15.2239 20.7761 15 20.5 15H19.5C19.2239 15 19 15.2239 19 15.5Z" fill="#303236"/>
<path d="M11.0741 7.92552V12.0034C11.0741 12.2693 10.8585 12.4848 10.5926 12.4848H10.2222V14.4848H10.5926C11.9631 14.4848 13.0741 13.3738 13.0741 12.0034V7.92552H11.0741Z" fill="#303236"/>
<path d="M7 8V11H9V8H7Z" fill="#303236"/>
<path d="M15 8V11H17V8H15Z" fill="#303236"/>
<path d="M8.08183 16.4995C10.1002 18.4558 13.3072 18.4558 15.3256 16.4995L13.9337 15.0634C12.691 16.2678 10.7165 16.2678 9.47378 15.0634L8.08183 16.4995Z" fill="#303236"/>
</svg>
