<svg width="24" height="24" viewBox="0 0 24 24" fill="none" xmlns="http://www.w3.org/2000/svg">
<path d="M4 4C4 2.89543 4.89543 2 6 2H18C19.1046 2 20 2.89543 20 4V7.10224C18.268 7.93277 16.3863 8.50143 14.4052 8.75653C13.9495 7.89391 13.0434 7.30603 12 7.30603C10.9586 7.30603 10.054 7.89164 9.59745 8.75151C7.61481 8.49196 5.73209 7.91827 4 7.08237V4Z" fill="#303236"/>
<path d="M9.37669 10.7396C7.4928 10.4967 5.68837 9.99761 4 9.27826V20C4 21.1046 4.89543 22 6 22H18C19.1046 22 20 21.1046 20 20V9.29581C18.3107 10.0111 16.5058 10.5062 14.6218 10.7451C14.306 11.8967 13.2518 12.7428 12 12.7428C10.7462 12.7428 9.69067 11.894 9.37669 10.7396Z" fill="#303236"/>
</svg>
