<svg width="24" height="24" viewBox="0 0 24 24" fill="none" xmlns="http://www.w3.org/2000/svg">
<path d="M6.39597 21C5.98176 21 5.64597 20.6642 5.64597 20.25L5.64597 15H4C3.44772 15 3 14.5523 3 14V7C3 6.44772 3.44772 6 4 6H5.64596L5.64596 3.75C5.64596 3.33579 5.98175 3 6.39596 3H7.54296C7.95717 3 8.29296 3.33579 8.29296 3.75L8.29296 6H10C10.5523 6 11 6.44772 11 7V14C11 14.5523 10.5523 15 10 15H8.29296L8.29297 20.25C8.29297 20.6642 7.95718 21 7.54297 21H6.39597Z" fill="#303236"/>
<path d="M17.6014 3C18.0156 3 18.3514 3.33578 18.3514 3.74999L18.3515 8.29401H19.9996C20.5519 8.29401 20.9996 8.74172 20.9996 9.29401V16.1174C20.9996 16.6697 20.5519 17.1174 19.9996 17.1174H18.3516L18.3516 20.25C18.3516 20.6642 18.0159 21 17.6016 21H16.4546C16.0404 21 15.7046 20.6642 15.7046 20.25L15.7046 17.1174H14.0586C13.5063 17.1174 13.0586 16.6697 13.0586 16.1174V9.29401C13.0586 8.74172 13.5063 8.29401 14.0586 8.29401H15.7045L15.7044 3.75001C15.7044 3.33579 16.0402 3 16.4544 3H17.6014Z" fill="#303236"/>
</svg>
