<svg width="24" height="24" viewBox="0 0 24 24" fill="none" xmlns="http://www.w3.org/2000/svg">
<path d="M9.06878 9.7462C9.87987 10.5573 10.8549 10.9628 11.9939 10.9628C13.1328 10.9628 14.1078 10.5573 14.9189 9.7462C15.73 8.93512 16.1355 7.9601 16.1355 6.82113C16.1355 5.68217 15.73 4.70715 14.9189 3.89607C14.1078 3.08498 13.1328 2.67944 11.9939 2.67944C10.8549 2.67944 9.87987 3.08498 9.06878 3.89607C8.2577 4.70715 7.85216 5.68217 7.85216 6.82113C7.85216 7.9601 8.2577 8.93512 9.06878 9.7462Z" fill="#303236"/>
<path d="M12.2856 13.0337H7.85216C4.99292 13.0337 2.67505 15.3515 2.67505 18.2108V20.2816C2.67505 20.8535 3.13862 21.3171 3.71047 21.3171H11.6741C11.028 20.2329 10.6568 18.9658 10.6568 17.612C10.6568 15.8756 11.2674 14.2818 12.2856 13.0337Z" fill="#303236"/>
<path fill-rule="evenodd" clip-rule="evenodd" d="M21.675 16.9165H19.634V14.4532H17.171V12.4124C14.6834 12.4124 12.6669 14.429 12.6669 16.9165C12.6669 19.404 14.6834 21.4206 17.171 21.4206C19.6585 21.4206 21.675 19.404 21.675 16.9165ZM14.9448 16.9165C14.9448 15.6871 15.9414 14.6905 17.1707 14.6903V16.9165H19.3971C19.3971 18.146 18.4004 19.1427 17.171 19.1427C15.9415 19.1427 14.9448 18.146 14.9448 16.9165Z" fill="#303236"/>
</svg>
