<svg width="24" height="24" viewBox="0 0 24 24" fill="none" xmlns="http://www.w3.org/2000/svg">
<path d="M20.5 18.7001C20.7761 18.7001 21 18.9239 21 19.2001V20.4999C21 20.776 20.7761 20.9999 20.5 20.9999H3.5C3.22386 20.9999 3 20.776 3 20.4999V19.2001C3 18.9239 3.22386 18.7001 3.5 18.7001H20.5Z" fill="#303236"/>
<path d="M19.5967 3.1483C19.7924 3.07643 19.9999 3.22107 20 3.42955V5.22935C19.9998 5.43873 19.8693 5.62577 19.6729 5.6981L7.95996 9.99986L19.6729 14.3006C19.8695 14.373 20 14.5608 20 14.7704V16.5702C20 16.7788 19.7925 16.9233 19.5967 16.8514L4.32812 11.246C4.13129 11.1737 4 10.9859 4 10.7762V9.22349C4.00013 9.01394 4.13139 8.82698 4.32812 8.75474L19.5967 3.1483Z" fill="#303236"/>
</svg>
