<svg width="24" height="24" viewBox="0 0 24 24" fill="none" xmlns="http://www.w3.org/2000/svg">
<path fill-rule="evenodd" clip-rule="evenodd" d="M11.016 21.4927C11.6266 21.8378 12.3734 21.8378 12.984 21.4927L18.4679 18.3937C19.7236 17.6842 20.5 16.3536 20.5 14.9113V6.5348C20.5 5.68589 19.9641 4.92948 19.1632 4.64797L12.6632 2.36317C12.234 2.21228 11.766 2.21228 11.3368 2.36317L4.83677 4.64797C4.0359 4.92948 3.5 5.68589 3.5 6.5348V14.9113C3.5 16.3536 4.27643 17.6842 5.53207 18.3937L11.016 21.4927ZM17.0182 9.64012L15.4818 8.35975L11.1309 13.5808L8.40079 11.2407L7.09921 12.7592L11.3691 16.4191L17.0182 9.64012Z" fill="#303236"/>
</svg>
