<svg width="24" height="24" viewBox="0 0 24 24" fill="none" xmlns="http://www.w3.org/2000/svg">
<path fill-rule="evenodd" clip-rule="evenodd" d="M8.5 4.08319C8.5 3.49947 8.99788 3.03983 9.57975 3.08638L20.0797 3.92638C20.5994 3.96795 21 4.40183 21 4.92319V19.0768C21 19.5982 20.5994 20.032 20.0797 20.0736L9.57974 20.9136C8.99788 20.9602 8.5 20.5005 8.5 19.9168V4.08319ZM14 11V8.5H16V11H18.5V13H16V15.5H14V13H11.5V11H14Z" fill="#303236"/>
<path d="M3.75746 5.81063C3.3123 5.92192 3 6.32191 3 6.78078V17.2192C3 17.6781 3.3123 18.0781 3.75746 18.1894L6.37873 18.8447C6.69431 18.9236 7 18.6849 7 18.3596V5.64039C7 5.3151 6.69431 5.07642 6.37873 5.15532L3.75746 5.81063Z" fill="#303236"/>
</svg>
