<svg width="24" height="24" viewBox="0 0 24 24" fill="none" xmlns="http://www.w3.org/2000/svg">
<path d="M5.25 12C5.25 8.27208 8.27208 5.25 12 5.25C13.5337 5.25 14.9455 5.76016 16.0788 6.62118L14.2914 8.40858C14.1654 8.53457 14.2547 8.75 14.4328 8.75H19.45C19.7261 8.75 19.95 8.52614 19.95 8.25V3.23284C19.95 3.05466 19.7346 2.96543 19.6086 3.09142L17.8585 4.84147C16.2638 3.53501 14.222 2.75 12 2.75C6.89137 2.75 2.75 6.89137 2.75 12C2.75 17.1086 6.89137 21.25 12 21.25C16.9409 21.25 20.977 17.3761 21.2367 12.4999C21.2514 12.2242 21.0261 12 20.75 12H19.25C18.9739 12 18.7519 12.2246 18.7318 12.5C18.4759 15.9945 15.5597 18.75 12 18.75C8.27208 18.75 5.25 15.7279 5.25 12Z" fill="#303236"/>
</svg>
