<svg width="24" height="24" viewBox="0 0 24 24" fill="none" xmlns="http://www.w3.org/2000/svg">
<path fill-rule="evenodd" clip-rule="evenodd" d="M5.5 2.5C4.39543 2.5 3.5 3.39543 3.5 4.5V19.5C3.5 20.6046 4.39543 21.5 5.5 21.5H18.5C19.6046 21.5 20.5 20.6046 20.5 19.5V8.19391C20.5 7.92756 20.3937 7.67221 20.2048 7.48449L15.7725 3.08116C15.3978 2.70892 14.8911 2.5 14.3629 2.5H5.5ZM14.5463 9.02931C14.1739 8.6569 13.5701 8.6569 13.1977 9.02931L12.5234 9.70363L14.5463 11.7266L15.2207 11.0523C15.5931 10.6799 15.5931 10.0761 15.2207 9.70363L14.5463 9.02931ZM13.8721 12.401L11.8491 10.378L7.91555 14.3115C7.8426 14.3845 7.79528 14.4791 7.78069 14.5813L7.50197 16.5323C7.48399 16.6582 7.59188 16.7661 7.71775 16.7481L9.66879 16.4694C9.77092 16.4548 9.86556 16.4074 9.93851 16.3345L13.8721 12.401ZM13.5 14.75H16.5V16.75H13.5V14.75Z" fill="#303236"/>
</svg>
