<svg width="24" height="24" viewBox="0 0 24 24" fill="none" xmlns="http://www.w3.org/2000/svg">
<path d="M21 4.66384C21 4.47752 20.8313 4.32647 20.6233 4.32647L14.9728 4.32647V2.83805C14.9728 2.52968 14.549 2.38294 14.3174 2.61111L11.6665 5.22259C11.4053 5.47995 11.4053 5.87299 11.6665 6.13035L14.3174 8.74183C14.549 8.97001 14.9728 8.82326 14.9728 8.51489V7.02543L20.6233 7.02543C20.8313 7.02543 21 6.87438 21 6.68806V4.66384Z" fill="#303236"/>
<path fill-rule="evenodd" clip-rule="evenodd" d="M14.2134 10.1636L9.7545 5.70474C5.89897 6.27805 2.94116 9.60227 2.94116 13.6173C2.94116 18.0356 6.52288 21.6173 10.9412 21.6173C15.3594 21.6173 18.9412 18.0356 18.9412 13.6173C18.9412 11.1356 17.8111 8.91776 16.0375 7.45039V9.40807C16.0375 9.99819 15.5591 10.4766 14.9689 10.4766C14.6856 10.4766 14.4138 10.364 14.2134 10.1636ZM10.9441 10.7082L8.03488 13.6174L10.9441 16.5267L13.8534 13.6174L10.9441 10.7082Z" fill="#303236"/>
</svg>
