<svg width="24" height="24" viewBox="0 0 24 24" fill="none" xmlns="http://www.w3.org/2000/svg">
<path d="M10.8731 4.33918C11.0672 4.15039 11.3763 4.15051 11.5704 4.33918L12.6319 5.37141C12.8334 5.56769 12.8335 5.89194 12.6319 6.0882L6.55573 12.0003L12.6319 17.9114C12.8336 18.1077 12.8334 18.4319 12.6319 18.6282L11.5704 19.6605C11.3763 19.8493 11.0672 19.8493 10.8731 19.6605L3.36823 12.3587C3.16652 12.1624 3.16661 11.8382 3.36823 11.6419L10.8731 4.33918Z" fill="#303236"/>
<path d="M18.8731 4.33918C19.0672 4.15039 19.3763 4.15051 19.5704 4.33918L20.6319 5.37141C20.8334 5.56769 20.8335 5.89194 20.6319 6.0882L14.5557 12.0003L20.6319 17.9114C20.8336 18.1077 20.8334 18.4319 20.6319 18.6282L19.5704 19.6605C19.3763 19.8493 19.0672 19.8493 18.8731 19.6605L11.3682 12.3587C11.1665 12.1624 11.1666 11.8382 11.3682 11.6419L18.8731 4.33918Z" fill="#303236"/>
</svg>
