<svg width="24" height="24" viewBox="0 0 24 24" fill="none" xmlns="http://www.w3.org/2000/svg">
<path fill-rule="evenodd" clip-rule="evenodd" d="M17 12C17 16.1421 13.6421 19.5 9.5 19.5C5.35786 19.5 2 16.1421 2 12C2 7.85786 5.35786 4.5 9.5 4.5C13.6421 4.5 17 7.85786 17 12ZM6.31802 12L9.5 8.81802L12.682 12L9.5 15.182L6.31802 12Z" fill="#303236"/>
<path d="M18.75 12C18.75 12.5098 18.7118 13.0107 18.6382 13.5H22V10.5H18.6382C18.7118 10.9893 18.75 11.4902 18.75 12Z" fill="#303236"/>
<path d="M15.8914 5C16.737 5.86251 17.4275 6.87754 17.9179 8H22V5H15.8914Z" fill="#303236"/>
<path d="M17.9179 16C17.4275 17.1225 16.737 18.1375 15.8914 19H22V16H17.9179Z" fill="#303236"/>
</svg>
