<svg width="24" height="24" viewBox="0 0 24 24" fill="none" xmlns="http://www.w3.org/2000/svg">
<path fill-rule="evenodd" clip-rule="evenodd" d="M17 4H4.49976V6.49976H2V8.99929H4.49976V11.4991H2V17C2 18.6569 3.34315 20 5 20H11.3662C11.635 20 11.7753 19.6664 11.604 19.4593C10.6021 18.2483 10 16.6945 10 15C10 11.134 13.134 8 17 8C17.9053 8 18.7705 8.17186 19.5647 8.48473C19.7697 8.56551 20 8.41937 20 8.19899V7C20 5.34315 18.6569 4 17 4ZM4.49976 8.99929L7 8.99932V6.49956L4.49976 6.49976V8.99929Z" fill="#303236"/>
<path fill-rule="evenodd" clip-rule="evenodd" d="M22 15C22 17.7614 19.7614 20 17 20C14.2386 20 12 17.7614 12 15C12 12.2386 14.2386 10 17 10C19.7614 10 22 12.2386 22 15ZM18 14V12H16V14H14V16H16V18H18V16H20V14H18Z" fill="#303236"/>
</svg>
