<svg width="24" height="24" viewBox="0 0 24 24" fill="none" xmlns="http://www.w3.org/2000/svg">
<path d="M10.5556 2.72607C10.5556 2.32507 10.8789 2 11.2778 2H12.7222C13.1211 2 13.4445 2.32507 13.4445 2.72607V10.6482C13.4445 10.6589 13.4443 10.6694 13.4438 10.6799H15.8813C16.1371 10.6799 16.2755 10.9795 16.1098 11.1744L12.5788 15.3235C12.2797 15.675 11.7371 15.6755 11.4374 15.3246L7.89261 11.1748C7.72629 10.9801 7.86465 10.6799 8.12072 10.6799H10.5562C10.5558 10.6694 10.5556 10.6589 10.5556 10.6482V2.72607Z" fill="#303236"/>
<path d="M6.14975 7.34675C6.4573 7.6021 6.49711 8.0579 6.27668 8.3921C5.55724 9.48283 5.13889 10.7899 5.13889 12.1979C5.13889 16.0074 8.21071 19.0956 12 19.0956C15.7893 19.0956 18.8611 16.0074 18.8611 12.1979C18.8611 10.7899 18.4428 9.48283 17.7233 8.3921C17.5029 8.0579 17.5427 7.6021 17.8502 7.34675L18.964 6.42206C19.2715 6.16671 19.7292 6.20891 19.9598 6.5361C21.0868 8.13511 21.75 10.0902 21.75 12.1979C21.75 17.6114 17.3848 21.9999 12 21.9999C6.61522 21.9999 2.25 17.6114 2.25 12.1979C2.25 10.0902 2.9132 8.13511 4.04023 6.5361C4.27084 6.20891 4.72847 6.16671 5.03602 6.42206L6.14975 7.34675Z" fill="#303236"/>
</svg>
