<svg width="24" height="24" viewBox="0 0 24 24" fill="none" xmlns="http://www.w3.org/2000/svg">
<path d="M7 11.5C7 11.2239 7.22386 11 7.5 11H11V7.5C11 7.22386 11.2239 7 11.5 7H12.5C12.7761 7 13 7.22386 13 7.5V11H16.5C16.7761 11 17 11.2239 17 11.5V12.5C17 12.7761 16.7761 13 16.5 13H13V16.5C13 16.7761 12.7761 17 12.5 17H11.5C11.2239 17 11 16.7761 11 16.5V13H7.5C7.22386 13 7 12.7761 7 12.5V11.5Z" fill="#303236"/>
<path fill-rule="evenodd" clip-rule="evenodd" d="M12.001 21.9995C17.5238 21.9995 22.001 17.5224 22.001 11.9995C22.001 6.47666 17.5238 1.99951 12.001 1.99951C6.47813 1.99951 2.00098 6.47666 2.00098 11.9995C2.00098 17.5224 6.47813 21.9995 12.001 21.9995ZM12.001 19.7995C16.3088 19.7995 19.801 16.3073 19.801 11.9995C19.801 7.69169 16.3088 4.19951 12.001 4.19951C7.69316 4.19951 4.20098 7.69169 4.20098 11.9995C4.20098 16.3073 7.69316 19.7995 12.001 19.7995Z" fill="#303236"/>
</svg>
