<svg width="24" height="24" viewBox="0 0 24 24" fill="none" xmlns="http://www.w3.org/2000/svg">
<path d="M20.5 18.7001C20.7761 18.7001 21 18.924 21 19.2001V20.4999C21 20.7761 20.7761 20.9999 20.5 20.9999H3.5C3.22386 20.9999 3 20.7761 3 20.4999V19.2001C3 18.924 3.22386 18.7001 3.5 18.7001H20.5Z" fill="#303236"/>
<path d="M4.40332 3.14838L19.6729 8.75483C19.8693 8.82719 19.9999 9.01417 20 9.22358V10.7763C20 10.9859 19.8696 11.1737 19.6729 11.246L4.40332 16.8515C4.20753 16.9234 4 16.7788 4 16.5703V14.7705C4 14.5608 4.1313 14.373 4.32812 14.3007L16.041 9.99995L4.32812 5.69819C4.13145 5.62595 4.00018 5.43893 4 5.22944V3.42963C4.00012 3.22118 4.20761 3.07661 4.40332 3.14838Z" fill="#303236"/>
</svg>
