<svg width="24" height="24" viewBox="0 0 24 24" fill="none" xmlns="http://www.w3.org/2000/svg">
<path d="M16.0859 17.5L18.9394 20.3536C19.1347 20.5488 19.4513 20.5488 19.6465 20.3536L20.3536 19.6464C20.5489 19.4512 20.5489 19.1346 20.3536 18.9393L5.06074 3.64645C4.86547 3.45118 4.54889 3.45118 4.35363 3.64645L3.64652 4.35355C3.45126 4.54881 3.45126 4.8654 3.64652 5.06066L5.62163 7.03577C5.38087 7.72939 5.25007 8.47442 5.25007 9.25V13.8063C5.25007 13.8591 5.23527 13.9109 5.20735 13.9557L3.47606 16.7357C3.26865 17.0687 3.50813 17.5 3.90049 17.5H16.0859Z" fill="#303236"/>
<path d="M12.0001 2.5C10.4703 2.5 9.05937 3.0089 7.92736 3.86664L18.7501 14.6893V9.25C18.7501 5.52208 15.728 2.5 12.0001 2.5Z" fill="#303236"/>
<path d="M9.2728 18.5C9.12217 18.5 9.00007 18.6221 9.00007 18.7727C9.00007 20.279 10.2211 21.5 11.7273 21.5H12.2728C13.779 21.5 15.0001 20.279 15.0001 18.7727C15.0001 18.6221 14.878 18.5 14.7273 18.5H9.2728Z" fill="#303236"/>
</svg>
