<svg width="24" height="24" viewBox="0 0 24 24" fill="none" xmlns="http://www.w3.org/2000/svg">
<path d="M11.915 2C9.7059 2 7.91504 3.79086 7.91504 6V10.4531C7.91504 12.6623 9.7059 14.4531 11.915 14.4531H12.2874C14.4966 14.4531 16.2874 12.6623 16.2874 10.4531V6C16.2874 3.79086 14.4966 2 12.2874 2H11.915Z" fill="#303236"/>
<path d="M5.5 8.93051C5.77614 8.93051 6 9.15437 6 9.43051V9.93051C6 13.2372 8.68058 15.9178 11.9872 15.9178H12.2151C15.5217 15.9178 18.2023 13.2372 18.2023 9.93051V9.43051C18.2023 9.15437 18.4262 8.93051 18.7023 8.93051H19.7023C19.9785 8.93051 20.2023 9.15437 20.2023 9.43051V9.93051C20.2023 14.0423 17.0954 17.4283 13.1011 17.8692V20H16.1516C16.4278 20 16.6516 20.2239 16.6516 20.5V21.5C16.6516 21.7761 16.4278 22 16.1516 22H12.1529C12.1357 22.0009 12.1185 22.0013 12.1011 22.0013C12.0838 22.0013 12.0665 22.0009 12.0494 22H8.05048C7.77433 22 7.55048 21.7761 7.55048 21.5V20.5C7.55048 20.2239 7.77433 20 8.05048 20H11.1011V17.8692C7.1069 17.4283 4 14.0422 4 9.93051V9.43051C4 9.15437 4.22386 8.93051 4.5 8.93051H5.5Z" fill="#303236"/>
</svg>
