<svg width="24" height="24" viewBox="0 0 24 24" fill="none" xmlns="http://www.w3.org/2000/svg">
<path d="M9.93175 2.16943C10.5102 2.04654 11.0228 2.51286 11.0228 3.1042V12.4777C11.0228 12.7539 11.2466 12.9777 11.5228 12.9777H20.8963C21.4876 12.9777 21.954 13.4903 21.8311 14.0688C20.8683 18.6003 16.8438 22 12.0252 22C6.48872 22 2.00049 17.5118 2.00049 11.9753C2.00049 7.1567 5.40016 3.13217 9.93175 2.16943ZM13.0277 3.1042C13.0277 2.51286 13.5403 2.04654 14.1187 2.16942C17.9751 2.98872 21.0118 6.02538 21.8311 9.88179C21.954 10.4602 21.4876 10.9728 20.8963 10.9728H13.5277C13.2516 10.9728 13.0277 10.7489 13.0277 10.4728V3.1042Z" fill="#303236"/>
</svg>
