<svg width="24" height="24" viewBox="0 0 24 24" fill="none" xmlns="http://www.w3.org/2000/svg">
<path fill-rule="evenodd" clip-rule="evenodd" d="M4 3.5C3.44772 3.5 3 3.94772 3 4.5V16.6875C3 17.2398 3.44772 17.6875 4 17.6875H9.74998L12 16L14.25 17.6875H20C20.5523 17.6875 21 17.2398 21 16.6875V4.5C21 3.94772 20.5523 3.5 20 3.5H4ZM13 6.5H11V13.5H13V6.5ZM7 8.5H9V13.5H7V8.5ZM15 9.5H17V13.5H15V9.5Z" fill="#303236"/>
<path d="M8.91049 20.1481C8.76951 20.269 8.85497 20.5 9.04065 20.5H14.9593C15.145 20.5 15.2305 20.269 15.0895 20.1481L12.3254 17.7789C12.1382 17.6184 11.8618 17.6184 11.6746 17.7789L8.91049 20.1481Z" fill="#303236"/>
</svg>
