<svg width="24" height="24" viewBox="0 0 24 24" fill="none" xmlns="http://www.w3.org/2000/svg">
<path d="M14.7 4.8V3H9.3V4.8H14.7ZM9.3 19.2V21H14.7V19.2H9.3ZM4.8 14.7V9.3H3V14.7H4.8ZM7.5 3V4.8H5.7C5.4613 4.8 5.23239 4.89482 5.0636 5.0636C4.89482 5.23239 4.8 5.4613 4.8 5.7V7.5H3V5.7C3 4.98392 3.28446 4.29716 3.79081 3.79081C4.29716 3.28446 4.98392 3 5.7 3H7.5ZM7.5 21V19.2H5.7C5.4613 19.2 5.23239 19.1052 5.0636 18.9364C4.89482 18.7676 4.8 18.5387 4.8 18.3V16.5H3V18.3C3 19.0161 3.28446 19.7028 3.79081 20.2092C4.29716 20.7155 4.98392 21 5.7 21H7.5ZM21 14.7V9.3H19.2V14.7H21ZM16.5 3V4.8H18.3C18.5387 4.8 18.7676 4.89482 18.9364 5.0636C19.1052 5.23239 19.2 5.4613 19.2 5.7V7.5H21V5.7C21 4.98392 20.7155 4.29716 20.2092 3.79081C19.7028 3.28446 19.0161 3 18.3 3H16.5ZM16.5 21V19.2H18.3C18.5387 19.2 18.7676 19.1052 18.9364 18.9364C19.1052 18.7676 19.2 18.5387 19.2 18.3V16.5H21V18.3C21 19.0161 20.7155 19.7028 20.2092 20.2092C19.7028 20.7155 19.0161 21 18.3 21H16.5Z" fill="#303236"/>
</svg>
