<svg width="22" height="22" viewBox="0 0 22 22" fill="none" xmlns="http://www.w3.org/2000/svg">
<mask id="path-1-outside-1_7299_30942" maskUnits="userSpaceOnUse" x="0" y="0" width="22" height="22" fill="black">
<rect fill="white" width="22" height="22"/>
<path d="M11 1C16.5228 1 21 5.47715 21 11C21 16.5228 16.5228 21 11 21C5.47715 21 1 16.5228 1 11C1 5.47715 5.47715 1 11 1Z"/>
</mask>
<path d="M11 1C16.5228 1 21 5.47715 21 11C21 16.5228 16.5228 21 11 21C5.47715 21 1 16.5228 1 11C1 5.47715 5.47715 1 11 1Z" fill="#070808"/>
<path d="M11 1V5.96046e-08V5.96046e-08V1ZM21 11H22V11H21ZM11 21V22V22V21ZM1 11H5.96046e-08V11H1ZM11 1V2C15.9706 2 20 6.02944 20 11H21H22C22 4.92487 17.0751 6.55651e-07 11 5.96046e-08V1ZM21 11H20C20 15.9706 15.9706 20 11 20V21V22C17.0751 22 22 17.0751 22 11H21ZM11 21V20C6.02944 20 2 15.9706 2 11H1H5.96046e-08C6.55651e-07 17.0751 4.92487 22 11 22V21ZM1 11H2C2 6.02944 6.02944 2 11 2V1V5.96046e-08C4.92487 5.96046e-08 5.96046e-08 4.92487 5.96046e-08 11H1Z" fill="white" mask="url(#path-1-outside-1_7299_30942)"/>
<path d="M5.86963 8.14987C5.86963 7.85046 5.9286 7.55398 6.04318 7.27736C6.15776 7.00073 6.32571 6.74939 6.53743 6.53767C6.74914 6.32595 7.00049 6.15801 7.27711 6.04343C7.55373 5.92885 7.85022 5.86987 8.14963 5.86987C8.44904 5.86987 8.74552 5.92885 9.02215 6.04343C9.29877 6.15801 9.55011 6.32595 9.76183 6.53767C9.97355 6.74939 10.1415 7.00073 10.2561 7.27736C10.3707 7.55398 10.4296 7.85046 10.4296 8.14987V10.1449C10.4296 10.1823 10.4223 10.2194 10.4079 10.2539C10.3936 10.2885 10.3726 10.3199 10.3462 10.3464C10.3197 10.3729 10.2883 10.3939 10.2537 10.4082C10.2191 10.4225 10.1821 10.4299 10.1446 10.4299H8.14963C7.54494 10.4299 6.96501 10.1897 6.53743 9.76208C6.10984 9.33449 5.86963 8.75457 5.86963 8.14987ZM11.5696 8.14987C11.5696 7.69893 11.7033 7.25812 11.9539 6.88317C12.2044 6.50823 12.5605 6.216 12.9771 6.04343C13.3937 5.87086 13.8522 5.82571 14.2944 5.91368C14.7367 6.00166 15.143 6.21881 15.4618 6.53767C15.7807 6.85653 15.9978 7.26279 16.0858 7.70507C16.1738 8.14734 16.1286 8.60578 15.9561 9.02239C15.7835 9.43901 15.4913 9.79509 15.1163 10.0456C14.7414 10.2962 14.3006 10.4299 13.8496 10.4299H11.8546C11.8172 10.4299 11.7801 10.4225 11.7456 10.4082C11.711 10.3939 11.6796 10.3729 11.6531 10.3464C11.6266 10.3199 11.6056 10.2885 11.5913 10.2539C11.577 10.2194 11.5696 10.1823 11.5696 10.1449V8.14987ZM5.86963 13.8499C5.86963 13.2452 6.10984 12.6653 6.53743 12.2377C6.96501 11.8101 7.54494 11.5699 8.14963 11.5699H10.1446C10.1821 11.5699 10.2191 11.5772 10.2537 11.5916C10.2883 11.6059 10.3197 11.6269 10.3462 11.6533C10.3726 11.6798 10.3936 11.7112 10.4079 11.7458C10.4223 11.7804 10.4296 11.8174 10.4296 11.8549V13.8499C10.4296 14.4546 10.1894 15.0345 9.76183 15.4621C9.33425 15.8897 8.75432 16.1299 8.14963 16.1299C7.54494 16.1299 6.96501 15.8897 6.53743 15.4621C6.10984 15.0345 5.86963 14.4546 5.86963 13.8499ZM11.5696 11.8549C11.5696 11.7793 11.5997 11.7068 11.6531 11.6533C11.7066 11.5999 11.779 11.5699 11.8546 11.5699H13.8496C14.3006 11.5699 14.7414 11.7036 15.1163 11.9541C15.4913 12.2047 15.7835 12.5607 15.9561 12.9774C16.1286 13.394 16.1738 13.8524 16.0858 14.2947C15.9978 14.737 15.7807 15.1432 15.4618 15.4621C15.143 15.7809 14.7367 15.9981 14.2944 16.0861C13.8522 16.174 13.3937 16.1289 12.9771 15.9563C12.5605 15.7838 12.2044 15.4915 11.9539 15.1166C11.7033 14.7416 11.5696 14.3008 11.5696 13.8499V11.8549Z" fill="white"/>
</svg>
