<svg width="22" height="22" viewBox="0 0 22 22" fill="none" xmlns="http://www.w3.org/2000/svg">
<circle cx="11" cy="11" r="10.5" fill="#D35152" stroke="white"/>
<path fill-rule="evenodd" clip-rule="evenodd" d="M11.4966 4.96377C11.209 4.46699 10.7514 4.46699 10.4638 4.96377L5.24116 14.1606C4.95355 14.6639 5.18886 15.0626 5.76407 15.0626H8.3852C8.91466 15.0299 9.39182 14.7489 9.67942 14.3044L12.8365 8.83336C13.0653 8.36273 13.0653 7.80713 12.8365 7.33651L11.8953 5.68278L11.4966 4.96377ZM14.9673 11.0166C14.6797 10.5198 14.2156 10.5198 13.928 11.0166L12.1044 14.1606C11.8233 14.6574 12.0586 15.0627 12.6273 15.0627H16.2354C16.8106 15.0627 17.0459 14.6574 16.7583 14.1606L14.9673 11.0166Z" fill="white"/>
</svg>
