<svg width="23" height="23" viewBox="0 0 23 23" fill="none" xmlns="http://www.w3.org/2000/svg">
<path d="M0.796631 8.49817C2.20444 3.03738 7.59336 -0.340463 13.1121 0.682739L13.6462 0.795044L13.658 0.797974C19.1977 2.24885 22.6172 7.94322 21.2673 13.5509L21.2654 13.5587C19.8117 19.196 14.1164 22.6133 8.41577 21.2618L8.40405 21.2589C2.86453 19.8078 -0.55606 14.1142 0.794678 8.50598L0.796631 8.49817Z" fill="#F7931A" stroke="white"/>
<path fill-rule="evenodd" clip-rule="evenodd" d="M15.8467 9.80368C16.0462 8.49022 15.0305 7.78414 13.6414 7.31311L14.0922 5.53388L12.9923 5.26397L12.5537 6.99632C12.2645 6.92537 11.9675 6.85843 11.6727 6.79211L12.1142 5.04835L11.0151 4.77844L10.5643 6.55706C10.325 6.50339 10.09 6.45033 9.86194 6.3945L9.86319 6.38895L8.34626 6.01601L8.05365 7.17276C8.05365 7.17276 8.86976 7.35692 8.85222 7.36833C9.29802 7.47784 9.37854 7.7681 9.36507 7.99822L8.13072 12.8723C8.07621 13.0056 7.93773 13.2051 7.62664 13.1296C7.63729 13.1453 6.82713 12.9331 6.82713 12.9331L6.28076 14.1731L7.71248 14.5248C7.97846 14.5905 8.23943 14.6589 8.49664 14.7237L8.04112 16.5233L9.13981 16.7932L9.59063 15.0124C9.89076 15.0926 10.1818 15.1667 10.4672 15.2367L10.018 17.0085L11.1179 17.2784L11.5731 15.4825C13.4484 15.832 14.8592 15.6911 15.4529 14.021C15.9312 12.6764 15.429 11.9003 14.4422 11.3941C15.1609 11.2306 15.7022 10.7652 15.8467 9.80368ZM13.6737 9.78425C13.3635 11.0076 11.449 10.3861 10.8284 10.2337L11.376 8.07133C11.9966 8.22372 13.9967 8.50812 13.6737 9.78425ZM13.3334 13.2733C12.9935 14.6179 10.6937 13.8915 9.94775 13.7089L10.5521 11.3247C11.2977 11.508 13.6887 11.871 13.3334 13.2733Z" fill="white"/>
</svg>
