<svg width="22" height="22" viewBox="0 0 22 22" fill="none" xmlns="http://www.w3.org/2000/svg">
<path d="M11 0.5C16.799 0.500001 21.5 5.20101 21.5 11C21.5 16.799 16.799 21.5 11 21.5C5.20101 21.5 0.500001 16.799 0.5 11C0.5 5.20101 5.20101 0.5 11 0.5Z" fill="#006AFF" stroke="white"/>
<path d="M11.0001 14.6915C8.96126 14.6915 7.30856 13.0388 7.30856 11C7.30856 8.96113 8.96126 7.30843 11.0001 7.30843V4.28821C7.29316 4.28821 4.28833 7.29333 4.28833 11C4.28833 14.7066 7.29316 17.7118 11.0001 17.7118C14.7071 17.7118 17.7119 14.7066 17.7119 11H14.6917C14.6917 13.0388 13.039 14.6915 11.0001 14.6915Z" fill="white"/>
<path d="M14.6916 7.30847H11V11H14.6916V7.30847Z" fill="white"/>
</svg>
