<svg width="22" height="22" viewBox="0 0 22 22" fill="none" xmlns="http://www.w3.org/2000/svg">
<circle cx="11" cy="11" r="10.5" fill="#006CFF" stroke="white"/>
<path d="M15.8101 6.30349C14.564 5.03009 12.8636 4.303 11.082 4.28173C9.30045 4.26046 7.58319 4.94675 6.30698 6.19004C5.67355 6.80513 5.16842 7.53977 4.82082 8.3514C4.47323 9.16304 4.29008 10.0356 4.28198 10.9185C4.26894 11.8007 4.43095 12.6767 4.75864 13.4959C5.08632 14.3151 5.57318 15.0611 6.19105 15.691C6.21566 15.7168 6.24423 15.7387 6.27176 15.7614C6.28577 15.7729 6.30017 15.7839 6.31496 15.7945C6.3282 15.8033 6.34207 15.8112 6.35646 15.818L6.36341 15.8214C6.39224 15.8391 6.42214 15.855 6.45293 15.869C6.46766 15.8747 6.48269 15.8796 6.49795 15.8837L6.50721 15.8861C6.53691 15.8969 6.56727 15.9059 6.59811 15.913C6.61466 15.9161 6.63138 15.9182 6.64819 15.9192L6.65856 15.9198C6.6898 15.9246 6.7213 15.9275 6.75289 15.9284C6.77352 15.9281 6.79412 15.9265 6.81454 15.9235L6.84884 15.9201C6.8661 15.9192 6.88329 15.9171 6.90029 15.914C6.92899 15.9077 6.95731 15.8998 6.9851 15.8903L6.99719 15.8869C7.01277 15.8831 7.02807 15.8782 7.04298 15.8723C7.078 15.8574 7.11203 15.8402 7.14485 15.8209C7.15547 15.8158 7.16575 15.8101 7.17564 15.8037C7.21996 15.7754 7.26128 15.7426 7.29895 15.7059L10.08 12.9889C10.435 12.642 10.9648 12.5563 11.4418 12.4195C11.6325 12.3654 11.8105 12.2741 11.9657 12.1508C12.1208 12.0275 12.25 11.8747 12.3457 11.7012C12.4424 11.5282 12.5037 11.3377 12.5263 11.1409C12.5488 10.944 12.5321 10.7446 12.477 10.5542C12.423 10.3635 12.3317 10.1855 12.2085 10.0303C12.0852 9.87521 11.9324 9.74606 11.7588 9.65037C11.5858 9.55376 11.3954 9.4924 11.1985 9.46987C11.0016 9.44733 10.8022 9.46406 10.6118 9.51909C10.2398 9.62608 9.92303 9.87187 9.72697 10.2057C9.58744 10.4433 9.51663 10.7125 9.51904 10.984C9.52087 11.19 9.46826 11.4009 9.32083 11.5449C9.03496 11.8241 8.55932 11.7367 8.50418 11.3409C8.48836 11.2273 8.48035 11.1125 8.48034 10.9972C8.48109 10.329 8.74686 9.6883 9.21936 9.21579C9.69186 8.74327 10.3325 8.47746 11.0007 8.47669C11.669 8.4774 12.3097 8.74317 12.7822 9.2157C13.2548 9.68823 13.5206 10.3289 13.5213 10.9972C13.5205 11.6654 13.2547 12.3061 12.7822 12.7786C12.3097 13.2511 11.669 13.5169 11.0007 13.5176C10.9328 13.5176 10.8778 13.5726 10.8778 13.6406V14.9571C10.8778 15.0259 10.9335 15.0816 11.0023 15.0816C11.8334 15.0828 12.6449 14.8291 13.3274 14.3548C14.2164 13.7374 14.8243 12.7925 15.0175 11.7275C15.2108 10.6625 14.9738 9.56429 14.3584 8.67384C14.0541 8.23214 13.6652 7.85516 13.2143 7.56472C12.7634 7.27429 12.2593 7.07615 11.7313 6.98179C11.2038 6.8847 10.6623 6.89315 10.1381 7.00663C9.61392 7.12011 9.11741 7.33638 8.67731 7.64293C8.23562 7.94717 7.85866 8.33599 7.56824 8.78688C7.27782 9.23777 7.0797 9.74179 6.98536 10.2698C6.82278 11.1515 6.95768 12.0577 7.36167 12.8488C7.48046 13.0814 7.4531 13.3692 7.26626 13.5517C7.02713 13.7853 6.63388 13.7509 6.47436 13.4572C6.06258 12.6988 5.84445 11.8467 5.84444 10.9771C5.84862 9.60911 6.39458 8.29846 7.36283 7.33205C8.33108 6.36564 9.64275 5.82218 11.0108 5.82063H11.0209C11.6996 5.82007 12.3717 5.95415 12.9983 6.21509C13.6249 6.47603 14.1935 6.85866 14.6712 7.34083C15.1515 7.82043 15.5319 8.39052 15.7905 9.01812C16.049 9.64571 16.1805 10.3183 16.1774 10.9971C16.1732 12.3651 15.6272 13.6758 14.659 14.6422C13.6907 15.6086 12.379 16.1521 11.011 16.1537H11.0011C10.933 16.1537 10.8778 16.2089 10.8778 16.277V17.5943L10.8778 17.5964C10.8786 17.631 10.894 17.664 10.9198 17.6871C10.9423 17.7073 10.9719 17.7187 11.0022 17.7187C12.7574 17.7225 14.4436 17.0356 15.6966 15.8065C16.9699 14.5603 17.697 12.86 17.7183 11.0785C17.7396 9.29693 17.0533 7.57971 15.8101 6.30349Z" fill="white"/>
</svg>
