<svg width="24" height="24" viewBox="0 0 24 24" fill="none" xmlns="http://www.w3.org/2000/svg">
<path fill-rule="evenodd" clip-rule="evenodd" d="M5.7 3C4.20883 3 3 4.20883 3 5.7V18.3C3 19.7912 4.20883 21 5.7 21H21V3.9C21 3.40294 20.5971 3 20.1 3C19.6029 3 19.2 3.40294 19.2 3.9V19.2H7.05C5.80736 19.2 4.8 18.1926 4.8 16.95C4.8 15.7074 5.80736 14.7 7.05 14.7H17.85V3.9C17.85 3.40294 17.4471 3 16.95 3H5.7ZM7.5 16.05C7.00294 16.05 6.6 16.4529 6.6 16.95C6.6 17.4471 7.00294 17.85 7.5 17.85H16.95C17.4471 17.85 17.85 17.4471 17.85 16.95C17.85 16.4529 17.4471 16.05 16.95 16.05H7.5Z" fill="#303236"/>
</svg>
