<svg width="24" height="24" viewBox="0 0 24 24" fill="none" xmlns="http://www.w3.org/2000/svg">
<path d="M11.5163 20.9715L11.4985 20.9723C11.4435 20.9711 11.3899 20.9546 11.3437 20.9244L11.3444 20.9252C11.1585 20.7779 11.2266 20.4197 11.3051 20.0047C11.3953 19.6636 11.4199 19.3083 11.3777 18.9579L11.3792 18.9714C11.3445 18.7958 11.255 18.6361 11.1238 18.5157C10.9926 18.3953 10.8267 18.3204 10.6503 18.3021H10.6466C9.4383 18.1702 8.26018 17.8364 7.16038 17.3144L7.2278 17.3428C6.75273 17.121 6.29637 16.8604 5.86325 16.5637L5.89807 16.5861C5.48819 16.3089 5.10189 15.9978 4.74317 15.6559L4.74761 15.6597C4.40684 15.3352 4.09793 14.9847 3.82087 14.6084L3.80606 14.5867C3.54018 14.2252 3.30969 13.8386 3.11786 13.4322L3.09934 13.3896C2.7018 12.551 2.49694 11.6326 2.50003 10.703C2.50003 10.1541 2.56967 9.62177 2.70153 9.11406L2.6919 9.15743C2.82245 8.64403 3.01397 8.14843 3.26231 7.68141L3.24528 7.71655C3.49413 7.24882 3.79163 6.80917 4.13275 6.40504L4.1246 6.41476C4.46919 6.00348 4.85194 5.62641 5.26765 5.28868L5.28395 5.27597C5.70883 4.9323 6.1627 4.6268 6.64035 4.36299L6.68924 4.33832C7.18263 4.06674 7.69783 3.83762 8.22935 3.6534L8.30269 3.63097C8.86166 3.43576 9.43614 3.28916 10.0199 3.1928L10.0858 3.18383C11.377 2.97262 12.6937 2.9759 13.9839 3.19355L13.9142 3.18383C14.5972 3.29748 15.1973 3.45301 15.7766 3.6549L15.6973 3.63097C16.3248 3.84631 16.8574 4.08559 17.3649 4.36598L17.3108 4.33832C17.8456 4.63218 18.3057 4.94248 18.7346 5.29018L18.7161 5.27597C19.1442 5.62292 19.5235 5.99603 19.8658 6.4028L19.8754 6.41476C20.1977 6.7961 20.4881 7.22305 20.7318 7.67917L20.751 7.71805C20.974 8.13005 21.1644 8.60859 21.297 9.11107L21.3074 9.15668C21.4365 9.66199 21.5013 10.1819 21.5 10.7037C21.5015 11.4467 21.3707 12.184 21.114 12.8804L21.1281 12.837C20.8774 13.5282 20.5207 14.1754 20.071 14.7549L20.0821 14.74C20.0278 14.818 19.9687 14.8924 19.905 14.9628L19.9065 14.9613L19.9006 14.968C19.5835 15.3479 19.2457 15.6881 18.8805 15.9976L18.8679 16.0081C17.5822 17.188 16.2157 18.2752 14.7787 19.2615L14.6498 19.3452C14.0709 19.749 13.4713 20.1216 12.8534 20.4616L12.7438 20.5169C12.5237 20.6363 12.2971 20.7432 12.0652 20.8369L12.0208 20.8526C11.8627 20.9212 11.694 20.9614 11.5222 20.9715H11.5177H11.5163ZM15.9485 8.45307C15.8173 8.45346 15.6917 8.50621 15.599 8.5998C15.5063 8.69338 15.454 8.8202 15.4536 8.95255V12.6598C15.454 12.7921 15.5063 12.919 15.599 13.0125C15.6917 13.1061 15.8173 13.1589 15.9485 13.1593H17.8642C17.9953 13.1589 18.1209 13.1061 18.2136 13.0125C18.3064 12.919 18.3586 12.7921 18.359 12.6598V12.6179C18.3586 12.4856 18.3064 12.3587 18.2136 12.2652C18.1209 12.1716 17.9953 12.1188 17.8642 12.1184H16.484V11.3281H17.8634C17.9945 11.3277 18.1202 11.2749 18.2129 11.1813C18.3056 11.0878 18.3579 10.9609 18.3583 10.8286V10.7867C18.3579 10.6544 18.3056 10.5276 18.2129 10.434C18.1202 10.3404 17.9945 10.2876 17.8634 10.2872H16.484V9.4954H17.8634C17.9945 9.495 18.1202 9.44225 18.2129 9.34867C18.3056 9.25508 18.3579 9.12827 18.3583 8.99592V8.9533C18.3579 8.82095 18.3056 8.69413 18.2129 8.60054C18.1202 8.50696 17.9945 8.45421 17.8634 8.45381L15.9485 8.45307ZM11.5252 8.44409C11.394 8.44449 11.2684 8.49724 11.1757 8.59082C11.083 8.68441 11.0307 8.81123 11.0303 8.94358V12.6508C11.0307 12.7832 11.083 12.91 11.1757 13.0036C11.2684 13.0971 11.394 13.1499 11.5252 13.1503H11.5666C11.6978 13.1499 11.8234 13.0971 11.9161 13.0036C12.0088 12.91 12.0611 12.7832 12.0615 12.6508V10.433L13.8646 12.9192L13.9016 12.9701L13.9009 12.9693C13.9484 13.0342 14.0135 13.0838 14.0883 13.1122L14.0913 13.1129C14.1468 13.1368 14.2113 13.1503 14.2787 13.1503H14.3224C14.4039 13.1503 14.4841 13.1297 14.5558 13.0905L14.5528 13.092C14.5987 13.0705 14.6398 13.0397 14.6735 13.0015V13.0007C14.719 12.9548 14.7551 12.9002 14.7796 12.8402C14.8041 12.7801 14.8167 12.7158 14.8165 12.6508V8.94358C14.8161 8.81123 14.7639 8.68441 14.6711 8.59082C14.5784 8.49724 14.4528 8.44449 14.3217 8.44409H14.278C14.1468 8.44449 14.0212 8.49724 13.9285 8.59082C13.8358 8.68441 13.7835 8.81123 13.7831 8.94358V11.1202L11.9948 8.69683C11.9519 8.61972 11.8896 8.55544 11.8141 8.51053C11.7387 8.46561 11.6528 8.44166 11.5652 8.4411L11.5252 8.44409ZM9.79614 8.44409C9.66502 8.44449 9.53937 8.49724 9.44666 8.59082C9.35394 8.68441 9.30168 8.81123 9.30129 8.94358V12.6508C9.30168 12.7832 9.35394 12.91 9.44666 13.0036C9.53937 13.0971 9.66502 13.1499 9.79614 13.1503H9.83762C9.96875 13.1499 10.0944 13.0971 10.1871 13.0036C10.2798 12.91 10.3321 12.7832 10.3325 12.6508V8.94358C10.3321 8.81123 10.2798 8.68441 10.1871 8.59082C10.0944 8.49724 9.96875 8.44449 9.83762 8.44409H9.79614ZM6.4907 8.44409C6.35958 8.44449 6.23394 8.49724 6.14122 8.59082C6.04851 8.68441 5.99624 8.81123 5.99585 8.94358V12.6508C5.99624 12.7832 6.04851 12.91 6.14122 13.0036C6.23394 13.0971 6.35958 13.1499 6.4907 13.1503H8.40492C8.53605 13.1499 8.66169 13.0971 8.7544 13.0036C8.84712 12.91 8.89938 12.7832 8.89977 12.6508V12.6134C8.89938 12.4811 8.84712 12.3543 8.7544 12.2607C8.66169 12.1671 8.53605 12.1143 8.40492 12.1139H7.0263V8.94432C7.02591 8.81197 6.97365 8.68516 6.88093 8.59157C6.78821 8.49799 6.66257 8.44524 6.53145 8.44484L6.4907 8.44409Z" fill="#303236"/>
</svg>
