<svg width="24" height="24" viewBox="0 0 24 24" fill="none" xmlns="http://www.w3.org/2000/svg">
<path fill-rule="evenodd" clip-rule="evenodd" d="M15.9111 2.1759C16.036 3.32614 15.5741 4.48217 14.8886 5.31289V5.31292C14.2032 6.14362 13.0762 6.79135 11.9753 6.70421C11.8243 5.57721 12.3849 4.40084 13.0181 3.66307C13.7268 2.83235 14.9235 2.21657 15.9111 2.1759ZM19.4695 8.88257C19.2706 9.00557 17.3372 10.2013 17.3626 12.6154L17.3626 12.6153C17.3877 15.4726 19.7717 16.4964 19.985 16.588C19.9938 16.5918 19.9989 16.594 20 16.5946C19.9993 16.5969 19.998 16.6009 19.9963 16.6065C19.9506 16.7555 19.5533 18.0505 18.6406 19.386C17.8215 20.5827 16.9734 21.7736 15.6343 21.7997C14.9901 21.8111 14.5601 21.6249 14.1134 21.4314C13.6456 21.2289 13.1595 21.0184 12.3899 21.0184C11.5834 21.0184 11.074 21.2354 10.5834 21.4443C10.1588 21.6252 9.74835 21.8001 9.17156 21.823C7.87899 21.8694 6.89432 20.5304 6.06941 19.3366C4.37891 16.8996 3.08928 12.4439 4.82333 9.43474C5.68311 7.94178 7.21963 6.99778 8.88689 6.97164C9.60638 6.95847 10.3025 7.2346 10.9119 7.4763C11.3775 7.66101 11.7925 7.82561 12.1284 7.82561C12.4297 7.82561 12.8336 7.66648 13.3047 7.48088C14.0461 7.18875 14.9539 6.83106 15.8899 6.92519C16.5318 6.95425 18.3298 7.18661 19.4829 8.8742C19.4802 8.87596 19.4757 8.87874 19.4695 8.88257Z" fill="#303236"/>
</svg>
