<svg width="24" height="24" viewBox="0 0 24 24" fill="none" xmlns="http://www.w3.org/2000/svg">
<path d="M12.4184 2C12.2896 2 12.1567 2.00665 12.0205 2.01745C8.50871 2.2941 9.44003 6.01105 9.38686 7.24976C9.32289 8.15781 9.13762 8.87312 8.5137 9.75957C7.77845 10.6327 6.74661 12.0442 6.25728 13.5156C6.02632 14.2068 5.91665 14.9146 6.01884 15.5834C5.98064 15.614 5.94924 15.6522 5.92662 15.6956C5.71062 15.9182 5.5536 16.1949 5.37664 16.3926C5.21131 16.5579 4.97371 16.6144 4.7145 16.7249C4.45446 16.8379 4.16784 16.9484 3.9967 17.2907C3.92193 17.4469 3.88371 17.6172 3.88703 17.79C3.88703 17.9553 3.90947 18.1231 3.93273 18.2353C3.98091 18.5668 4.0291 18.8409 3.96513 19.0411C3.75909 19.6061 3.73334 19.9932 3.8779 20.2749C4.02245 20.5523 4.32237 20.6645 4.65801 20.7742C5.33178 20.9403 6.24481 20.8863 6.96345 21.2718C7.73276 21.6598 8.5137 21.8293 9.13679 21.6623C9.57378 21.5667 9.94266 21.2776 10.1404 20.8772C10.6281 20.8747 11.1623 20.6537 12.018 20.5997C12.5987 20.5515 13.3256 20.8215 14.1597 20.765C14.1805 20.8772 14.2121 20.9304 14.2545 21.0425L14.2569 21.045C14.5818 21.6914 15.1816 21.9855 15.8221 21.9348C16.4627 21.8849 17.1448 21.4895 17.6972 20.8498C18.2215 20.2142 19.0955 19.9492 19.6729 19.6011C19.962 19.4358 20.1954 19.2115 20.212 18.8924C20.2311 18.5601 20.0467 18.2178 19.6189 17.7484V17.6678L19.6164 17.6654C19.4751 17.4992 19.4087 17.2209 19.3356 16.896C19.2649 16.5629 19.1844 16.243 18.9268 16.027H18.9243C18.8753 15.9822 18.8221 15.9714 18.7681 15.9149C18.7217 15.8824 18.6669 15.864 18.6103 15.8617C18.9683 14.8 18.8296 13.7432 18.4666 12.7928C18.0237 11.6214 17.2494 10.6012 16.6596 9.89914C15.9983 9.0642 15.3503 8.27329 15.3627 7.10021C15.3852 5.31236 15.5596 2.00498 12.4184 2ZM12.8579 4.82884H12.8687C13.0457 4.82884 13.1977 4.88035 13.3539 4.99333C13.5126 5.10549 13.628 5.26915 13.7186 5.43614C13.8058 5.65132 13.8499 5.81748 13.8565 6.03763C13.8565 6.02102 13.8615 6.0044 13.8615 5.98862V6.07502C13.8597 6.06937 13.8585 6.0635 13.8582 6.05757L13.8548 6.03763C13.8532 6.23954 13.8108 6.43903 13.7302 6.62417C13.6914 6.72834 13.6311 6.82316 13.5533 6.90249C13.5297 6.88919 13.5053 6.87753 13.4802 6.86759C13.3929 6.83021 13.3148 6.81442 13.2434 6.7571C13.1844 6.73356 13.1236 6.71521 13.0614 6.70227C13.1021 6.65325 13.1819 6.59177 13.2126 6.53777C13.2567 6.43143 13.2808 6.31844 13.2858 6.20379V6.18801C13.2876 6.07518 13.2705 5.96283 13.2351 5.85569C13.1977 5.74354 13.1512 5.6887 13.083 5.57821C13.0133 5.52338 12.9443 5.46854 12.8612 5.46854H12.8479C12.7707 5.46854 12.7017 5.49347 12.6303 5.57821C12.5514 5.65515 12.4928 5.75051 12.4599 5.85569C12.4158 5.96125 12.3905 6.07372 12.3852 6.18801V6.20379C12.3868 6.27773 12.3918 6.3525 12.4018 6.42561C12.2414 6.36995 12.0379 6.31346 11.8975 6.25779C11.8892 6.20304 11.8842 6.14783 11.8825 6.09247V6.07585C11.8759 5.85626 11.9185 5.63797 12.0072 5.43697C12.0753 5.25503 12.1999 5.09967 12.3644 4.99416C12.5065 4.88682 12.6798 4.82877 12.8579 4.82884ZM10.3971 4.87785H10.427C10.545 4.87785 10.6513 4.91773 10.7585 4.99001C10.8798 5.09718 10.9778 5.22928 11.0443 5.37633C11.1191 5.54165 11.1614 5.70947 11.1714 5.93046V5.93379C11.1772 6.04511 11.1764 6.10077 11.1697 6.15478V6.22124C11.1448 6.22705 11.1232 6.23619 11.1008 6.24118C10.9745 6.28687 10.8731 6.35333 10.7743 6.40734C10.7842 6.3334 10.7851 6.25862 10.7768 6.18551V6.17305C10.7668 6.06256 10.7444 6.00773 10.7086 5.8964C10.6827 5.81173 10.6352 5.73527 10.5707 5.67458C10.5503 5.65596 10.5262 5.64166 10.5001 5.63252C10.474 5.62339 10.4463 5.61961 10.4187 5.62141H10.4013C10.3423 5.62639 10.2932 5.65547 10.2467 5.73107C10.1937 5.7954 10.1593 5.87295 10.147 5.95539C10.1245 6.0452 10.118 6.1383 10.1279 6.23038V6.24201C10.1379 6.35417 10.1587 6.409 10.1952 6.51949C10.2326 6.63082 10.2758 6.68565 10.3323 6.74214C10.3414 6.74962 10.3497 6.7571 10.3605 6.76208C10.3024 6.80944 10.2633 6.82024 10.2143 6.87507C10.1832 6.90253 10.1458 6.92193 10.1055 6.93156C10.0191 6.82757 9.94265 6.71576 9.87702 6.59759C9.79848 6.423 9.75474 6.23478 9.74825 6.04345C9.73449 5.85591 9.75706 5.66747 9.81471 5.48848C9.86048 5.32525 9.94064 5.1737 10.0498 5.04401C10.1562 4.93352 10.2658 4.87785 10.3971 4.87785ZM11.5361 6.29518C11.8111 6.29518 12.1442 6.34918 12.5455 6.62666C12.7889 6.79282 12.98 6.85015 13.4203 7.01547H13.4228C13.6347 7.12846 13.7593 7.23646 13.8199 7.34696V7.23812C13.8498 7.29853 13.8664 7.3646 13.8687 7.43193C13.871 7.49926 13.8589 7.5663 13.8332 7.6286C13.7311 7.88697 13.4046 8.16362 12.9493 8.32895V8.33061C12.7266 8.44277 12.5331 8.60726 12.3054 8.71693C12.0761 8.82908 11.8169 8.95952 11.4647 8.93875C11.3381 8.9453 11.2116 8.92637 11.0925 8.88309C11.0005 8.83302 10.9112 8.77811 10.825 8.71859C10.6629 8.60643 10.5234 8.44277 10.3165 8.33227V8.32812H10.3124C9.98004 8.12374 9.80059 7.90276 9.74243 7.73743C9.68511 7.51478 9.73828 7.34779 9.90278 7.23896C10.0889 7.1268 10.2185 7.01381 10.304 6.95981C10.3905 6.89833 10.4229 6.87507 10.4503 6.85098H10.4519V6.84848C10.5923 6.68067 10.8142 6.45884 11.149 6.34918C11.2644 6.31927 11.3932 6.29518 11.5361 6.29518ZM13.8615 8.07556C14.1597 9.25279 14.8559 10.9626 15.3037 11.7917C15.5413 12.2353 16.0141 13.17 16.2193 14.304C16.3489 14.2998 16.4926 14.3189 16.6455 14.3572C17.1822 12.9689 16.1918 11.4768 15.7407 11.0622C15.5571 10.8953 15.548 10.7839 15.6385 10.7839C16.1279 11.2276 16.7726 12.0899 17.006 13.0744C17.1132 13.5189 17.1381 13.9916 17.0235 14.4618C17.0791 14.4851 17.1356 14.5125 17.1938 14.5175C18.0512 14.9611 18.3677 15.2968 18.2157 15.7944V15.7587C18.165 15.7562 18.116 15.7587 18.0653 15.7587H18.0528C18.1783 15.3707 17.9016 15.0733 17.168 14.7418C16.4079 14.4095 15.8005 14.4627 15.6967 15.1281C15.6909 15.1639 15.6867 15.183 15.6826 15.2403C15.6261 15.2594 15.5671 15.2843 15.5089 15.2935C15.1517 15.5161 14.959 15.8493 14.8501 16.2796C14.7421 16.7224 14.7089 17.24 14.6798 17.8323V17.8348C14.6624 18.1123 14.5377 18.531 14.4148 18.9572C13.1686 19.8478 11.4406 20.235 9.9709 19.2347C9.87873 19.0736 9.76651 18.9248 9.63693 18.7919C9.57507 18.6885 9.49806 18.595 9.40846 18.5144C9.55966 18.5144 9.68926 18.4903 9.79478 18.4588C9.91424 18.4033 10.0077 18.3039 10.0556 18.1813C10.1454 17.9595 10.0556 17.6022 9.76902 17.2151C9.4824 16.8271 8.99556 16.3884 8.28357 15.9514C7.76017 15.62 7.46441 15.2287 7.32816 14.7917C7.19108 14.348 7.20936 13.8903 7.3157 13.425C7.51924 12.5361 8.04098 11.672 8.37413 11.1295C8.46302 11.0755 8.40486 11.2417 8.03516 11.9387C7.70617 12.5627 7.08723 14.0132 7.93381 15.1406C7.96577 14.318 8.14794 13.5082 8.47133 12.7512C8.93989 11.6895 9.91939 9.84016 9.99666 8.37464C10.0365 8.40455 10.1769 8.4868 10.2368 8.54246C10.4179 8.65296 10.5525 8.81912 10.7269 8.92878C10.9022 9.09577 11.1232 9.20709 11.4547 9.20709C11.4871 9.20959 11.517 9.21208 11.5469 9.21208C11.8884 9.21208 12.1526 9.10075 12.3744 8.98943C12.6153 8.8781 12.8072 8.71194 12.9892 8.65711H12.9933C13.3813 8.54496 13.6879 8.32313 13.8615 8.07556ZM15.6776 15.5178C15.7083 16.0171 15.9626 16.5521 16.4103 16.6618C16.8989 16.7731 17.6017 16.3851 17.8983 16.0262L18.0736 16.0187C18.3353 16.0121 18.553 16.027 18.7773 16.2406L18.7798 16.243C18.9526 16.4084 19.0331 16.6842 19.1046 16.9708C19.1752 17.304 19.2325 17.6188 19.4444 17.8564C19.8482 18.2943 19.9802 18.6091 19.9728 18.8035L19.9753 18.7986V18.8135L19.9728 18.8035C19.9603 19.0212 19.8191 19.1325 19.559 19.2979C19.0356 19.631 18.1085 19.8894 17.5178 20.6022C17.0044 21.2145 16.3788 21.5485 15.8263 21.5917C15.2747 21.6357 14.7986 21.4255 14.5186 20.8456L14.5145 20.8431C14.34 20.51 14.4148 19.9916 14.561 19.4391C14.7072 18.8841 14.9166 18.3217 14.9457 17.8623C14.9764 17.2691 15.0088 16.7532 15.1077 16.3552C15.2074 15.9689 15.3636 15.6931 15.6402 15.5377L15.6776 15.5194V15.5178ZM6.69261 15.5585H6.70092C6.74495 15.5585 6.78815 15.5626 6.83135 15.5701C7.14373 15.6158 7.41789 15.8468 7.68125 16.1949L8.43727 17.5773L8.43976 17.5798C8.64164 18.0226 9.06617 18.4637 9.42757 18.9406C9.78813 19.4374 10.0673 19.8802 10.0332 20.245V20.2499C9.98586 20.868 9.63526 21.2037 9.09857 21.325C8.56272 21.4371 7.83577 21.3266 7.10883 20.9395C6.30463 20.4942 5.34922 20.5499 4.73527 20.4394C4.42871 20.3845 4.22766 20.2724 4.13461 20.1062C4.04239 19.9409 4.04073 19.6069 4.2368 19.0843V19.0819L4.23846 19.0794C4.33566 18.8019 4.26338 18.4538 4.21603 18.1497C4.17033 17.8166 4.14707 17.5607 4.25175 17.3688C4.38468 17.0913 4.58074 17.0373 4.82416 16.926C5.06925 16.8138 5.3567 16.7581 5.58517 16.5363H5.58683V16.5338C5.79951 16.3112 5.95653 16.0345 6.1418 15.8376C6.29965 15.6706 6.4575 15.5585 6.69261 15.5585ZM12.6402 8.0199C12.2788 8.18689 11.8551 8.46437 11.404 8.46437C10.9537 8.46437 10.5981 8.24255 10.3414 8.07722C10.2127 7.9659 10.1088 7.85457 10.0307 7.79891C9.89447 7.68758 9.91109 7.52142 9.96924 7.52142C10.0598 7.53472 10.0764 7.63358 10.1346 7.68841C10.2143 7.74324 10.3132 7.85374 10.4345 7.96506C10.6762 8.13122 10.9994 8.35304 11.4032 8.35304C11.8061 8.35304 12.278 8.13122 12.5646 7.9659C12.7266 7.85374 12.9343 7.68841 13.103 7.57792C13.2326 7.4641 13.2268 7.35527 13.3348 7.35527C13.4419 7.36856 13.363 7.46659 13.2126 7.63192C13.0284 7.77128 12.837 7.90105 12.6394 8.02073V8.0199H12.6402ZM11.7413 6.70393V6.68565C11.7363 6.66986 11.7521 6.65076 11.7654 6.64411C11.8269 6.60839 11.9149 6.62168 11.9814 6.64743C12.0338 6.64743 12.1143 6.7031 12.106 6.75959C12.101 6.8003 12.0354 6.81442 11.9939 6.81442C11.9482 6.81442 11.9174 6.7787 11.8767 6.75793C11.8335 6.74297 11.7554 6.75128 11.7413 6.70393ZM11.2835 6.70393C11.2669 6.75211 11.1897 6.74464 11.1456 6.75876C11.1066 6.77953 11.0742 6.81525 11.0302 6.81525C10.9878 6.81525 10.9213 6.79947 10.9163 6.75876C10.9089 6.70393 10.9894 6.64826 11.041 6.64826C11.1083 6.62251 11.1938 6.60922 11.2561 6.64411C11.2719 6.65159 11.286 6.66903 11.2811 6.68565V6.7031H11.2835V6.70393Z" fill="#303236"/>
</svg>
