<svg width="24" height="24" viewBox="0 0 24 24" fill="none" xmlns="http://www.w3.org/2000/svg">
<path fill-rule="evenodd" clip-rule="evenodd" d="M15.7529 9.49512C19.203 9.49533 22 11.737 22 14.5049C22 16.113 21.0449 17.5164 19.583 18.4326L20.7529 20.7715L17.3799 19.3193C16.8635 19.4362 16.318 19.5146 15.7529 19.5146C12.3026 19.5146 9.5049 17.2729 9.50488 14.5049C9.50488 11.7369 12.3026 9.49512 15.7529 9.49512ZM13.6885 12.3398C13.5072 12.376 13.3407 12.465 13.21 12.5957C13.0791 12.7266 12.9902 12.8937 12.9541 13.0752C12.9181 13.2565 12.9361 13.4444 13.0068 13.6152C13.0777 13.7862 13.1977 13.9323 13.3516 14.0352C13.5054 14.1379 13.6861 14.1933 13.8711 14.1934C14.3877 14.1934 14.8164 13.7734 14.8066 13.2568C14.8065 13.0719 14.7521 12.891 14.6494 12.7373C14.5466 12.5835 14.4004 12.4634 14.2295 12.3926C14.0585 12.3218 13.87 12.3037 13.6885 12.3398ZM17.624 12.3213C17.3759 12.3213 17.1374 12.4202 16.9619 12.5957C16.7866 12.7711 16.6886 13.0089 16.6885 13.2568C16.6885 13.5049 16.7865 13.7435 16.9619 13.9189C17.1374 14.0944 17.3759 14.1934 17.624 14.1934C17.872 14.1933 18.1098 14.0943 18.2852 13.9189C18.4606 13.7435 18.5596 13.505 18.5596 13.2568C18.5594 13.0088 18.4605 12.7711 18.2852 12.5957C18.1097 12.4204 17.872 12.3214 17.624 12.3213Z" fill="#303236"/>
<path fill-rule="evenodd" clip-rule="evenodd" d="M9.50488 3.22754C13.1597 3.22754 16.2003 5.42087 16.8633 8.31543C16.5028 8.26672 16.132 8.2373 15.752 8.2373C11.6099 8.23752 8.24709 11.0547 8.25684 14.5049C8.25684 14.9142 8.30584 15.3045 8.39355 15.6846C7.75044 15.5969 7.14621 15.4312 6.57129 15.2266L3.88086 16.3857L4.86523 14.4072C3.12075 13.2571 2.00001 11.4931 2 9.49512C2 6.03508 5.36258 3.22754 9.50488 3.22754ZM7 6.05469C6.75207 6.05469 6.51429 6.15295 6.33887 6.32812C6.16339 6.5036 6.06445 6.74208 6.06445 6.99023C6.06446 7.23838 6.1634 7.4759 6.33887 7.65137C6.51434 7.82683 6.75185 7.92578 7 7.92578C7.24816 7.92578 7.48664 7.82684 7.66211 7.65137C7.83728 7.47595 7.93554 7.23816 7.93555 6.99023C7.93555 6.74208 7.83757 6.5036 7.66211 6.32812C7.48664 6.15265 7.24816 6.05469 7 6.05469ZM12 6.04492C11.7521 6.04492 11.5143 6.14319 11.3389 6.31836C11.1634 6.49383 11.0645 6.73231 11.0645 6.98047C11.0645 7.22862 11.1634 7.46613 11.3389 7.6416C11.5143 7.81707 11.7518 7.91602 12 7.91602C12.1229 7.91602 12.2449 7.89175 12.3584 7.84473C12.4718 7.79771 12.5753 7.7284 12.6621 7.6416C12.7487 7.55491 12.8173 7.45204 12.8643 7.33887C12.9113 7.22535 12.9355 7.10334 12.9355 6.98047C12.9355 6.85759 12.9113 6.73559 12.8643 6.62207C12.8172 6.50869 12.7489 6.40516 12.6621 6.31836C12.5753 6.23156 12.4718 6.16323 12.3584 6.11621C12.2449 6.06919 12.1229 6.04492 12 6.04492Z" fill="#303236"/>
</svg>
