<svg width="24" height="24" viewBox="0 0 24 24" fill="none" xmlns="http://www.w3.org/2000/svg">
<path d="M6.164 12.0665C6.164 11.4125 6.274 10.7855 6.469 10.1975L3.044 7.60699C2.35505 8.99249 1.99765 10.5192 2.00001 12.0665C2.00001 13.669 2.37501 15.1805 3.042 16.5225L6.46601 13.9275C6.26601 13.3275 6.1645 12.699 6.164 12.0665Z" fill="#FBBC05"/>
<path d="M12.1804 6.1185C13.545 6.11576 14.8687 6.58414 15.9279 7.44449L18.8895 4.5165C17.085 2.9615 14.7714 2 12.1805 2C8.15746 2 4.6995 4.2785 3.044 7.60699L6.47145 10.1975C7.26045 7.82451 9.51045 6.11803 12.1814 6.11803" fill="#EA4336"/>
<path d="M12.224 17.8819C9.539 17.8819 7.26001 16.286 6.46601 13.9275L3.042 16.5225C4.70552 19.8305 8.18002 21.9744 12.224 21.9744C14.7185 21.9744 17.1005 21.1075 18.889 19.4815L15.6205 17.0074C14.699 17.576 13.5375 17.8824 12.223 17.8824" fill="#33A954"/>
<path d="M21.9891 11.9715C21.9891 11.3805 21.8956 10.7435 21.7566 10.1525H12.2231V14.0175H17.7102C17.4366 15.3355 16.6895 16.3484 15.6205 17.0074L18.889 19.4815C20.7675 17.775 21.9891 15.2324 21.9891 11.9715Z" fill="#4285F4"/>
</svg>
