<svg width="24" height="24" viewBox="0 0 24 24" fill="none" xmlns="http://www.w3.org/2000/svg">
<path d="M7.69116 3.00037C6.82125 3.95231 6.244 4.875 5.95776 5.76794C5.52606 7.11483 5.30737 8.21563 5.30737 10.2445C5.30744 13.5164 7.22685 15.5286 7.24976 15.9496C7.27126 16.3696 7.21557 16.9969 6.52808 17.6254C6.4541 17.6928 6.4375 17.8479 6.68628 17.848C7.65642 17.848 8.19312 17.7446 9.08569 17.351C9.08569 17.351 11.4034 18.6927 14.1306 18.6927C16.8574 18.6927 18.3615 18.2984 19.9685 17.5404C20.3808 17.3457 20.7234 17.1291 20.9968 16.891L20.9998 18.0004C20.9997 19.6571 19.6564 21.0003 17.9998 21.0004H5.99976C4.34304 21.0004 2.99979 19.6571 2.99976 18.0004V6.00037C2.99976 4.34362 4.34301 3.00037 5.99976 3.00037H7.69116Z" fill="#303236"/>
<path d="M11.2791 8.83044C11.279 8.96105 11.2282 9.07631 11.1541 9.17224H11.1658L8.61987 12.139H11.0505V12.5961C11.0505 12.7221 10.9483 12.8246 10.822 12.8246H7.39624V12.7103C7.39624 12.5796 7.44747 12.4641 7.52222 12.3676H7.50952L10.0554 9.40076H7.62476V8.71619H11.2791V8.83044Z" fill="#303236"/>
<path fill-rule="evenodd" clip-rule="evenodd" d="M13.0173 9.40759C13.3395 9.43518 13.6479 9.55433 13.906 9.75232V9.51501H14.5916V12.8246H14.1345C14.0742 12.8245 14.0162 12.8007 13.9734 12.7582C13.9305 12.7154 13.9061 12.6567 13.906 12.5961V12.473C13.611 12.6995 13.2496 12.8232 12.8777 12.8246C12.4238 12.824 11.9888 12.6434 11.6677 12.3226C11.3466 12.0017 11.1656 11.5666 11.1648 11.1127C11.1657 10.6587 11.3465 10.2235 11.6677 9.90271C11.9889 9.58189 12.4247 9.40115 12.8787 9.40076L13.0173 9.40759ZM12.7771 10.0912C12.542 10.1147 12.3207 10.2186 12.1521 10.3871C11.9596 10.5795 11.8509 10.8405 11.8503 11.1127C11.8509 11.3851 11.9594 11.6467 12.1521 11.8392C12.3448 12.0317 12.6063 12.1397 12.8787 12.14C13.1509 12.1395 13.4117 12.0307 13.6042 11.8383C13.7968 11.6458 13.9054 11.3849 13.906 11.1127C13.9054 10.8404 13.7968 10.5795 13.6042 10.3871C13.4117 10.1947 13.1509 10.0857 12.8787 10.0853L12.7771 10.0912Z" fill="#303236"/>
<path d="M15.9626 12.8246H15.5056C15.4756 12.8246 15.4454 12.8185 15.4177 12.807C15.3901 12.7956 15.3646 12.7793 15.3435 12.7582C15.3224 12.7371 15.3062 12.7115 15.2947 12.684C15.2832 12.6563 15.2771 12.6261 15.2771 12.5961V8.71619H15.9626V12.8246Z" fill="#303236"/>
<path fill-rule="evenodd" clip-rule="evenodd" d="M18.3611 9.40076C18.8151 9.40115 19.2508 9.58189 19.572 9.90271C19.8931 10.2235 20.074 10.6588 20.075 11.1127C20.0741 11.5666 19.8931 12.0017 19.572 12.3226C19.2508 12.6436 18.8151 12.8242 18.3611 12.8246C17.9072 12.8241 17.4722 12.6434 17.1511 12.3226C16.83 12.0017 16.649 11.5666 16.6482 11.1127C16.6491 10.6587 16.83 10.2235 17.1511 9.90271C17.4722 9.582 17.9073 9.40125 18.3611 9.40076ZM18.3611 10.0853C18.0889 10.0858 17.8281 10.1947 17.6355 10.3871C17.4429 10.5795 17.3343 10.8404 17.3337 11.1127C17.3344 11.3849 17.4429 11.6458 17.6355 11.8383C17.828 12.0306 18.0889 12.1386 18.3611 12.139C18.6334 12.1388 18.895 12.0307 19.0876 11.8383C19.2803 11.6458 19.3888 11.3849 19.3894 11.1127C19.3888 10.8404 19.2802 10.5795 19.0876 10.3871C18.895 10.1946 18.6334 10.0856 18.3611 10.0853Z" fill="#303236"/>
</svg>
