<svg width="24" height="24" viewBox="0 0 24 24" fill="none" xmlns="http://www.w3.org/2000/svg">
<path d="M19.2725 4.95716L17.9452 4.81649C13.9741 4.3945 9.97138 4.3945 6.00021 4.81649L4.72753 4.95716C3.96915 5.04558 3.26982 5.42201 2.76569 6.01314C2.26157 6.60427 1.98875 7.3678 2.00036 8.15504V15.845C1.98875 16.6322 2.26157 17.3957 2.76569 17.9869C3.26982 18.578 3.96915 18.9544 4.72753 19.0428L6.05476 19.1835C10.0259 19.6055 14.0286 19.6055 17.9998 19.1835L19.2725 19.0428C20.0308 18.9544 20.7302 18.578 21.2343 17.9869C21.7384 17.3957 22.0112 16.6322 21.9996 15.845V8.15504C22.0112 7.3678 21.7384 6.60427 21.2343 6.01314C20.7302 5.42201 20.0308 5.04558 19.2725 4.95716ZM14.7272 12.5814L11.1909 15.0197C11.0896 15.0771 10.9759 15.1069 10.8603 15.1065C10.7448 15.1061 10.6312 15.0753 10.5304 15.0172C10.4295 14.9591 10.3446 14.8755 10.2836 14.7742C10.2227 14.6729 10.1876 14.5573 10.1819 14.4383V9.56173C10.1821 9.43416 10.216 9.30904 10.2798 9.19979C10.3437 9.09055 10.4352 9.00127 10.5444 8.94154C10.6537 8.8818 10.7767 8.85385 10.9002 8.86068C11.0237 8.86751 11.143 8.90886 11.2455 8.9803L14.7817 11.4186C14.8755 11.4816 14.9526 11.5678 15.0059 11.6693C15.0592 11.7709 15.0872 11.8845 15.0872 12C15.0872 12.1155 15.0592 12.2291 15.0059 12.3307C14.9526 12.4322 14.8755 12.5184 14.7817 12.5814H14.7272Z" fill="#303236"/>
</svg>
