<svg width="24" height="24" viewBox="0 0 24 24" fill="none" xmlns="http://www.w3.org/2000/svg">
<path d="M7.93579 19.1432L10.4252 19.8056V18.9394L10.6285 18.7356H12.0509V20.4679H10.5267L8.64701 19.6527L7.93627 19.1432H7.93579Z" fill="#CDBDB2"/>
<path d="M16.0643 19.1432L13.6257 19.8056V18.9394L13.4224 18.7356H12V20.4679H13.5242L15.4037 19.6527L16.0643 19.1432Z" fill="#CDBDB2"/>
<path d="M10.6281 17.2576L10.4248 18.9392L10.6788 18.7354H13.3206L13.6254 18.9392L13.4221 17.2576L13.0157 17.0029L10.9836 17.0538L10.6281 17.2576Z" fill="#393939"/>
<path d="M9.25684 5.89502L10.4762 8.74846L11.035 17.0539H13.0162L13.6259 8.74846L14.7435 5.89502H9.25684Z" fill="#F89C35"/>
<path d="M3.92244 12.1624L2.5 16.2897L6.0561 16.0859H8.34218V14.3025L8.24041 10.6337L7.7325 11.0415L3.92244 12.1624Z" fill="#F89D35"/>
<path d="M6.61499 12.6208L10.7808 12.7229L10.3235 14.8629L8.34227 14.3534L6.61499 12.6208Z" fill="#D87C30"/>
<path d="M6.61499 12.6719L8.34227 14.3024V15.9329L6.61499 12.6719Z" fill="#EA8D3A"/>
<path d="M8.34229 14.3533L10.3742 14.8628L11.0347 17.0538L10.5775 17.3087L8.34229 15.9838V14.3533Z" fill="#F89D35"/>
<path d="M8.34241 15.9839L7.93579 19.1431L10.6285 17.2577L8.34241 15.9839Z" fill="#EB8F35"/>
<path d="M10.7806 12.7229L11.0346 17.0539L10.2725 14.8375L10.7806 12.7229Z" fill="#EA8E3A"/>
<path d="M6.00513 16.035L8.3421 15.9839L7.93548 19.1431L6.00513 16.035Z" fill="#D87C30"/>
<path d="M3.6176 20.519L7.93581 19.1431L6.00522 16.035L2.5 16.2897L3.6176 20.519Z" fill="#EB8F35"/>
<path d="M10.4759 8.74854L8.29139 10.5828L6.61499 12.6209L10.7808 12.7738L10.4759 8.74854Z" fill="#E8821E"/>
<path d="M7.93579 19.143L10.6285 17.2576L10.4252 18.8883V19.8055L8.59636 19.4488L7.93603 19.143H7.93579ZM16.0643 19.143L13.4225 17.2576L13.6258 18.8883V19.8055L15.4544 19.4488L16.0645 19.143H16.0643Z" fill="#DFCEC3"/>
<path d="M9.66244 13.64L10.2212 14.8121L8.24023 14.3025L9.66244 13.64Z" fill="#393939"/>
<path d="M3.56689 3.5L10.476 8.74843L9.30754 5.89499L3.56689 3.5Z" fill="#E88F35"/>
<path d="M3.56638 3.5L2.65186 6.30256L3.16001 9.35978L2.80428 9.56356L3.31243 10.0223L2.90581 10.3789L3.46461 10.8885L3.10912 11.1941L3.92211 12.2132L7.73217 11.0414C7.73217 11.0414 10.5262 8.79932 10.4755 8.74843C10.4246 8.69707 3.56638 3.5 3.56638 3.5Z" fill="#8E5A30"/>
<path d="M20.0775 12.1624L21.5001 16.2897L17.9438 16.0859H15.6577V14.3025L15.7595 10.6337L16.2674 11.0415L20.0775 12.1624Z" fill="#F89D35"/>
<path d="M17.3848 12.6208L13.219 12.7229L13.6763 14.8629L15.6575 14.3534L17.3848 12.6208Z" fill="#D87C30"/>
<path d="M17.385 12.6719L15.6577 14.3024V15.9329L17.385 12.6719Z" fill="#EA8D3A"/>
<path d="M15.6575 14.3533L13.6257 14.8628L12.9651 17.0538L13.4224 17.3087L15.6575 15.9838V14.3533Z" fill="#F89D35"/>
<path d="M15.6578 15.9839L16.0644 19.1431L13.4226 17.3088L15.6578 15.9839Z" fill="#EB8F35"/>
<path d="M13.219 12.7229L12.9651 17.0539L13.7272 14.8375L13.219 12.7229Z" fill="#EA8E3A"/>
<path d="M17.9947 16.035L15.6577 15.9839L16.0643 19.1431L17.9947 16.035Z" fill="#D87C30"/>
<path d="M20.3822 20.519L16.064 19.1431L17.9946 16.035L21.5 16.2897L20.3824 20.519H20.3822Z" fill="#EB8F35"/>
<path d="M13.5238 8.74854L15.7084 10.5828L17.3848 12.6209L13.219 12.7738L13.5238 8.74854Z" fill="#E8821E"/>
<path d="M14.3369 13.64L13.7781 14.8121L15.7596 14.3025L14.3369 13.64Z" fill="#393939"/>
<path d="M20.4331 3.5L13.5239 8.74843L14.6924 5.89499L20.4331 3.5Z" fill="#E88F35"/>
<path d="M20.4332 3.5L21.3478 6.30256L20.8396 9.35978L21.1953 9.56356L20.6872 10.0223L21.0938 10.3789L20.535 10.8885L20.8905 11.1941L20.0778 12.2132L16.2672 11.0416C16.2672 11.0416 13.4732 8.79955 13.5239 8.74867C13.575 8.69707 20.4332 3.5 20.4332 3.5Z" fill="#8E5A30"/>
</svg>
