<svg width="24" height="24" viewBox="0 0 24 24" fill="none" xmlns="http://www.w3.org/2000/svg">
<path d="M11.998 2.76139C10.2961 2.76192 8.62752 3.23251 7.17618 4.12126C5.72484 5.01 4.54719 6.28236 3.77314 7.79798C2.99908 9.3136 2.65871 11.0136 2.78956 12.7104C2.92041 14.4072 3.5174 16.0349 4.51468 17.4139L3.6832 19.9453C3.6552 20.0262 3.65075 20.1135 3.67037 20.1969C3.69 20.2803 3.73289 20.3564 3.79406 20.4164C3.85426 20.4774 3.92994 20.5208 4.01296 20.542C4.09598 20.5631 4.1832 20.5612 4.26524 20.5365L6.89825 19.6866C8.09911 20.4873 9.47087 20.9955 10.9036 21.1705C12.3362 21.3455 13.79 21.1823 15.1483 20.6942C16.5065 20.206 17.7315 19.4064 18.7251 18.3594C19.7186 17.3125 20.453 16.0473 20.8694 14.6653C21.2858 13.2834 21.3726 11.8231 21.1229 10.4015C20.8731 8.97993 20.2938 7.63665 19.4313 6.47936C18.5689 5.32206 17.4472 4.38293 16.1564 3.73727C14.8655 3.09162 13.4413 2.75739 11.998 2.76139ZM17.3749 15.8063C17.185 16.1487 16.9202 16.4438 16.6002 16.6694C16.2803 16.8949 15.9134 17.0452 15.5271 17.109C15.0467 17.2106 14.4093 17.2938 12.2936 16.4161C10.4127 15.5065 8.81562 14.1011 7.67429 12.3511C7.04801 11.5527 6.66618 10.5901 6.5749 9.5795C6.56049 9.15977 6.6354 8.74176 6.79467 8.35314C6.95393 7.96453 7.19393 7.61418 7.49876 7.32528C7.75536 7.10461 8.08426 6.98621 8.42262 6.99268H8.7275C8.99542 6.99268 9.134 6.99268 9.31877 7.44538C9.50354 7.89807 10.0763 9.29311 10.141 9.44092C10.1895 9.5137 10.2192 9.59742 10.2272 9.68452C10.2353 9.77162 10.2215 9.85936 10.1872 9.93981C10.108 10.0963 10.0052 10.2396 9.88233 10.3648C9.75299 10.5218 9.61441 10.6419 9.48507 10.8082C9.39632 10.8732 9.33552 10.9694 9.31494 11.0774C9.29436 11.1854 9.31554 11.2973 9.3742 11.3903C9.78136 12.0752 10.2855 12.6975 10.8709 13.238C11.5033 13.8179 12.24 14.2724 13.0419 14.5776C13.1472 14.6288 13.2656 14.6465 13.3812 14.6283C13.4969 14.6101 13.6041 14.557 13.6886 14.476C13.9482 14.1836 14.1888 13.875 14.4093 13.5521C14.4765 13.4432 14.5817 13.3631 14.7046 13.3273C14.8274 13.2915 14.9592 13.3025 15.0744 13.3581C15.3239 13.4413 16.645 14.0972 16.9222 14.2265C17.1993 14.3559 17.3749 14.4298 17.4395 14.5407C17.5364 14.9603 17.514 15.3987 17.3749 15.8063Z" fill="#303236"/>
</svg>
