<svg width="24" height="24" viewBox="0 0 24 24" fill="none" xmlns="http://www.w3.org/2000/svg">
<path d="M12 2C17.523 2 22 6.477 22 12C22 17.523 17.523 22 12 22C6.477 22 2 17.523 2 12C2 6.477 6.477 2 12 2ZM16.2129 6.41016C15.9926 6.24439 15.68 6.288 15.5137 6.50781L11.9932 11.1777L8.39355 6.57031C8.22345 6.35257 7.90914 6.31427 7.69141 6.48438C7.47367 6.65448 7.43439 6.96879 7.60449 7.18652L11.3701 12.0049L7.68945 16.8906C7.52362 17.1111 7.56774 17.4247 7.78809 17.5908C8.00857 17.7569 8.32209 17.7126 8.48828 17.4922L12.0088 12.8213L15.6084 17.4307C15.7785 17.6481 16.0929 17.6865 16.3105 17.5166C16.5283 17.3465 16.5666 17.0322 16.3965 16.8145L12.6309 11.9941L16.3115 7.11035C16.4775 6.88983 16.4333 6.5763 16.2129 6.41016Z" fill="#303236"/>
</svg>
