<svg width="24" height="24" viewBox="0 0 24 24" fill="none" xmlns="http://www.w3.org/2000/svg">
<path d="M18.9569 5.63694C18.9513 5.62617 18.9421 5.61773 18.9309 5.61313C17.6342 5.01818 16.2658 4.59394 14.8599 4.35102C14.8472 4.34864 14.834 4.35035 14.8222 4.35591C14.8105 4.36147 14.8008 4.37059 14.7945 4.38197C14.6082 4.72016 14.439 5.06755 14.2877 5.42279C12.7723 5.19275 11.2308 5.19275 9.7154 5.42279C9.56307 5.06664 9.39121 4.71918 9.2006 4.38197C9.19406 4.37083 9.18432 4.36193 9.17265 4.35641C9.16098 4.35088 9.14791 4.34901 9.13516 4.35102C7.72916 4.59343 6.36067 5.01771 5.06412 5.61317C5.05302 5.61787 5.04366 5.62591 5.03732 5.63616C2.44449 9.50822 1.73421 13.2851 2.08265 17.0152C2.08363 17.0243 2.08644 17.0332 2.09091 17.0412C2.09538 17.0492 2.10142 17.0563 2.10867 17.0619C3.61845 18.1798 5.30716 19.0331 7.10273 19.5854C7.11538 19.5892 7.12888 19.589 7.14143 19.5849C7.15397 19.5808 7.16496 19.5729 7.1729 19.5624C7.55855 19.0377 7.90027 18.482 8.19457 17.9011C8.19862 17.8931 8.20093 17.8844 8.20135 17.8755C8.20177 17.8665 8.2003 17.8576 8.19702 17.8493C8.19375 17.841 8.18875 17.8334 8.18235 17.8272C8.17595 17.821 8.16831 17.8161 8.15991 17.8131C7.62106 17.6069 7.09938 17.3583 6.59977 17.0698C6.5907 17.0644 6.58308 17.0569 6.57758 17.048C6.57208 17.039 6.56888 17.0288 6.56826 17.0183C6.56764 17.0078 6.56962 16.9973 6.57401 16.9877C6.57841 16.9781 6.5851 16.9698 6.59348 16.9634C6.69861 16.8849 6.80191 16.804 6.90331 16.7207C6.91221 16.7134 6.92297 16.7087 6.93438 16.7071C6.9458 16.7056 6.95742 16.7073 6.96794 16.712C10.241 18.2058 13.7846 18.2058 17.019 16.712C17.0295 16.707 17.0413 16.705 17.0529 16.7064C17.0644 16.7078 17.0754 16.7125 17.0844 16.7199C17.1859 16.8036 17.2895 16.8848 17.395 16.9634C17.4035 16.9697 17.4102 16.978 17.4147 16.9875C17.4192 16.9971 17.4212 17.0076 17.4207 17.0181C17.4201 17.0286 17.417 17.0388 17.4116 17.0478C17.4061 17.0568 17.3986 17.0644 17.3895 17.0698C16.8911 17.3608 16.3689 17.6092 15.8286 17.8123C15.8203 17.8155 15.8126 17.8204 15.8063 17.8267C15.7999 17.8331 15.795 17.8407 15.7918 17.8491C15.7886 17.8575 15.7872 17.8664 15.7877 17.8754C15.7881 17.8844 15.7905 17.8931 15.7946 17.9011C16.0939 18.4788 16.4351 19.0337 16.8155 19.5615C16.8232 19.5723 16.8342 19.5804 16.8468 19.5847C16.8594 19.589 16.873 19.5892 16.8857 19.5853C18.6845 19.0349 20.3761 18.1815 21.8878 17.0619C21.8952 17.0566 21.9013 17.0497 21.9058 17.0418C21.9103 17.0338 21.913 17.025 21.9138 17.016C22.331 12.7036 21.2155 8.95767 18.9569 5.63694ZM8.68339 14.7439C7.69794 14.7439 6.88597 13.8396 6.88597 12.729C6.88597 11.6184 7.68219 10.714 8.68339 10.714C9.6924 10.714 10.4965 11.6262 10.4808 12.7289C10.4808 13.8396 9.68451 14.7439 8.68339 14.7439ZM15.329 14.7439C14.3436 14.7439 13.5316 13.8396 13.5316 12.729C13.5316 11.6184 14.3278 10.714 15.329 10.714C16.3381 10.714 17.1422 11.6262 17.1264 12.7289C17.1264 13.8396 16.3381 14.7439 15.329 14.7439Z" fill="#303236"/>
</svg>
