<svg width="24" height="24" viewBox="0 0 24 24" fill="none" xmlns="http://www.w3.org/2000/svg">
<path fill-rule="evenodd" clip-rule="evenodd" d="M4.8 3C3.80589 3 3 3.80589 3 4.8V19.2C3 20.1941 3.80589 21 4.8 21H19.2C20.1941 21 21 20.1941 21 19.2V4.8C21 3.80589 20.1941 3 19.2 3H4.8ZM15.8141 15.4204L17.46 15.3956H17.4622C17.4622 15.3956 18.3195 15.3427 17.919 14.6677C17.9158 14.6628 17.9112 14.6547 17.905 14.6435C17.8406 14.5287 17.5919 14.0848 16.695 13.2514C16.2591 12.8483 16.032 12.6427 16.008 12.4156C15.9752 12.1041 16.3248 11.7523 17.0426 10.7944C17.7986 9.78525 18.1001 9.16987 18.0056 8.90662C17.9145 8.6535 17.3587 8.71987 17.3587 8.71987L15.5058 8.73C15.5058 8.73 15.3686 8.712 15.2662 8.77162C15.1672 8.83125 15.1042 8.97187 15.1042 8.97187C15.1042 8.97187 14.8095 9.7515 14.4191 10.4164C13.5922 11.8181 13.2626 11.8924 13.1287 11.8046C12.8664 11.6367 12.8787 11.1798 12.8895 10.7793C12.8916 10.7023 12.8936 10.6274 12.8936 10.557C12.8936 10.2429 12.9047 9.97125 12.9143 9.7373C12.9462 8.95975 12.9609 8.59916 12.4931 8.48587C12.2928 8.43975 12.141 8.40487 11.628 8.4015C10.9665 8.39475 10.4073 8.40487 10.0912 8.56012C9.8797 8.66475 9.71771 8.89312 9.81671 8.90775C9.93596 8.92237 10.2138 8.982 10.3612 9.18225C10.5502 9.43875 10.5435 10.0192 10.5435 10.0192C10.5435 10.0192 10.6526 11.619 10.2903 11.8159C10.0406 11.9497 9.69633 11.6719 8.96171 10.4029C8.58483 9.75262 8.3002 9.0315 8.3002 9.0315C8.3002 9.0315 8.24846 8.89537 8.14946 8.8245C8.03021 8.73675 7.86483 8.70862 7.86483 8.70862L6.10308 8.71875C6.10308 8.71875 5.83871 8.7255 5.74083 8.84137C5.65308 8.94262 5.73408 9.15412 5.73408 9.15412C5.73408 9.15412 7.11108 12.3772 8.67258 14.0017C10.1036 15.4935 11.7281 15.3945 11.7281 15.3945H12.4627C12.4627 15.3945 12.6877 15.3697 12.8002 15.2471C12.906 15.1357 12.9026 14.9242 12.9026 14.9242C12.9026 14.9242 12.8891 13.9365 13.3458 13.7925C13.6199 13.7054 13.9405 14.0732 14.2872 14.4708C14.5139 14.7309 14.7518 15.0038 14.9951 15.1706C15.4586 15.4912 15.8141 15.4204 15.8141 15.4204Z" fill="#303236"/>
</svg>
