<svg width="24" height="24" viewBox="0 0 24 24" fill="none" xmlns="http://www.w3.org/2000/svg">
<path d="M11.9999 3C14.4454 3 14.7506 3.00884 15.71 3.05391C16.6695 3.09897 17.3209 3.24927 17.8951 3.47231C18.4932 3.70319 19.0364 4.05668 19.4898 4.51005C19.9432 4.96343 20.2967 5.50666 20.5276 6.10482C20.75 6.67809 20.9012 7.33123 20.9463 8.29011C20.9913 9.24899 21.0002 9.55474 21.0002 11.9999C21.0002 14.445 20.9911 14.7504 20.9463 15.7096C20.9015 16.6688 20.75 17.3208 20.5276 17.8949C20.2968 18.4931 19.9434 19.0364 19.49 19.4898C19.0366 19.9432 18.4933 20.2966 17.8951 20.5274C17.3218 20.7499 16.6686 20.901 15.71 20.9458C14.7514 20.9906 14.4454 21 11.9999 21C9.55452 21 9.24962 20.9909 8.29016 20.9458C7.3307 20.9007 6.67927 20.7499 6.10513 20.5274C5.5069 20.2966 4.9636 19.9432 4.5102 19.4898C4.05681 19.0364 3.70336 18.4931 3.4726 17.8949C3.24928 17.3216 3.09897 16.6685 3.05391 15.7096C3.00884 14.7507 3 14.4453 3 11.9999C3 9.55445 3.00884 9.24956 3.05391 8.29011C3.09897 7.33066 3.24928 6.67923 3.4726 6.10482C3.70348 5.50666 4.05697 4.96343 4.51035 4.51005C4.96373 4.05668 5.50697 3.70319 6.10513 3.47231C6.67927 3.24927 7.33155 3.09897 8.29016 3.05391C9.24877 3.00884 9.5548 3 11.9999 3ZM11.9999 7.49979C10.8064 7.49979 9.66182 7.9739 8.81788 8.81783C7.97395 9.66175 7.49983 10.8064 7.49983 11.9999C7.49983 13.1933 7.97395 14.338 8.81788 15.1819C9.66182 16.0258 10.8064 16.4999 11.9999 16.4999C13.1935 16.4999 14.3381 16.0258 15.182 15.1819C16.0259 14.338 16.5001 13.1933 16.5001 11.9999C16.5001 10.8064 16.0259 9.66175 15.182 8.81783C14.3381 7.9739 13.1935 7.49979 11.9999 7.49979ZM17.8503 7.27504C17.8503 7.05249 17.7844 6.83493 17.6608 6.64986C17.5372 6.46479 17.3615 6.32053 17.1559 6.23532C16.9503 6.15012 16.724 6.1278 16.5058 6.17118C16.2875 6.21456 16.087 6.3217 15.9296 6.47904C15.7722 6.63639 15.665 6.83687 15.6216 7.05514C15.5781 7.27341 15.6004 7.49966 15.6855 7.70527C15.7707 7.91088 15.9149 8.08662 16.1 8.21027C16.285 8.33392 16.5025 8.39991 16.7251 8.39991C17.0235 8.39991 17.3096 8.28141 17.5206 8.07046C17.7316 7.85952 17.8502 7.5734 17.8503 7.27504ZM11.9999 9.30004C12.534 9.29999 13.0561 9.4583 13.5002 9.75497C13.9442 10.0516 14.2904 10.4733 14.4948 10.9667C14.6992 11.4601 14.7527 12.003 14.6485 12.5268C14.5443 13.0506 14.2871 13.5318 13.9095 13.9094C13.5319 14.287 13.0507 14.5442 12.5269 14.6484C12.0031 14.7525 11.4602 14.6991 10.9668 14.4947C10.4734 14.2903 10.0517 13.9441 9.75504 13.5001C9.45837 13.056 9.30005 12.5339 9.30011 11.9999C9.30011 11.2838 9.58455 10.5971 10.0909 10.0908C10.5972 9.58449 11.2839 9.30004 11.9999 9.30004Z" fill="#303236"/>
</svg>
