<svg width="24" height="24" viewBox="0 0 24 24" fill="none" xmlns="http://www.w3.org/2000/svg">
<path fill-rule="evenodd" clip-rule="evenodd" d="M4.8 3C3.80589 3 3 3.80589 3 4.8V19.2C3 20.1941 3.80589 21 4.8 21H19.2C20.1941 21 21 20.1941 21 19.2V4.8C21 3.80589 20.1941 3 19.2 3H4.8ZM6.34564 17.5964H8.81608V9.65021H6.34564V17.5964ZM6.15 7.1319C6.15 7.92277 6.79103 8.5638 7.5819 8.5638C8.37069 8.5638 9.01172 7.92277 9.0138 7.1319C9.0138 6.34102 8.37069 5.7 7.5819 5.7C6.79103 5.7 6.15 6.34102 6.15 7.1319ZM15.5968 17.5964H18.0652V13.2383C18.0652 11.0988 17.6052 9.45249 15.1035 9.45249C13.9006 9.45249 13.0951 10.1123 12.7663 10.7366H12.733V9.65021H10.3645V17.5964H12.8308V13.6649C12.8308 12.6285 13.0285 11.6253 14.3127 11.6253C15.5801 11.6253 15.5968 12.8096 15.5968 13.7315V17.5964Z" fill="#303236"/>
</svg>
