<svg width="24" height="24" viewBox="0 0 24 24" fill="none" xmlns="http://www.w3.org/2000/svg">
<path fill-rule="evenodd" clip-rule="evenodd" d="M20.7467 14.4946C20.7467 13.9912 20.6634 13.5017 20.5037 13.033C21.3821 12.6442 21.9965 11.7659 22 10.7487C22 9.36699 20.8821 8.24913 19.5004 8.24913C18.5596 8.24913 17.7438 8.7664 17.3168 9.53363C16.0323 8.83236 14.4666 8.37758 12.762 8.27343L14.2548 4.92332L17.1085 5.74609C17.3654 6.47513 18.0597 6.99935 18.8755 6.99935C19.9101 6.99935 20.7502 6.15922 20.7502 5.12467C20.7502 4.09013 19.9101 3.25 18.8755 3.25C18.1604 3.25 17.539 3.64924 17.2231 4.23594L14.043 3.31596C13.6855 3.21181 13.3071 3.38539 13.1578 3.72561L11.1304 8.2769C9.46745 8.39147 7.93994 8.84278 6.68321 9.53016C6.25621 8.76293 5.44038 8.24566 4.49957 8.24566C3.11786 8.24566 2 9.36352 2 10.7452C2 11.7694 2.61448 12.6442 3.4928 13.033C3.3331 13.5017 3.24978 13.9912 3.24978 14.4946C3.24978 17.9454 7.16577 20.7435 11.9983 20.7435C16.8308 20.7435 20.7467 17.9454 20.7467 14.4946ZM14.5571 15.9144C14.0398 16.3206 13.0191 16.758 11.9985 16.758C10.9778 16.758 9.9537 16.3206 9.4399 15.9144C9.11704 15.661 8.65184 15.7165 8.39841 16.0394C8.14498 16.3622 8.20053 16.8274 8.52339 17.0808C9.4156 17.7891 10.7799 18.2438 11.9985 18.2438C13.217 18.2438 14.5814 17.7891 15.477 17.0808C15.7999 16.8274 15.8555 16.3588 15.602 16.0394C15.3486 15.7165 14.8799 15.661 14.5571 15.9144ZM4.49978 9.49536C3.80893 9.49536 3.25 10.0543 3.25 10.7451C3.25 11.2694 3.57633 11.7207 4.03459 11.9047C4.43382 11.2763 4.9754 10.707 5.62806 10.2105C5.43018 9.78698 4.99622 9.49536 4.49978 9.49536ZM6.99848 13.2448C6.99848 13.5762 7.13015 13.8941 7.36453 14.1285C7.59891 14.3629 7.9168 14.4945 8.24826 14.4945C8.57973 14.4945 8.89761 14.3629 9.13199 14.1285C9.36637 13.8941 9.49805 13.5762 9.49805 13.2448C9.49805 12.9133 9.36637 12.5954 9.13199 12.361C8.89761 12.1267 8.57973 11.995 8.24826 11.995C7.9168 11.995 7.59891 12.1267 7.36453 12.361C7.13015 12.5954 6.99848 12.9133 6.99848 13.2448ZM14.8623 14.1285C14.6279 13.8941 14.4962 13.5762 14.4962 13.2448C14.4962 12.9133 14.6279 12.5954 14.8623 12.361C15.0966 12.1267 15.4145 11.995 15.746 11.995C16.0774 11.995 16.3953 12.1267 16.6297 12.361C16.8641 12.5954 16.9958 12.9133 16.9958 13.2448C16.9958 13.5762 16.8641 13.8941 16.6297 14.1285C16.3953 14.3629 16.0774 14.4945 15.746 14.4945C15.4145 14.4945 15.0966 14.3629 14.8623 14.1285ZM19.4967 9.49546C19.0003 9.49546 18.5664 9.78707 18.3685 10.2106C19.0211 10.7071 19.5627 11.2764 19.9619 11.9048C20.4202 11.7208 20.7465 11.2695 20.7465 10.7452C20.7465 10.0544 20.1876 9.49546 19.4967 9.49546Z" fill="#303236"/>
</svg>
