<svg width="24" height="24" viewBox="0 0 24 24" fill="none" xmlns="http://www.w3.org/2000/svg">
<path d="M13.2833 11.9834C13.2878 13.4848 12.6961 14.9267 11.6384 15.9923C10.5806 17.0579 9.14313 17.6601 7.64169 17.6667C6.14024 17.6601 4.70279 17.0579 3.64501 15.9923C2.58723 14.9267 1.99559 13.4848 2.00002 11.9834C1.99559 10.4819 2.58723 9.04008 3.64501 7.97449C4.70279 6.9089 6.14024 6.30667 7.64169 6.30005C9.14313 6.30667 10.5806 6.9089 11.6384 7.97449C12.6961 9.04008 13.2878 10.4819 13.2833 11.9834ZM19.4667 11.9834C19.4667 14.9334 18.2083 17.3334 16.65 17.3334C15.0917 17.3334 13.825 14.9334 13.825 11.9834C13.825 9.03338 15.0917 6.63338 16.65 6.63338C18.2083 6.63338 19.4667 9.03338 19.4667 11.9834ZM22 11.9834C22 14.625 21.5583 16.775 21.0083 16.775C20.4583 16.775 20.0167 14.625 20.0167 11.9834C20.0167 9.34171 20.4583 7.19171 21.0083 7.19171C21.5583 7.19171 22 9.34171 22 11.9834Z" fill="#303236"/>
</svg>
