<svg width="24" height="24" viewBox="0 0 24 24" fill="none" xmlns="http://www.w3.org/2000/svg">
<path d="M11.9998 2C14.374 2.00045 16.671 2.84036 18.4793 4.37012C20.2875 5.89981 21.4891 8.01958 21.8699 10.3496C22.2507 12.6798 21.7857 15.0695 20.5574 17.0898C19.3292 19.1101 17.4178 20.6302 15.1658 21.3779C14.6595 21.4749 14.4785 21.1654 14.4783 20.9004C14.4783 20.5727 14.49 19.5022 14.49 18.1719C14.49 17.2433 14.171 16.6386 13.8133 16.3291C16.0387 16.0837 18.3786 15.2426 18.3787 11.4248C18.3937 10.4352 18.0236 9.47738 17.3465 8.75195C17.4492 8.49817 17.7923 7.48756 17.2479 6.11816C17.2479 6.11816 16.4091 5.85081 14.4998 7.13672C12.861 6.6912 11.1318 6.69115 9.49297 7.13672C7.58208 5.85084 6.74199 6.11816 6.74199 6.11816C6.19933 7.49049 6.5415 8.50112 6.64434 8.75195C5.96941 9.47719 5.60134 10.4329 5.61504 11.4209C5.61504 15.2308 7.94948 16.0837 10.1717 16.334C9.88521 16.5826 9.62536 17.0213 9.53594 17.665C8.96631 17.9219 7.51762 18.3609 6.62676 16.8418C6.62676 16.8418 6.09839 15.8865 5.09355 15.8154C5.09355 15.8154 4.11776 15.8041 5.0252 16.4199C5.0295 16.4219 5.68236 16.7266 6.13457 17.875C6.13457 17.875 6.72277 19.6508 9.50469 19.0498C9.508 19.8795 9.51738 20.6386 9.51738 20.9004C9.5172 21.1621 9.33022 21.47 8.83379 21.3779C6.58205 20.6303 4.67145 19.1098 3.44316 17.0898C2.21492 15.0699 1.74939 12.6815 2.12969 10.3516C2.51 8.02172 3.71079 5.90208 5.51836 4.37207C7.32608 2.84202 9.6229 2.00123 11.9969 2H11.9998Z" fill="#303236"/>
<path d="M8.47246 18.0859C8.59169 18.0843 8.68926 18.1481 8.68926 18.2305C8.68918 18.3111 8.59652 18.3802 8.47734 18.3818C8.35847 18.3833 8.26083 18.3177 8.26055 18.2373C8.26055 18.1567 8.35339 18.0877 8.47246 18.0859Z" fill="#303236"/>
<path d="M9.21172 17.9951C9.32746 17.9739 9.43512 18.0239 9.45 18.1045C9.46458 18.1851 9.38154 18.2684 9.2625 18.2881C9.14337 18.3078 9.0392 18.2606 9.02422 18.1816C9.00932 18.1026 9.09581 18.0165 9.21172 17.9951Z" fill="#303236"/>
<path d="M7.70293 17.9707C7.81694 18.0068 7.89002 18.0943 7.86895 18.1748C7.84412 18.2521 7.73147 18.2867 7.61895 18.2539C7.50634 18.221 7.4314 18.1288 7.45293 18.0498C7.47465 17.971 7.58889 17.9346 7.70293 17.9707Z" fill="#303236"/>
<path d="M6.80645 17.5605C6.86106 17.5013 6.97186 17.5171 7.06621 17.5977C7.16055 17.6783 7.17876 17.7923 7.1209 17.8516C7.06625 17.9125 6.95514 17.8958 6.86406 17.8135C6.77315 17.7312 6.7519 17.6198 6.80645 17.5605Z" fill="#303236"/>
<path d="M6.36113 16.9746C6.4224 16.9334 6.52681 16.9746 6.58477 17.0586C6.64262 17.1425 6.6443 17.2541 6.58477 17.2969C6.52355 17.3396 6.41912 17.2974 6.36113 17.2119C6.34511 17.1966 6.33273 17.1776 6.32402 17.1572C6.31532 17.1369 6.31035 17.1149 6.31035 17.0928C6.31037 17.0707 6.31534 17.0486 6.32402 17.0283C6.33269 17.0081 6.34526 16.9899 6.36113 16.9746Z" fill="#303236"/>
<path d="M5.95586 16.4727C6.00555 16.4299 6.09541 16.4504 6.15996 16.5195C6.22424 16.5887 6.23884 16.6838 6.18926 16.7266C6.15514 16.7436 6.11617 16.7485 6.07891 16.7402C6.04151 16.7318 6.00771 16.7107 5.98418 16.6807C5.9196 16.6115 5.90618 16.5155 5.95586 16.4727Z" fill="#303236"/>
<path d="M5.69805 16.1289C5.76263 16.1635 5.81175 16.2299 5.78691 16.2793C5.76517 16.3284 5.6863 16.3431 5.62188 16.3086C5.55745 16.2741 5.50923 16.2102 5.53203 16.1592C5.55521 16.1082 5.63348 16.0944 5.69805 16.1289Z" fill="#303236"/>
</svg>
