<svg width="24" height="24" viewBox="0 0 24 24" fill="none" xmlns="http://www.w3.org/2000/svg">
<path d="M20 10.299C18.4272 10.3028 16.893 9.81228 15.6141 8.89682V15.2815C15.6137 16.464 15.2522 17.6182 14.5781 18.5898C13.904 19.5614 12.9493 20.3039 11.8418 20.7183C10.7342 21.1326 9.52657 21.199 8.3803 20.9084C7.23403 20.6179 6.20377 19.9843 5.4273 19.0925C4.65082 18.2006 4.16513 17.0929 4.03518 15.9176C3.90522 14.7422 4.13719 13.5552 4.70007 12.5152C5.26295 11.4753 6.12991 10.6319 7.18502 10.098C8.24013 9.56408 9.4331 9.36498 10.6044 9.52736V12.7386C10.0684 12.57 9.49286 12.5751 8.95992 12.7532C8.42698 12.9312 7.96392 13.2731 7.63688 13.73C7.30983 14.1869 7.13551 14.7354 7.13882 15.2973C7.14213 15.8592 7.32289 16.4056 7.6553 16.8586C7.98771 17.3117 8.45477 17.6481 8.98976 17.8198C9.52476 17.9915 10.1003 17.9898 10.6343 17.8149C11.1683 17.64 11.6333 17.3009 11.9631 16.8459C12.2928 16.3909 12.4703 15.8434 12.4703 15.2815V2.80005H15.6141C15.6119 3.06553 15.6341 3.33066 15.6805 3.59206C15.7898 4.17562 16.0169 4.73075 16.3481 5.22351C16.6792 5.71627 17.1074 6.1363 17.6064 6.4579C18.3164 6.92735 19.1488 7.17757 20 7.17739V10.299Z" fill="#303236"/>
</svg>
