<svg width="24" height="24" viewBox="0 0 24 24" fill="none" xmlns="http://www.w3.org/2000/svg">
<path d="M9.27635 9.96025C9.6142 9.62238 10.1621 9.62238 10.5 9.96025C10.8373 10.298 10.8373 10.8452 10.5 11.1829L9.40037 12.2825L11.7168 14.5989L12.8154 13.4993C13.1523 13.1624 13.6978 13.1619 14.0361 13.4974C14.3764 13.8348 14.3779 14.3841 14.039 14.7229L12.9424 15.8196L14.0459 16.9222C14.1253 17.0016 14.1251 17.1327 14.0459 17.2122L11.4316 19.8265C10.4288 20.8291 9.11575 21.3294 7.80271 21.3294C6.79739 21.3294 5.79201 21.0368 4.92771 20.4495L3.66404 21.7122C3.28358 22.0927 2.66693 22.0933 2.28611 21.7132C1.90501 21.3327 1.90457 20.7152 2.28514 20.3343L3.54783 19.0716C2.19623 17.076 2.40372 14.3369 4.17088 12.5696L6.78221 9.95635C6.82317 9.91794 6.8765 9.89685 6.92771 9.89678C6.98158 9.89678 7.03316 9.91531 7.0742 9.95635L8.17674 11.0589L9.27635 9.96025ZM20.334 2.28545C20.715 1.90436 21.3338 1.90436 21.7148 2.28545C22.0956 2.66642 22.0955 3.28431 21.7148 3.66533L20.4521 4.92705C21.8038 6.92263 21.5963 9.66012 19.8291 11.43L17.2158 14.0433C17.1748 14.0817 17.1206 14.1028 17.0693 14.1028C17.0155 14.1028 16.9639 14.0843 16.9228 14.0433L9.95408 7.07451C9.87473 6.99503 9.87474 6.86396 9.95408 6.78447L12.5683 4.17119C13.5712 3.16828 14.8841 2.6673 16.1972 2.66728C17.2025 2.66728 18.208 2.95993 19.0722 3.54717L20.334 2.28545Z" fill="#303236"/>
</svg>
